<?xml version="1.0" standalone="no"?>
<!DOCTYPE svg PUBLIC "-//W3C//DTD SVG 20010904//EN"
 "http://www.w3.org/TR/2001/REC-SVG-20010904/DTD/svg10.dtd">
<svg version="1.0" xmlns="http://www.w3.org/2000/svg"
 width="892.000000pt" height="892.000000pt" viewBox="0 0 892.000000 892.000000"
 preserveAspectRatio="xMidYMid meet">
<metadata>
Created by potrace 1.11, written by Peter Selinger 2001-2013
</metadata>
<g transform="translate(0.000000,892.000000) scale(0.100000,-0.100000)"
fill="#000000" stroke="none">
<path d="M5260 8886 c0 -19 -4 -45 -9 -59 -12 -30 -3 -44 32 -52 15 -4 30 -11
33 -16 13 -21 32 -6 38 30 4 25 15 46 30 58 14 10 28 30 32 46 l6 27 -81 0
-81 0 0 -34z"/>
<path d="M6931 8904 c6 -8 8 -14 3 -14 -5 -1 2 -7 16 -15 17 -10 20 -14 9 -15
-26 0 -72 -27 -60 -35 8 -4 8 -12 1 -26 -6 -10 -10 -25 -9 -32 4 -29 -2 -83
-10 -96 -5 -8 -35 -16 -71 -20 l-62 -6 -4 -37 c-2 -21 -8 -73 -13 -115 -9 -69
-14 -155 -12 -190 1 -7 8 -13 16 -13 8 0 23 -9 33 -21 9 -11 27 -25 40 -30 29
-11 42 -46 31 -83 -6 -19 -5 -34 2 -43 9 -10 7 -13 -10 -13 -19 0 -21 -5 -21
-68 0 -40 -5 -73 -12 -80 -7 -7 -35 -12 -64 -12 l-52 0 -5 -52 c-3 -29 -12
-105 -20 -168 -13 -103 -13 -117 1 -132 21 -24 28 -23 40 10 16 43 35 62 67
68 16 3 35 10 42 16 10 8 13 7 13 -3 1 -9 5 -8 15 5 8 11 15 14 15 8 0 -7 6
-12 14 -12 8 0 16 16 20 40 5 29 10 38 21 34 8 -4 15 -10 15 -15 0 -5 7 -9 15
-9 9 0 18 -7 21 -15 8 -21 24 -19 24 4 0 10 8 25 17 32 15 13 16 11 10 -17 -6
-29 -4 -32 18 -30 18 1 23 5 19 18 -2 9 0 19 6 23 6 4 15 18 20 31 5 13 13 23
17 22 13 -2 46 14 82 40 27 20 35 22 42 11 5 -8 9 -10 9 -4 0 5 5 4 12 -3 8
-8 8 -15 -2 -27 -11 -13 -9 -15 14 -15 17 0 26 -5 26 -16 0 -14 3 -14 15 -4 8
7 15 18 15 24 -1 21 55 126 66 126 8 0 8 -11 -2 -37 -17 -48 -17 -63 -1 -59 6
3 24 7 39 10 21 5 29 14 34 42 8 43 27 40 35 -7 4 -19 7 -28 8 -21 0 6 8 12
16 12 7 0 18 8 24 18 9 16 10 16 16 -1 4 -9 4 -24 1 -33 -7 -18 28 -59 43 -49
6 3 11 13 11 21 0 8 5 14 10 14 6 0 10 -6 10 -12 0 -9 3 -8 10 2 5 8 12 12 15
8 4 -3 15 2 26 13 18 18 21 18 43 4 16 -11 26 -13 31 -5 3 6 11 8 16 5 5 -4
16 1 25 9 17 18 38 11 30 -9 -2 -7 1 -21 8 -31 12 -16 14 -15 20 10 4 18 12
26 21 22 7 -2 15 0 17 6 2 6 13 12 24 13 10 1 27 5 36 9 24 11 40 -2 36 -27
-3 -19 3 -23 32 -25 19 -2 42 -10 51 -18 12 -11 50 -16 135 -20 66 -2 144 -9
174 -13 86 -15 130 -13 130 3 0 27 20 27 44 2 l23 -26 27 40 c42 64 55 52 31
-27 -6 -20 -4 -23 19 -23 15 0 29 7 32 15 9 22 24 18 24 -5 0 -21 33 -29 45
-11 7 12 46 11 63 -2 7 -5 22 -11 35 -13 12 -1 37 -7 55 -13 l32 -10 0 605 0
604 -385 0 c-290 0 -390 -3 -406 -12 -17 -10 -23 -10 -26 0 -6 14 -83 17 -83
2 0 -6 -35 -10 -86 -10 -69 0 -85 -3 -81 -14 6 -16 -36 -38 -58 -30 -21 8 -19
21 4 29 31 9 35 35 6 35 -14 0 -25 -4 -25 -10 0 -5 -11 -10 -25 -10 -14 0 -25
5 -25 10 0 6 -7 10 -15 10 -8 0 -15 -4 -15 -10 0 -5 -7 -10 -15 -10 -8 0 -15
-7 -15 -15 0 -8 -9 -15 -20 -15 -20 0 -20 1 -4 25 l17 26 -372 -1 c-321 -1
-371 -3 -360 -16z m399 -34 c0 -5 -7 -10 -15 -10 -8 0 -15 5 -15 10 0 6 7 10
15 10 8 0 15 -4 15 -10z m610 -10 c0 -18 -3 -19 -20 -10 -11 6 -20 15 -20 20
0 6 9 10 20 10 13 0 20 -7 20 -20z m160 0 c0 -18 -3 -19 -20 -10 -22 12 -18
30 6 30 8 0 14 -9 14 -20z m108 11 c21 -13 -12 -33 -45 -28 -27 4 -27 5 -5 12
12 4 22 11 22 16 0 11 11 11 28 0z m107 -4 c26 -20 3 -30 -30 -13 -17 9 -22
16 -13 19 20 8 23 8 43 -6z m-1160 -17 c3 -5 1 -10 -4 -10 -6 0 -11 5 -11 10
0 6 2 10 4 10 3 0 8 -4 11 -10z m-100 -301 c0 -25 4 -33 15 -30 29 7 82 3 93
-8 6 -6 13 -29 14 -51 l3 -40 -63 -2 c-58 -2 -120 -1 -159 1 -14 1 -18 10 -18
35 0 52 9 66 41 66 25 0 29 4 29 29 0 28 14 42 35 37 6 -2 10 -18 10 -37z
m-10 -449 c15 -6 6 -9 -32 -9 -29 -1 -53 4 -53 9 0 12 57 12 85 0z m262 2 c7
-4 -20 -6 -60 -4 -108 5 -122 9 -32 10 44 1 85 -2 92 -6z m96 1 c-7 -2 -21 -2
-30 0 -10 3 -4 5 12 5 17 0 24 -2 18 -5z m297 -3 c0 -5 -2 -10 -4 -10 -3 0 -8
5 -11 10 -3 6 -1 10 4 10 6 0 11 -4 11 -10z m70 0 c12 -8 9 -10 -12 -10 -16 0
-28 5 -28 10 0 13 20 13 40 0z m-700 -290 c0 -5 -7 -10 -16 -10 -8 0 -12 5 -9
10 3 6 10 10 16 10 5 0 9 -4 9 -10z m-153 -6 c-3 -3 -12 -4 -19 -1 -8 3 -5 6
6 6 11 1 17 -2 13 -5z"/>
<path d="M7136 8491 c-4 -7 -5 -15 -2 -18 9 -9 19 4 14 18 -4 11 -6 11 -12 0z"/>
<path d="M1585 8821 c-3 -5 -1 -12 5 -16 5 -3 10 1 10 9 0 18 -6 21 -15 7z"/>
<path d="M14 8695 c8 -8 19 -15 24 -15 6 0 12 -6 15 -12 7 -22 19 -1 12 21 -5
15 -15 21 -36 21 -27 0 -29 -2 -15 -15z"/>
<path d="M153 8683 c9 -2 23 -2 30 0 6 3 -1 5 -18 5 -16 0 -22 -2 -12 -5z"/>
<path d="M73 8621 c-3 -12 -13 -21 -25 -21 -11 0 -22 -9 -25 -20 -3 -11 -9
-20 -14 -20 -14 0 -11 -38 4 -43 10 -4 10 -6 0 -6 -7 -1 -13 -8 -13 -17 0 -14
8 -16 46 -10 37 5 49 3 59 -11 14 -18 102 -25 146 -11 19 7 38 4 65 -7 25 -10
41 -12 48 -5 14 14 53 13 59 -2 5 -16 37 8 37 27 0 17 -65 28 -89 15 -11 -5
-32 -10 -46 -10 -24 0 -26 3 -21 25 5 18 3 23 -8 19 -9 -4 -16 8 -22 38 -8 42
-8 42 -12 11 -4 -41 -13 -41 -45 -3 -14 17 -30 30 -36 30 -6 0 -11 4 -11 9 0
5 -12 11 -27 13 -16 3 -36 9 -46 13 -14 6 -20 2 -24 -14z m95 -46 c-2 -14 -7
-26 -13 -26 -5 0 -11 12 -13 26 -2 18 1 25 13 25 12 0 15 -7 13 -25z"/>
<path d="M3067 8619 c-77 -11 -112 -32 -43 -26 59 6 91 -4 98 -31 9 -32 -48
-40 -242 -37 -212 4 -294 11 -298 25 -2 5 -16 10 -32 10 -20 0 -30 -6 -35 -22
-6 -20 -8 -20 -12 -5 -7 26 -60 26 -80 0 -6 -8 -16 -12 -22 -9 -6 4 -22 -7
-37 -23 -28 -32 -49 -31 -59 0 -5 14 -12 18 -25 14 -10 -3 -48 4 -85 16 -59
19 -72 20 -111 9 -32 -9 -51 -10 -71 -2 -44 17 -359 13 -374 -4 -9 -11 -7 -14
10 -14 22 0 28 -19 11 -36 -6 -6 -49 -9 -100 -7 -92 3 -107 -4 -69 -30 15 -11
17 -17 8 -23 -7 -4 -14 -3 -16 3 -2 6 -32 9 -73 7 -72 -2 -86 7 -52 32 14 11
8 13 -48 12 -56 0 -93 6 -170 29 -12 3 -12 6 -1 12 16 11 6 16 -41 25 -31 6
-38 4 -38 -9 0 -8 -9 -15 -20 -15 -21 0 -28 -24 -10 -35 6 -3 10 -24 10 -46
l0 -39 43 0 c24 0 48 -5 54 -11 7 -7 23 -7 53 1 51 14 115 15 230 5 75 -7 140
-29 126 -43 -3 -3 -53 -7 -111 -9 -77 -3 -105 -1 -105 7 0 7 -8 10 -20 7 -11
-3 -17 -1 -14 4 7 11 -40 2 -71 -14 -24 -12 -319 -11 -413 3 -38 5 -82 6 -98
1 -16 -4 -54 -4 -84 1 -117 19 -130 20 -130 9 0 -6 -7 -11 -16 -11 -8 0 -12 4
-9 10 3 5 -7 12 -22 15 -15 3 -47 11 -69 17 -23 5 -56 7 -73 3 -17 -3 -63 -2
-103 4 -40 6 -103 12 -141 14 l-67 3 0 -109 0 -109 498 6 c273 3 504 5 512 6
8 0 60 0 115 0 55 1 128 3 163 6 148 12 322 11 348 -2 21 -11 29 -11 47 1 17
10 33 11 71 4 34 -6 53 -6 62 2 8 6 40 10 71 10 32 -1 81 -3 108 -4 28 0 95 0
150 1 55 2 107 3 115 3 8 0 74 2 145 3 77 2 133 -1 136 -7 4 -5 12 -6 18 -3 6
4 125 7 264 6 209 -1 451 0 542 2 11 0 34 -1 50 -2 17 -1 62 -2 100 -2 39 0
79 -1 90 -1 11 0 56 0 100 1 44 0 92 1 108 1 15 0 33 0 40 1 6 0 32 0 57 0 25
0 54 0 65 1 11 0 54 -1 95 -4 41 -2 83 0 93 5 10 5 17 5 17 -1 0 -15 499 -14
516 0 11 9 14 8 14 0 0 -9 15 -11 53 -6 92 11 191 13 209 4 10 -6 19 -5 23 2
4 6 12 8 19 6 6 -3 34 -1 61 3 28 4 60 4 71 -1 12 -4 31 -5 43 -2 21 5 21 7 5
31 -13 19 -13 26 -3 32 23 15 41 -1 35 -30 -5 -27 -3 -28 40 -32 41 -3 45 -1
50 22 3 14 7 31 10 38 3 9 37 12 136 11 101 0 145 4 183 16 69 24 85 33 85 52
0 12 -5 13 -22 7 -13 -4 -158 -9 -323 -11 -165 -1 -312 -5 -328 -7 -15 -2 -30
1 -33 6 -3 5 -34 8 -67 7 -34 -1 -82 3 -106 10 -25 7 -58 10 -74 7 -16 -3 -38
-1 -48 5 -18 9 -40 10 -114 7 -11 0 -92 2 -180 6 -88 4 -169 7 -181 7 -11 0
-30 8 -42 19 -21 20 -21 20 -58 -5 -44 -30 -45 -30 -74 -5 -17 15 -37 20 -77
20 -36 0 -60 5 -70 16 -10 10 -25 13 -44 9 -19 -4 -29 -3 -29 5 0 17 -86 7
-108 -13 -10 -9 -26 -17 -35 -17 -9 0 -17 -4 -17 -10 0 -5 -10 -10 -22 -9 -22
0 -22 1 -3 9 20 9 16 12 -20 14 -12 1 -21 11 -25 26 -5 21 -11 25 -40 22 -19
-1 -41 -9 -50 -17 -22 -20 -50 -19 -66 3 -13 16 -13 16 -14 0 0 -13 -8 -18
-26 -18 -22 0 -25 2 -14 15 16 19 9 19 -36 0 -21 -9 -47 -12 -63 -8 -31 7 -81
59 -81 85 0 14 -5 17 -24 12 -17 -4 -31 2 -54 25 -17 17 -32 30 -34 30 -2 -1
-29 -5 -61 -10z m-847 -139 c0 -5 -5 -10 -11 -10 -5 0 -7 5 -4 10 3 6 8 10 11
10 2 0 4 -4 4 -10z m1692 -38 c-27 -4 -37 2 -27 17 4 8 13 7 28 -1 l22 -13
-23 -3z m-700 -44 c23 -7 59 -8 95 -3 64 8 128 7 157 -1 35 -11 -2 -19 -101
-23 -54 -1 -125 -6 -158 -10 -50 -5 -64 -3 -86 12 -15 10 -35 17 -45 15 -15
-2 -11 -7 16 -20 l35 -18 -55 1 c-30 0 -49 3 -42 6 14 5 16 29 3 37 -17 11
-43 -6 -38 -25 3 -11 1 -19 -4 -19 -5 0 -9 9 -9 20 0 14 -7 20 -22 20 l-23 1
24 13 c28 15 194 12 253 -6z m-967 -38 c18 -20 17 -20 -106 -19 -127 1 -133
10 -19 29 80 13 106 11 125 -10z m277 -8 c-37 -4 -47 1 -38 17 4 6 17 6 39 -2
l32 -12 -33 -3z m1523 18 c3 -5 -3 -10 -14 -10 -12 0 -21 5 -21 10 0 6 6 10
14 10 8 0 18 -4 21 -10z m55 0 c0 -5 -7 -10 -16 -10 -8 0 -12 5 -9 10 3 6 10
10 16 10 5 0 9 -4 9 -10z m-1245 -10 c3 -5 -1 -10 -9 -10 -8 0 -18 5 -21 10
-3 6 1 10 9 10 8 0 18 -4 21 -10z m115 0 c0 -5 -20 -10 -44 -10 -25 0 -48 5
-51 10 -4 6 13 10 44 10 28 0 51 -4 51 -10z m703 3 c-7 -2 -19 -2 -25 0 -7 3
-2 5 12 5 14 0 19 -2 13 -5z m-1973 -13 c0 -6 -26 -10 -57 -10 -41 0 -54 3
-43 10 20 13 100 13 100 0z m150 -6 c0 -2 -33 -3 -72 -3 -58 2 -65 3 -33 8 39
6 105 3 105 -5z"/>
<path d="M3486 8611 c15 -15 87 -18 92 -3 2 8 -12 12 -49 12 -32 0 -49 -4 -43
-9z"/>
<path d="M3605 8611 c-3 -5 -1 -12 5 -16 5 -3 10 1 10 9 0 18 -6 21 -15 7z"/>
<path d="M2777 8573 c-13 -12 -7 -43 8 -43 9 0 15 9 15 25 0 24 -10 32 -23 18z"/>
<path d="M3620 8570 c0 -5 5 -10 11 -10 5 0 7 5 4 10 -3 6 -8 10 -11 10 -2 0
-4 -4 -4 -10z"/>
<path d="M5060 8566 c0 -8 -6 -17 -12 -19 -7 -3 2 -6 21 -6 33 -1 34 -1 16 19
-22 24 -25 25 -25 6z"/>
<path d="M5126 8562 c-11 -18 13 -25 83 -24 36 0 73 -4 81 -8 17 -8 40 -3 40
10 0 5 -28 11 -62 13 -35 3 -79 9 -99 12 -22 4 -39 3 -43 -3z"/>
<path d="M641 8541 c-18 -14 -22 -23 -16 -42 11 -34 34 -48 78 -49 53 0 50 25
-4 34 -37 6 -40 8 -24 20 12 9 15 19 11 34 -9 27 -14 27 -45 3z"/>
<path d="M4100 8548 c0 -4 9 -8 19 -8 11 0 21 -5 23 -10 2 -6 21 -11 43 -13
31 -1 40 2 43 16 4 21 -27 35 -38 17 -5 -8 -10 -8 -14 -2 -7 12 -76 12 -76 0z"/>
<path d="M5610 8539 c-19 -5 -58 -6 -86 -3 -53 6 -87 -11 -42 -20 13 -3 37 -8
53 -12 17 -3 67 -9 113 -11 l82 -4 0 25 c0 22 -4 26 -29 26 -16 0 -35 2 -43 4
-7 2 -29 0 -48 -5z"/>
<path d="M1600 8525 c0 -8 5 -15 10 -15 6 0 10 7 10 15 0 8 -4 15 -10 15 -5 0
-10 -7 -10 -15z"/>
<path d="M515 8510 c3 -5 11 -10 16 -10 6 0 7 5 4 10 -3 6 -11 10 -16 10 -6 0
-7 -4 -4 -10z"/>
<path d="M502 8479 c5 -16 81 -29 100 -18 19 12 8 17 -51 25 -44 6 -53 4 -49
-7z"/>
<path d="M871 8451 c-19 -12 62 -35 91 -25 20 6 19 8 -11 20 -38 16 -60 17
-80 5z"/>
<path d="M1440 8450 c0 -5 5 -10 10 -10 6 0 10 5 10 10 0 6 -4 10 -10 10 -5 0
-10 -4 -10 -10z"/>
<path d="M1205 8370 c-3 -5 -1 -10 4 -10 6 0 11 5 11 10 0 6 -2 10 -4 10 -3 0
-8 -4 -11 -10z"/>
<path d="M4758 8163 c-65 -2 -118 -7 -118 -12 0 -8 -29 -8 -45 0 -21 11 -87
11 -81 0 4 -6 13 -11 21 -11 7 0 27 -17 44 -39 17 -21 50 -48 73 -60 24 -12
54 -28 68 -36 22 -12 28 -12 50 2 17 12 53 18 115 21 149 6 183 -26 185 -173
1 -64 4 -72 28 -91 28 -22 101 -48 165 -59 l37 -6 1 73 c1 40 1 76 0 81 -1 4
10 25 24 47 l25 39 -35 26 c-18 15 -35 36 -37 48 -2 16 -11 23 -32 25 -35 4
-54 -11 -38 -31 7 -8 10 -16 7 -19 -3 -3 -10 -31 -16 -64 -19 -110 -29 -120
-51 -51 -9 28 -12 67 -8 117 l5 75 45 5 c35 4 45 9 44 23 0 9 -1 31 -2 47 l-2
30 -177 -2 c-98 -1 -231 -4 -295 -5z"/>
<path d="M0 7900 c0 -157 4 -249 9 -241 7 10 13 12 23 5 14 -11 20 -11 59 0
14 4 47 9 75 10 81 6 253 26 354 42 151 24 259 36 342 38 42 0 79 4 83 7 3 4
31 0 61 -8 41 -10 59 -11 69 -3 10 8 19 8 33 -1 17 -10 24 -10 37 1 14 11 18
11 25 0 5 -8 18 -11 38 -7 17 3 32 2 34 -2 2 -5 26 -11 53 -14 28 -4 61 -9 75
-12 14 -3 19 -3 13 1 -7 3 -13 10 -13 15 0 17 25 9 54 -16 16 -14 32 -25 35
-25 4 0 3 43 -1 96 -3 52 -9 152 -13 222 -3 70 -9 130 -13 134 -4 4 -328 8
-720 10 l-712 3 0 -255z"/>
<path d="M1809 8136 c-3 -3 -4 -34 -2 -68 8 -144 10 -219 12 -320 1 -107 1
-108 25 -108 13 0 26 5 28 11 5 16 61 15 66 -1 3 -9 7 -9 13 1 7 11 14 8 34
-13 29 -34 49 -37 40 -7 -7 21 -7 21 24 -2 38 -28 50 -19 22 17 -18 23 -21 40
-21 115 0 78 3 91 24 116 l24 28 338 3 c243 2 346 -1 366 -9 44 -18 60 -59 57
-143 -1 -39 2 -84 6 -100 8 -29 8 -29 16 -7 5 12 13 20 18 16 5 -3 13 0 16 6
4 5 13 8 20 5 7 -2 16 2 19 10 7 19 26 18 26 -1 0 -19 29 -20 36 -1 3 8 12 12
20 9 9 -3 14 1 14 12 0 9 6 15 13 12 7 -2 11 -17 9 -34 -1 -16 2 -40 7 -54
l10 -24 0 28 c1 16 5 26 9 23 5 -3 17 12 27 32 l19 37 6 -35 7 -35 8 33 c9 40
25 42 25 3 0 -17 4 -32 8 -35 5 -3 8 43 8 102 -1 120 8 147 67 199 45 40 119
57 212 50 88 -6 141 -31 178 -83 15 -22 27 -32 27 -23 0 8 12 26 26 40 24 22
34 24 124 24 90 0 101 -2 124 -24 18 -17 28 -39 32 -72 6 -48 6 -48 24 -26
l18 22 11 -28 c10 -26 14 -27 48 -21 21 3 54 17 73 30 19 13 59 33 88 45 45
19 52 25 52 50 0 19 6 30 20 34 17 5 20 15 20 68 0 34 -4 68 -9 76 -8 12 -193
15 -1268 19 -692 2 -1261 2 -1264 -2z"/>
<path d="M5513 7931 c-52 -13 -84 -40 -105 -89 -27 -61 -21 -147 16 -202 47
-72 194 -121 359 -120 126 1 275 46 354 106 l33 25 -20 27 c-52 70 -44 67 -91
33 -62 -45 -155 -71 -255 -71 -46 0 -84 3 -84 7 0 4 10 17 22 30 17 18 23 39
26 86 4 74 -17 122 -64 149 -36 21 -143 31 -191 19z m135 -107 c30 -21 32
-104 2 -134 -30 -30 -103 -28 -135 5 -32 31 -34 96 -5 125 25 25 105 27 138 4z"/>
<path d="M4820 7846 l0 -85 -57 30 c-89 46 -206 65 -312 52 -169 -22 -274 -83
-328 -193 -17 -36 -34 -80 -37 -97 l-5 -33 444 0 445 0 0 205 0 205 -75 0 -75
0 0 -84z m-117 -130 c31 -15 68 -41 83 -59 l27 -32 -278 -3 c-153 -1 -280 0
-283 3 -8 8 27 54 54 72 62 40 125 54 235 50 91 -3 114 -7 162 -31z"/>
<path d="M3376 7907 c-48 -15 -74 -49 -82 -107 -12 -90 38 -149 128 -150 l33
-1 -24 -19 c-13 -11 -36 -20 -52 -20 -28 0 -29 -1 -29 -51 l0 -51 158 4 c131
3 165 8 203 25 109 49 178 148 187 266 l5 67 -67 0 -66 0 0 -45 c0 -52 -21
-109 -53 -144 -27 -29 -93 -60 -129 -61 l-27 0 21 36 c14 23 22 58 25 102 4
74 -6 103 -48 134 -32 24 -129 32 -183 15z m138 -79 c9 -12 16 -34 16 -48 0
-45 -26 -70 -74 -70 -58 0 -81 19 -81 68 0 56 18 72 76 72 38 0 51 -4 63 -22z"/>
<path d="M2140 7760 l0 -60 212 0 213 0 -77 -77 c-52 -53 -86 -98 -105 -138
l-28 -60 0 -515 c0 -473 1 -518 18 -547 27 -51 68 -67 167 -68 140 0 190 46
190 175 0 119 -52 175 -163 175 l-58 0 3 390 c4 468 -6 430 151 584 107 104
107 105 107 153 l0 48 -315 0 -315 0 0 -60z m471 -1219 c20 -16 24 -29 24 -71
0 -66 -25 -90 -95 -90 -63 0 -85 24 -85 92 0 63 26 88 90 88 27 0 51 -7 66
-19z"/>
<path d="M7340 7760 c0 -5 5 -10 10 -10 6 0 10 5 10 10 0 6 -4 10 -10 10 -5 0
-10 -4 -10 -10z"/>
<path d="M2110 7598 c0 -18 21 -26 130 -48 54 -11 55 -10 77 17 13 15 23 31
23 35 0 4 -52 8 -115 10 -103 3 -115 1 -115 -14z"/>
<path d="M2785 7610 c-3 -5 -1 -10 4 -10 6 0 11 5 11 10 0 6 -2 10 -4 10 -3 0
-8 -4 -11 -10z"/>
<path d="M7200 7565 c0 -8 2 -15 4 -15 2 0 6 7 10 15 3 8 1 15 -4 15 -6 0 -10
-7 -10 -15z"/>
<path d="M2731 7556 c-7 -8 -8 -17 -3 -20 6 -3 12 3 15 14 6 24 4 25 -12 6z"/>
<path d="M7951 7554 c0 -11 3 -14 6 -6 3 7 2 16 -1 19 -3 4 -6 -2 -5 -13z"/>
<path d="M856 7525 c4 -8 8 -15 10 -15 2 0 4 7 4 15 0 8 -4 15 -10 15 -5 0 -7
-7 -4 -15z"/>
<path d="M7282 7505 c0 -16 2 -22 5 -12 2 9 2 23 0 30 -3 6 -5 -1 -5 -18z"/>
<path d="M2663 7487 c-44 -46 -54 -70 -60 -148 l-6 -69 47 0 c42 0 49 3 64 30
9 16 20 30 25 30 12 0 8 38 -5 43 -10 3 -10 8 1 21 11 13 11 20 3 28 -7 7 -12
20 -12 29 0 9 -6 28 -13 43 l-14 25 -30 -32z"/>
<path d="M7742 7490 c0 -19 2 -27 5 -17 2 9 2 25 0 35 -3 9 -5 1 -5 -18z"/>
<path d="M7170 7494 c0 -8 5 -12 10 -9 6 4 8 11 5 16 -9 14 -15 11 -15 -7z"/>
<path d="M8152 7480 c0 -19 2 -27 5 -17 2 9 2 25 0 35 -3 9 -5 1 -5 -18z"/>
<path d="M7145 7449 c-9 -14 -2 -20 14 -10 8 6 9 11 3 15 -6 3 -14 1 -17 -5z"/>
<path d="M7868 7424 c-2 -19 0 -37 4 -40 4 -3 8 13 8 35 0 51 -6 53 -12 5z"/>
<path d="M7220 7424 c-13 -32 -12 -34 2 -34 6 0 9 3 5 6 -3 3 -2 17 3 30 5 13
7 24 5 24 -3 0 -10 -12 -15 -26z"/>
<path d="M7269 7430 c0 -8 -4 -36 -8 -62 -4 -25 -4 -66 -1 -90 6 -37 8 -38 9
-11 0 17 7 34 14 36 9 4 8 8 -3 16 -13 10 -13 12 0 21 11 7 12 12 3 21 -8 8
-9 18 0 35 8 18 7 28 -1 36 -9 9 -12 9 -13 -2z"/>
<path d="M861 7414 c0 -11 3 -14 6 -6 3 7 2 16 -1 19 -3 4 -6 -2 -5 -13z"/>
<path d="M7761 7414 c0 -11 3 -14 6 -6 3 7 2 16 -1 19 -3 4 -6 -2 -5 -13z"/>
<path d="M2983 7361 c-81 -21 -118 -77 -111 -169 8 -92 58 -135 163 -137 l60
-2 3 -205 2 -205 -54 -6 c-110 -11 -158 -64 -158 -171 0 -107 44 -159 148
-171 128 -17 216 34 229 132 4 26 7 51 8 55 1 3 99 -36 217 -87 194 -85 221
-94 278 -95 l62 0 0 530 0 530 -80 0 -80 0 0 -450 c0 -247 -3 -450 -7 -450 -5
0 -98 36 -208 79 l-200 80 -5 330 c-5 314 -6 331 -26 358 -11 15 -33 34 -47
41 -34 16 -151 24 -194 13z m151 -107 c24 -24 20 -80 -6 -98 -30 -21 -121 -21
-142 0 -22 22 -21 90 2 103 28 17 128 13 146 -5z m10 -717 c11 -8 20 -31 23
-58 4 -35 1 -50 -17 -71 -18 -24 -29 -28 -70 -28 -67 0 -93 23 -94 82 -1 65
22 88 89 88 28 0 59 -6 69 -13z"/>
<path d="M4229 7356 c-66 -18 -104 -49 -136 -114 l-28 -57 -3 -442 -3 -443
104 0 103 0 186 175 c238 222 242 228 246 320 6 112 -25 157 -122 177 -82 18
-160 0 -203 -46 -37 -40 -52 -117 -34 -182 14 -52 28 -70 73 -91 l37 -18 -112
-102 -112 -101 -3 351 c-3 370 1 410 40 447 24 23 105 28 140 9 23 -12 48 -66
48 -104 0 -24 2 -25 64 -25 l63 0 6 47 c7 66 40 93 110 93 64 0 93 -18 107
-68 6 -23 10 -200 10 -459 l0 -423 81 0 80 0 -3 443 c-3 436 -3 443 -26 492
-45 98 -98 129 -217 129 -97 0 -154 -25 -188 -81 -19 -33 -22 -35 -31 -17 -49
87 -157 123 -277 90z m361 -486 c22 -22 27 -87 10 -120 -16 -29 -75 -45 -121
-31 -30 9 -40 18 -49 47 -13 39 -6 80 17 107 24 25 116 24 143 -3z"/>
<path d="M5435 7356 c-116 -22 -198 -74 -237 -150 -17 -31 -23 -64 -26 -137
l-4 -97 172 -42 c289 -70 280 -64 280 -194 l0 -91 -58 0 c-110 -1 -162 -57
-162 -175 0 -129 50 -175 190 -175 99 1 140 17 167 68 16 28 18 61 18 257 0
247 -5 274 -56 311 -16 11 -108 41 -209 66 l-180 46 0 46 c0 104 68 152 224
159 116 5 189 -8 263 -48 l52 -27 32 45 c36 51 36 52 -43 93 -95 49 -293 70
-423 45z m216 -815 c20 -16 24 -29 24 -71 0 -42 -4 -55 -24 -71 -30 -24 -112
-26 -135 -3 -33 33 -33 109 1 146 23 25 103 25 134 -1z"/>
<path d="M6615 7361 c-84 -22 -115 -66 -115 -161 0 -113 49 -165 157 -165 l63
0 0 -268 c0 -294 -3 -314 -58 -336 -17 -7 -67 -11 -126 -9 l-98 3 -85 230
c-46 127 -95 260 -109 298 l-26 67 -80 0 c-44 0 -78 -4 -76 -9 2 -4 62 -167
133 -361 l130 -352 190 4 c176 3 194 5 239 27 57 28 100 88 116 165 8 34 10
173 8 416 -3 404 -3 401 -69 435 -35 19 -150 28 -194 16z m141 -105 c14 -11
19 -26 19 -61 0 -59 -20 -75 -90 -75 -70 0 -90 16 -90 75 0 59 20 75 90 75 28
0 60 -6 71 -14z"/>
<path d="M1161 7334 c0 -11 3 -14 6 -6 3 7 2 16 -1 19 -3 4 -6 -2 -5 -13z"/>
<path d="M7879 7260 c-3 -19 -9 -43 -14 -52 -4 -11 -3 -18 4 -18 14 0 24 39
19 76 -4 28 -4 28 -9 -6z"/>
<path d="M682 7200 c0 -19 2 -27 5 -17 2 9 2 25 0 35 -3 9 -5 1 -5 -18z"/>
<path d="M7207 7215 c-4 -8 -2 -17 3 -20 6 -4 10 3 10 14 0 25 -6 27 -13 6z"/>
<path d="M2602 7013 c3 -231 0 -222 72 -209 l32 6 2 205 2 205 -55 0 -55 0 2
-207z"/>
<path d="M7501 7188 c1 -24 3 -27 6 -10 2 12 9 22 14 22 6 0 7 5 4 10 -13 21
-25 9 -24 -22z"/>
<path d="M7121 7154 c0 -11 3 -14 6 -6 3 7 2 16 -1 19 -3 4 -6 -2 -5 -13z"/>
<path d="M7356 7105 c-5 -11 -11 -42 -13 -70 -3 -27 -8 -68 -13 -90 -5 -22 -7
-41 -5 -43 7 -7 25 72 25 109 0 19 5 40 11 46 6 6 9 23 7 39 -3 26 -4 27 -12
9z"/>
<path d="M7244 7086 c-3 -8 -4 -25 -2 -38 3 -17 5 -13 9 15 5 38 2 47 -7 23z"/>
<path d="M7635 7090 c-3 -5 -1 -10 4 -10 6 0 11 5 11 10 0 6 -2 10 -4 10 -3 0
-8 -4 -11 -10z"/>
<path d="M731 7064 c0 -11 3 -14 6 -6 3 7 2 16 -1 19 -3 4 -6 -2 -5 -13z"/>
<path d="M7552 7060 c0 -14 2 -19 5 -12 2 6 2 18 0 25 -3 6 -5 1 -5 -13z"/>
<path d="M7131 7044 c0 -11 3 -14 6 -6 3 7 2 16 -1 19 -3 4 -6 -2 -5 -13z"/>
<path d="M7196 7017 c-5 -15 -6 -31 -2 -34 11 -11 18 5 14 34 l-4 28 -8 -28z"/>
<path d="M7116 7003 c-6 -14 -5 -15 5 -6 7 7 10 15 7 18 -3 3 -9 -2 -12 -12z"/>
<path d="M8241 6984 c0 -11 3 -14 6 -6 3 7 2 16 -1 19 -3 4 -6 -2 -5 -13z"/>
<path d="M7536 6948 c-3 -23 -9 -59 -12 -78 -11 -60 7 -25 20 39 7 33 9 65 6
72 -4 6 -10 -9 -14 -33z"/>
<path d="M7717 6943 c-2 -21 0 -42 4 -47 5 -6 9 10 9 37 0 57 -6 61 -13 10z"/>
<path d="M7240 6952 c0 -10 -4 -22 -9 -27 -14 -16 -23 -55 -13 -55 6 0 13 12
17 27 5 21 8 24 16 12 6 -10 9 -3 9 24 0 20 -4 37 -10 37 -5 0 -10 -8 -10 -18z"/>
<path d="M7168 6954 c-5 -4 -8 -21 -7 -38 0 -30 0 -30 10 -7 11 27 8 57 -3 45z"/>
<path d="M7127 6919 c-4 -15 -11 -20 -21 -16 -10 4 -16 1 -16 -8 0 -9 10 -15
25 -15 21 0 25 5 25 30 0 35 -5 39 -13 9z"/>
<path d="M7256 6833 c-11 -49 -23 -93 -27 -99 -5 -6 -5 -15 -1 -19 4 -5 1 -5
-6 -1 -7 4 -19 3 -26 -3 -10 -8 -73 -10 -105 -2 -3 1 6 12 19 26 13 14 19 25
14 25 -14 0 -28 -13 -40 -35 -8 -14 -25 -22 -54 -25 -24 -3 -45 -11 -48 -18
-3 -9 14 -11 72 -7 41 2 77 1 80 -4 3 -5 -28 -11 -68 -13 -67 -3 -97 -11 -85
-22 2 -2 24 -6 49 -7 35 -3 46 -8 52 -24 6 -19 6 -19 13 3 9 29 42 29 51 0 l7
-23 8 23 c6 15 17 22 34 22 25 0 26 -1 22 -60 -2 -33 0 -60 5 -60 4 0 8 14 8
30 0 35 25 90 41 90 6 0 8 -17 5 -42 -4 -28 -2 -38 5 -31 5 5 11 23 12 39 l2
29 117 1 c101 1 118 -1 121 -15 4 -13 5 -12 6 3 1 18 9 18 169 12 92 -4 232
-9 312 -11 80 -3 188 -7 240 -9 52 -2 154 -6 225 -9 252 -11 390 -18 413 -23
14 -3 22 0 22 10 0 17 -44 26 -136 26 -56 0 -77 4 -90 17 -13 13 -19 14 -22 5
-5 -16 -52 -16 -52 1 0 8 -3 8 -9 -2 -7 -11 -27 -12 -97 -7 -49 3 -124 7 -167
7 -49 1 -80 6 -85 14 -4 7 -29 15 -55 17 -53 6 -56 0 -5 -12 28 -7 23 -8 -29
-9 -58 -1 -82 10 -50 22 6 3 -3 6 -21 6 -20 1 -31 -4 -30 -11 2 -7 -6 -12 -17
-11 -11 0 -57 1 -103 1 -46 1 -81 6 -78 11 3 5 45 6 93 4 49 -3 86 -3 83 0 -7
7 -78 14 -255 22 -71 4 -133 9 -136 11 -4 2 -86 4 -183 5 l-176 1 0 51 c-1 38
-3 48 -10 36 -8 -15 -17 -45 -19 -71 -1 -5 -8 -8 -15 -8 -13 0 -13 6 -1 48 14
48 30 162 23 162 -2 0 -12 -39 -22 -87z m210 -166 c4 -4 -52 -7 -124 -7 -72 0
-133 4 -137 9 -6 11 250 9 261 -2z m57 -4 c-7 -2 -21 -2 -30 0 -10 3 -4 5 12
5 17 0 24 -2 18 -5z m283 -2 c-6 -9 -255 -5 -264 4 -3 3 56 5 132 5 75 0 135
-4 132 -9z m51 -7 c-3 -3 -12 -4 -19 -1 -8 3 -5 6 6 6 11 1 17 -2 13 -5z"/>
<path d="M7451 6904 c0 -11 3 -14 6 -6 3 7 2 16 -1 19 -3 4 -6 -2 -5 -13z"/>
<path d="M7152 6855 c0 -16 2 -22 5 -12 2 9 2 23 0 30 -3 6 -5 -1 -5 -18z"/>
<path d="M7562 6855 c0 -16 2 -22 5 -12 2 9 2 23 0 30 -3 6 -5 -1 -5 -18z"/>
<path d="M7710 6861 c0 -12 5 -21 10 -21 6 0 10 6 10 14 0 8 -4 18 -10 21 -5
3 -10 -3 -10 -14z"/>
<path d="M7081 6814 c0 -11 3 -14 6 -6 3 7 2 16 -1 19 -3 4 -6 -2 -5 -13z"/>
<path d="M7202 6770 c0 -14 2 -19 5 -12 2 6 2 18 0 25 -3 6 -5 1 -5 -13z"/>
<path d="M1045 6760 c-3 -6 1 -7 9 -4 18 7 21 14 7 14 -6 0 -13 -4 -16 -10z"/>
<path d="M120 6746 c0 -2 7 -6 15 -10 8 -3 15 -1 15 4 0 6 -7 10 -15 10 -8 0
-15 -2 -15 -4z"/>
<path d="M420 6743 c0 -11 -41 -15 -302 -29 -92 -5 -118 -9 -118 -20 0 -11 18
-13 98 -8 260 14 525 19 1052 18 316 -1 584 -4 595 -7 11 -3 83 -8 160 -11 77
-4 188 -9 248 -12 94 -5 107 -4 107 10 0 12 -11 16 -47 17 -27 1 -59 3 -73 5
-99 13 -600 25 -1105 27 -386 1 -603 6 -607 12 -5 6 -8 6 -8 -2z"/>
<path d="M48 6733 c12 -2 32 -2 45 0 12 2 2 4 -23 4 -25 0 -35 -2 -22 -4z"/>
<path d="M8420 6668 c0 -12 -8 -18 -22 -19 -17 -1 -18 -3 -6 -6 27 -7 49 9 38
27 -8 13 -10 12 -10 -2z"/>
<path d="M7110 6570 c0 -5 5 -10 10 -10 6 0 10 5 10 10 0 6 -4 10 -10 10 -5 0
-10 -4 -10 -10z"/>
<path d="M7441 6550 c0 -29 1 -32 10 -17 7 11 7 23 0 35 -9 14 -10 11 -10 -18z"/>
<path d="M7062 6515 c0 -16 2 -22 5 -12 2 9 2 23 0 30 -3 6 -5 -1 -5 -18z"/>
<path d="M7286 6531 c-4 -7 -5 -15 -2 -18 9 -9 19 4 14 18 -4 11 -6 11 -12 0z"/>
<path d="M8251 6514 c0 -11 3 -14 6 -6 3 7 2 16 -1 19 -3 4 -6 -2 -5 -13z"/>
<path d="M7242 6484 c-1 -29 -10 -50 -28 -69 -23 -24 -25 -33 -19 -75 5 -39 3
-50 -10 -58 -13 -7 -16 -16 -10 -40 3 -17 12 -30 18 -29 7 1 11 -4 10 -10 -2
-7 2 -13 7 -13 6 0 11 21 12 48 3 76 6 104 18 154 6 25 9 66 7 90 l-4 43 -1
-41z"/>
<path d="M4611 6496 c-12 -14 -6 -15 45 -13 70 2 79 21 13 25 -32 2 -50 -2
-58 -12z"/>
<path d="M3920 6485 c0 -8 9 -15 20 -15 11 0 20 7 20 15 0 8 -9 15 -20 15 -11
0 -20 -7 -20 -15z"/>
<path d="M5062 6488 c6 -16 238 -25 238 -10 0 14 -53 22 -152 22 -67 0 -89 -3
-86 -12z"/>
<path d="M7272 6475 c0 -16 2 -22 5 -12 2 9 2 23 0 30 -3 6 -5 -1 -5 -18z"/>
<path d="M7122 6460 c0 -14 2 -19 5 -12 2 6 2 18 0 25 -3 6 -5 1 -5 -13z"/>
<path d="M7325 6440 c-1 -41 7 -36 19 13 4 18 2 27 -6 27 -8 0 -13 -15 -13
-40z"/>
<path d="M8000 6459 c0 -11 5 -17 10 -14 6 3 10 13 10 21 0 8 -4 14 -10 14 -5
0 -10 -9 -10 -21z"/>
<path d="M8491 6454 c0 -11 3 -14 6 -6 3 7 2 16 -1 19 -3 4 -6 -2 -5 -13z"/>
<path d="M5870 6452 c0 -11 45 -18 175 -27 44 -4 93 -9 109 -12 21 -4 27 -2
24 8 -6 17 -53 26 -195 34 -75 5 -113 4 -113 -3z"/>
<path d="M7060 6413 c1 -27 1 -27 15 -9 19 25 19 36 0 36 -10 0 -15 -10 -15
-27z"/>
<path d="M8258 6410 c-3 -16 -1 -30 4 -30 4 0 8 14 8 30 0 17 -2 30 -4 30 -2
0 -6 -13 -8 -30z"/>
<path d="M7752 6390 c0 -19 2 -27 5 -17 2 9 2 25 0 35 -3 9 -5 1 -5 -18z"/>
<path d="M262 6390 c0 -14 2 -19 5 -12 2 6 2 18 0 25 -3 6 -5 1 -5 -13z"/>
<path d="M7152 6374 c-20 -14 -33 -52 -14 -40 5 3 6 -8 4 -25 -2 -16 -2 -29 1
-29 6 0 39 101 34 106 -2 2 -13 -3 -25 -12z"/>
<path d="M7330 6351 c-12 -24 -13 -34 -1 -27 9 6 22 46 15 46 -2 0 -8 -9 -14
-19z"/>
<path d="M111 6344 c0 -11 3 -14 6 -6 3 7 2 16 -1 19 -3 4 -6 -2 -5 -13z"/>
<path d="M7250 6343 c0 -10 7 -26 14 -36 12 -16 14 -16 20 -1 3 8 6 25 6 37 0
18 -2 19 -10 7 -6 -10 -10 -11 -10 -2 0 6 -4 12 -10 12 -5 0 -10 -8 -10 -17z"/>
<path d="M7462 6305 c0 -16 2 -22 5 -12 2 9 2 23 0 30 -3 6 -5 -1 -5 -18z"/>
<path d="M122 6280 c0 -14 2 -19 5 -12 2 6 2 18 0 25 -3 6 -5 1 -5 -13z"/>
<path d="M7105 6280 c-7 -12 2 -30 16 -30 12 0 12 27 0 35 -5 3 -12 1 -16 -5z"/>
<path d="M7752 6250 c0 -14 2 -19 5 -12 2 6 2 18 0 25 -3 6 -5 1 -5 -13z"/>
<path d="M7010 6231 c0 -6 5 -13 10 -16 6 -3 10 1 10 9 0 9 -4 16 -10 16 -5 0
-10 -4 -10 -9z"/>
<path d="M2658 6215 c-20 -5 -39 -13 -43 -16 -11 -11 -13 -523 -3 -537 6 -7 8
-28 5 -48 l-6 -35 47 3 47 3 3 56 c2 41 -1 61 -13 72 -13 14 -14 26 -5 79 17
106 16 110 -25 102 -23 -4 -35 -2 -35 5 0 6 6 11 14 11 8 0 23 8 34 18 17 14
21 34 25 117 l6 100 -21 -44 c-29 -59 -36 -33 -8 30 11 28 20 60 18 73 -3 20
-6 21 -40 11z"/>
<path d="M7117 6185 c-4 -28 -16 -74 -27 -103 -11 -29 -15 -52 -10 -52 6 0 13
8 16 18 4 9 15 35 27 58 17 35 19 48 11 85 l-10 44 -7 -50z"/>
<path d="M7157 6218 c-3 -9 -2 -29 2 -45 l8 -28 5 26 c2 14 2 34 -2 44 -6 16
-7 16 -13 3z"/>
<path d="M7271 6200 c-1 -3 -4 -17 -6 -32 -2 -16 -6 -37 -10 -48 -7 -23 12
-28 21 -6 5 13 0 97 -5 86z"/>
<path d="M6342 6140 c0 -14 2 -19 5 -12 2 6 2 18 0 25 -3 6 -5 1 -5 -13z"/>
<path d="M142 6130 c0 -14 2 -19 5 -12 2 6 2 18 0 25 -3 6 -5 1 -5 -13z"/>
<path d="M2570 6111 c0 -5 5 -13 10 -16 6 -3 10 -2 10 4 0 5 -4 13 -10 16 -5
3 -10 2 -10 -4z"/>
<path d="M7060 6099 c0 -11 5 -17 10 -14 6 3 10 13 10 21 0 8 -4 14 -10 14 -5
0 -10 -9 -10 -21z"/>
<path d="M7133 6105 c-3 -9 -3 -18 -1 -21 3 -3 8 4 11 16 6 23 -1 27 -10 5z"/>
<path d="M152 6060 c0 -19 2 -27 5 -17 2 9 2 25 0 35 -3 9 -5 1 -5 -18z"/>
<path d="M951 6064 c0 -11 3 -14 6 -6 3 7 2 16 -1 19 -3 4 -6 -2 -5 -13z"/>
<path d="M321 6054 c0 -11 3 -14 6 -6 3 7 2 16 -1 19 -3 4 -6 -2 -5 -13z"/>
<path d="M7020 6044 c0 -15 -6 -24 -15 -24 -8 0 -15 -9 -15 -20 0 -22 15 -27
23 -7 3 6 6 2 6 -10 2 -38 18 -34 24 5 3 20 9 46 12 57 5 16 1 21 -14 22 -16
1 -21 -4 -21 -23z"/>
<path d="M7121 6054 c0 -11 3 -14 6 -6 3 7 2 16 -1 19 -3 4 -6 -2 -5 -13z"/>
<path d="M951 6024 c0 -11 3 -14 6 -6 3 7 2 16 -1 19 -3 4 -6 -2 -5 -13z"/>
<path d="M7150 6020 c-8 -54 -6 -96 6 -124 11 -28 12 -29 19 -7 4 12 4 25 1
28 -3 4 -7 0 -8 -8 -1 -8 -4 20 -8 61 -4 41 -8 64 -10 50z"/>
<path d="M7050 5998 c1 -20 29 -52 37 -43 5 4 2 10 -4 12 -7 3 -13 13 -13 24
0 10 -4 19 -10 19 -5 0 -10 -6 -10 -12z"/>
<path d="M161 5984 c0 -11 3 -14 6 -6 3 7 2 16 -1 19 -3 4 -6 -2 -5 -13z"/>
<path d="M32 5965 c0 -16 2 -22 5 -12 2 9 2 23 0 30 -3 6 -5 -1 -5 -18z"/>
<path d="M7010 5910 c0 -16 5 -30 10 -30 6 0 10 6 10 14 0 8 3 21 6 30 4 11 1
16 -10 16 -11 0 -16 -9 -16 -30z"/>
<path d="M7061 5924 c0 -11 3 -14 6 -6 3 7 2 16 -1 19 -3 4 -6 -2 -5 -13z"/>
<path d="M42 5900 c0 -19 2 -27 5 -17 2 9 2 25 0 35 -3 9 -5 1 -5 -18z"/>
<path d="M7452 5910 c0 -14 2 -19 5 -12 2 6 2 18 0 25 -3 6 -5 1 -5 -13z"/>
<path d="M7047 5883 c-4 -3 -7 -22 -7 -42 1 -31 2 -33 11 -17 9 15 13 16 20 5
6 -10 9 -4 9 18 0 17 6 34 13 36 6 3 0 6 -14 6 -14 1 -29 -2 -32 -6z"/>
<path d="M8105 5870 c3 -5 8 -10 11 -10 2 0 4 5 4 10 0 6 -5 10 -11 10 -5 0
-7 -4 -4 -10z"/>
<path d="M8152 5855 c0 -16 2 -22 5 -12 2 9 2 23 0 30 -3 6 -5 -1 -5 -18z"/>
<path d="M845 5850 c-4 -6 7 -10 27 -9 27 0 30 2 13 9 -27 12 -33 12 -40 0z"/>
<path d="M7157 5846 c-4 -10 -7 -25 -6 -34 0 -11 4 -9 10 7 5 13 8 29 6 35 -2
5 -6 2 -10 -8z"/>
<path d="M743 5843 c9 -2 25 -2 35 0 9 3 1 5 -18 5 -19 0 -27 -2 -17 -5z"/>
<path d="M1190 5837 c-4 -4 -116 -9 -250 -12 -135 -3 -297 -7 -360 -10 -63 -2
-176 -7 -250 -10 -74 -3 -175 -8 -225 -12 -50 -4 -93 -6 -97 -5 -5 1 -8 -8 -8
-21 0 -22 1 -23 93 -16 226 18 609 39 797 44 199 6 877 5 1050 -1 47 -1 182
-6 300 -10 118 -4 212 -4 209 0 -4 4 -105 16 -225 26 -216 20 -1022 40 -1034
27z"/>
<path d="M7107 5810 c-3 -11 -1 -20 4 -20 5 0 9 9 9 20 0 11 -2 20 -4 20 -2 0
-6 -9 -9 -20z"/>
<path d="M6998 5803 c-10 -3 -18 -11 -18 -18 0 -7 -6 -15 -12 -18 -24 -8 -3
-15 30 -10 23 4 32 11 32 24 0 21 -9 27 -32 22z"/>
<path d="M7130 5769 c-11 -15 -23 -19 -45 -16 -16 3 -37 1 -45 -3 -9 -5 -62
-10 -118 -12 -82 -3 -102 -1 -98 9 4 9 -6 13 -34 13 -45 0 -54 -17 -12 -23 20
-3 17 -4 -13 -6 -22 -1 -56 -5 -76 -10 -21 -5 -43 -5 -50 0 -14 8 -10 11 36
23 11 3 -35 3 -102 0 -139 -6 -177 -14 -181 -37 -5 -27 42 -31 223 -18 229 16
533 25 519 14 -30 -22 -50 -180 -21 -171 6 3 13 24 15 49 1 24 7 63 13 87 l12
42 66 1 c454 7 1279 -4 1461 -20 64 -5 75 -9 72 -23 -4 -25 14 -23 21 2 4 17
11 18 76 13 68 -6 71 -5 71 16 0 18 -6 21 -42 22 -24 1 -54 3 -68 5 -14 1 -81
5 -150 8 -69 3 -156 8 -195 12 -38 3 -110 6 -160 6 -49 1 -95 5 -102 10 -6 5
-14 5 -17 0 -3 -5 -60 -8 -128 -7 -68 2 -238 4 -378 5 -140 1 -260 6 -266 11
-12 10 -44 2 -44 -11 0 -4 -54 -8 -119 -7 -103 0 -117 2 -105 14 16 16 18 23
6 23 -4 0 -14 -9 -22 -21z m-535 -48 c-6 -5 -31 -11 -57 -13 -48 -3 -53 7 -8
15 46 8 74 7 65 -2z"/>
<path d="M6705 5750 c-3 -5 1 -10 9 -10 8 0 18 5 21 10 3 6 -1 10 -9 10 -8 0
-18 -4 -21 -10z"/>
<path d="M862 5725 c0 -16 2 -22 5 -12 2 9 2 23 0 30 -3 6 -5 -1 -5 -18z"/>
<path d="M6293 5705 c0 -22 2 -30 4 -17 2 12 2 30 0 40 -3 9 -5 -1 -4 -23z"/>
<path d="M7657 5694 c-4 -4 -7 -17 -7 -28 1 -19 1 -20 11 -3 11 19 8 43 -4 31z"/>
<path d="M3965 5663 c-132 -4 -481 -23 -615 -33 -69 -6 -199 -15 -290 -20
-178 -11 -230 -16 -238 -25 -10 -10 150 -3 708 30 371 22 497 25 975 26 694 1
1112 -13 1539 -52 120 -11 221 -17 224 -15 17 18 -220 50 -460 62 -56 2 -165
9 -242 14 -126 9 -1414 20 -1601 13z"/>
<path d="M7470 5650 c0 -5 5 -10 10 -10 6 0 10 5 10 10 0 6 -4 10 -10 10 -5 0
-10 -4 -10 -10z"/>
<path d="M7070 5630 c0 -11 5 -20 10 -20 6 0 10 9 10 20 0 11 -4 20 -10 20 -5
0 -10 -9 -10 -20z"/>
<path d="M6322 5620 c0 -14 2 -19 5 -12 2 6 2 18 0 25 -3 6 -5 1 -5 -13z"/>
<path d="M7467 5613 c-2 -4 -7 -24 -11 -43 l-6 -35 15 39 c13 35 15 61 2 39z"/>
<path d="M6980 5570 c0 -5 5 -10 10 -10 6 0 10 5 10 10 0 6 -4 10 -10 10 -5 0
-10 -4 -10 -10z"/>
<path d="M7240 5560 c0 -11 7 -20 15 -20 8 0 15 9 15 20 0 11 -7 20 -15 20 -8
0 -15 -9 -15 -20z"/>
<path d="M7390 5548 c0 -36 4 -35 14 5 4 16 2 27 -4 27 -5 0 -10 -14 -10 -32z"/>
<path d="M2602 5540 c0 -14 2 -19 5 -12 2 6 2 18 0 25 -3 6 -5 1 -5 -13z"/>
<path d="M6342 5500 c0 -19 2 -27 5 -17 2 9 2 25 0 35 -3 9 -5 1 -5 -18z"/>
<path d="M6992 5505 c0 -16 2 -22 5 -12 2 9 2 23 0 30 -3 6 -5 -1 -5 -18z"/>
<path d="M8071 5494 c0 -11 3 -14 6 -6 3 7 2 16 -1 19 -3 4 -6 -2 -5 -13z"/>
<path d="M7081 5456 c-26 -60 -30 -236 -5 -215 12 10 13 9 8 -7 -5 -16 -4 -16
5 -4 14 20 14 53 0 44 -8 -5 -10 5 -5 32 3 22 6 56 6 77 -1 23 3 36 9 33 14
-9 26 63 13 76 -7 7 -17 -4 -31 -36z"/>
<path d="M7450 5450 c0 -16 2 -30 4 -30 2 0 6 14 8 30 3 17 1 30 -4 30 -4 0
-8 -13 -8 -30z"/>
<path d="M7131 5393 c-6 -43 -14 -96 -16 -118 -4 -37 -4 -38 5 -10 11 35 33
196 27 201 -2 3 -9 -30 -16 -73z"/>
<path d="M6332 5435 c0 -16 2 -22 5 -12 2 9 2 23 0 30 -3 6 -5 -1 -5 -18z"/>
<path d="M7722 5425 c0 -16 2 -22 5 -12 2 9 2 23 0 30 -3 6 -5 -1 -5 -18z"/>
<path d="M6956 5405 c-9 -26 -7 -32 5 -12 6 10 9 21 6 23 -2 3 -7 -2 -11 -11z"/>
<path d="M8062 5390 c0 -19 2 -27 5 -17 2 9 2 25 0 35 -3 9 -5 1 -5 -18z"/>
<path d="M7391 5400 c-1 -3 -4 -23 -6 -45 -3 -31 -2 -36 6 -22 6 10 8 30 6 45
-2 15 -5 25 -6 22z"/>
<path d="M7703 5324 c-6 -13 -7 -24 -3 -24 9 0 25 39 18 45 -2 2 -8 -7 -15
-21z"/>
<path d="M8081 5334 c0 -11 3 -14 6 -6 3 7 2 16 -1 19 -3 4 -6 -2 -5 -13z"/>
<path d="M2286 5327 c-48 -15 -74 -49 -82 -107 -12 -90 38 -149 128 -150 l33
-1 -24 -19 c-13 -11 -36 -20 -52 -20 -28 0 -29 -1 -29 -51 l0 -51 158 4 c131
3 165 8 203 25 109 49 178 148 187 266 l5 67 -67 0 -66 0 0 -45 c0 -52 -21
-109 -53 -144 -27 -29 -93 -60 -129 -61 l-27 0 21 36 c14 23 22 58 25 102 4
74 -6 103 -48 134 -32 24 -129 32 -183 15z m138 -79 c9 -12 16 -34 16 -48 0
-45 -26 -70 -74 -70 -58 0 -81 19 -81 68 0 56 18 72 76 72 38 0 51 -4 63 -22z"/>
<path d="M7341 5228 c-6 -17 -11 -47 -10 -67 l1 -36 8 30 c4 17 11 44 15 60
l8 30 7 -25 8 -25 1 26 c1 40 -25 44 -38 7z"/>
<path d="M7466 5244 c-4 -9 -4 -19 -1 -22 2 -3 7 3 11 12 4 9 4 19 1 22 -2 3
-7 -3 -11 -12z"/>
<path d="M7017 5223 c-4 -3 -7 -16 -6 -27 0 -19 1 -19 10 3 10 24 8 36 -4 24z"/>
<path d="M7955 5176 c-4 -24 -5 -52 -2 -62 3 -11 5 -5 6 14 1 19 5 31 11 27 6
-4 10 6 10 24 0 48 -18 46 -25 -3z"/>
<path d="M7080 5192 c0 -7 -9 -21 -20 -32 -20 -20 -29 -66 -10 -55 6 3 10 15
10 26 0 11 4 17 10 14 11 -6 26 42 16 52 -3 4 -6 1 -6 -5z"/>
<path d="M262 5160 c0 -14 2 -19 5 -12 2 6 2 18 0 25 -3 6 -5 1 -5 -13z"/>
<path d="M7361 5164 c0 -11 3 -14 6 -6 3 7 2 16 -1 19 -3 4 -6 -2 -5 -13z"/>
<path d="M6900 5140 c0 -5 5 -10 10 -10 6 0 10 5 10 10 0 6 -4 10 -10 10 -5 0
-10 -4 -10 -10z"/>
<path d="M6954 5114 c-4 -14 -3 -29 2 -34 5 -5 10 6 11 26 2 40 -4 44 -13 8z"/>
<path d="M6230 5109 c0 -11 5 -17 10 -14 6 3 10 13 10 21 0 8 -4 14 -10 14 -5
0 -10 -9 -10 -21z"/>
<path d="M7341 5092 c0 -18 -5 -31 -10 -28 -11 7 -21 -18 -21 -54 0 -25 -5
-30 -32 -34 -60 -9 -334 -15 -308 -6 28 9 27 9 -47 15 -45 4 -52 2 -58 -15 -5
-17 -16 -20 -68 -21 -34 -1 -77 -2 -95 -4 -152 -13 -191 -17 -214 -21 -16 -3
-28 -1 -28 5 0 5 26 12 58 14 38 2 28 4 -33 4 -126 1 -201 -9 -197 -26 2 -8
-3 -18 -10 -23 -16 -11 240 -3 357 11 96 12 669 26 1065 26 277 0 804 -12 865
-20 17 -2 65 -5 108 -6 71 -1 77 -3 77 -22 0 -20 1 -20 13 -3 11 16 25 18 85
14 62 -3 72 -1 72 13 0 13 -21 18 -132 27 -362 31 -539 37 -1041 37 -376 0
-426 2 -421 15 16 39 25 84 21 108 -4 24 -4 23 -6 -6z m-421 -132 c-36 -11
-52 -11 -45 0 3 6 21 10 38 9 31 -1 31 -1 7 -9z"/>
<path d="M7045 5044 c-17 -42 -19 -64 -5 -64 6 0 10 7 10 15 0 8 4 15 9 15 5
0 9 16 8 35 -1 19 -2 35 -4 35 -1 0 -10 -16 -18 -36z"/>
<path d="M7390 5040 c0 -22 5 -40 10 -40 6 0 10 18 10 40 0 22 -4 40 -10 40
-5 0 -10 -18 -10 -40z"/>
<path d="M760 5059 c-58 -4 -148 -8 -200 -9 -52 -2 -126 -6 -165 -11 -142 -16
-224 -16 -229 1 -3 11 -4 11 -5 -2 0 -10 -9 -18 -18 -19 -10 -1 -40 -2 -68 -4
-27 -1 -56 -3 -62 -4 -14 -1 -18 -41 -5 -41 4 0 57 4 117 10 349 30 1392 44
1863 25 167 -7 172 -7 172 12 0 18 -9 21 -102 26 -57 4 -282 10 -500 14 -339
5 -398 4 -398 -8 0 -12 -2 -11 -10 1 -7 12 -36 15 -147 15 -76 0 -185 -3 -243
-6z"/>
<path d="M1971 4964 c0 -11 3 -14 6 -6 3 7 2 16 -1 19 -3 4 -6 -2 -5 -13z"/>
<path d="M6800 4970 c-23 -7 -23 -8 -3 -9 12 -1 25 4 28 9 3 6 5 10 3 9 -2 -1
-14 -5 -28 -9z"/>
<path d="M6588 4953 c6 -2 18 -2 25 0 6 3 1 5 -13 5 -14 0 -19 -2 -12 -5z"/>
<path d="M6207 4886 c-5 -21 -6 -41 -3 -44 12 -11 17 7 14 44 l-3 39 -8 -39z"/>
<path d="M6980 4860 c0 -5 5 -10 10 -10 6 0 10 5 10 10 0 6 -4 10 -10 10 -5 0
-10 -4 -10 -10z"/>
<path d="M7124 4839 c-3 -6 -1 -16 5 -22 8 -8 11 -5 11 11 0 24 -5 28 -16 11z"/>
<path d="M4270 4830 c-69 -4 -90 -8 -75 -14 25 -12 337 -7 350 5 5 6 3 9 -5
10 -74 3 -192 3 -270 -1z"/>
<path d="M6987 4825 c-4 -8 -2 -17 3 -20 6 -4 10 3 10 14 0 25 -6 27 -13 6z"/>
<path d="M8273 4800 c0 -25 2 -35 4 -22 2 12 2 32 0 45 -2 12 -4 2 -4 -23z"/>
<path d="M4866 4815 c4 -9 19 -15 39 -15 18 0 38 7 45 15 11 13 6 15 -38 15
-42 0 -50 -3 -46 -15z"/>
<path d="M7078 4824 c-5 -4 -8 -21 -7 -38 0 -30 0 -30 10 -7 11 27 8 57 -3 45z"/>
<path d="M7350 4810 c-14 -11 -20 -20 -13 -20 9 0 8 -7 -2 -27 -14 -27 -11
-48 6 -38 5 4 9 14 9 23 0 15 2 15 11 2 9 -12 10 -12 5 4 -4 11 -2 23 5 26 6
4 9 17 7 28 -3 21 -3 21 -28 2z"/>
<path d="M3698 4813 c-32 -2 -58 -7 -58 -11 0 -13 113 -7 118 6 2 6 2 11 0 10
-1 -1 -29 -3 -60 -5z"/>
<path d="M5392 4799 c6 -18 47 -25 193 -34 108 -6 125 -5 125 8 0 12 -20 16
-97 21 -54 4 -127 9 -162 12 -50 5 -62 3 -59 -7z"/>
<path d="M1142 4770 c0 -19 2 -27 5 -17 2 9 2 25 0 35 -3 9 -5 1 -5 -18z"/>
<path d="M1753 4781 c-81 -21 -118 -77 -111 -169 8 -92 58 -135 163 -137 l60
-2 6 -249 c6 -271 10 -293 69 -379 62 -90 169 -128 360 -129 216 -1 325 51
384 183 38 86 46 178 46 554 l0 327 -79 0 -80 0 -3 -392 c-3 -376 -4 -395 -24
-438 -42 -90 -104 -120 -247 -120 -49 0 -108 5 -130 12 -53 16 -112 73 -127
123 -9 27 -15 152 -19 387 -6 331 -7 348 -27 375 -11 15 -33 34 -47 41 -34 16
-151 24 -194 13z m151 -107 c24 -24 20 -80 -6 -98 -30 -21 -121 -21 -142 0
-22 22 -21 90 2 103 28 17 128 13 146 -5z"/>
<path d="M3124 4776 c-73 -17 -134 -46 -192 -93 l-42 -34 36 -45 36 -44 49 36
c74 54 136 74 228 74 135 0 190 -46 211 -176 6 -33 10 -220 10 -416 l0 -358
75 0 76 0 -3 418 -3 417 -29 63 c-35 75 -75 113 -150 141 -74 27 -220 36 -302
17z"/>
<path d="M3903 4781 c-81 -21 -118 -77 -111 -169 8 -92 58 -135 163 -138 l60
-1 3 -377 2 -376 74 0 73 0 129 100 c71 55 131 100 134 100 3 0 5 -25 6 -55 1
-95 55 -143 171 -151 101 -7 161 17 191 76 15 31 22 62 22 102 0 105 -40 160
-125 173 l-46 6 38 28 c55 41 82 73 93 112 6 19 10 154 10 301 l0 268 -80 0
-80 0 0 -272 c0 -150 -3 -283 -6 -296 -5 -16 -73 -68 -219 -167 -118 -80 -218
-145 -224 -145 -7 0 -11 129 -13 399 -3 387 -4 400 -24 428 -11 15 -33 34 -47
41 -34 16 -151 24 -194 13z m151 -107 c24 -24 20 -80 -6 -98 -30 -21 -121 -21
-142 0 -22 22 -21 90 2 103 28 17 128 13 146 -5z m646 -714 c14 -14 20 -33 20
-65 0 -62 -24 -85 -88 -85 -71 0 -92 19 -92 85 0 44 4 57 22 69 33 23 113 21
138 -4z"/>
<path d="M5083 4781 c-81 -21 -118 -77 -111 -169 8 -92 58 -135 163 -138 l60
-1 3 -377 2 -376 74 0 73 0 129 100 c71 55 131 100 134 100 3 0 5 -25 6 -55 1
-95 55 -143 171 -151 101 -7 161 17 191 76 15 31 22 62 22 102 0 105 -40 160
-125 173 l-46 6 38 28 c55 41 82 73 93 112 6 19 10 154 10 301 l0 268 -80 0
-80 0 0 -272 c0 -150 -3 -283 -6 -296 -5 -16 -73 -68 -219 -167 -118 -80 -218
-145 -224 -145 -7 0 -11 129 -13 399 -3 387 -4 400 -24 428 -11 15 -33 34 -47
41 -34 16 -151 24 -194 13z m151 -107 c24 -24 20 -80 -6 -98 -30 -21 -121 -21
-142 0 -22 22 -21 90 2 103 28 17 128 13 146 -5z m646 -714 c14 -14 20 -33 20
-65 0 -62 -24 -85 -88 -85 -71 0 -92 19 -92 85 0 44 4 57 22 69 33 23 113 21
138 -4z"/>
<path d="M6545 4784 c-118 -19 -230 -66 -322 -135 l-53 -40 0 -63 0 -64 80
-46 80 -46 -44 -43 c-27 -26 -48 -57 -55 -82 -7 -24 -11 -140 -11 -292 l0
-253 74 0 74 0 4 258 c4 288 9 312 75 353 31 19 34 25 31 62 -3 40 -6 43 -83
89 -44 26 -81 54 -83 62 -3 16 43 54 103 84 64 32 144 45 247 40 116 -5 177
-31 223 -97 l30 -43 3 -404 3 -404 80 0 80 0 -3 408 -3 407 -28 57 c-43 87
-119 144 -232 174 -54 15 -221 25 -270 18z"/>
<path d="M8761 4774 c0 -11 3 -14 6 -6 3 7 2 16 -1 19 -3 4 -6 -2 -5 -13z"/>
<path d="M7695 4761 c-3 -5 -1 -12 5 -16 5 -3 10 1 10 9 0 18 -6 21 -15 7z"/>
<path d="M7276 4743 c-13 -48 -17 -83 -8 -83 12 0 32 46 32 75 0 29 -16 34
-24 8z"/>
<path d="M2825 4730 c-3 -5 -1 -10 4 -10 6 0 11 5 11 10 0 6 -2 10 -4 10 -3 0
-8 -4 -11 -10z"/>
<path d="M6060 4731 c0 -20 72 -29 98 -12 10 6 8 10 -10 14 -34 10 -88 8 -88
-2z"/>
<path d="M7383 4675 c-3 -9 -3 -18 -1 -21 3 -3 8 4 11 16 6 23 -1 27 -10 5z"/>
<path d="M7948 4645 c-6 -30 -3 -43 8 -33 3 4 4 19 2 35 l-3 28 -7 -30z"/>
<path d="M8021 4654 c0 -11 3 -14 6 -6 3 7 2 16 -1 19 -3 4 -6 -2 -5 -13z"/>
<path d="M2442 4605 c0 -16 2 -22 5 -12 2 9 2 23 0 30 -3 6 -5 -1 -5 -18z"/>
<path d="M7935 4590 c3 -5 8 -10 11 -10 2 0 4 5 4 10 0 6 -5 10 -11 10 -5 0
-7 -4 -4 -10z"/>
<path d="M8000 4555 c0 -8 5 -15 10 -15 6 0 10 7 10 15 0 8 -4 15 -10 15 -5 0
-10 -7 -10 -15z"/>
<path d="M2453 4475 c0 -33 2 -45 4 -27 2 18 2 45 0 60 -2 15 -4 0 -4 -33z"/>
<path d="M7350 4484 c0 -8 5 -12 10 -9 6 3 10 10 10 16 0 5 -4 9 -10 9 -5 0
-10 -7 -10 -16z"/>
<path d="M7946 4482 c-4 -13 -5 -26 -2 -29 10 -11 18 4 14 29 l-4 23 -8 -23z"/>
<path d="M8202 4430 c0 -14 2 -19 5 -12 2 6 2 18 0 25 -3 6 -5 1 -5 -13z"/>
<path d="M7441 4424 c0 -11 3 -14 6 -6 3 7 2 16 -1 19 -3 4 -6 -2 -5 -13z"/>
<path d="M6112 4376 c-17 -38 -15 -55 4 -28 8 12 14 30 12 39 -2 13 -6 10 -16
-11z"/>
<path d="M2463 4345 c0 -27 2 -38 4 -22 2 15 2 37 0 50 -2 12 -4 0 -4 -28z"/>
<path d="M6796 4364 c-4 -10 -1 -14 6 -12 15 5 23 28 10 28 -5 0 -13 -7 -16
-16z"/>
<path d="M8077 4363 c-4 -3 -7 -11 -7 -17 0 -6 5 -5 12 2 6 6 9 14 7 17 -3 3
-9 2 -12 -2z"/>
<path d="M6785 4320 c3 -5 8 -10 11 -10 2 0 4 5 4 10 0 6 -5 10 -11 10 -5 0
-7 -4 -4 -10z"/>
<path d="M8151 4314 c0 -11 3 -14 6 -6 3 7 2 16 -1 19 -3 4 -6 -2 -5 -13z"/>
<path d="M6821 4284 c0 -11 3 -14 6 -6 3 7 2 16 -1 19 -3 4 -6 -2 -5 -13z"/>
<path d="M7251 4269 c-6 -18 -11 -41 -10 -53 0 -12 7 1 14 29 16 56 13 72 -4
24z"/>
<path d="M1100 4283 c-97 -3 -556 -31 -620 -38 -19 -2 -87 -7 -150 -10 -114
-7 -161 -10 -272 -21 -48 -5 -58 -9 -58 -25 0 -23 32 -24 156 -9 67 8 188 18
419 35 28 2 120 7 205 10 85 4 193 8 240 11 47 2 235 4 418 4 288 0 332 2 332
15 0 12 -14 15 -62 16 -35 0 -92 3 -128 5 -88 6 -363 10 -480 7z"/>
<path d="M6770 4246 c0 -9 5 -16 10 -16 6 0 10 4 10 9 0 6 -4 13 -10 16 -5 3
-10 -1 -10 -9z"/>
<path d="M2120 4231 c0 -15 28 -19 160 -25 63 -4 132 -7 153 -9 24 -1 37 2 37
11 0 6 -3 12 -7 12 -48 2 -205 11 -265 15 -51 4 -78 2 -78 -4z"/>
<path d="M7204 4180 c-4 -16 -10 -28 -14 -25 -11 7 -20 -48 -10 -59 5 -5 33
-8 62 -5 101 7 844 0 1018 -11 96 -6 247 -19 335 -29 88 -10 174 -19 190 -18
17 0 54 -3 83 -7 42 -6 52 -5 52 7 0 11 -19 16 -72 21 -40 4 -98 11 -128 16
-64 11 -305 39 -400 46 -128 9 -197 14 -290 19 -52 4 -129 8 -170 11 -41 2
-79 5 -85 5 -5 1 -38 -1 -72 -4 -37 -4 -63 -2 -63 4 0 5 -13 9 -30 9 -16 0
-30 -5 -30 -11 0 -6 -8 -5 -20 4 -15 10 -34 11 -82 5 -35 -4 -100 -5 -145 -2
-59 4 -83 3 -83 -5 0 -8 -6 -9 -19 -2 -13 7 -17 18 -14 36 3 14 2 25 -1 25 -4
0 -9 -13 -12 -30z"/>
<path d="M6780 4184 c0 -8 5 -12 10 -9 6 3 10 10 10 16 0 5 -4 9 -10 9 -5 0
-10 -7 -10 -16z"/>
<path d="M261 4164 c0 -11 3 -14 6 -6 3 7 2 16 -1 19 -3 4 -6 -2 -5 -13z"/>
<path d="M8100 4159 c0 -11 4 -18 10 -14 5 3 7 12 3 20 -7 21 -13 19 -13 -6z"/>
<path d="M6063 4115 c-5 -30 -6 -55 -2 -55 8 0 24 99 17 106 -3 2 -9 -21 -15
-51z"/>
<path d="M6767 4133 c-14 -14 -17 -15 -17 -3 0 11 -2 12 -8 3 -4 -7 -45 -14
-97 -18 -50 -3 -101 -7 -115 -9 -14 -2 -33 -4 -42 -4 -12 -1 -18 -10 -18 -25
0 -22 2 -22 93 -20 50 1 92 2 92 3 0 1 24 3 53 5 28 2 52 -1 52 -6 0 -5 7 -9
15 -9 8 0 15 4 15 9 0 5 9 11 20 14 22 6 26 28 10 58 -13 24 -30 24 -53 2z"/>
<path d="M272 4080 c0 -14 2 -19 5 -12 2 6 2 18 0 25 -3 6 -5 1 -5 -13z"/>
<path d="M4860 4076 c0 -3 7 -12 16 -20 21 -22 224 -24 224 -2 0 8 -15 16 -37
20 -43 7 -203 8 -203 2z"/>
<path d="M3798 4053 c-81 -4 -88 -5 -88 -24 0 -15 5 -19 16 -15 9 3 56 6 105
6 82 0 89 1 89 20 0 13 -6 19 -17 18 -10 -1 -57 -4 -105 -5z"/>
<path d="M7275 4050 c-3 -5 -1 -10 4 -10 6 0 11 5 11 10 0 6 -2 10 -4 10 -3 0
-8 -4 -11 -10z"/>
<path d="M3290 4013 c-219 -21 -344 -36 -390 -44 -30 -6 -65 -13 -76 -15 -12
-2 -25 -11 -28 -20 -7 -19 17 -18 229 10 61 8 161 20 223 27 98 10 112 14 112
30 0 12 -7 18 -17 17 -10 0 -34 -3 -53 -5z"/>
<path d="M6737 4013 c-13 -13 -7 -32 8 -27 8 4 15 12 15 20 0 15 -12 19 -23 7z"/>
<path d="M1472 3980 c0 -14 2 -19 5 -12 2 6 2 18 0 25 -3 6 -5 1 -5 -13z"/>
<path d="M6780 3989 c0 -5 5 -7 10 -4 6 3 10 8 10 11 0 2 -4 4 -10 4 -5 0 -10
-5 -10 -11z"/>
<path d="M7267 3973 c-4 -3 -7 -18 -6 -32 1 -26 1 -25 10 3 9 31 7 41 -4 29z"/>
<path d="M6098 3963 c7 -3 16 -2 19 1 4 3 -2 6 -13 5 -11 0 -14 -3 -6 -6z"/>
<path d="M6786 3943 c-4 -9 -2 -21 4 -27 7 -7 10 -2 10 17 0 31 -5 34 -14 10z"/>
<path d="M6757 3930 c-3 -11 -1 -20 4 -20 5 0 9 9 9 20 0 11 -2 20 -4 20 -2 0
-6 -9 -9 -20z"/>
<path d="M7202 3830 c0 -14 2 -19 5 -12 2 6 2 18 0 25 -3 6 -5 1 -5 -13z"/>
<path d="M1382 3775 c0 -16 2 -22 5 -12 2 9 2 23 0 30 -3 6 -5 -1 -5 -18z"/>
<path d="M6761 3768 c0 -9 -4 -25 -7 -35 -5 -14 -4 -15 5 -7 7 7 11 22 8 35
-2 13 -5 16 -6 7z"/>
<path d="M6718 3718 c-1 -55 -2 -61 -9 -73 -4 -5 -3 -30 0 -55 l7 -45 14 27
c9 20 10 34 3 50 -7 16 -6 30 6 50 13 23 13 30 3 36 -7 5 -10 16 -7 24 4 9 2
19 -4 23 -7 4 -12 -9 -13 -37z"/>
<path d="M6790 3705 c0 -15 4 -24 10 -20 6 3 10 12 10 20 0 8 -4 17 -10 20 -6
4 -10 -5 -10 -20z"/>
<path d="M6082 3695 c0 -16 2 -22 5 -12 2 9 2 23 0 30 -3 6 -5 -1 -5 -18z"/>
<path d="M6825 3660 c-3 -5 1 -10 9 -10 9 0 16 5 16 10 0 6 -4 10 -9 10 -6 0
-13 -4 -16 -10z"/>
<path d="M2663 3585 c0 -38 2 -53 4 -32 2 20 2 52 0 70 -2 17 -4 1 -4 -38z"/>
<path d="M6752 3600 c0 -19 2 -27 5 -17 2 9 2 25 0 35 -3 9 -5 1 -5 -18z"/>
<path d="M7080 3595 c0 -19 4 -35 8 -35 4 0 6 16 4 35 -2 19 -6 35 -8 35 -2 0
-4 -16 -4 -35z"/>
<path d="M6930 3584 c0 -14 4 -23 10 -19 6 3 10 15 10 26 0 10 -4 19 -10 19
-5 0 -10 -12 -10 -26z"/>
<path d="M6834 3553 c3 -18 8 -46 11 -61 4 -19 1 -33 -10 -42 -8 -7 -15 -19
-15 -26 0 -23 -28 -16 -33 9 l-4 22 -8 -22 c-9 -27 -25 -30 -25 -5 0 14 -2 14
-9 3 -11 -18 -21 -19 -196 -30 -171 -11 -336 -28 -406 -41 -28 -6 -53 -10 -55
-10 -2 0 -4 -6 -4 -14 0 -22 27 -23 185 -6 83 10 210 20 283 24 l133 7 -6 -44
c-5 -34 -4 -45 8 -50 10 -4 17 3 22 21 4 16 2 28 -4 30 -18 6 -2 22 22 22 18
0 19 2 7 10 -11 7 2 10 43 10 l57 0 0 -62 c0 -76 7 -73 13 7 l4 60 127 3 c143
4 145 3 126 -68 -7 -28 -8 -46 -2 -52 9 -9 32 68 32 107 0 15 46 17 350 18
269 1 772 -23 894 -43 38 -6 90 -10 115 -9 25 0 61 -2 79 -6 25 -6 32 -4 32 8
0 21 -19 26 -139 38 -58 5 -126 16 -150 24 -33 11 -48 12 -57 4 -21 -17 -124
-2 -124 18 0 8 -6 13 -12 10 -7 -2 -12 -9 -11 -15 2 -7 -45 -9 -145 -5 -114 4
-150 8 -159 20 -6 8 -20 13 -30 10 -16 -4 -16 -5 0 -6 9 0 17 -5 17 -10 0 -5
-8 -8 -17 -6 -10 2 -22 4 -26 4 -5 1 -5 6 -2 11 4 6 -17 10 -57 9 -49 -1 -58
-3 -38 -10 37 -13 -227 -2 -273 11 -20 6 -42 8 -49 4 -6 -4 -81 -8 -167 -9
-86 -2 -168 -5 -183 -7 -32 -6 -42 11 -28 50 9 25 9 26 -5 8 -8 -11 -15 -30
-15 -43 0 -13 -4 -23 -10 -23 -5 0 -10 8 -10 18 0 14 -2 15 -10 2 -5 -8 -10
-10 -10 -4 0 5 5 15 12 22 7 7 11 30 10 52 -2 34 0 39 15 33 14 -5 15 -3 6 7
-16 17 -29 6 -37 -31 -9 -47 -39 -35 -47 18 -3 24 -9 46 -13 50 -5 5 -6 -7 -2
-24z m32 -140 c-11 -11 -19 6 -11 24 8 17 8 17 12 0 3 -10 2 -21 -1 -24z"/>
<path d="M6966 3544 c-9 -36 1 -43 14 -10 12 33 12 36 1 36 -5 0 -12 -12 -15
-26z"/>
<path d="M1071 3538 l-1 -28 -115 -2 c-63 -1 -127 -2 -142 -3 -16 -1 -82 -5
-148 -8 -130 -7 -503 -35 -600 -45 -48 -6 -60 -11 -63 -26 -4 -18 1 -19 74
-12 44 4 115 11 159 16 523 61 1489 48 2168 -29 37 -4 70 -4 72 0 8 12 -24 19
-129 30 -56 5 -108 12 -116 14 -8 2 -44 7 -79 10 -35 3 -67 7 -70 9 -3 2 -82
9 -176 16 -93 6 -186 14 -205 16 -50 5 -419 19 -525 19 -88 0 -90 1 -96 25
l-7 25 -1 -27z"/>
<path d="M7390 3520 c0 -5 5 -10 10 -10 6 0 10 5 10 10 0 6 -4 10 -10 10 -5 0
-10 -4 -10 -10z"/>
<path d="M2661 3414 c0 -11 3 -14 6 -6 3 7 2 16 -1 19 -3 4 -6 -2 -5 -13z"/>
<path d="M6031 3414 c0 -11 3 -14 6 -6 3 7 2 16 -1 19 -3 4 -6 -2 -5 -13z"/>
<path d="M2251 3384 c0 -11 3 -14 6 -6 3 7 2 16 -1 19 -3 4 -6 -2 -5 -13z"/>
<path d="M2508 3393 c7 -3 16 -2 19 1 4 3 -2 6 -13 5 -11 0 -14 -3 -6 -6z"/>
<path d="M2545 3381 c6 -6 26 -14 45 -17 24 -5 32 -3 25 4 -5 5 -26 13 -45 17
-25 5 -32 4 -25 -4z"/>
<path d="M2261 3318 c0 -26 4 -80 9 -121 6 -41 14 -132 19 -203 7 -110 8 -117
9 -49 1 44 -3 125 -9 180 -6 55 -14 132 -19 170 -6 60 -7 63 -9 23z"/>
<path d="M2662 3340 c0 -14 2 -19 5 -12 2 6 2 18 0 25 -3 6 -5 1 -5 -13z"/>
<path d="M7349 3334 c-9 -24 -6 -44 5 -33 7 7 15 59 10 59 -2 0 -9 -12 -15
-26z"/>
<path d="M3845 3335 c-356 -22 -500 -37 -710 -76 -178 -32 -172 -32 -155 -19
12 9 7 10 -20 5 -107 -19 -180 -38 -180 -48 0 -15 208 -2 436 28 218 28 364
42 514 50 58 3 141 8 185 10 99 7 775 7 870 1 39 -3 122 -7 185 -10 219 -11
306 -18 495 -41 269 -33 332 -38 320 -27 -14 12 -169 40 -300 53 -60 6 -114
15 -120 20 -5 5 10 7 40 4 119 -13 366 -48 435 -61 41 -8 89 -14 105 -14 69 2
-76 36 -290 69 -38 6 -118 13 -177 16 -59 2 -118 7 -130 10 -13 3 -48 7 -78
10 -30 2 -104 9 -165 14 -185 18 -1010 22 -1260 6z m1443 -52 c-10 -2 -26 -2
-35 0 -10 3 -2 5 17 5 19 0 27 -2 18 -5z m55 0 c-7 -2 -19 -2 -25 0 -7 3 -2 5
12 5 14 0 19 -2 13 -5z"/>
<path d="M6807 3343 c-4 -3 -7 -17 -7 -30 0 -14 -4 -21 -10 -18 -6 3 -10 -5
-10 -18 0 -14 6 -27 14 -30 10 -4 15 8 19 46 7 52 5 62 -6 50z"/>
<path d="M8620 3330 c0 -12 5 -18 10 -15 19 11 60 16 60 6 0 -5 -6 -11 -12
-14 -20 -7 6 -13 130 -29 l112 -14 0 22 c0 18 -7 22 -42 27 -24 3 -72 11 -108
16 -145 24 -150 24 -150 1z"/>
<path d="M6891 3297 c-17 -38 -21 -67 -11 -67 8 0 34 90 27 96 -1 2 -9 -11
-16 -29z"/>
<path d="M2655 3287 c-4 -10 -5 -21 -1 -24 10 -10 18 4 13 24 -4 17 -4 17 -12
0z"/>
<path d="M6762 3280 c0 -14 2 -19 5 -12 2 6 2 18 0 25 -3 6 -5 1 -5 -13z"/>
<path d="M7345 3277 c-3 -9 -7 -24 -9 -31 -7 -20 21 -9 29 11 3 9 1 21 -4 26
-7 7 -12 5 -16 -6z"/>
<path d="M6947 3253 c-10 -10 -8 -53 2 -53 5 0 11 14 13 30 4 29 -1 37 -15 23z"/>
<path d="M7143 3225 c0 -22 2 -30 4 -17 2 12 2 30 0 40 -3 9 -5 -1 -4 -23z"/>
<path d="M7033 3200 c0 -25 2 -35 4 -22 2 12 2 32 0 45 -2 12 -4 2 -4 -23z"/>
<path d="M7056 3211 c-4 -7 -5 -15 -2 -18 9 -9 19 4 14 18 -4 11 -6 11 -12 0z"/>
<path d="M6710 3199 c0 -5 5 -7 10 -4 6 3 10 8 10 11 0 2 -4 4 -10 4 -5 0 -10
-5 -10 -11z"/>
<path d="M7337 3172 c-20 -45 -21 -52 -7 -52 6 0 10 5 10 11 0 7 8 17 17 24
13 10 15 18 7 35 -9 20 -10 19 -27 -18z"/>
<path d="M6853 3180 c-26 -11 -41 -49 -22 -60 10 -7 10 -11 0 -24 -11 -13 -11
-16 3 -16 10 0 16 -9 17 -22 0 -13 6 -1 12 26 7 27 18 51 25 54 18 6 15 20 -5
25 -17 4 -17 5 0 6 9 0 17 6 17 11 0 12 -17 12 -47 0z"/>
<path d="M7670 3161 c0 -17 5 -33 10 -36 6 -4 10 8 10 29 0 20 -4 36 -10 36
-5 0 -10 -13 -10 -29z"/>
<path d="M7051 3134 c0 -11 3 -14 6 -6 3 7 2 16 -1 19 -3 4 -6 -2 -5 -13z"/>
<path d="M6654 3119 c0 -10 4 -19 8 -19 4 0 8 6 8 14 0 8 -4 17 -8 20 -4 2 -8
-4 -8 -15z"/>
<path d="M6981 3124 c0 -11 3 -14 6 -6 3 7 2 16 -1 19 -3 4 -6 -2 -5 -13z"/>
<path d="M6712 3105 c0 -16 2 -22 5 -12 2 9 2 23 0 30 -3 6 -5 -1 -5 -18z"/>
<path d="M6011 3094 c0 -11 3 -14 6 -6 3 7 2 16 -1 19 -3 4 -6 -2 -5 -13z"/>
<path d="M7040 3065 c0 -8 2 -15 4 -15 2 0 6 7 10 15 3 8 1 15 -4 15 -6 0 -10
-7 -10 -15z"/>
<path d="M6936 3055 c-3 -8 -8 -38 -11 -67 -7 -64 9 -36 19 35 7 46 4 61 -8
32z"/>
<path d="M7131 3044 c0 -11 3 -14 6 -6 3 7 2 16 -1 19 -3 4 -6 -2 -5 -13z"/>
<path d="M7275 3050 c3 -5 8 -10 11 -10 2 0 4 5 4 10 0 6 -5 10 -11 10 -5 0
-7 -4 -4 -10z"/>
<path d="M6005 2988 c-6 -37 -8 -65 -3 -62 10 7 20 66 16 100 -2 20 -6 8 -13
-38z"/>
<path d="M6690 3029 c0 -11 5 -17 10 -14 6 3 10 13 10 21 0 8 -4 14 -10 14 -5
0 -10 -9 -10 -21z"/>
<path d="M7474 3036 c-3 -8 -4 -27 -2 -43 3 -23 5 -20 9 15 5 43 2 53 -7 28z"/>
<path d="M5951 3014 c0 -11 3 -14 6 -6 3 7 2 16 -1 19 -3 4 -6 -2 -5 -13z"/>
<path d="M7031 3014 c0 -11 3 -14 6 -6 3 7 2 16 -1 19 -3 4 -6 -2 -5 -13z"/>
<path d="M5566 3004 c-8 -22 -4 -25 11 -9 7 8 9 16 4 19 -5 3 -12 -1 -15 -10z"/>
<path d="M6640 2986 c0 -13 -3 -31 -6 -40 -5 -12 0 -14 22 -10 37 7 49 26 26
41 -9 7 -23 17 -29 23 -10 8 -13 5 -13 -14z m17 -38 c-3 -8 -6 -5 -6 6 -1 11
2 17 5 13 3 -3 4 -12 1 -19z"/>
<path d="M542 2985 c0 -11 4 -31 8 -45 6 -20 8 -21 8 -5 0 11 -4 31 -8 45 -6
20 -8 21 -8 5z"/>
<path d="M2672 2975 c0 -16 -3 -39 -8 -50 -5 -11 -8 -40 -7 -65 5 -149 2 -273
-7 -290 -10 -18 -8 -19 16 -10 14 6 29 8 32 6 8 -5 5 404 -3 412 -3 3 -5 -1
-6 -9 -1 -8 -5 -3 -10 11 -8 24 -8 24 -7 -5z"/>
<path d="M5710 2991 c0 -6 5 -13 10 -16 6 -3 10 1 10 9 0 9 -4 16 -10 16 -5 0
-10 -4 -10 -9z"/>
<path d="M6817 2993 c-4 -3 -7 -11 -7 -17 0 -6 5 -5 12 2 6 6 9 14 7 17 -3 3
-9 2 -12 -2z"/>
<path d="M5790 2976 c-6 -9 -10 -21 -7 -28 4 -9 6 -7 6 4 1 9 7 18 14 21 6 2
9 7 6 11 -3 4 -12 0 -19 -8z"/>
<path d="M6715 2970 c-3 -5 -3 -15 1 -21 6 -11 23 6 24 24 0 10 -18 9 -25 -3z"/>
<path d="M7528 2960 c-7 -24 -3 -38 8 -28 3 4 4 17 2 30 l-3 23 -7 -25z"/>
<path d="M6872 2935 c0 -16 2 -22 5 -12 2 9 2 23 0 30 -3 6 -5 -1 -5 -18z"/>
<path d="M6777 2931 c-5 -22 1 -33 14 -25 12 7 12 44 0 44 -5 0 -11 -9 -14
-19z"/>
<path d="M6708 2925 c-2 -3 -3 -18 0 -35 4 -30 16 -39 26 -21 7 10 -18 63 -26
56z"/>
<path d="M7056 2914 c-9 -24 -7 -76 3 -70 8 5 14 86 6 86 -1 0 -6 -7 -9 -16z"/>
<path d="M5515 2910 c3 -5 8 -10 11 -10 2 0 4 5 4 10 0 6 -5 10 -11 10 -5 0
-7 -4 -4 -10z"/>
<path d="M5545 2910 c3 -5 8 -10 11 -10 2 0 4 5 4 10 0 6 -5 10 -11 10 -5 0
-7 -4 -4 -10z"/>
<path d="M6631 2894 c-6 -15 -10 -29 -7 -31 8 -8 36 24 36 41 0 25 -15 19 -29
-10z"/>
<path d="M6000 2880 c-8 -5 -11 -10 -6 -10 5 0 3 -7 -4 -15 -10 -12 -10 -18 0
-30 9 -10 9 -15 1 -15 -6 0 -11 -12 -11 -26 0 -33 -20 -116 -31 -129 -5 -5 -9
10 -9 35 0 25 -5 52 -11 60 -8 11 -9 7 -4 -16 5 -27 -17 -139 -30 -152 -3 -3
-13 5 -24 17 l-19 21 -6 -22 c-9 -36 -9 -36 38 -36 36 1 43 4 39 17 -4 14 -3
14 9 0 7 -9 29 -18 49 -20 31 -4 35 -2 31 14 -3 10 1 49 7 85 16 89 4 236 -19
222z"/>
<path d="M6692 2870 c0 -14 2 -19 5 -12 2 6 2 18 0 25 -3 6 -5 1 -5 -13z"/>
<path d="M7100 2855 c0 -8 5 -15 10 -15 6 0 10 7 10 15 0 8 -4 15 -10 15 -5 0
-10 -7 -10 -15z"/>
<path d="M5402 2824 c-7 -8 -10 -19 -6 -26 5 -7 10 -3 16 12 10 28 7 33 -10
14z"/>
<path d="M6625 2760 c0 -80 14 -103 26 -44 6 27 7 26 8 -10 0 -22 4 -37 7 -33
9 9 -7 137 -17 131 -5 -3 -9 4 -9 15 0 12 -3 21 -8 21 -4 0 -7 -36 -7 -80z"/>
<path d="M1901 2804 c0 -11 3 -14 6 -6 3 7 2 16 -1 19 -3 4 -6 -2 -5 -13z"/>
<path d="M5621 2804 c0 -11 3 -14 6 -6 3 7 2 16 -1 19 -3 4 -6 -2 -5 -13z"/>
<path d="M7101 2788 c0 -28 2 -30 9 -13 12 28 12 45 0 45 -5 0 -10 -15 -9 -32z"/>
<path d="M2562 2765 c0 -16 2 -22 5 -12 2 9 2 23 0 30 -3 6 -5 -1 -5 -18z"/>
<path d="M6708 2769 c-22 -23 -22 -30 -5 -54 13 -16 13 -15 9 15 -4 27 -2 32
10 27 12 -4 14 0 11 14 -3 10 -6 19 -7 18 0 0 -9 -9 -18 -20z"/>
<path d="M6810 2760 c0 -13 5 -18 14 -14 8 3 12 12 9 20 -8 21 -23 17 -23 -6z"/>
<path d="M5457 2744 c-12 -13 -7 -24 8 -18 8 4 15 1 15 -5 0 -6 -7 -11 -16
-11 -8 0 -12 -5 -9 -11 4 -6 -1 -16 -11 -24 -11 -7 -15 -17 -10 -22 4 -4 15 2
23 15 9 12 24 22 34 22 14 0 19 7 19 25 0 14 -4 25 -9 25 -5 0 -16 2 -23 5 -8
3 -17 2 -21 -1z"/>
<path d="M5335 2729 c-4 -6 -5 -13 -2 -16 7 -7 27 6 27 18 0 12 -17 12 -25 -2z"/>
<path d="M6527 2733 c-3 -5 -1 -17 4 -28 7 -17 8 -17 8 8 1 27 -4 34 -12 20z"/>
<path d="M6757 2718 c-3 -12 -4 -25 -1 -29 6 -11 44 22 44 38 0 22 -37 14 -43
-9z"/>
<path d="M2313 2685 c0 -22 2 -30 4 -17 2 12 2 30 0 40 -3 9 -5 -1 -4 -23z"/>
<path d="M5392 2708 c2 -6 10 -14 16 -16 7 -2 10 2 6 12 -7 18 -28 22 -22 4z"/>
<path d="M143 2675 c0 -22 2 -30 4 -17 2 12 2 30 0 40 -3 9 -5 -1 -4 -23z"/>
<path d="M2572 2680 c0 -19 2 -27 5 -17 2 9 2 25 0 35 -3 9 -5 1 -5 -18z"/>
<path d="M5293 2698 c3 -9 1 -19 -6 -22 -9 -3 -9 -5 0 -5 18 -1 27 19 13 32
-10 9 -12 8 -7 -5z"/>
<path d="M6890 2698 c0 -7 -3 -23 -6 -35 -4 -13 -2 -23 4 -23 5 0 12 16 14 35
2 19 0 35 -4 35 -4 0 -8 -6 -8 -12z"/>
<path d="M5340 2675 c-9 -23 -13 -25 -50 -19 -32 5 -40 4 -40 -9 0 -8 12 -20
28 -25 21 -8 8 -11 -67 -11 -103 -1 -116 -8 -30 -16 30 -3 70 -8 89 -10 86
-10 121 -13 215 -19 54 -4 96 -4 92 0 -4 4 -22 9 -40 10 -101 10 -218 30 -218
38 0 6 8 11 17 12 22 3 26 9 30 44 4 36 -13 40 -26 5z"/>
<path d="M5872 2680 c0 -14 2 -19 5 -12 2 6 2 18 0 25 -3 6 -5 1 -5 -13z"/>
<path d="M5500 2669 c0 -5 5 -7 10 -4 6 3 10 8 10 11 0 2 -4 4 -10 4 -5 0 -10
-5 -10 -11z"/>
<path d="M1162 2658 c-21 -8 -25 -8 161 -11 94 -2 146 1 144 7 -4 12 -277 15
-305 4z"/>
<path d="M3748 2659 c-2 -6 -43 -15 -93 -21 -145 -15 -238 -26 -270 -32 -16
-3 -55 -7 -86 -9 -31 -3 -61 -7 -66 -10 -6 -4 -39 -9 -74 -12 -143 -13 -179
-18 -179 -25 0 -19 119 -27 151 -10 10 6 46 12 79 15 32 2 64 6 70 10 5 3 10
0 10 -7 0 -9 3 -9 8 -2 8 12 8 12 103 18 37 2 72 6 78 10 6 4 29 6 51 4 26 -1
44 3 50 12 6 10 9 7 12 -10 1 -13 9 -25 17 -28 9 -3 11 0 7 7 -4 7 -2 18 4 26
17 20 60 19 60 -1 0 -8 5 -12 10 -9 6 4 8 10 5 15 -3 4 13 6 35 3 28 -4 40 -2
40 7 0 8 18 11 60 8 33 -1 60 0 60 5 0 18 18 5 24 -18 4 -17 13 -25 27 -25 15
0 19 5 15 15 -3 10 1 15 14 15 10 0 22 5 25 10 4 7 61 10 153 8 81 -2 165 0
187 4 26 5 42 3 47 -5 5 -8 11 -8 16 -2 11 15 42 18 57 5 9 -8 14 -7 19 5 5
15 -13 20 -54 17 -79 -7 -645 0 -655 8 -9 8 -14 7 -17 -1z"/>
<path d="M535 2650 c-3 -5 -30 -10 -58 -10 -29 0 -68 -4 -87 -9 -19 -5 -64
-12 -99 -15 -36 -3 -69 -11 -75 -17 -8 -8 -6 -10 9 -6 11 3 52 8 90 11 192 16
244 19 285 19 47 0 72 17 42 29 -27 10 -100 9 -107 -2z"/>
<path d="M888 2655 c-3 -3 -53 -6 -111 -6 -86 -1 -105 -4 -100 -15 3 -8 -1
-14 -8 -14 -7 0 -9 -3 -6 -6 4 -4 12 -2 19 4 20 16 114 18 133 2 14 -11 16
-11 13 1 -2 10 9 15 40 17 23 2 42 7 42 13 0 10 -13 12 -22 4z"/>
<path d="M930 2651 c0 -12 124 -13 170 -2 27 7 11 9 -67 10 -57 1 -103 -3
-103 -8z"/>
<path d="M1495 2650 c-4 -6 9 -9 35 -6 55 5 64 16 12 16 -22 0 -44 -5 -47 -10z"/>
<path d="M1613 2649 c-11 -5 5 -8 40 -8 31 -1 57 2 57 7 0 9 -73 10 -97 1z"/>
<path d="M1743 2653 c-45 -9 -22 -21 40 -21 34 -1 81 -3 105 -5 23 -2 42 -1
42 3 0 4 -30 10 -67 13 -38 2 -75 7 -83 9 -8 3 -25 3 -37 1z"/>
<path d="M7010 2643 c0 -13 5 -23 10 -23 13 0 13 11 0 30 -8 12 -10 11 -10 -7z"/>
<path d="M4490 2633 c0 -11 3 -14 10 -7 12 12 82 5 74 -7 -3 -5 2 -9 11 -9 10
0 13 5 9 12 -5 8 2 9 24 5 18 -4 32 -3 32 2 0 9 -72 21 -126 21 -25 0 -34 -4
-34 -17z"/>
<path d="M6521 2632 c-6 -10 -6 -24 0 -34 10 -19 -3 -22 -156 -38 -55 -6 -109
-13 -120 -15 -11 -2 -39 -4 -62 -4 -24 -1 -43 -4 -43 -8 0 -5 32 -23 70 -42
63 -31 72 -33 99 -21 17 7 39 9 48 5 29 -12 158 -6 182 9 6 4 16 4 21 1 6 -3
31 -3 56 1 36 5 43 9 30 16 -9 5 -21 6 -26 3 -6 -3 -10 -1 -10 4 0 6 -9 11
-20 11 -11 0 -20 5 -20 11 0 9 17 10 58 4 87 -12 130 -10 210 8 90 21 233 22
327 2 83 -18 88 -18 80 -5 -3 6 3 10 14 10 12 0 18 -5 15 -13 -3 -9 15 -12 73
-12 43 0 83 -3 89 -8 6 -4 22 -4 35 1 29 11 229 9 247 -2 7 -4 12 -2 12 4 0 8
7 9 18 5 31 -12 64 -16 58 -6 -4 5 9 8 31 6 21 -2 90 -7 153 -10 63 -3 133 -7
155 -10 22 -2 87 -7 145 -10 58 -3 195 -18 305 -32 207 -27 356 -39 300 -23
-16 4 -49 8 -72 9 -23 0 -44 5 -47 10 -3 4 -34 11 -68 15 -35 4 -94 11 -133
16 -38 5 -106 14 -149 19 -44 5 -89 12 -101 15 -11 3 -52 8 -91 11 -101 7
-178 16 -187 22 -4 2 -67 6 -140 9 -72 3 -152 7 -177 8 -115 8 -479 18 -713
20 -216 1 -259 4 -267 16 -8 13 -10 13 -10 -1 0 -22 -27 -27 -124 -28 -55 -1
-77 2 -69 10 11 11 5 59 -8 59 -4 0 -13 -8 -18 -18z"/>
<path d="M1965 2630 c-4 -6 11 -10 36 -10 48 0 49 4 2 13 -18 4 -35 2 -38 -3z"/>
<path d="M2166 2624 c-11 -8 -18 -14 -15 -15 38 -7 62 -8 53 -2 -6 5 -13 13
-15 20 -3 8 -9 8 -23 -3z"/>
<path d="M4686 2630 c6 -6 59 -11 120 -12 60 0 113 -3 118 -6 14 -8 172 -15
165 -7 -10 9 -41 13 -183 25 -168 13 -233 13 -220 0z"/>
<path d="M6610 2620 c0 -19 3 -21 12 -12 9 9 9 15 0 24 -9 9 -12 7 -12 -12z"/>
<path d="M2582 2601 l-2 -34 -50 5 c-27 3 -50 2 -50 -3 0 -6 100 -19 108 -13
2 1 2 19 -1 40 -4 38 -4 39 -5 5z"/>
<path d="M6760 2615 c0 -8 5 -15 10 -15 6 0 10 7 10 15 0 8 -4 15 -10 15 -5 0
-10 -7 -10 -15z"/>
<path d="M188 2613 c7 -3 16 -2 19 1 4 3 -2 6 -13 5 -11 0 -14 -3 -6 -6z"/>
<path d="M2058 2613 c7 -3 16 -2 19 1 4 3 -2 6 -13 5 -11 0 -14 -3 -6 -6z"/>
<path d="M2090 2610 c0 -5 11 -9 25 -8 14 1 25 6 25 10 0 4 -11 8 -25 8 -14 0
-25 -4 -25 -10z"/>
<path d="M2320 2609 c0 -7 -18 -9 -51 -5 -87 9 -45 -6 53 -20 114 -16 121 -17
113 -4 -3 6 -19 10 -34 10 -15 0 -36 7 -47 15 -23 17 -34 19 -34 4z"/>
<path d="M134 2599 c-3 -5 6 -9 20 -9 31 0 34 6 6 13 -11 3 -23 1 -26 -4z"/>
<path d="M5764 2602 c-6 -4 -17 -18 -24 -31 -11 -21 -10 -23 5 -18 9 4 23 7
31 7 9 0 13 9 12 25 -2 26 -6 29 -24 17z"/>
<path d="M53 2593 c-13 -2 -23 -9 -23 -15 0 -6 12 -8 31 -4 17 3 37 6 43 6 6
0 4 5 -4 10 -8 5 -17 9 -20 8 -3 0 -15 -3 -27 -5z"/>
<path d="M5620 2560 c0 -5 9 -10 19 -10 11 0 28 -3 38 -6 12 -5 15 -4 8 3 -15
15 -65 25 -65 13z"/>
<path d="M1845 2456 c-116 -22 -198 -74 -237 -150 -17 -31 -23 -64 -26 -137
l-4 -97 172 -42 c289 -70 280 -64 280 -194 l0 -91 -58 0 c-110 -1 -162 -57
-162 -175 0 -129 50 -175 190 -175 99 1 140 17 167 68 16 28 18 61 18 257 0
247 -5 274 -56 311 -16 11 -108 41 -209 66 l-180 46 0 46 c0 104 68 152 224
159 116 5 189 -8 263 -48 l52 -27 32 45 c36 51 36 52 -43 93 -95 49 -293 70
-423 45z m216 -815 c20 -16 24 -29 24 -71 0 -42 -4 -55 -24 -71 -30 -24 -112
-26 -135 -3 -33 33 -33 109 1 146 23 25 103 25 134 -1z"/>
<path d="M2704 2456 c-73 -17 -134 -46 -192 -93 l-42 -34 36 -45 36 -44 49 36
c74 54 136 74 228 74 135 0 190 -46 211 -176 6 -33 10 -220 10 -416 l0 -358
75 0 76 0 -3 418 -3 417 -29 63 c-35 75 -75 113 -150 141 -74 27 -220 36 -302
17z"/>
<path d="M3790 2464 c-186 -32 -256 -74 -313 -189 -41 -83 -47 -145 -47 -522
l0 -353 80 0 80 0 0 158 0 158 63 52 c54 46 62 50 65 33 8 -52 110 -98 196
-87 112 13 161 70 159 188 -2 110 -38 152 -140 165 -80 9 -124 -10 -239 -103
l-104 -84 0 133 c0 160 15 221 65 272 45 45 115 65 225 65 110 0 180 -20 225
-65 61 -62 65 -92 65 -512 l0 -373 81 0 80 0 -3 393 c-3 381 -4 394 -26 448
-42 106 -122 174 -237 206 -52 13 -231 25 -275 17z m164 -500 c33 -33 33 -109
-1 -146 -22 -25 -103 -25 -134 1 -30 24 -33 109 -4 141 23 26 115 29 139 4z"/>
<path d="M4724 2456 c-73 -17 -134 -46 -192 -93 l-42 -34 36 -45 36 -44 49 36
c74 54 136 74 228 74 135 0 190 -46 211 -176 6 -33 10 -220 10 -416 l0 -358
75 0 76 0 -3 418 -3 417 -29 63 c-35 75 -75 113 -150 141 -74 27 -220 36 -302
17z"/>
<path d="M5755 2456 c-115 -23 -205 -64 -292 -133 -42 -33 -43 -36 -43 -93 l0
-59 80 -43 c44 -24 80 -45 80 -48 0 -3 -14 -13 -31 -22 -19 -11 -39 -37 -55
-72 -25 -54 -25 -58 -22 -280 3 -210 4 -226 24 -253 32 -44 70 -57 159 -58
133 0 182 40 192 156 12 126 -46 194 -164 194 l-63 0 0 67 c0 106 16 162 56
198 19 16 39 30 44 30 6 0 10 19 10 43 l-1 42 -84 48 c-47 27 -85 54 -85 62 0
18 81 70 144 92 38 14 81 18 176 18 115 0 130 -2 175 -26 30 -15 62 -42 80
-68 l30 -43 3 -404 3 -404 80 0 80 0 -3 408 -3 407 -28 57 c-43 87 -119 144
-232 174 -77 21 -229 26 -310 10z m-27 -812 c18 -13 22 -25 22 -74 0 -71 -19
-90 -92 -90 -66 0 -88 23 -88 90 0 67 22 90 88 90 27 0 57 -7 70 -16z"/>
<path d="M6905 2464 c-118 -19 -230 -66 -322 -135 l-53 -40 0 -63 0 -64 80
-46 80 -46 -44 -43 c-27 -26 -48 -57 -55 -82 -7 -24 -11 -140 -11 -292 l0
-253 74 0 74 0 4 258 c4 288 9 312 75 353 31 19 34 25 31 62 -3 40 -6 43 -83
89 -44 26 -81 54 -83 62 -3 16 43 54 103 84 64 32 144 45 247 40 116 -5 177
-31 223 -97 l30 -43 3 -404 3 -404 80 0 80 0 -3 408 -3 407 -28 57 c-43 87
-119 144 -232 174 -54 15 -221 25 -270 18z"/>
<path d="M7027 2213 c-9 -2 -15 -9 -12 -14 4 -5 -3 -9 -14 -9 -12 0 -21 -5
-21 -11 0 -6 7 -8 16 -5 9 3 24 6 34 6 10 0 20 9 23 20 3 11 2 19 -1 19 -4 -1
-15 -3 -25 -6z"/>
<path d="M4661 1958 c-26 -7 -31 -12 -21 -18 28 -17 0 -22 -34 -6 -41 19 -62
20 -69 3 -8 -21 75 -38 176 -36 48 1 89 5 92 9 8 12 -21 31 -37 25 -9 -4 -22
0 -29 7 -22 22 -41 26 -78 16z m59 -18 c0 -5 -7 -10 -15 -10 -8 0 -15 5 -15
10 0 6 7 10 15 10 8 0 15 -4 15 -10z"/>
<path d="M1090 1790 c0 -5 7 -10 15 -10 8 0 15 5 15 10 0 6 -7 10 -15 10 -8 0
-15 -4 -15 -10z"/>
<path d="M3930 1330 c0 -5 5 -10 11 -10 5 0 7 5 4 10 -3 6 -8 10 -11 10 -2 0
-4 -4 -4 -10z"/>
<path d="M5785 1283 c-87 -23 -117 -64 -117 -163 -1 -76 17 -118 65 -154 23
-17 43 -21 97 -21 l68 0 7 -44 c9 -62 54 -105 123 -120 148 -31 266 15 291
113 6 25 11 122 11 215 l0 171 -70 0 -70 0 0 -173 c0 -203 -5 -217 -73 -217
-70 0 -71 3 -77 157 -7 154 -19 191 -71 218 -31 17 -148 28 -184 18z m135
-103 c14 -14 20 -33 20 -65 0 -62 -24 -85 -88 -85 -66 0 -84 15 -89 77 -5 42
-2 54 16 72 29 29 112 30 141 1z"/>
<path d="M1890 1141 c0 -5 5 -13 10 -16 6 -3 10 -2 10 4 0 5 -4 13 -10 16 -5
3 -10 2 -10 -4z"/>
<path d="M2065 1130 c3 -5 8 -10 11 -10 2 0 4 5 4 10 0 6 -5 10 -11 10 -5 0
-7 -4 -4 -10z"/>
<path d="M387 1048 c-6 -21 4 -23 21 -6 16 16 15 25 -2 25 -8 0 -17 -9 -19
-19z"/>
<path d="M300 820 c0 -5 5 -10 11 -10 5 0 7 5 4 10 -3 6 -8 10 -11 10 -2 0 -4
-4 -4 -10z"/>
</g>
</svg>
