<?xml version="1.0" standalone="no"?>
<!DOCTYPE svg PUBLIC "-//W3C//DTD SVG 1.1//EN" "http://www.w3.org/Graphics/SVG/1.1/DTD/svg11.dtd" >
<svg xmlns="http://www.w3.org/2000/svg" xmlns:xlink="http://www.w3.org/1999/xlink" version="1.1">
<metadata></metadata>
<defs>
<font id="pridiextralight" horiz-adv-x="0" >
<font-face units-per-em="2048" ascent="1536" descent="-512" />
<missing-glyph horiz-adv-x="884" />
<glyph unicode="fi" horiz-adv-x="1218" d="M78 962v100h181v82q0 162 104 257.5t266 95.5q122 0 199 -25.5t147 -91.5v-130h-114v95q-78 50 -224 50q-261 0 -261 -249v-84h612v-883q0 -44 17 -62t59 -18h78v-99h-270v962h-496v-783q0 -44 16.5 -62t58.5 -18h77v-99h-422v99h78q42 0 58.5 18t16.5 62v783h-181z" />
<glyph unicode="fl" horiz-adv-x="1218" d="M78 962v100h181v82q0 162 98.5 257.5t257.5 95.5q124 0 213.5 -26.5t159.5 -90.5v-1201q0 -44 17 -62t59 -18h78v-99h-270v962h-496v-783q0 -44 16.5 -62t58.5 -18h77v-99h-422v99h78q42 0 58.5 18t16.5 62v783h-181zM376 1062h498v283q-78 50 -250 50q-128 0 -188 -61.5 t-60 -187.5v-84z" />
<glyph unicode="&#xe24;&#xe45;" horiz-adv-x="1844" d="M99 891v126q100 89 226 137.5t270 48.5q239 0 361 -117q148 118 351 117q215 0 304.5 -102.5t89.5 -300.5v-1245h-118v1245q0 157 -61.5 232.5t-212.5 75.5q-89 0 -157 -24.5t-135 -79.5q45 -84 45 -192v-1257h-118v1253q0 301 -349 300q-118 0 -219.5 -35t-174.5 -100 v-26l202 -128v-78q-76 -31 -102.5 -81t-26.5 -147v-179q34 13 80 14q195 0 195 -191q0 -102 -49 -146t-148 -44q-106 0 -150.5 48.5t-44.5 157.5v353q0 188 130 253zM247 157q0 -60 23.5 -81t83.5 -21q62 0 84 21t22 81q0 55 -23 78.5t-83 23.5q-57 0 -82 -23t-25 -79z" />
<glyph unicode="&#xe26;&#xe45;" horiz-adv-x="1986" d="M99 157q0 190 195 191q46 0 80 -14v170q0 93 13.5 145t63.5 101l-232 141v126q100 89 230.5 137.5t274.5 48.5q247 0 367 -124q146 124 357 124q215 0 304.5 -102.5t89.5 -300.5v-1245h-117v1245q0 157 -61.5 232.5t-213.5 75.5q-92 0 -162 -26.5t-138 -85.5 q40 -80 40 -184v-1257h-118v1253q0 301 -348 300q-120 0 -225 -35t-178 -100v-26l245 -151v-77q-38 -31 -53 -56.5t-18.5 -60t-3.5 -111.5v-318q0 -108 -44 -157t-151 -49q-99 0 -148 44t-49 146zM188 157q0 -60 22 -81t84 -21q60 0 83.5 21t23.5 81q0 55 -23.5 78.5 t-83.5 23.5t-83 -23t-23 -79z" />
<glyph unicode=" "  horiz-adv-x="884" />
<glyph unicode="&#x09;" horiz-adv-x="884" />
<glyph unicode="&#xa0;" horiz-adv-x="884" />
<glyph unicode="!" horiz-adv-x="382" d="M122 0v139h139v-139h-139zM124 1431h135l-14 -1104h-108z" />
<glyph unicode="&#x22;" horiz-adv-x="636" d="M122 1595h144l-25 -394h-95zM372 1595h143l-24 -394h-95z" />
<glyph unicode="#" horiz-adv-x="1649" d="M122 403v99h292l101 460h-327v100h350l79 369h117l-80 -369h503l80 369h116l-79 -369h254v-100h-276l-102 -460h312v-99h-334l-86 -403h-118l87 403h-502l-87 -403h-116l85 403h-269zM531 502h501l103 460h-502z" />
<glyph unicode="$" horiz-adv-x="1193" d="M122 112v173h117v-121q63 -42 170.5 -69t209.5 -27q166 0 253.5 71.5t87.5 198.5q0 89 -41 147.5t-113 99.5t-191 86q-169 61 -269.5 115t-155.5 129.5t-55 186.5q0 164 112 255t295 105v235h117v-235q108 -8 212 -40.5t173 -79.5v-172h-117v122q-55 33 -144 52t-186 19 q-162 0 -256 -63t-94 -198q0 -89 51.5 -147t119 -89.5t217.5 -91.5q148 -57 236.5 -107t144.5 -129.5t56 -199.5q0 -154 -108 -255.5t-305 -113.5v-235h-117v235q-114 8 -228.5 47t-191.5 96z" />
<glyph unicode="%" horiz-adv-x="1716" d="M122 1123q0 93 45.5 172t123.5 124t171 45t171.5 -45t123.5 -124t45 -172t-45 -171t-123.5 -123.5t-171.5 -45.5t-171 45.5t-123.5 123.5t-45.5 171zM228 1123q0 -97 68.5 -165.5t165.5 -68.5t166 68.5t69 165.5t-69 166t-166 69t-165.5 -69t-68.5 -166zM380 0l834 1431 h118l-834 -1431h-118zM914 308q0 93 45 171t123.5 123.5t171.5 45.5t171.5 -45.5t124 -123.5t45.5 -171t-45.5 -172t-124 -124t-171.5 -45t-171.5 45t-123.5 124t-45 172zM1020 308q0 -97 68.5 -166t165.5 -69t165.5 69t68.5 166t-68.5 165.5t-165.5 68.5t-165.5 -68.5 t-68.5 -165.5z" />
<glyph unicode="&#x26;" horiz-adv-x="1507" d="M122 338q0 162 74 260.5t245 195.5q-111 110 -163 190t-52 171q0 145 81.5 227t245.5 82q162 0 244.5 -88.5t82.5 -229.5v-89h-116v89q0 106 -52.5 161.5t-156.5 55.5q-110 0 -163.5 -49t-53.5 -159q0 -72 33.5 -122.5t128.5 -152.5l31 -33l531 -562q63 126 63 330v177 h262v-98h-82q-42 0 -58.5 -16.5t-16.5 -60.5q0 -262 -93 -412l192 -205h-141l-124 133q-102 -91 -212.5 -128.5t-260.5 -37.5q-213 0 -341 98.5t-128 272.5zM234 338q0 -135 106.5 -202.5t250.5 -67.5q133 0 227 32.5t176 107.5l-481 509q-148 -68 -213.5 -156t-65.5 -223z " />
<glyph unicode="'" horiz-adv-x="386" d="M122 1595h144l-25 -394h-95z" />
<glyph unicode="(" horiz-adv-x="705" d="M122 699q0 566 307 865h155q-175 -133 -262.5 -357.5t-87.5 -507.5t87.5 -507.5t262.5 -357.5h-155q-307 299 -307 865z" />
<glyph unicode=")" horiz-adv-x="705" d="M122 -166q174 133 261.5 357.5t87.5 507.5t-87.5 507.5t-261.5 357.5h154q308 -298 308 -865q0 -566 -308 -865h-154z" />
<glyph unicode="*" horiz-adv-x="875" d="M122 1317l35 116l234 -95l-13 257h122l-15 -257l234 95l35 -116l-252 -70l182 -227l-104 -66l-142 225l-144 -225l-102 66l182 227z" />
<glyph unicode="+" horiz-adv-x="908" d="M122 624v100h272v243h117v-243h276v-100h-276v-244h-117v244h-272z" />
<glyph unicode="," horiz-adv-x="452" d="M122 -257l62 409h148l-124 -409h-86z" />
<glyph unicode="-" horiz-adv-x="842" d="M122 624v100h599v-100h-599z" />
<glyph unicode="." horiz-adv-x="395" d="M122 0v152h152v-152h-152z" />
<glyph unicode="/" horiz-adv-x="914" d="M122 0l555 1495h117l-555 -1495h-117z" />
<glyph unicode="0" horiz-adv-x="1353" d="M99 717q0 374 141.5 560.5t436.5 186.5q294 0 435.5 -186.5t141.5 -560.5t-142.5 -562t-434.5 -188q-293 0 -435.5 187.5t-142.5 562.5zM213 717q0 -342 119 -495.5t345 -153.5t345.5 153t119.5 496q0 342 -119.5 494t-345.5 152t-345 -152t-119 -494z" />
<glyph unicode="1" horiz-adv-x="846" d="M99 1243l304 188h121v-1252q0 -44 17.5 -62t66.5 -18h139v-99h-563v99h139q49 0 66.5 18t17.5 62v1138l-259 -158z" />
<glyph unicode="2" horiz-adv-x="1154" d="M122 0v99q0 201 116 338.5t344 248.5q129 61 200.5 118t104.5 126.5t33 171.5q0 135 -93 198t-257 63q-97 0 -185.5 -19t-143.5 -52v-122h-117v172q78 53 199.5 87.5t244.5 34.5q205 0 334.5 -91.5t129.5 -270.5q0 -120 -42.5 -207t-135.5 -161.5t-252 -149.5 q-191 -90 -277 -204t-86 -281h781v-99h-898z" />
<glyph unicode="3" horiz-adv-x="1195" d="M122 112v173h117v-121q66 -44 158 -70t194 -26q196 0 283.5 80t87.5 266q0 143 -85 213t-262 70h-159v103h170q321 0 321 306q0 257 -350 257q-97 0 -185.5 -19t-143.5 -52v-122h-118v172q78 53 199.5 87.5t245.5 34.5q209 0 336.5 -90.5t127.5 -267.5q0 -257 -203 -356 q220 -87 219 -336q0 -233 -120.5 -340t-372.5 -107q-259 0 -460 145z" />
<glyph unicode="4" horiz-adv-x="1249" d="M78 380v100l692 951h135v-951h267v-100h-267v-201q0 -44 17.5 -62t65.5 -18h140v-99h-564v99h139q49 0 66.5 18t17.5 62v201h-709zM197 480h590v810z" />
<glyph unicode="5" horiz-adv-x="1203" d="M122 112v173h117v-121q143 -95 367 -96q188 0 275.5 103t87.5 298q0 139 -43.5 217t-129.5 108.5t-226 30.5h-395v91l44 515h813v-99h-711l-36 -403h306q491 0 490 -460q0 -241 -119.5 -371.5t-364.5 -130.5q-150 0 -264 37.5t-211 107.5z" />
<glyph unicode="6" horiz-adv-x="1222" d="M122 610q0 469 161.5 661.5t404.5 192.5q110 0 191 -23t156 -74l-53 -84q-74 44 -137.5 62t-158.5 18q-383 0 -445 -561q73 104 171.5 152t244.5 48q230 0 359.5 -128.5t129.5 -362.5q0 -544 -520 -544q-239 0 -371.5 152.5t-132.5 490.5zM234 531q0 -236 104.5 -349.5 t287.5 -113.5q214 0 310 104t96 339q0 201 -93.5 295.5t-299.5 94.5q-99 0 -192 -42.5t-153 -126.5t-60 -201z" />
<glyph unicode="7" horiz-adv-x="1100" d="M78 1170v261h946v-82l-539 -1349h-118l534 1332h-707v-162h-116z" />
<glyph unicode="8" horiz-adv-x="1260" d="M122 399q0 132 63.5 219t166.5 127q-108 53 -157 138.5t-49 207.5q0 181 132.5 277t352.5 96q219 0 351.5 -96t132.5 -277q0 -122 -49 -207.5t-157 -138.5q102 -40 166 -127t64 -219q0 -431 -508 -432q-509 1 -509 432zM234 399q0 -173 96.5 -252t300.5 -79q203 0 299 79 t96 252q0 145 -95 223.5t-281 78.5h-40q-186 0 -281 -78.5t-95 -223.5zM259 1091q0 -155 85 -225t264 -70h44q180 0 265 69.5t85 225.5q0 137 -97 204.5t-276 67.5q-178 0 -274 -67.5t-96 -204.5z" />
<glyph unicode="9" horiz-adv-x="1266" d="M122 920q0 272 133.5 408t394.5 136q496 0 496 -643q0 -471 -155 -662.5t-394 -191.5q-110 0 -191 23t-157 74l54 84q74 -44 137.5 -62t158.5 -18q190 0 293.5 141t133.5 420q-73 -104 -170.5 -152t-240.5 -48q-231 0 -362 128.5t-131 362.5zM234 920q0 -199 95 -294 t302 -95q99 0 191 42t151 126t59 202q0 462 -382 462q-215 0 -315.5 -105.5t-100.5 -337.5z" />
<glyph unicode=":" horiz-adv-x="403" d="M122 0v162h161v-162h-161zM122 922v162h161v-162h-161z" />
<glyph unicode=";" horiz-adv-x="459" d="M122 -257l62 409h148l-124 -409h-86zM177 922v162h161v-162h-161z" />
<glyph unicode="&#x3c;" horiz-adv-x="1388" d="M122 659v111l1146 493v-126l-1011 -422l1011 -423v-126z" />
<glyph unicode="=" horiz-adv-x="864" d="M122 469v99h621v-99h-621zM122 774v100h621v-100h-621z" />
<glyph unicode="&#x3e;" horiz-adv-x="1388" d="M122 166v126l1011 423l-1011 422v126l1146 -493v-111z" />
<glyph unicode="?" horiz-adv-x="1152" d="M122 1159v173q78 57 200.5 94.5t243.5 37.5q208 0 336 -87t128 -265q0 -103 -29.5 -171.5t-98 -121.5t-197.5 -116q-103 -51 -135 -120.5t-32 -183.5v-72h-118v72q0 147 60 244.5t206 164.5q93 42 140.5 79t69.5 89t22 136q0 250 -350 251q-95 0 -183.5 -22t-145.5 -60 v-122h-117zM403 0v152h152v-152h-152z" />
<glyph unicode="@" horiz-adv-x="1893" d="M122 615q0 254 97 440t282 286.5t446 100.5q445 0 634.5 -214.5t189.5 -612.5q0 -215 -78 -349.5t-251 -134.5q-87 0 -145 47.5t-73 113.5q-118 -162 -350 -161q-135 0 -211.5 60.5t-76.5 169.5q0 122 76.5 181.5t224.5 69.5l299 21v88q0 111 -43.5 157t-156.5 46 q-71 0 -120.5 -9.5t-95.5 -32.5v-63h-118v128q66 40 153.5 59.5t176.5 19.5q320 0 320 -305v-320q0 -80 35 -124.5t105 -44.5q106 0 161.5 92t55.5 291q0 245 -66.5 403.5t-222.5 240t-423 81.5q-344 0 -528.5 -194.5t-184.5 -530.5q0 -366 188 -561t525 -195q277 0 486 95 v-106q-219 -91 -486 -91q-266 0 -451.5 107t-279.5 301t-94 450zM699 361q0 -68 44 -98.5t139 -30.5q133 0 218.5 58t85.5 172v76l-301 -21q-102 -6 -144 -40t-42 -116z" />
<glyph unicode="A" horiz-adv-x="1600" d="M99 0v99h78q91 0 119 80l451 1252h109l449 -1252q29 -80 120 -80h77v-99h-411v99h127l-129 363h-576l-131 -363h129v-99h-412zM549 562h504l-253 703z" />
<glyph unicode="B" horiz-adv-x="1271" d="M99 0v99h78q42 0 58.5 18t16.5 62v1073q0 44 -16.5 62t-58.5 18h-78v99h665q192 0 287 -98.5t95 -273.5q0 -117 -48.5 -204t-148.5 -127q113 -31 168 -123t55 -218q0 -165 -92 -276t-266 -111h-715zM369 99h436q124 0 189 73t65 217q0 146 -69.5 215t-237.5 69h-383v-574 zM369 772h363q150 0 225 76t75 211q0 146 -62.5 209.5t-215.5 63.5h-385v-560z" />
<glyph unicode="C" horiz-adv-x="1315" d="M99 710q0 219 76.5 389.5t229 267.5t376.5 97q278 0 435 -113v-172h-117v121q-117 62 -318 63q-266 0 -417 -174t-151 -479q0 -197 74 -341.5t206.5 -222.5t300.5 -78q215 0 348 78l52 -87q-152 -92 -400 -92q-216 0 -373 95t-239.5 263.5t-82.5 384.5z" />
<glyph unicode="D" horiz-adv-x="1370" d="M99 0v95h55q43 0 59.5 18t16.5 62v1081q0 44 -16.5 62t-59.5 18h-55v95h585q301 0 444.5 -191t143.5 -530q0 -332 -148.5 -521t-439.5 -189h-585zM348 95h325q251 0 368.5 154t117.5 461q0 314 -116 470t-370 156h-325v-1241z" />
<glyph unicode="E" horiz-adv-x="1200" d="M99 0v99h78q42 0 58.5 18t16.5 62v1073q0 44 -16.5 62t-58.5 18h-78v99h1003v-228h-106v53q0 42 -18 59t-62 17h-547v-564h467v-101h-467v-568h547q44 0 62 17t18 59v55h106v-230h-1003z" />
<glyph unicode="F" horiz-adv-x="1200" d="M99 0v99h78q42 0 58.5 18t16.5 62v1073q0 44 -16.5 62t-58.5 18h-78v99h1003v-228h-106v53q0 42 -18 59t-62 17h-547v-564h467v-101h-467v-488q0 -44 17 -62t59 -18h77v-99h-423z" />
<glyph unicode="G" horiz-adv-x="1334" d="M99 710q0 340 165 547t494 207q279 0 436 -113v-172h-117v121q-118 62 -319 63q-263 0 -404 -171.5t-141 -481.5q0 -302 149 -472t410 -170q108 0 190 15.5t157 51.5v484h-338v100h456v-630q-102 -64 -212.5 -93t-252.5 -29q-217 0 -368.5 95t-228 263.5t-76.5 384.5z " />
<glyph unicode="H" horiz-adv-x="1494" d="M99 0v99h78q42 0 58.5 18t16.5 62v1073q0 44 -16.5 62t-58.5 18h-78v99h423v-99h-77q-42 0 -59 -18t-17 -62v-484h756v484q0 44 -16 62t-58 18h-78v99h422v-99h-76q-42 0 -59 -18t-17 -62v-1073q0 -44 17 -62t59 -18h76v-99h-422v99h78q42 0 58 18t16 62v488h-756v-488 q0 -44 17 -62t59 -18h77v-99h-423z" />
<glyph unicode="I" horiz-adv-x="621" d="M99 0v99h78q42 0 58.5 18t16.5 62v1073q0 44 -16.5 62t-58.5 18h-78v99h423v-99h-77q-42 0 -59 -18t-17 -62v-1073q0 -44 17 -62t59 -18h77v-99h-423z" />
<glyph unicode="J" horiz-adv-x="1068" d="M33 114v145h115v-95q89 -95 266 -96q148 0 216.5 78t68.5 230v876q0 44 -17 62t-58 18h-78v99h423v-99h-78q-42 0 -58.5 -18t-16.5 -62v-868q0 -196 -100.5 -306.5t-293.5 -110.5q-130 0 -223 37.5t-166 109.5z" />
<glyph unicode="K" horiz-adv-x="1401" d="M99 0v99h69q49 0 66.5 18t17.5 62v1077q0 44 -16.5 62t-58.5 18h-55v95h378v-95h-55q-42 0 -59 -18t-17 -62v-602l625 678h-129v99h412v-99h-89q-40 0 -63 -16t-66 -58l-396 -429l432 -652q29 -42 58 -60t73 -18h76v-99h-420v99h129l-427 644l-215 -232v-332 q0 -44 18 -62t67 -18h68v-99h-423z" />
<glyph unicode="L" horiz-adv-x="1112" d="M99 0v95h47q48 0 66 18t18 62v1081q0 44 -16.5 62t-59.5 18h-55v95h378v-95h-55q-42 0 -58 -18t-16 -62v-1161h545q44 0 62 17t18 59v55h106v-226h-980z" />
<glyph unicode="M" horiz-adv-x="1716" d="M99 0v99h78q42 0 58.5 18t16.5 62v1073q0 44 -16.5 62t-58.5 18h-78v99h304l456 -1075l455 1075h303v-99h-78q-42 0 -58.5 -18t-16.5 -62v-1073q0 -44 16.5 -62t58.5 -18h78v-99h-423v99h78q42 0 58.5 18t16.5 62v1068l-435 -1026h-107l-436 1026v-1068q0 -44 17 -62 t59 -18h77v-99h-423z" />
<glyph unicode="N" horiz-adv-x="1516" d="M99 0v99h78q42 0 58.5 18t16.5 62v1073q0 44 -16.5 62t-58.5 18h-78v99h260l789 -1223v1044q0 44 -16.5 62t-59.5 18h-76v99h422v-99h-78q-42 0 -58.5 -18t-16.5 -62v-1252h-106l-790 1224v-1045q0 -44 17 -62t59 -18h77v-99h-423z" />
<glyph unicode="O" horiz-adv-x="1441" d="M99 710q0 378 150 566t472 188q323 0 472 -187.5t149 -566.5q0 -374 -152 -558.5t-469 -184.5q-316 0 -469 184.5t-153 558.5zM213 710q0 -341 128 -491.5t380 -150.5t380.5 150.5t128.5 491.5q0 347 -127.5 500t-381.5 153t-381 -153t-127 -500z" />
<glyph unicode="P" horiz-adv-x="1359" d="M99 0v99h69q49 0 66.5 18t17.5 62v1073q0 44 -17.5 62t-66.5 18h-69v99h735q198 0 312 -113t114 -311q0 -201 -116 -322t-312 -121h-463v-385q0 -44 18 -62t67 -18h68v-99h-423zM369 663h447q332 0 332 344q0 181 -80 253t-252 72h-447v-669z" />
<glyph unicode="Q" horiz-adv-x="1441" d="M99 710q0 340 154 547t468 207q315 0 468 -206.5t153 -547.5q0 -319 -141.5 -520t-413.5 -221q7 -93 55.5 -143t134.5 -50q127 0 169 62v91h117v-121q-89 -129 -286 -129q-141 0 -221.5 86.5t-88.5 203.5q-280 15 -424 216.5t-144 524.5zM213 710q0 -304 132 -473 t376 -169q243 0 376 169.5t133 472.5q0 310 -131.5 481.5t-377.5 171.5q-245 0 -376.5 -171.5t-131.5 -481.5z" />
<glyph unicode="R" horiz-adv-x="1346" d="M99 0v99h69q49 0 66.5 18t17.5 62v1073q0 44 -17.5 62t-66.5 18h-69v99h675q201 0 314 -103.5t113 -287.5q0 -177 -105 -289t-294 -120l238 -454q22 -44 52.5 -61t77.5 -17h77v-99h-420v99h129l-279 532h-308v-452q0 -44 18 -62t67 -18h68v-99h-423zM369 730h387 q164 0 248.5 81.5t84.5 228.5q0 152 -80 222t-253 70h-387v-602z" />
<glyph unicode="S" horiz-adv-x="1149" d="M99 112v177h122v-125q64 -42 169.5 -69t206.5 -27q167 0 253.5 71.5t86.5 198.5q0 89 -40.5 147.5t-112.5 99.5t-191 86q-169 61 -269 115t-156 129.5t-56 186.5q0 179 130 270.5t336 91.5q124 0 245 -34.5t199 -87.5v-177h-121v127q-58 33 -144 52t-182 19 q-162 0 -255.5 -63t-93.5 -198q0 -89 50.5 -147t118 -89.5t217.5 -91.5q148 -57 236.5 -107t145.5 -129.5t57 -199.5q0 -164 -121.5 -267.5t-340.5 -103.5q-131 0 -265 41t-225 104z" />
<glyph unicode="T" horiz-adv-x="1165" d="M78 1203v228h1011v-228h-107v53q0 42 -17.5 59t-61.5 17h-261v-1153q0 -44 17.5 -62t66.5 -18h68v-99h-422v99h69q48 0 65.5 18t17.5 62v1153h-260q-45 0 -62.5 -17t-17.5 -59v-53h-106z" />
<glyph unicode="U" horiz-adv-x="1428" d="M78 1338v93h378v-93h-55q-42 0 -59 -18t-17 -62v-882q0 -155 98.5 -234.5t291.5 -79.5q192 0 290.5 79.5t98.5 234.5v882q0 44 -17 62t-59 18h-55v93h378v-93h-55q-42 0 -59 -18t-17 -62v-867q0 -194 -126.5 -309t-378.5 -115q-253 0 -380 115t-127 309v867 q0 44 -16.5 62t-58.5 18h-55z" />
<glyph unicode="V" horiz-adv-x="1556" d="M99 1336v95h230l450 -1263l449 1263h230v-95h-65q-53 0 -73 -14.5t-37 -65.5l-449 -1256h-108l-452 1256q-17 51 -37 65.5t-73 14.5h-65z" />
<glyph unicode="W" horiz-adv-x="1961" d="M99 1332v99h257l265 -1239l299 998h122l298 -998l268 1239h254v-99h-68q-53 0 -75 -18t-33 -62l-284 -1252h-106l-316 1035l-313 -1035h-105l-286 1252q-10 44 -32.5 62t-75.5 18h-69z" />
<glyph unicode="X" horiz-adv-x="1463" d="M99 0v99h78q53 0 79.5 16t53.5 58l361 551l-350 534q-27 42 -53.5 58t-79.5 16h-78v99h412v-99h-128l338 -516l338 516h-128v99h411v-99h-76q-53 0 -80 -16t-53 -58l-352 -534l363 -551q27 -42 53 -58t79 -16h78v-99h-411v99h127l-349 532l-350 -532h129v-99h-412z" />
<glyph unicode="Y" horiz-adv-x="1467" d="M99 1336v95h378v-95h-55q-48 0 -48 -29q0 -20 17 -51l343 -637l343 637q17 31 18 51q0 29 -48 29h-56v95h378v-95h-55q-40 0 -69 -20t-51 -60l-400 -741v-340q0 -44 16.5 -62t58.5 -18h55v-95h-378v95h56q42 0 58.5 18t16.5 62v340l-403 741q-21 40 -50.5 60t-69.5 20 h-55z" />
<glyph unicode="Z" horiz-adv-x="1226" d="M99 0v95l874 1241h-650q-44 0 -62 -17t-18 -59v-55h-106v226h967v-95l-874 -1241h712q44 0 62 17t18 59v55h106v-226h-1029z" />
<glyph unicode="[" horiz-adv-x="601" d="M144 -184v1843h336v-99h-219v-1644h219v-100h-336z" />
<glyph unicode="\" horiz-adv-x="914" d="M122 1495h117l555 -1495h-117z" />
<glyph unicode="]" horiz-adv-x="601" d="M122 -84h218v1644h-218v99h336v-1843h-336v100z" />
<glyph unicode="^" horiz-adv-x="1251" d="M122 821l448 770h111l450 -770h-127l-378 648l-379 -648h-125z" />
<glyph unicode="_" horiz-adv-x="996" d="M122 0h754v-99h-754v99z" />
<glyph unicode="`" horiz-adv-x="605" d="M122 1595h174l189 -394h-107z" />
<glyph unicode="a" horiz-adv-x="1144" d="M78 259q0 152 93 221t262 79l386 27v144q0 142 -56 203t-201 61q-91 0 -155.5 -13.5t-123.5 -43.5v-81h-117v135q173 104 391 104q205 0 291.5 -95t86.5 -272v-555q0 -49 17 -69t55 -20h61v-84h-212l-24 135q-125 -168 -416 -168q-164 0 -251 75.5t-87 216.5zM190 255 q0 -93 59 -140t194 -47q167 0 271.5 74.5t104.5 222.5v129l-388 -27q-137 -9 -189 -55.5t-52 -156.5z" />
<glyph unicode="b" horiz-adv-x="1288" d="M78 1372v92h249v-571q74 108 175.5 155t231.5 47q217 0 336.5 -150.5t119.5 -425.5q0 -263 -130.5 -407.5t-349.5 -144.5q-261 0 -383 210l-15 -177h-101v1263q0 61 -16 85t-71 24h-46zM321 467q0 -111 47.5 -203.5t131.5 -148.5t186 -56q391 0 391 465q0 241 -93 358.5 t-283 117.5q-99 0 -186.5 -48.5t-140.5 -139.5t-53 -210v-135z" />
<glyph unicode="c" horiz-adv-x="1123" d="M99 526q0 270 139.5 419.5t387.5 149.5q135 0 226.5 -27.5t171.5 -85.5v-172h-117v121q-64 33 -123.5 48t-157.5 15q-181 0 -297 -113t-116 -355q0 -157 61.5 -259.5t159 -150.5t208.5 -48q112 0 183.5 18t145.5 60l53 -87q-82 -50 -172.5 -71t-209.5 -21q-153 0 -276 65 t-195 191.5t-72 302.5z" />
<glyph unicode="d" horiz-adv-x="1288" d="M99 522q0 267 124.5 420t340.5 153q146 0 241.5 -46.5t156.5 -155.5v370q0 61 -15.5 85t-70.5 24h-47v92h250v-1291q0 -49 16.5 -69t54.5 -20h62v-84h-232l-22 168q-129 -198 -396 -199q-217 0 -340 144t-123 409zM213 522q0 -228 91.5 -344t273.5 -116q110 0 199.5 53 t140.5 148.5t51 213.5v125q0 183 -105.5 290.5t-270.5 107.5q-380 0 -380 -478z" />
<glyph unicode="e" horiz-adv-x="1180" d="M99 513q0 287 134 434.5t379 147.5q235 0 352 -136t117 -377v-100h-862q0 -215 114 -317.5t284 -102.5q112 0 183.5 16.5t126.5 52.5v74h117v-125q-95 -59 -194.5 -86t-232.5 -27q-146 0 -263 61t-186 183.5t-69 301.5zM219 582h756q0 209 -87.5 310.5t-275.5 101.5 q-192 0 -292.5 -111t-100.5 -301z" />
<glyph unicode="f" horiz-adv-x="870" d="M78 962v100h181v63q0 169 87 270.5t243 101.5q103 0 177 -25.5t135 -82.5v-131h-116v95q-35 25 -79.5 33.5t-108.5 8.5q-110 0 -165.5 -69.5t-55.5 -197.5v-66h348v-100h-348v-783q0 -44 16.5 -62t58.5 -18h77v-99h-422v99h78q42 0 58.5 18t16.5 62v783h-181z" />
<glyph unicode="g" horiz-adv-x="1288" d="M99 542q0 264 128.5 408.5t347.5 144.5q126 0 221 -47.5t162 -152.5l22 167h232v-85h-62q-38 0 -54.5 -20t-16.5 -68v-900q0 -194 -107 -313t-286 -119q-131 0 -218.5 31.5t-166.5 99.5v144h115v-96q48 -42 110.5 -59t150.5 -17q137 0 211 84.5t74 236.5v190 q-61 -108 -156.5 -155t-241.5 -47q-217 0 -341 152.5t-124 420.5zM213 542q0 -477 380 -478q165 0 270.5 107.5t105.5 290.5v124q0 122 -47.5 215.5t-134 147t-196.5 53.5q-184 0 -281 -116t-97 -344z" />
<glyph unicode="h" horiz-adv-x="1321" d="M99 0v99h78q42 0 58.5 18t16.5 62v1106q0 44 -16.5 62t-58.5 18h-57v99h249v-535q74 86 167 126t220 40q162 0 249.5 -95t87.5 -268v-553q0 -44 16 -62t58 -18h78v-99h-272v730q0 139 -61 204.5t-188 65.5q-93 0 -175 -40t-131 -114t-49 -171v-496q0 -44 17 -62t59 -18 h77v-99h-423z" />
<glyph unicode="i" horiz-adv-x="576" d="M78 0v99h76q43 0 59.5 18t16.5 62v703q0 45 -16.5 62.5t-59.5 17.5h-76v100h270v-883q0 -44 16 -62t58 -18h78v-99h-422zM219 1247v140h140v-140h-140z" />
<glyph unicode="j" horiz-adv-x="760" d="M-33 -102h115v-95q38 -42 85.5 -58.5t113.5 -16.5q110 0 164.5 61t54.5 207v886q0 45 -16.5 62.5t-59.5 17.5h-76v100h269v-1058q0 -188 -86 -283t-242 -95q-105 0 -178 30t-144 99v143zM467 1247v140h139v-140h-139z" />
<glyph unicode="k" horiz-adv-x="1264" d="M99 0v99h69q49 0 66.5 18t17.5 62v1111q0 44 -16.5 61.5t-58.5 17.5h-55v95h378v-95h-55q-42 0 -59 -17.5t-17 -61.5v-771l494 443h-131v100h412v-100h-87q-33 0 -49.5 -7.5t-33 -24t-25.5 -23.5l-268 -242l301 -492q29 -47 52 -60.5t76 -13.5h78v-99h-226l-367 591 l-226 -204v-208q0 -44 18 -62t67 -18h68v-99h-423z" />
<glyph unicode="l" horiz-adv-x="599" d="M99 0v99h78q42 0 58.5 18t16.5 62v1106q0 44 -16.5 62t-58.5 18h-78v99h270v-1285q0 -44 17 -62t59 -18h77v-99h-423z" />
<glyph unicode="m" horiz-adv-x="1861" d="M99 0v99h78q42 0 58.5 18t16.5 62v703q0 45 -16.5 62.5t-58.5 17.5h-57v100h220l14 -150q55 92 134.5 137.5t208.5 45.5q103 0 170.5 -50.5t92.5 -143.5q51 97 132.5 145.5t216.5 48.5q171 0 247 -88.5t76 -265.5v-562q0 -44 16.5 -62t58.5 -18h78v-99h-272v743 q0 137 -52 194t-178 57q-128 0 -206.5 -76t-78.5 -215v-524q0 -44 16 -62t58 -18h78v-99h-265v732q0 133 -49 197.5t-163 64.5q-142 0 -223 -83.5t-81 -235.5v-496q0 -44 17 -62t59 -18h77v-99h-423z" />
<glyph unicode="n" horiz-adv-x="1319" d="M99 0v99h78q42 0 58.5 18t16.5 62v703q0 45 -16.5 62.5t-58.5 17.5h-57v100h220l14 -153q78 100 170.5 143t231.5 43q168 0 251.5 -94t83.5 -269v-553q0 -44 16 -62t58 -18h78v-99h-270v730q0 139 -57 201.5t-192 62.5q-95 0 -176 -39t-130 -111t-49 -169v-496 q0 -44 17 -62t59 -18h77v-99h-423z" />
<glyph unicode="o" horiz-adv-x="1233" d="M99 528q0 264 126.5 415.5t391.5 151.5t391.5 -151.5t126.5 -415.5q0 -261 -125 -411t-393 -150q-267 0 -392.5 150.5t-125.5 410.5zM213 528q0 -230 102.5 -345t301.5 -115t302 115t103 345t-103 348t-302 118t-301.5 -118t-102.5 -348z" />
<glyph unicode="p" horiz-adv-x="1288" d="M78 -367h46q55 0 71 23t16 85v1148q0 48 -17 68t-55 20h-61v85h232l22 -169q128 201 396 202q217 0 339.5 -145t122.5 -410q0 -268 -124 -420.5t-340 -152.5q-129 0 -227 46t-172 155v-427q0 -62 16 -85t71 -23h46v-93h-382v93zM321 460q0 -122 51.5 -211.5t138 -138 t186.5 -48.5q380 1 380 478q0 230 -92 346t-273 116q-110 0 -200 -54.5t-140.5 -149.5t-50.5 -214v-124z" />
<glyph unicode="q" horiz-adv-x="1288" d="M99 531q0 175 61 302t171 194.5t253 67.5q129 0 221 -48.5t157 -164.5l15 180h235v-85h-62q-38 0 -54.5 -20t-16.5 -68v-1148q0 -62 15.5 -85t70.5 -23h47v-93h-250v628q-73 -108 -174.5 -154.5t-232.5 -46.5q-217 0 -336.5 145t-119.5 419zM213 526q0 -241 91.5 -352.5 t284.5 -111.5q99 0 186.5 48.5t140.5 139t53 210.5v124q0 110 -47.5 206.5t-129.5 154t-184 57.5q-192 0 -293.5 -119t-101.5 -357z" />
<glyph unicode="r" horiz-adv-x="808" d="M99 0v99h78q42 0 58.5 18t16.5 62v703q0 45 -16.5 62.5t-58.5 17.5h-57v100h205l34 -133q46 78 115.5 105.5t182.5 27.5h75v-100h-71q-157 0 -224.5 -69.5t-67.5 -215.5v-498q0 -44 17 -62t59 -18h77v-99h-423z" />
<glyph unicode="s" horiz-adv-x="983" d="M99 82v155h118v-102q118 -66 294 -67q135 0 198 42t63 135q0 82 -59 130.5t-206 104.5q-159 59 -232.5 94.5t-119 93.5t-45.5 151q0 135 103 205.5t281 70.5q105 0 200 -28.5t165 -78.5v-154h-118v101q-51 29 -110 44t-140 15q-137 0 -202 -40t-65 -135q0 -85 54 -126 t167 -78q53 -18 79 -29q17 -6 129.5 -50.5t172 -117.5t59.5 -173q0 -133 -95.5 -205.5t-285.5 -72.5q-113 0 -218 31t-187 84z" />
<glyph unicode="t" horiz-adv-x="882" d="M78 962v100h181v259l117 55v-314h348v-100h-348v-664q0 -122 43 -176t136 -54q62 0 104 10.5t75 35.5v97h115v-131q-64 -59 -132.5 -86t-170.5 -27q-137 0 -212 85t-75 249v661h-181z" />
<glyph unicode="u" horiz-adv-x="1277" d="M78 962v100h270v-730q0 -270 269 -270q145 0 239.5 89.5t94.5 249.5v481q0 45 -16.5 62.5t-58.5 17.5h-78v100h270v-883q0 -44 17 -62t59 -18h57v-99h-219l-13 150q-72 -95 -161 -139t-224 -44q-170 0 -262 95t-92 267v553q0 45 -16.5 62.5t-59.5 17.5h-76z" />
<glyph unicode="v" horiz-adv-x="1273" d="M78 967v95h218l339 -967l342 967h220v-95h-62q-44 0 -61 -9t-27 -40l-330 -918h-160l-331 918q-11 31 -26.5 40t-62.5 9h-59z" />
<glyph unicode="w" horiz-adv-x="1716" d="M78 967v95h223l227 -967l274 872h110l272 -872l232 967h223v-95h-62q-44 0 -60.5 -9t-28.5 -40l-218 -918h-158l-253 812l-255 -812h-157l-221 918q-11 31 -26.5 40t-62.5 9h-59z" />
<glyph unicode="x" horiz-adv-x="1264" d="M78 0v99h76q51 0 77 16t58 58l279 367l-265 349q-33 44 -57.5 58.5t-74.5 14.5h-78v100h405v-100h-124l259 -345l258 345h-123v100h404v-100h-77q-51 0 -75 -14.5t-58 -58.5l-268 -349l281 -367q34 -42 59 -58t76 -16h78v-99h-405v99h122l-272 361l-272 -361h121v-99 h-404z" />
<glyph unicode="y" horiz-adv-x="1211" d="M78 962v100h270v-686q0 -270 269 -270q145 0 239.5 89.5t94.5 249.5v437q0 45 -16.5 62.5t-58.5 17.5h-78v100h270v-1073q0 -194 -107 -313t-290 -119q-131 0 -221.5 38t-164.5 111v144h116v-95q88 -95 260 -95q146 0 218 83.5t72 237.5v196q-68 -91 -150 -128.5 t-217 -37.5q-170 0 -262 95t-92 268v508q0 45 -16.5 62.5t-59.5 17.5h-76z" />
<glyph unicode="z" horiz-adv-x="1072" d="M99 0v95l720 872h-496q-44 0 -62 -17t-18 -59v-55h-106v226h812v-95l-719 -872h557q45 0 62.5 17t17.5 59v55h106v-226h-874z" />
<glyph unicode="{" horiz-adv-x="749" d="M78 688v99h24q86 0 131.5 41t45.5 136v394q0 143 68.5 222t203.5 79h78v-99h-57q-95 0 -135.5 -46.5t-40.5 -141.5v-399q0 -88 -38.5 -150t-105.5 -84v-2q66 -22 105 -84t39 -151v-398q0 -95 40.5 -141.5t135.5 -46.5h57v-100h-78q-135 0 -203.5 78.5t-68.5 223.5v393 q0 95 -45.5 136t-131.5 41h-24z" />
<glyph unicode="|" horiz-adv-x="359" d="M122 -266v1963h117v-1963h-117z" />
<glyph unicode="}" horiz-adv-x="749" d="M122 -84h55q95 0 136 46.5t41 141.5v398q0 89 38.5 151t105.5 84v2q-66 21 -105 83.5t-39 150.5v399q0 95 -41 141.5t-136 46.5h-55v99h77q135 0 203.5 -78.5t68.5 -222.5v-394q0 -95 45.5 -136t131.5 -41h25v-99h-25q-86 0 -131.5 -41t-45.5 -136v-393 q0 -144 -68.5 -223t-203.5 -79h-77v100z" />
<glyph unicode="~" horiz-adv-x="1258" d="M122 542q0 129 66.5 203t200.5 74q71 0 124 -22.5t129 -68.5q73 -44 120.5 -64t106.5 -20q98 0 130.5 43t32.5 132h105q0 -129 -66.5 -203t-201.5 -74q-73 0 -131.5 24.5t-135.5 70.5q-76 42 -118.5 61t-94.5 19q-97 0 -130 -43t-33 -132h-104z" />
<glyph unicode="&#xa1;" horiz-adv-x="382" d="M122 956v139h139v-139h-139zM124 -336l13 1104h108l14 -1104h-135z" />
<glyph unicode="&#xa2;" horiz-adv-x="1144" d="M99 526q0 252 128.5 400.5t352.5 166.5v167h117v-167q110 -4 194 -32.5t156 -78.5v-172h-118v121q-62 33 -128.5 48t-163.5 15q-183 0 -303.5 -114t-120.5 -354q0 -157 61.5 -259.5t159 -150.5t208.5 -48q112 0 183.5 18t145.5 60l53 -87q-74 -44 -152 -65t-175 -25v-168 h-117v170q-213 19 -347 164.5t-134 390.5z" />
<glyph unicode="&#xa3;" horiz-adv-x="1078" d="M122 808v99h181v203q0 162 102 258t262 96q102 0 176.5 -28.5t136.5 -86.5v-131h-115v96q-76 49 -188 49q-118 0 -187.5 -64.5t-69.5 -186.5v-205h369v-99h-369v-498q0 -76 -14.5 -125.5t-55.5 -85.5h652v-99h-876v99h49q62 0 95 54.5t33 156.5v498h-181z" />
<glyph unicode="&#xa4;" horiz-adv-x="1334" d="M122 1190l70 73l177 -166q131 106 302 106q164 0 296 -104l177 164l70 -73l-176 -162q51 -61 79.5 -138.5t28.5 -161.5q0 -190 -131 -327l177 -162l-71 -73l-181 168q-120 -82 -269 -82q-150 0 -272 84l-184 -170l-71 73l177 164q-60 66 -93.5 149t-33.5 176 q0 171 104 298zM308 728q0 -102 47.5 -188t130 -136t185.5 -50q101 0 183.5 50t130 136t47.5 188q0 101 -47.5 187.5t-130 136.5t-183.5 50q-102 0 -185 -50t-130.5 -136.5t-47.5 -187.5z" />
<glyph unicode="&#xa5;" horiz-adv-x="1467" d="M99 1336v95h378v-95h-55q-48 0 -48 -29q0 -20 17 -51l343 -639l343 639q17 31 18 51q0 29 -48 29h-56v95h378v-95h-55q-40 0 -69 -20t-51 -60l-347 -641h244v-100h-297v-119h297v-100h-297v-121q0 -44 16.5 -62t58.5 -18h55v-95h-378v95h56q42 0 58.5 18t16.5 62v121 h-297v100h297v119h-297v100h241l-347 641q-21 40 -50.5 60t-69.5 20h-55z" />
<glyph unicode="&#xa6;" horiz-adv-x="359" d="M122 -266v737h117v-737h-117zM122 960v737h117v-737h-117z" />
<glyph unicode="&#xa7;" horiz-adv-x="1105" d="M78 -27h116v-121q64 -42 171.5 -68.5t209.5 -26.5q166 0 253.5 70.5t87.5 199.5q0 89 -41 147t-113 99t-192 86q-168 61 -268.5 115t-155.5 129.5t-55 185.5q0 127 71 215q-71 85 -71 208q0 179 129.5 271t334.5 92q124 0 245.5 -34t199.5 -87v-173h-118v121 q-55 33 -143.5 52t-185.5 19q-162 0 -256 -63t-94 -198q0 -89 51.5 -146t119 -89.5t217.5 -91.5q148 -58 236.5 -107.5t144.5 -129.5t56 -199q0 -120 -66 -210q66 -87 66 -212q0 -164 -121.5 -268t-340.5 -104q-131 0 -264.5 40.5t-223.5 105.5v172zM203 789 q0 -88 51.5 -145.5t119 -89.5t217.5 -92q101 -40 171 -74t123 -74q31 51 31 135q0 89 -41 146t-112 97t-193 89q-135 51 -204.5 82.5t-122.5 69.5q-40 -55 -40 -144z" />
<glyph unicode="&#xa8;" horiz-adv-x="811" d="M122 1311v151h150v-151h-150zM540 1311v151h150v-151h-150z" />
<glyph unicode="&#xa9;" horiz-adv-x="1830" d="M122 756q0 217 106 398.5t288.5 288t401.5 106.5q217 0 398 -106.5t287.5 -288t106.5 -398.5t-106.5 -397t-288.5 -286t-401 -106q-217 0 -398.5 106t-287.5 287.5t-106 395.5zM234 754q0 -192 88.5 -350.5t243.5 -248t350 -89.5q194 0 349 89.5t243.5 248t88.5 350.5 q0 194 -88.5 354t-243.5 250t-349 90q-195 0 -350 -90t-243.5 -249.5t-88.5 -354.5zM372 745q0 270 144.5 419.5t392.5 149.5q138 0 234 -28t176 -85v-173h-118v122q-62 34 -128 48t-164 14q-183 0 -303.5 -114t-120.5 -353q0 -156 61.5 -259.5t158.5 -151t209 -47.5t184 18 t145 60l53 -86q-82 -51 -173 -72t-209 -21q-153 0 -276 65t-194.5 191t-71.5 303z" />
<glyph unicode="&#xaa;" horiz-adv-x="880" d="M122 929q0 186 230 202l228 15v86q0 82 -32.5 115t-116.5 33q-59 0 -91 -6.5t-72 -24.5v-55h-91v101q110 68 252 69q245 0 246 -234v-341q0 -31 9.5 -44t34.5 -13h39v-68h-137l-24 85q-90 -108 -268 -108q-99 0 -153 48.5t-54 139.5zM213 929q0 -106 143 -106 q104 0 164 45.5t60 142.5v61l-228 -15q-76 -4 -107.5 -33.5t-31.5 -94.5z" />
<glyph unicode="&#xab;" horiz-adv-x="1233" d="M122 659v111l549 471v-126l-458 -400l458 -401v-126zM564 659v111l548 471v-126l-458 -400l458 -401v-126z" />
<glyph unicode="&#xac;" horiz-adv-x="1129" d="M122 624v100h887v-410h-118v310h-769z" />
<glyph unicode="&#xad;" horiz-adv-x="842" d="M122 624v100h599v-100h-599z" />
<glyph unicode="&#xae;" horiz-adv-x="1830" d="M122 756q0 217 106 398.5t288.5 288t401.5 106.5q217 0 398 -106.5t287.5 -288t106.5 -398.5t-106.5 -397t-288.5 -286t-401 -106q-217 0 -398.5 106t-287.5 287.5t-106 395.5zM234 754q0 -192 88.5 -350.5t243.5 -248t350 -89.5q194 0 349 89.5t243.5 248t88.5 350.5 q0 194 -88.5 354t-243.5 250t-349 90q-195 0 -350 -90t-243.5 -249.5t-88.5 -354.5zM502 261v79h44q34 0 46 13.5t12 45.5v722q0 34 -12 46t-46 12h-44v89h486q150 0 233.5 -73.5t83.5 -200.5q0 -129 -78.5 -210t-219.5 -85l135 -256q31 -60 61.5 -77.5t88.5 -17.5h57v-87 h-57q-91 0 -146 36.5t-104 129.5l-141 272h-198v-300q0 -32 12.5 -45.5t48.5 -13.5h46v-79h-308zM703 785h270q120 0 179.5 53t59.5 156t-56.5 144t-182.5 41h-270v-394z" />
<glyph unicode="&#xaf;" horiz-adv-x="952" d="M122 1314v100h710v-100h-710z" />
<glyph unicode="&#xb0;" horiz-adv-x="787" d="M122 1190q0 115 79.5 194.5t189.5 79.5q114 0 194 -79.5t80 -194.5q0 -110 -79 -190t-195 -80q-110 0 -189.5 79.5t-79.5 190.5zM219 1190q0 -73 50 -123t122 -50q76 0 126.5 50t50.5 123q0 78 -49.5 127.5t-127.5 49.5q-73 0 -122.5 -51t-49.5 -126z" />
<glyph unicode="&#xb1;" horiz-adv-x="908" d="M122 89v99h665v-99h-665zM122 624v100h272v243h117v-243h276v-100h-276v-244h-117v244h-272z" />
<glyph unicode="&#xb2;" horiz-adv-x="738" d="M122 764v72q0 80 58.5 135t178.5 126q97 58 127.5 86.5t30.5 86.5q0 59 -37 84.5t-117 25.5q-93 0 -150 -33v-55h-91v101q42 32 110.5 51.5t130.5 19.5q120 0 183.5 -51.5t63.5 -142.5q0 -76 -45.5 -122t-177.5 -128q-93 -58 -131.5 -92.5t-38.5 -80.5h400v-83h-495z" />
<glyph unicode="&#xb3;" horiz-adv-x="762" d="M122 836v91h91v-58q55 -44 156 -44q182 0 182 131q0 66 -37 91t-123 25h-88v80h93q78 0 109 29t31 98q0 50 -39 75.5t-110 25.5q-98 0 -161 -40v-59h-91v106q42 33 108.5 55t130.5 22q117 0 184.5 -48.5t67.5 -136.5q0 -118 -95 -167q55 -17 83 -53.5t28 -102.5 q0 -106 -74 -160.5t-199 -54.5q-73 0 -140 25.5t-107 69.5z" />
<glyph unicode="&#xb4;" horiz-adv-x="605" d="M122 1201l188 394h175l-257 -394h-106z" />
<glyph unicode="&#xb6;" horiz-adv-x="1377" d="M122 1057q0 188 113 281t349 93h650v-95h-46q-49 0 -66.5 -18t-17.5 -62v-1422q0 -45 17.5 -62t66.5 -17h68v-100h-270v1681h-311v-1681h-270v100h68q49 0 66.5 17t17.5 62v871q-215 0 -325 93t-110 259z" />
<glyph unicode="&#xb7;" horiz-adv-x="395" d="M122 602v152h152v-152h-152z" />
<glyph unicode="&#xb8;" horiz-adv-x="618" d="M122 -399q64 -17 117 -17q164 0 164 104q0 46 -15.5 71.5t-60 38t-128.5 12.5l29 190h99l-17 -118q101 -13 144.5 -61.5t43.5 -128.5q0 -97 -67.5 -146.5t-189.5 -49.5q-55 0 -119 19v86z" />
<glyph unicode="&#xb9;" horiz-adv-x="645" d="M99 1325l199 129h98v-542q0 -45 12 -57.5t61 -12.5h77v-78h-394v78h78q49 0 61 12.5t12 57.5v443l-153 -103z" />
<glyph unicode="&#xba;" horiz-adv-x="906" d="M122 1102q0 166 83.5 264t248.5 98q164 0 247.5 -98t83.5 -264q0 -165 -83 -263t-248 -98q-167 0 -249.5 98t-82.5 263zM215 1102q0 -277 239 -277q238 0 238 277q0 278 -238 278q-239 0 -239 -278z" />
<glyph unicode="&#xbb;" horiz-adv-x="1233" d="M122 188v126l458 401l-458 400v126l549 -471v-111zM564 188v126l458 401l-458 400v126l548 -471v-111z" />
<glyph unicode="&#xbc;" horiz-adv-x="1346" d="M122 1325l199 129h97v-542q0 -45 12.5 -57.5t60.5 -12.5h77v-78h-393v78h77q48 0 60.5 12.5t12.5 57.5v443l-152 -103zM194 0l910 1431h116l-908 -1431h-118zM659 184v80l335 426h101v-426h131v-80h-131v-66q0 -20 8.5 -29t33.5 -9h66v-80h-310v80h69q25 0 32.5 8.5 t7.5 29.5v66h-343zM761 264h241v314z" />
<glyph unicode="&#xbd;" horiz-adv-x="1416" d="M122 1325l199 129h97v-542q0 -45 12.5 -57.5t60.5 -12.5h77v-78h-393v78h77q48 0 60.5 12.5t12.5 57.5v443l-152 -103zM194 0l910 1431h116l-908 -1431h-118zM800 0v73q0 80 59 135.5t179 125.5q97 57 128 86t31 87q0 59 -38 84.5t-117 25.5q-93 0 -151 -33v-56h-91v103 q42 31 111 50.5t131 19.5q120 0 184 -52t64 -142q0 -76 -45.5 -122.5t-178.5 -127.5q-93 -57 -132 -91.5t-39 -81.5h401v-84h-496z" />
<glyph unicode="&#xbe;" horiz-adv-x="1361" d="M122 836v91h91v-58q55 -44 156 -44q182 0 182 131q0 66 -37 91t-123 25h-88v80h93q78 0 109 29t31 98q0 50 -39 75.5t-110 25.5q-98 0 -161 -40v-59h-91v106q42 33 108.5 55t130.5 22q117 0 184.5 -48.5t67.5 -136.5q0 -118 -95 -167q55 -17 83 -53.5t28 -102.5 q0 -106 -74 -160.5t-199 -54.5q-73 0 -140 25.5t-107 69.5zM211 0l908 1431h118l-910 -1431h-116zM675 184v80l334 426h101v-426h131v-80h-131v-66q0 -20 9 -29t33 -9h66v-80h-309v80h68q25 0 32.5 8.5t7.5 29.5v66h-342zM777 264h240v314z" />
<glyph unicode="&#xbf;" horiz-adv-x="1152" d="M122 -17q0 103 29.5 172t98.5 121.5t197 114.5q104 51 136 121t32 185v71h117v-71q0 -148 -60 -245.5t-205 -164.5q-93 -42 -140.5 -79t-70 -89.5t-22.5 -135.5q0 -250 350 -251q95 0 183.5 22t146.5 60v122h116v-173q-77 -57 -200 -94.5t-244 -37.5q-208 0 -336 87.5 t-128 264.5zM597 942v153h153v-153h-153z" />
<glyph unicode="&#xc0;" horiz-adv-x="1600" d="M99 0v99h78q91 0 119 80l451 1252h109l449 -1252q29 -80 120 -80h77v-99h-411v99h127l-129 363h-576l-131 -363h129v-99h-412zM504 1948h175l188 -393h-106zM549 562h504l-253 703z" />
<glyph unicode="&#xc1;" horiz-adv-x="1600" d="M99 0v99h78q91 0 119 80l451 1252h109l449 -1252q29 -80 120 -80h77v-99h-411v99h127l-129 363h-576l-131 -363h129v-99h-412zM549 562h504l-253 703zM761 1555l188 393h174l-256 -393h-106z" />
<glyph unicode="&#xc2;" horiz-adv-x="1600" d="M99 0v99h78q91 0 119 80l451 1252h109l449 -1252q29 -80 120 -80h77v-99h-411v99h127l-129 363h-576l-131 -363h129v-99h-412zM471 1555l255 393h152l255 -393h-129l-204 307l-201 -307h-128zM549 562h504l-253 703z" />
<glyph unicode="&#xc3;" horiz-adv-x="1600" d="M99 0v99h78q91 0 119 80l451 1252h109l449 -1252q29 -80 120 -80h77v-99h-411v99h127l-129 363h-576l-131 -363h129v-99h-412zM414 1555q0 232 203 232q55 0 103 -18.5t109 -54.5q58 -31 90 -44t67 -13q53 0 76.5 26.5t23.5 103.5h104q0 -232 -204 -232q-51 0 -94 18 t-100 50q-55 32 -94 47.5t-81 15.5q-53 0 -76.5 -27t-23.5 -104h-103zM549 562h504l-253 703z" />
<glyph unicode="&#xc4;" horiz-adv-x="1600" d="M99 0v99h78q91 0 119 80l451 1252h109l449 -1252q29 -80 120 -80h77v-99h-411v99h127l-129 363h-576l-131 -363h129v-99h-412zM517 1599v151h150v-151h-150zM549 562h504l-253 703zM935 1599v151h151v-151h-151z" />
<glyph unicode="&#xc5;" horiz-adv-x="1600" d="M99 0v99h78q91 0 119 80l423 1170q-68 25 -111.5 85.5t-43.5 137.5q0 100 68.5 169.5t167.5 69.5q100 0 170 -69.5t70 -169.5q0 -77 -43 -136.5t-112 -84.5l420 -1172q29 -80 120 -80h77v-99h-411v99h127l-129 363h-576l-131 -363h129v-99h-412zM549 562h504l-253 703z M659 1572q0 -61 40 -101t101 -40q62 0 103 40t41 101q0 62 -40.5 103t-103.5 41q-61 0 -101 -41t-40 -103z" />
<glyph unicode="&#xc6;" horiz-adv-x="1879" d="M99 0v99h78q91 0 119 80l496 1252h989v-228h-107v53q0 42 -17.5 59t-61.5 17h-525v-564h445v-101h-445v-568h525q44 0 61.5 17t17.5 59v55h107v-230h-981v99h69q49 0 67 18t18 62v283h-430l-142 -363h129v-99h-412zM564 562h390v770h-87z" />
<glyph unicode="&#xc7;" horiz-adv-x="1315" d="M99 710q0 219 76.5 389.5t229 267.5t376.5 97q278 0 435 -113v-172h-117v121q-117 62 -318 63q-266 0 -417 -174t-151 -479q0 -197 74 -341.5t206.5 -222.5t300.5 -78q215 0 348 78l52 -87q-141 -86 -369 -92l-13 -85q102 -13 145 -61.5t43 -128.5q0 -97 -67.5 -146.5 t-189.5 -49.5q-55 0 -119 19v86q64 -17 117 -17q164 0 164 104q0 46 -15.5 71.5t-60 38t-128.5 12.5l25 159q-197 15 -339 113.5t-215 260t-73 367.5z" />
<glyph unicode="&#xc8;" horiz-adv-x="1200" d="M99 0v99h78q42 0 58.5 18t16.5 62v1073q0 44 -16.5 62t-58.5 18h-78v99h1003v-228h-106v53q0 42 -18 59t-62 17h-547v-564h467v-101h-467v-568h547q44 0 62 17t18 59v55h106v-230h-1003zM359 1948h175l187 -393h-106z" />
<glyph unicode="&#xc9;" horiz-adv-x="1200" d="M99 0v99h78q42 0 58.5 18t16.5 62v1073q0 44 -16.5 62t-58.5 18h-78v99h1003v-228h-106v53q0 42 -18 59t-62 17h-547v-564h467v-101h-467v-568h547q44 0 62 17t18 59v55h106v-230h-1003zM540 1555l188 393h175l-257 -393h-106z" />
<glyph unicode="&#xca;" horiz-adv-x="1200" d="M99 0v99h78q42 0 58.5 18t16.5 62v1073q0 44 -16.5 62t-58.5 18h-78v99h1003v-228h-106v53q0 42 -18 59t-62 17h-547v-564h467v-101h-467v-568h547q44 0 62 17t18 59v55h106v-230h-1003zM294 1555l255 393h152l255 -393h-129l-203 307l-202 -307h-128z" />
<glyph unicode="&#xcb;" horiz-adv-x="1200" d="M99 0v99h78q42 0 58.5 18t16.5 62v1073q0 44 -16.5 62t-58.5 18h-78v99h1003v-228h-106v53q0 42 -18 59t-62 17h-547v-564h467v-101h-467v-568h547q44 0 62 17t18 59v55h106v-230h-1003zM342 1599v151h152v-151h-152zM761 1599v151h151v-151h-151z" />
<glyph unicode="&#xcc;" horiz-adv-x="621" d="M0 1948h175l188 -393h-106zM99 0v99h78q42 0 58.5 18t16.5 62v1073q0 44 -16.5 62t-58.5 18h-78v99h423v-99h-77q-42 0 -59 -18t-17 -62v-1073q0 -44 17 -62t59 -18h77v-99h-423z" />
<glyph unicode="&#xcd;" horiz-adv-x="621" d="M99 0v99h78q42 0 58.5 18t16.5 62v1073q0 44 -16.5 62t-58.5 18h-78v99h423v-99h-77q-42 0 -59 -18t-17 -62v-1073q0 -44 17 -62t59 -18h77v-99h-423zM243 1555l188 393h175l-256 -393h-107z" />
<glyph unicode="&#xce;" horiz-adv-x="621" d="M-19 1555l253 393h153l255 -393h-129l-203 307l-202 -307h-127zM99 0v99h78q42 0 58.5 18t16.5 62v1073q0 44 -16.5 62t-58.5 18h-78v99h423v-99h-77q-42 0 -59 -18t-17 -62v-1073q0 -44 17 -62t59 -18h77v-99h-423z" />
<glyph unicode="&#xcf;" horiz-adv-x="621" d="M27 1599v151h150v-151h-150zM99 0v99h78q42 0 58.5 18t16.5 62v1073q0 44 -16.5 62t-58.5 18h-78v99h423v-99h-77q-42 0 -59 -18t-17 -62v-1073q0 -44 17 -62t59 -18h77v-99h-423zM445 1599v151h150v-151h-150z" />
<glyph unicode="&#xd0;" horiz-adv-x="1370" d="M99 0v95h55q43 0 59.5 18t16.5 62v492h-131v101h131v488q0 44 -16.5 62t-59.5 18h-55v95h585q301 0 444.5 -191t143.5 -530q0 -332 -148.5 -521t-439.5 -189h-585zM348 95h325q251 0 368.5 154t117.5 461q0 314 -116 470t-370 156h-325v-568h351v-101h-351v-572z" />
<glyph unicode="&#xd1;" horiz-adv-x="1516" d="M99 0v99h78q42 0 58.5 18t16.5 62v1073q0 44 -16.5 62t-58.5 18h-78v99h260l789 -1223v1044q0 44 -16.5 62t-59.5 18h-76v99h422v-99h-78q-42 0 -58.5 -18t-16.5 -62v-1252h-106l-790 1224v-1045q0 -44 17 -62t59 -18h77v-99h-423zM369 1555q0 232 203 232 q55 0 103.5 -18.5t109.5 -54.5q57 -31 89.5 -44t67.5 -13q53 0 76.5 26.5t23.5 103.5h104q0 -232 -204 -232q-51 0 -94 18t-101 50q-55 32 -93.5 47.5t-81.5 15.5q-53 0 -76 -27t-23 -104h-104z" />
<glyph unicode="&#xd2;" horiz-adv-x="1441" d="M99 710q0 378 150 566t472 188q323 0 472 -187.5t149 -566.5q0 -374 -152 -558.5t-469 -184.5q-316 0 -469 184.5t-153 558.5zM213 710q0 -341 128 -491.5t380 -150.5t380.5 150.5t128.5 491.5q0 347 -127.5 500t-381.5 153t-381 -153t-127 -500zM420 1948h175l188 -393 h-106z" />
<glyph unicode="&#xd3;" horiz-adv-x="1441" d="M99 710q0 378 150 566t472 188q323 0 472 -187.5t149 -566.5q0 -374 -152 -558.5t-469 -184.5q-316 0 -469 184.5t-153 558.5zM213 710q0 -341 128 -491.5t380 -150.5t380.5 150.5t128.5 491.5q0 347 -127.5 500t-381.5 153t-381 -153t-127 -500zM637 1555l188 393h175 l-257 -393h-106z" />
<glyph unicode="&#xd4;" horiz-adv-x="1441" d="M99 710q0 378 150 566t472 188q323 0 472 -187.5t149 -566.5q0 -374 -152 -558.5t-469 -184.5q-316 0 -469 184.5t-153 558.5zM213 710q0 -341 128 -491.5t380 -150.5t380.5 150.5t128.5 491.5q0 347 -127.5 500t-381.5 153t-381 -153t-127 -500zM391 1555l255 393h152 l255 -393h-129l-203 307l-202 -307h-128z" />
<glyph unicode="&#xd5;" horiz-adv-x="1441" d="M99 710q0 378 150 566t472 188q323 0 472 -187.5t149 -566.5q0 -374 -152 -558.5t-469 -184.5q-316 0 -469 184.5t-153 558.5zM213 710q0 -341 128 -491.5t380 -150.5t380.5 150.5t128.5 491.5q0 347 -127.5 500t-381.5 153t-381 -153t-127 -500zM334 1555q1 232 204 232 q55 0 102.5 -18.5t109.5 -54.5q57 -31 88 -44t69 -13q53 0 76.5 26.5t23.5 103.5h103q0 -232 -203 -232q-51 0 -94 18t-101 50q-55 32 -93.5 47.5t-80.5 15.5q-53 0 -76.5 -27t-23.5 -104h-104z" />
<glyph unicode="&#xd6;" horiz-adv-x="1441" d="M99 710q0 378 150 566t472 188q323 0 472 -187.5t149 -566.5q0 -374 -152 -558.5t-469 -184.5q-316 0 -469 184.5t-153 558.5zM213 710q0 -341 128 -491.5t380 -150.5t380.5 150.5t128.5 491.5q0 347 -127.5 500t-381.5 153t-381 -153t-127 -500zM438 1599v151h151v-151 h-151zM856 1599v151h151v-151h-151z" />
<glyph unicode="&#xd7;" horiz-adv-x="773" d="M122 856l83 81l182 -183l183 183l82 -83l-181 -181l181 -179l-84 -85l-179 180l-181 -182l-84 84l182 182z" />
<glyph unicode="&#xd8;" horiz-adv-x="1441" d="M99 710q0 378 150 566t472 188q113 0 195 -22l31 82h117l-44 -117q166 -73 244 -248t78 -449q0 -374 -152 -558.5t-469 -184.5q-114 0 -223 29l-34 -91h-116l48 131q-296 152 -297 674zM213 710q0 -436 220 -573l447 1208q-78 17 -159 18q-254 0 -381 -153t-127 -500z M534 93q75 -25 187 -25q252 0 380.5 150.5t128.5 491.5q0 240 -62 386.5t-184 210.5z" />
<glyph unicode="&#xd9;" horiz-adv-x="1428" d="M78 1338v93h378v-93h-55q-42 0 -59 -18t-17 -62v-882q0 -155 98.5 -234.5t291.5 -79.5q192 0 290.5 79.5t98.5 234.5v882q0 44 -17 62t-59 18h-55v93h378v-93h-55q-42 0 -59 -18t-17 -62v-867q0 -194 -126.5 -309t-378.5 -115q-253 0 -380 115t-127 309v867 q0 44 -16.5 62t-58.5 18h-55zM431 1948h175l188 -393h-106z" />
<glyph unicode="&#xda;" horiz-adv-x="1428" d="M78 1338v93h378v-93h-55q-42 0 -59 -18t-17 -62v-882q0 -155 98.5 -234.5t291.5 -79.5q192 0 290.5 79.5t98.5 234.5v882q0 44 -17 62t-59 18h-55v93h378v-93h-55q-42 0 -59 -18t-17 -62v-867q0 -194 -126.5 -309t-378.5 -115q-253 0 -380 115t-127 309v867 q0 44 -16.5 62t-58.5 18h-55zM629 1555l187 393h175l-257 -393h-105z" />
<glyph unicode="&#xdb;" horiz-adv-x="1428" d="M78 1338v93h378v-93h-55q-42 0 -59 -18t-17 -62v-882q0 -155 98.5 -234.5t291.5 -79.5q192 0 290.5 79.5t98.5 234.5v882q0 44 -17 62t-59 18h-55v93h378v-93h-55q-42 0 -59 -18t-17 -62v-867q0 -194 -126.5 -309t-378.5 -115q-253 0 -380 115t-127 309v867 q0 44 -16.5 62t-58.5 18h-55zM384 1555l255 393h153l255 -393h-129l-203 307l-202 -307h-129z" />
<glyph unicode="&#xdc;" horiz-adv-x="1428" d="M78 1338v93h378v-93h-55q-42 0 -59 -18t-17 -62v-882q0 -155 98.5 -234.5t291.5 -79.5q192 0 290.5 79.5t98.5 234.5v882q0 44 -17 62t-59 18h-55v93h378v-93h-55q-42 0 -59 -18t-17 -62v-867q0 -194 -126.5 -309t-378.5 -115q-253 0 -380 115t-127 309v867 q0 44 -16.5 62t-58.5 18h-55zM431 1599v151h151v-151h-151zM849 1599v151h151v-151h-151z" />
<glyph unicode="&#xdd;" horiz-adv-x="1467" d="M99 1336v95h378v-95h-55q-48 0 -48 -29q0 -20 17 -51l343 -637l343 637q17 31 18 51q0 29 -48 29h-56v95h378v-95h-55q-40 0 -69 -20t-51 -60l-400 -741v-340q0 -44 16.5 -62t58.5 -18h55v-95h-378v95h56q42 0 58.5 18t16.5 62v340l-403 741q-21 40 -50.5 60t-69.5 20 h-55zM654 1555l188 393h175l-256 -393h-107z" />
<glyph unicode="&#xde;" horiz-adv-x="1359" d="M99 0v99h69q49 0 66.5 18t17.5 62v1073q0 44 -17.5 62t-66.5 18h-69v99h270v-283h465q198 0 312 -113t114 -311q0 -201 -116 -321t-312 -120h-463v-104q0 -44 18 -62t67 -18h68v-99h-423zM369 382h447q332 0 332 342q0 181 -80 253t-252 72h-447v-667z" />
<glyph unicode="&#xdf;" horiz-adv-x="1379" d="M99 0v99h78q42 0 58.5 18t16.5 62v931q0 215 122 340t371 125q243 0 371.5 -114t128.5 -298q0 -122 -56 -226.5t-161 -144.5q252 -68 253 -387q0 -201 -105.5 -319.5t-306.5 -118.5q-206 0 -343 79l46 89q74 -38 141.5 -52.5t155.5 -14.5q144 0 221 83t77 256 q0 166 -72.5 248t-249.5 82h-142v99h122q159 0 233.5 90.5t74.5 236.5q0 312 -388 312q-192 0 -284 -88.5t-92 -271.5v-1115h-270z" />
<glyph unicode="&#xe0;" horiz-adv-x="1144" d="M78 259q0 152 93 221t262 79l386 27v144q0 142 -56 203t-201 61q-91 0 -155.5 -13.5t-123.5 -43.5v-81h-117v135q173 104 391 104q205 0 291.5 -95t86.5 -272v-555q0 -49 17 -69t55 -20h61v-84h-212l-24 135q-125 -168 -416 -168q-164 0 -251 75.5t-87 216.5zM190 255 q0 -93 59 -140t194 -47q167 0 271.5 74.5t104.5 222.5v129l-388 -27q-137 -9 -189 -55.5t-52 -156.5zM255 1564h174l188 -394h-106z" />
<glyph unicode="&#xe1;" horiz-adv-x="1144" d="M78 259q0 152 93 221t262 79l386 27v144q0 142 -56 203t-201 61q-91 0 -155.5 -13.5t-123.5 -43.5v-81h-117v135q173 104 391 104q205 0 291.5 -95t86.5 -272v-555q0 -49 17 -69t55 -20h61v-84h-212l-24 135q-125 -168 -416 -168q-164 0 -251 75.5t-87 216.5zM190 255 q0 -93 59 -140t194 -47q167 0 271.5 74.5t104.5 222.5v129l-388 -27q-137 -9 -189 -55.5t-52 -156.5zM477 1170l188 394h175l-256 -394h-107z" />
<glyph unicode="&#xe2;" horiz-adv-x="1144" d="M78 259q0 152 93 221t262 79l386 27v144q0 142 -56 203t-201 61q-91 0 -155.5 -13.5t-123.5 -43.5v-81h-117v135q173 104 391 104q205 0 291.5 -95t86.5 -272v-555q0 -49 17 -69t55 -20h61v-84h-212l-24 135q-125 -168 -416 -168q-164 0 -251 75.5t-87 216.5zM190 255 q0 -93 59 -140t194 -47q167 0 271.5 74.5t104.5 222.5v129l-388 -27q-137 -9 -189 -55.5t-52 -156.5zM213 1170l254 394h152l255 -394h-129l-203 307l-202 -307h-127z" />
<glyph unicode="&#xe3;" horiz-adv-x="1144" d="M78 259q0 152 93 221t262 79l386 27v144q0 142 -56 203t-201 61q-91 0 -155.5 -13.5t-123.5 -43.5v-81h-117v135q173 104 391 104q205 0 291.5 -95t86.5 -272v-555q0 -49 17 -69t55 -20h61v-84h-212l-24 135q-125 -168 -416 -168q-164 0 -251 75.5t-87 216.5zM175 1170 q0 232 203 232q55 0 102.5 -18.5t110.5 -54.5q57 -31 89 -44t67 -13q53 0 76.5 26.5t23.5 103.5h104q0 -232 -204 -232q-50 0 -93.5 17.5t-100.5 51.5q-55 31 -94 46t-81 15q-53 0 -76 -26.5t-23 -103.5h-104zM190 255q0 -93 59 -140t194 -47q167 0 271.5 74.5t104.5 222.5 v129l-388 -27q-137 -9 -189 -55.5t-52 -156.5z" />
<glyph unicode="&#xe4;" horiz-adv-x="1144" d="M78 259q0 152 93 221t262 79l386 27v144q0 142 -56 203t-201 61q-91 0 -155.5 -13.5t-123.5 -43.5v-81h-117v135q173 104 391 104q205 0 291.5 -95t86.5 -272v-555q0 -49 17 -69t55 -20h61v-84h-212l-24 135q-125 -168 -416 -168q-164 0 -251 75.5t-87 216.5zM190 255 q0 -93 59 -140t194 -47q167 0 271.5 74.5t104.5 222.5v129l-388 -27q-137 -9 -189 -55.5t-52 -156.5zM255 1214v151h150v-151h-150zM673 1214v151h150v-151h-150z" />
<glyph unicode="&#xe5;" horiz-adv-x="1144" d="M78 259q0 152 93 221t262 79l386 27v144q0 142 -56 203t-201 61q-91 0 -155.5 -13.5t-123.5 -43.5v-81h-117v135q173 104 391 104q205 0 291.5 -95t86.5 -272v-555q0 -49 17 -69t55 -20h61v-84h-212l-24 135q-125 -168 -416 -168q-164 0 -251 75.5t-87 216.5zM190 255 q0 -93 59 -140t194 -47q167 0 271.5 74.5t104.5 222.5v129l-388 -27q-137 -9 -189 -55.5t-52 -156.5zM312 1407q0 100 68.5 169.5t168.5 69.5q99 0 168.5 -69.5t69.5 -169.5q0 -99 -69.5 -168t-168.5 -69q-100 0 -168.5 68.5t-68.5 168.5zM407 1407q0 -61 40 -101.5 t102 -40.5q61 0 102 40t41 102t-41 103t-102 41q-62 0 -102 -41t-40 -103z" />
<glyph unicode="&#xe6;" horiz-adv-x="1899" d="M78 259q0 152 93 221t262 79l386 27v144q0 142 -56 203t-201 61q-91 0 -155.5 -13.5t-123.5 -43.5v-81h-117v135q173 104 391 104q153 0 234 -50.5t121 -157.5q128 208 420 208q234 0 351 -134t117 -379v-100h-863q0 -137 59 -232.5t151 -141.5t189 -46q112 0 183.5 16.5 t126.5 52.5v74h117v-125q-95 -59 -194.5 -86t-232.5 -27q-144 0 -258 64t-183 186q-55 -126 -187.5 -188t-291.5 -62q-164 0 -251 75.5t-87 216.5zM190 255q0 -93 59 -140t194 -47q167 0 271.5 74.5t104.5 222.5v129l-388 -27q-137 -9 -189 -55.5t-52 -156.5zM937 582h758 q0 219 -87.5 315.5t-275.5 96.5t-291.5 -106.5t-103.5 -305.5z" />
<glyph unicode="&#xe7;" horiz-adv-x="1123" d="M99 526q0 270 139.5 419.5t387.5 149.5q135 0 226.5 -27.5t171.5 -85.5v-172h-117v121q-64 33 -123.5 48t-157.5 15q-181 0 -297 -113t-116 -355q0 -157 61.5 -259.5t159 -150.5t208.5 -48q112 0 183.5 18t145.5 60l53 -87q-76 -46 -155.5 -67t-180.5 -25l-13 -85 q102 -13 145 -61.5t43 -128.5q0 -97 -67.5 -146.5t-189.5 -49.5q-55 0 -119 19v86q64 -17 117 -17q164 0 164 104q0 46 -15.5 71.5t-60 38t-128.5 12.5l25 159q-142 10 -252.5 79.5t-174 191t-63.5 286.5z" />
<glyph unicode="&#xe8;" horiz-adv-x="1180" d="M99 513q0 287 134 434.5t379 147.5q235 0 352 -136t117 -377v-100h-862q0 -215 114 -317.5t284 -102.5q112 0 183.5 16.5t126.5 52.5v74h117v-125q-95 -59 -194.5 -86t-232.5 -27q-146 0 -263 61t-186 183.5t-69 301.5zM219 582h756q0 209 -87.5 310.5t-275.5 101.5 q-192 0 -292.5 -111t-100.5 -301zM334 1564h175l188 -394h-106z" />
<glyph unicode="&#xe9;" horiz-adv-x="1180" d="M99 513q0 287 134 434.5t379 147.5q235 0 352 -136t117 -377v-100h-862q0 -215 114 -317.5t284 -102.5q112 0 183.5 16.5t126.5 52.5v74h117v-125q-95 -59 -194.5 -86t-232.5 -27q-146 0 -263 61t-186 183.5t-69 301.5zM219 582h756q0 209 -87.5 310.5t-275.5 101.5 q-192 0 -292.5 -111t-100.5 -301zM515 1170l188 394h175l-257 -394h-106z" />
<glyph unicode="&#xea;" horiz-adv-x="1180" d="M99 513q0 287 134 434.5t379 147.5q235 0 352 -136t117 -377v-100h-862q0 -215 114 -317.5t284 -102.5q112 0 183.5 16.5t126.5 52.5v74h117v-125q-95 -59 -194.5 -86t-232.5 -27q-146 0 -263 61t-186 183.5t-69 301.5zM219 582h756q0 209 -87.5 310.5t-275.5 101.5 q-192 0 -292.5 -111t-100.5 -301zM283 1170l255 394h152l254 -394h-128l-204 307l-201 -307h-128z" />
<glyph unicode="&#xeb;" horiz-adv-x="1180" d="M99 513q0 287 134 434.5t379 147.5q235 0 352 -136t117 -377v-100h-862q0 -215 114 -317.5t284 -102.5q112 0 183.5 16.5t126.5 52.5v74h117v-125q-95 -59 -194.5 -86t-232.5 -27q-146 0 -263 61t-186 183.5t-69 301.5zM219 582h756q0 209 -87.5 310.5t-275.5 101.5 q-192 0 -292.5 -111t-100.5 -301zM327 1214v151h150v-151h-150zM745 1214v151h150v-151h-150z" />
<glyph unicode="&#xec;" horiz-adv-x="576" d="M-49 1564h175l188 -394h-106zM78 0v99h76q43 0 59.5 18t16.5 62v703q0 45 -16.5 62.5t-59.5 17.5h-76v100h270v-883q0 -44 16 -62t58 -18h78v-99h-422z" />
<glyph unicode="&#xed;" horiz-adv-x="576" d="M78 0v99h76q43 0 59.5 18t16.5 62v703q0 45 -16.5 62.5t-59.5 17.5h-76v100h270v-883q0 -44 16 -62t58 -18h78v-99h-422zM175 1170l188 394h175l-257 -394h-106z" />
<glyph unicode="&#xee;" horiz-adv-x="576" d="M-97 1157l254 394h153l254 -394h-129l-203 307l-201 -307h-128zM78 0v99h76q43 0 59.5 18t16.5 62v703q0 45 -16.5 62.5t-59.5 17.5h-76v100h270v-883q0 -44 16 -62t58 -18h78v-99h-422z" />
<glyph unicode="&#xef;" horiz-adv-x="576" d="M-51 1214v151h150v-151h-150zM78 0v99h76q43 0 59.5 18t16.5 62v703q0 45 -16.5 62.5t-59.5 17.5h-76v100h270v-883q0 -44 16 -62t58 -18h78v-99h-422zM367 1214v151h150v-151h-150z" />
<glyph unicode="&#xf0;" horiz-adv-x="1253" d="M102 414q0 63 4 97q25 234 175 369t386 135q243 0 375 -213q2 159 -20 262t-75 183l-250 -141v114l172 99q-71 44 -175 44q-88 0 -160 -15.5t-143 -53.5l-46 95q61 36 157.5 55.5t200.5 19.5q169 0 272 -86l162 93v-116l-93 -53q111 -158 111 -464q0 -101 -13 -228 q-36 -336 -185 -489.5t-389 -153.5q-223 0 -344.5 112.5t-121.5 334.5zM213 409q0 -179 88 -260t279 -81q186 0 301 113t139 350q2 15 2 47q0 103 -49 179.5t-128 116.5t-170 40q-213 0 -324.5 -101t-131.5 -302q-6 -53 -6 -102z" />
<glyph unicode="&#xf1;" horiz-adv-x="1319" d="M99 0v99h78q42 0 58.5 18t16.5 62v703q0 45 -16.5 62.5t-58.5 17.5h-57v100h220l14 -153q78 100 170.5 143t231.5 43q168 0 251.5 -94t83.5 -269v-553q0 -44 16 -62t58 -18h78v-99h-270v730q0 139 -57 201.5t-192 62.5q-95 0 -176 -39t-130 -111t-49 -169v-496 q0 -44 17 -62t59 -18h77v-99h-423zM303 1170q0 232 204 232q55 0 102.5 -18.5t109.5 -54.5q58 -31 88.5 -44t68.5 -13q53 0 76 26.5t23 103.5h104q0 -232 -203 -232q-51 0 -94 17.5t-101 51.5q-55 31 -93.5 46t-80.5 15q-53 0 -76.5 -26.5t-23.5 -103.5h-104z" />
<glyph unicode="&#xf2;" horiz-adv-x="1233" d="M99 528q0 264 126.5 415.5t391.5 151.5t391.5 -151.5t126.5 -415.5q0 -261 -125 -411t-393 -150q-267 0 -392.5 150.5t-125.5 410.5zM213 528q0 -230 102.5 -345t301.5 -115t302 115t103 345t-103 348t-302 118t-301.5 -118t-102.5 -348zM352 1564h174l189 -394h-107z " />
<glyph unicode="&#xf3;" horiz-adv-x="1233" d="M99 528q0 264 126.5 415.5t391.5 151.5t391.5 -151.5t126.5 -415.5q0 -261 -125 -411t-393 -150q-267 0 -392.5 150.5t-125.5 410.5zM213 528q0 -230 102.5 -345t301.5 -115t302 115t103 345t-103 348t-302 118t-301.5 -118t-102.5 -348zM540 1170l188 394h175l-257 -394 h-106z" />
<glyph unicode="&#xf4;" horiz-adv-x="1233" d="M99 528q0 264 126.5 415.5t391.5 151.5t391.5 -151.5t126.5 -415.5q0 -261 -125 -411t-393 -150q-267 0 -392.5 150.5t-125.5 410.5zM213 528q0 -230 102.5 -345t301.5 -115t302 115t103 345t-103 348t-302 118t-301.5 -118t-102.5 -348zM287 1170l255 394h152l255 -394 h-128l-204 307l-201 -307h-129z" />
<glyph unicode="&#xf5;" horiz-adv-x="1233" d="M99 528q0 264 126.5 415.5t391.5 151.5t391.5 -151.5t126.5 -415.5q0 -261 -125 -411t-393 -150q-267 0 -392.5 150.5t-125.5 410.5zM213 528q0 -230 102.5 -345t301.5 -115t302 115t103 345t-103 348t-302 118t-301.5 -118t-102.5 -348zM230 1170q0 232 203 232 q55 0 103 -18.5t110 -54.5q57 -31 88.5 -44t67.5 -13q53 0 77 26.5t24 103.5h104q0 -232 -205 -232q-50 0 -93.5 17.5t-100.5 51.5q-55 31 -94 46t-81 15q-53 0 -76 -26.5t-23 -103.5h-104z" />
<glyph unicode="&#xf6;" horiz-adv-x="1233" d="M99 528q0 264 126.5 415.5t391.5 151.5t391.5 -151.5t126.5 -415.5q0 -261 -125 -411t-393 -150q-267 0 -392.5 150.5t-125.5 410.5zM213 528q0 -230 102.5 -345t301.5 -115t302 115t103 345t-103 348t-302 118t-301.5 -118t-102.5 -348zM334 1214v151h151v-151h-151z M752 1214v151h151v-151h-151z" />
<glyph unicode="&#xf7;" horiz-adv-x="908" d="M122 624v100h665v-100h-665zM387 354v131h130v-131h-130zM387 863v131h130v-131h-130z" />
<glyph unicode="&#xf8;" horiz-adv-x="1233" d="M99 528q0 264 126.5 415.5t391.5 151.5q68 0 147 -16l36 105h118l-51 -137q137 -62 202.5 -196t65.5 -323q0 -261 -125 -411t-393 -150q-76 0 -142 14l-32 -95h-118l47 125q-140 59 -206.5 193t-66.5 324zM213 528q0 -316 194 -418l321 872q-59 11 -111 12 q-199 0 -301.5 -118t-102.5 -348zM511 78q44 -9 106 -10q199 0 302 115t103 345q0 314 -193 419z" />
<glyph unicode="&#xf9;" horiz-adv-x="1277" d="M78 962v100h270v-730q0 -270 269 -270q145 0 239.5 89.5t94.5 249.5v481q0 45 -16.5 62.5t-58.5 17.5h-78v100h270v-883q0 -44 17 -62t59 -18h57v-99h-219l-13 150q-72 -95 -161 -139t-224 -44q-170 0 -262 95t-92 267v553q0 45 -16.5 62.5t-59.5 17.5h-76zM332 1564h175 l187 -394h-105z" />
<glyph unicode="&#xfa;" horiz-adv-x="1277" d="M78 962v100h270v-730q0 -270 269 -270q145 0 239.5 89.5t94.5 249.5v481q0 45 -16.5 62.5t-58.5 17.5h-78v100h270v-883q0 -44 17 -62t59 -18h57v-99h-219l-13 150q-72 -95 -161 -139t-224 -44q-170 0 -262 95t-92 267v553q0 45 -16.5 62.5t-59.5 17.5h-76zM551 1170 l188 394h175l-257 -394h-106z" />
<glyph unicode="&#xfb;" horiz-adv-x="1277" d="M78 962v100h270v-730q0 -270 269 -270q145 0 239.5 89.5t94.5 249.5v481q0 45 -16.5 62.5t-58.5 17.5h-78v100h270v-883q0 -44 17 -62t59 -18h57v-99h-219l-13 150q-72 -95 -161 -139t-224 -44q-170 0 -262 95t-92 267v553q0 45 -16.5 62.5t-59.5 17.5h-76zM289 1170 l255 394h153l254 -394h-128l-204 307l-201 -307h-129z" />
<glyph unicode="&#xfc;" horiz-adv-x="1277" d="M78 962v100h270v-730q0 -270 269 -270q145 0 239.5 89.5t94.5 249.5v481q0 45 -16.5 62.5t-58.5 17.5h-78v100h270v-883q0 -44 17 -62t59 -18h57v-99h-219l-13 150q-72 -95 -161 -139t-224 -44q-170 0 -262 95t-92 267v553q0 45 -16.5 62.5t-59.5 17.5h-76zM325 1214v151 h150v-151h-150zM743 1214v151h150v-151h-150z" />
<glyph unicode="&#xfd;" horiz-adv-x="1211" d="M78 962v100h270v-686q0 -270 269 -270q145 0 239.5 89.5t94.5 249.5v437q0 45 -16.5 62.5t-58.5 17.5h-78v100h270v-1073q0 -194 -107 -313t-290 -119q-131 0 -221.5 38t-164.5 111v144h116v-95q88 -95 260 -95q146 0 218 83.5t72 237.5v196q-68 -91 -150 -128.5 t-217 -37.5q-170 0 -262 95t-92 268v508q0 45 -16.5 62.5t-59.5 17.5h-76zM536 1170l188 394h173l-255 -394h-106z" />
<glyph unicode="&#xfe;" horiz-adv-x="1288" d="M78 1372v92h249v-571q66 102 169 152t232 50q217 0 339.5 -145t122.5 -410q0 -268 -124 -420.5t-340 -152.5q-129 0 -227 46t-172 155v-427q0 -62 16 -85t71 -23h46v-93h-249v1743q0 49 -17 69t-55 20h-61zM321 460q0 -122 51.5 -211.5t138 -138t186.5 -48.5 q380 1 380 478q0 230 -92 346t-273 116q-110 0 -200 -54.5t-140.5 -149.5t-50.5 -214v-124z" />
<glyph unicode="&#xff;" horiz-adv-x="1211" d="M78 962v100h270v-686q0 -270 269 -270q145 0 239.5 89.5t94.5 249.5v437q0 45 -16.5 62.5t-58.5 17.5h-78v100h270v-1073q0 -194 -107 -313t-290 -119q-131 0 -221.5 38t-164.5 111v144h116v-95q88 -95 260 -95q146 0 218 83.5t72 237.5v196q-68 -91 -150 -128.5 t-217 -37.5q-170 0 -262 95t-92 268v508q0 45 -16.5 62.5t-59.5 17.5h-76zM329 1214v151h151v-151h-151zM747 1214v151h150v-151h-150z" />
<glyph unicode="&#x100;" horiz-adv-x="1600" d="M99 0v99h78q91 0 119 80l451 1252h109l449 -1252q29 -80 120 -80h77v-99h-411v99h127l-129 363h-576l-131 -363h129v-99h-412zM502 1599v100h600v-100h-600zM549 562h504l-253 703z" />
<glyph unicode="&#x101;" horiz-adv-x="1144" d="M78 259q0 152 93 221t262 79l386 27v144q0 142 -56 203t-201 61q-91 0 -155.5 -13.5t-123.5 -43.5v-81h-117v135q173 104 391 104q205 0 291.5 -95t86.5 -272v-555q0 -49 17 -69t55 -20h61v-84h-212l-24 135q-125 -168 -416 -168q-164 0 -251 75.5t-87 216.5zM190 255 q0 -93 59 -140t194 -47q167 0 271.5 74.5t104.5 222.5v129l-388 -27q-137 -9 -189 -55.5t-52 -156.5zM255 1214v100h599v-100h-599z" />
<glyph unicode="&#x102;" horiz-adv-x="1600" d="M99 0v99h78q91 0 119 80l451 1252h109l449 -1252q29 -80 120 -80h77v-99h-411v99h127l-129 363h-576l-131 -363h129v-99h-412zM491 1842h95q0 -92 58.5 -142t155.5 -50t156 50t59 142h95q0 -130 -87.5 -208.5t-222.5 -78.5t-222 78.5t-87 208.5zM549 562h504l-253 703z " />
<glyph unicode="&#x103;" horiz-adv-x="1144" d="M78 259q0 152 93 221t262 79l386 27v144q0 142 -56 203t-201 61q-91 0 -155.5 -13.5t-123.5 -43.5v-81h-117v135q173 104 391 104q205 0 291.5 -95t86.5 -272v-555q0 -49 17 -69t55 -20h61v-84h-212l-24 135q-125 -168 -416 -168q-164 0 -251 75.5t-87 216.5zM190 255 q0 -93 59 -140t194 -47q167 0 271.5 74.5t104.5 222.5v129l-388 -27q-137 -9 -189 -55.5t-52 -156.5zM255 1458h95q0 -93 58.5 -143t155.5 -50t156 50t59 143h95q0 -131 -87.5 -209.5t-222.5 -78.5t-222 78.5t-87 209.5z" />
<glyph unicode="&#x104;" horiz-adv-x="1600" d="M99 0v99h78q91 0 119 80l451 1252h109l449 -1252q29 -80 120 -80h77v-99h-126q-113 -102 -113 -234q0 -64 23 -93t72 -29q55 0 109 16v-82q-45 -22 -109 -23q-89 0 -140 53.5t-51 157.5q0 130 110 234h-186v99h127l-129 363h-576l-131 -363h129v-99h-412zM549 562h504 l-253 703z" />
<glyph unicode="&#x105;" horiz-adv-x="1144" d="M78 259q0 152 93 221t262 79l386 27v144q0 142 -56 203t-201 61q-91 0 -155.5 -13.5t-123.5 -43.5v-81h-117v135q173 104 391 104q205 0 291.5 -95t86.5 -272v-555q0 -49 17 -69t55 -20h61v-84h-112q-114 -102 -114 -234q0 -64 23.5 -93t71.5 -29q56 0 110 16v-82 q-45 -22 -110 -23q-88 0 -139 53.5t-51 157.5q0 130 109 234l-24 135q-125 -168 -416 -168q-164 0 -251 75.5t-87 216.5zM190 255q0 -93 59 -140t194 -47q168 0 272 74.5t104 222.5v129l-388 -27q-137 -9 -189 -55.5t-52 -156.5z" />
<glyph unicode="&#x106;" horiz-adv-x="1315" d="M99 710q0 219 76.5 389.5t229 267.5t376.5 97q278 0 435 -113v-172h-117v121q-117 62 -318 63q-266 0 -417 -174t-151 -479q0 -197 74 -341.5t206.5 -222.5t300.5 -78q215 0 348 78l52 -87q-152 -92 -400 -92q-216 0 -373 95t-239.5 263.5t-82.5 384.5zM681 1555l188 393 h175l-257 -393h-106z" />
<glyph unicode="&#x107;" horiz-adv-x="1123" d="M99 526q0 270 139.5 419.5t387.5 149.5q135 0 226.5 -27.5t171.5 -85.5v-172h-117v121q-64 33 -123.5 48t-157.5 15q-181 0 -297 -113t-116 -355q0 -157 61.5 -259.5t159 -150.5t208.5 -48q112 0 183.5 18t145.5 60l53 -87q-82 -50 -172.5 -71t-209.5 -21q-153 0 -276 65 t-195 191.5t-72 302.5zM528 1170l189 394h174l-256 -394h-107z" />
<glyph unicode="&#x108;" horiz-adv-x="1315" d="M99 710q0 219 76.5 389.5t229 267.5t376.5 97q278 0 435 -113v-172h-117v121q-117 62 -318 63q-266 0 -417 -174t-151 -479q0 -197 74 -341.5t206.5 -222.5t300.5 -78q215 0 348 78l52 -87q-152 -92 -400 -92q-216 0 -373 95t-239.5 263.5t-82.5 384.5zM456 1555l254 393 h153l254 -393h-129l-203 307l-201 -307h-128z" />
<glyph unicode="&#x109;" horiz-adv-x="1123" d="M99 526q0 270 139.5 419.5t387.5 149.5q135 0 226.5 -27.5t171.5 -85.5v-172h-117v121q-64 33 -123.5 48t-157.5 15q-181 0 -297 -113t-116 -355q0 -157 61.5 -259.5t159 -150.5t208.5 -48q112 0 183.5 18t145.5 60l53 -87q-82 -50 -172.5 -71t-209.5 -21q-153 0 -276 65 t-195 191.5t-72 302.5zM310 1170l254 394h153l254 -394h-129l-203 307l-201 -307h-128z" />
<glyph unicode="&#x10a;" horiz-adv-x="1315" d="M99 710q0 219 76.5 389.5t229 267.5t376.5 97q278 0 435 -113v-172h-117v121q-117 62 -318 63q-266 0 -417 -174t-151 -479q0 -197 74 -341.5t206.5 -222.5t300.5 -78q215 0 348 78l52 -87q-152 -92 -400 -92q-216 0 -373 95t-239.5 263.5t-82.5 384.5zM724 1599v151h150 v-151h-150z" />
<glyph unicode="&#x10b;" horiz-adv-x="1123" d="M99 526q0 270 139.5 419.5t387.5 149.5q135 0 226.5 -27.5t171.5 -85.5v-172h-117v121q-64 33 -123.5 48t-157.5 15q-181 0 -297 -113t-116 -355q0 -157 61.5 -259.5t159 -150.5t208.5 -48q112 0 183.5 18t145.5 60l53 -87q-82 -50 -172.5 -71t-209.5 -21q-153 0 -276 65 t-195 191.5t-72 302.5zM575 1268v150h151v-150h-151z" />
<glyph unicode="&#x10c;" horiz-adv-x="1315" d="M99 710q0 219 76.5 389.5t229 267.5t376.5 97q278 0 435 -113v-172h-117v121q-117 62 -318 63q-266 0 -417 -174t-151 -479q0 -197 74 -341.5t206.5 -222.5t300.5 -78q215 0 348 78l52 -87q-152 -92 -400 -92q-216 0 -373 95t-239.5 263.5t-82.5 384.5zM445 1948h127 l202 -306l203 306h129l-255 -393h-152z" />
<glyph unicode="&#x10d;" horiz-adv-x="1123" d="M99 526q0 270 139.5 419.5t387.5 149.5q135 0 226.5 -27.5t171.5 -85.5v-172h-117v121q-64 33 -123.5 48t-157.5 15q-181 0 -297 -113t-116 -355q0 -157 61.5 -259.5t159 -150.5t208.5 -48q112 0 183.5 18t145.5 60l53 -87q-82 -50 -172.5 -71t-209.5 -21q-153 0 -276 65 t-195 191.5t-72 302.5zM321 1564h128l201 -308l204 308h128l-254 -394h-153z" />
<glyph unicode="&#x10e;" horiz-adv-x="1370" d="M99 0v95h55q43 0 59.5 18t16.5 62v1081q0 44 -16.5 62t-59.5 18h-55v95h585q301 0 444.5 -191t143.5 -530q0 -332 -148.5 -521t-439.5 -189h-585zM310 1948h128l201 -306l203 306h129l-254 -393h-153zM348 95h325q251 0 368.5 154t117.5 461q0 314 -116 470t-370 156 h-325v-1241z" />
<glyph unicode="&#x10f;" horiz-adv-x="1536" d="M99 522q0 267 124.5 420t340.5 153q146 0 241.5 -46.5t156.5 -155.5v370q0 61 -15.5 85t-70.5 24h-47v92h250v-1291q0 -49 16.5 -69t54.5 -20h62v-84h-232l-22 168q-129 -198 -396 -199q-217 0 -340 144t-123 409zM213 522q0 -228 91.5 -344t273.5 -116q110 0 199.5 53 t140.5 148.5t51 213.5v125q0 183 -105.5 290.5t-270.5 107.5q-380 0 -380 -478zM1186 1201l121 394h175l-190 -394h-106z" />
<glyph unicode="&#x110;" horiz-adv-x="1370" d="M99 0v95h55q43 0 59.5 18t16.5 62v492h-131v101h131v488q0 44 -16.5 62t-59.5 18h-55v95h585q301 0 444.5 -191t143.5 -530q0 -332 -148.5 -521t-439.5 -189h-585zM348 95h325q251 0 368.5 154t117.5 461q0 314 -116 470t-370 156h-325v-568h351v-101h-351v-572z" />
<glyph unicode="&#x111;" horiz-adv-x="1288" d="M99 522q0 267 124.5 420t340.5 153q146 0 241.5 -46.5t156.5 -155.5v297h-367v100h367q0 42 -19 62t-67 20h-47v92h250v-174h115v-100h-115v-1017q0 -49 16.5 -69t54.5 -20h62v-84h-232l-22 168q-129 -198 -396 -199q-217 0 -340 144t-123 409zM213 522q0 -228 91.5 -344 t273.5 -116q110 0 199.5 53t140.5 148.5t51 213.5v125q0 183 -105.5 290.5t-270.5 107.5q-380 0 -380 -478z" />
<glyph unicode="&#x112;" horiz-adv-x="1200" d="M99 0v99h78q42 0 58.5 18t16.5 62v1073q0 44 -16.5 62t-58.5 18h-78v99h1003v-228h-106v53q0 42 -18 59t-62 17h-547v-564h467v-101h-467v-568h547q44 0 62 17t18 59v55h106v-230h-1003zM327 1599v100h600v-100h-600z" />
<glyph unicode="&#x113;" horiz-adv-x="1180" d="M99 513q0 287 134 434.5t379 147.5q235 0 352 -136t117 -377v-100h-862q0 -215 114 -317.5t284 -102.5q112 0 183.5 16.5t126.5 52.5v74h117v-125q-95 -59 -194.5 -86t-232.5 -27q-146 0 -263 61t-186 183.5t-69 301.5zM219 582h756q0 209 -87.5 310.5t-275.5 101.5 q-192 0 -292.5 -111t-100.5 -301zM325 1214v100h599v-100h-599z" />
<glyph unicode="&#x114;" horiz-adv-x="1200" d="M99 0v99h78q42 0 58.5 18t16.5 62v1073q0 44 -16.5 62t-58.5 18h-78v99h1003v-228h-106v53q0 42 -18 59t-62 17h-547v-564h467v-101h-467v-568h547q44 0 62 17t18 59v55h106v-230h-1003zM359 1842h95q0 -92 58 -142t155 -50q98 0 156.5 50t58.5 142h95 q0 -130 -87.5 -208.5t-222.5 -78.5q-133 0 -220.5 78.5t-87.5 208.5z" />
<glyph unicode="&#x115;" horiz-adv-x="1180" d="M99 513q0 287 134 434.5t379 147.5q235 0 352 -136t117 -377v-100h-862q0 -215 114 -317.5t284 -102.5q112 0 183.5 16.5t126.5 52.5v74h117v-125q-95 -59 -194.5 -86t-232.5 -27q-146 0 -263 61t-186 183.5t-69 301.5zM219 582h756q0 209 -87.5 310.5t-275.5 101.5 q-192 0 -292.5 -111t-100.5 -301zM312 1458h95q0 -93 58.5 -143t155.5 -50t156 50t59 143h95q0 -131 -87.5 -209.5t-222.5 -78.5q-134 0 -221.5 78.5t-87.5 209.5z" />
<glyph unicode="&#x116;" horiz-adv-x="1200" d="M99 0v99h78q42 0 58.5 18t16.5 62v1073q0 44 -16.5 62t-58.5 18h-78v99h1003v-228h-106v53q0 42 -18 59t-62 17h-547v-564h467v-101h-467v-568h547q44 0 62 17t18 59v55h106v-230h-1003zM570 1599v151h151v-151h-151z" />
<glyph unicode="&#x117;" horiz-adv-x="1180" d="M99 513q0 287 134 434.5t379 147.5q235 0 352 -136t117 -377v-100h-862q0 -215 114 -317.5t284 -102.5q112 0 183.5 16.5t126.5 52.5v74h117v-125q-95 -59 -194.5 -86t-232.5 -27q-146 0 -263 61t-186 183.5t-69 301.5zM219 582h756q0 209 -87.5 310.5t-275.5 101.5 q-192 0 -292.5 -111t-100.5 -301zM546 1214v151h151v-151h-151z" />
<glyph unicode="&#x118;" horiz-adv-x="1200" d="M99 0v99h78q42 0 58.5 18t16.5 62v1073q0 44 -16.5 62t-58.5 18h-78v99h1003v-228h-106v53q0 42 -18 59t-62 17h-547v-564h467v-101h-467v-568h547q44 0 62 17t18 59v55h106v-230h-91q-112 -102 -114 -234q0 -64 23.5 -93t73.5 -29q55 0 108 16v-82q-45 -22 -108 -23 q-89 0 -140.5 53.5t-51.5 157.5q0 130 110 234h-813z" />
<glyph unicode="&#x119;" horiz-adv-x="1180" d="M99 513q0 287 134 434.5t379 147.5q235 0 352 -136t117 -377v-100h-862q0 -215 114 -317.5t284 -102.5q112 0 183.5 16.5t126.5 52.5v74h117v-125q-86 -55 -172 -80q-113 -102 -114 -234q0 -64 23.5 -93t72.5 -29q55 0 108 16v-82q-44 -22 -108 -23q-88 0 -139.5 53.5 t-51.5 157.5q0 112 84 207q-59 -6 -130 -6q-146 0 -263 61t-186 183.5t-69 301.5zM219 582h756q0 209 -87.5 310.5t-275.5 101.5q-192 0 -292.5 -111t-100.5 -301z" />
<glyph unicode="&#x11a;" horiz-adv-x="1200" d="M99 0v99h78q42 0 58.5 18t16.5 62v1073q0 44 -16.5 62t-58.5 18h-78v99h1003v-228h-106v53q0 42 -18 59t-62 17h-547v-564h467v-101h-467v-568h547q44 0 62 17t18 59v55h106v-230h-1003zM316 1948h129l201 -306l203 306h128l-253 -393h-154z" />
<glyph unicode="&#x11b;" horiz-adv-x="1180" d="M99 513q0 287 134 434.5t379 147.5q235 0 352 -136t117 -377v-100h-862q0 -215 114 -317.5t284 -102.5q112 0 183.5 16.5t126.5 52.5v74h117v-125q-95 -59 -194.5 -86t-232.5 -27q-146 0 -263 61t-186 183.5t-69 301.5zM219 582h756q0 209 -87.5 310.5t-275.5 101.5 q-192 0 -292.5 -111t-100.5 -301zM292 1564h128l201 -308l204 308h129l-255 -394h-153z" />
<glyph unicode="&#x11c;" horiz-adv-x="1334" d="M99 710q0 340 165 547t494 207q279 0 436 -113v-172h-117v121q-118 62 -319 63q-263 0 -404 -171.5t-141 -481.5q0 -302 149 -472t410 -170q108 0 190 15.5t157 51.5v484h-338v100h456v-630q-102 -64 -212.5 -93t-252.5 -29q-217 0 -368.5 95t-228 263.5t-76.5 384.5z M431 1555l255 393h152l255 -393h-129l-203 307l-202 -307h-128z" />
<glyph unicode="&#x11d;" horiz-adv-x="1288" d="M99 542q0 264 128.5 408.5t347.5 144.5q126 0 221 -47.5t162 -152.5l22 167h232v-85h-62q-38 0 -54.5 -20t-16.5 -68v-900q0 -194 -107 -313t-286 -119q-131 0 -218.5 31.5t-166.5 99.5v144h115v-96q48 -42 110.5 -59t150.5 -17q137 0 211 84.5t74 236.5v190 q-61 -108 -156.5 -155t-241.5 -47q-217 0 -341 152.5t-124 420.5zM213 542q0 -477 380 -478q165 0 270.5 107.5t105.5 290.5v124q0 122 -47.5 215.5t-134 147t-196.5 53.5q-184 0 -281 -116t-97 -344zM283 1170l255 394h152l254 -394h-128l-204 307l-201 -307h-128z" />
<glyph unicode="&#x11e;" horiz-adv-x="1334" d="M99 710q0 340 165 547t494 207q279 0 436 -113v-172h-117v121q-118 62 -319 63q-263 0 -404 -171.5t-141 -481.5q0 -302 149 -472t410 -170q108 0 190 15.5t157 51.5v484h-338v100h456v-630q-102 -64 -212.5 -93t-252.5 -29q-217 0 -368.5 95t-228 263.5t-76.5 384.5z M449 1842h95q0 -92 58.5 -142t155.5 -50t156 50t59 142h95q0 -130 -87.5 -208.5t-222.5 -78.5q-134 0 -221.5 78.5t-87.5 208.5z" />
<glyph unicode="&#x11f;" horiz-adv-x="1288" d="M99 542q0 264 128.5 408.5t347.5 144.5q126 0 221 -47.5t162 -152.5l22 167h232v-85h-62q-38 0 -54.5 -20t-16.5 -68v-900q0 -194 -107 -313t-286 -119q-131 0 -218.5 31.5t-166.5 99.5v144h115v-96q48 -42 110.5 -59t150.5 -17q137 0 211 84.5t74 236.5v190 q-61 -108 -156.5 -155t-241.5 -47q-217 0 -341 152.5t-124 420.5zM213 542q0 -477 380 -478q165 0 270.5 107.5t105.5 290.5v124q0 122 -47.5 215.5t-134 147t-196.5 53.5q-184 0 -281 -116t-97 -344zM259 1458h95q0 -93 58.5 -143t155.5 -50t156 50t59 143h95 q0 -131 -87.5 -209.5t-222.5 -78.5t-222 78.5t-87 209.5z" />
<glyph unicode="&#x120;" horiz-adv-x="1334" d="M99 710q0 340 165 547t494 207q279 0 436 -113v-172h-117v121q-118 62 -319 63q-263 0 -404 -171.5t-141 -481.5q0 -302 149 -472t410 -170q108 0 190 15.5t157 51.5v484h-338v100h456v-630q-102 -64 -212.5 -93t-252.5 -29q-217 0 -368.5 95t-228 263.5t-76.5 384.5z M684 1555v150h150v-150h-150z" />
<glyph unicode="&#x121;" horiz-adv-x="1288" d="M99 542q0 264 128.5 408.5t347.5 144.5q126 0 221 -47.5t162 -152.5l22 167h232v-85h-62q-38 0 -54.5 -20t-16.5 -68v-900q0 -194 -107 -313t-286 -119q-131 0 -218.5 31.5t-166.5 99.5v144h115v-96q48 -42 110.5 -59t150.5 -17q137 0 211 84.5t74 236.5v190 q-61 -108 -156.5 -155t-241.5 -47q-217 0 -341 152.5t-124 420.5zM213 542q0 -477 380 -478q165 0 270.5 107.5t105.5 290.5v124q0 122 -47.5 215.5t-134 147t-196.5 53.5q-184 0 -281 -116t-97 -344zM515 1214v151h150v-151h-150z" />
<glyph unicode="&#x122;" horiz-adv-x="1334" d="M99 710q0 340 165 547t494 207q279 0 436 -113v-172h-117v121q-118 62 -319 63q-263 0 -404 -171.5t-141 -481.5q0 -302 149 -472t410 -170q108 0 190 15.5t157 51.5v484h-338v100h456v-630q-102 -64 -212.5 -93t-252.5 -29q-217 0 -368.5 95t-228 263.5t-76.5 384.5z M677 -517l62 409h148l-123 -409h-87z" />
<glyph unicode="&#x123;" horiz-adv-x="1288" d="M99 542q0 264 128.5 408.5t347.5 144.5q126 0 221 -47.5t162 -152.5l22 167h232v-85h-62q-38 0 -54.5 -20t-16.5 -68v-900q0 -194 -107 -313t-286 -119q-131 0 -218.5 31.5t-166.5 99.5v144h115v-96q48 -42 110.5 -59t150.5 -17q137 0 211 84.5t74 236.5v190 q-61 -108 -156.5 -155t-241.5 -47q-217 0 -341 152.5t-124 420.5zM213 542q0 -477 380 -478q165 0 270.5 107.5t105.5 290.5v124q0 122 -47.5 215.5t-134 147t-196.5 53.5q-184 0 -281 -116t-97 -344zM477 1287l125 410h86l-62 -410h-149z" />
<glyph unicode="&#x124;" horiz-adv-x="1494" d="M99 0v99h78q42 0 58.5 18t16.5 62v1073q0 44 -16.5 62t-58.5 18h-78v99h423v-99h-77q-42 0 -59 -18t-17 -62v-484h756v484q0 44 -16 62t-58 18h-78v99h422v-99h-76q-42 0 -59 -18t-17 -62v-1073q0 -44 17 -62t59 -18h76v-99h-422v99h78q42 0 58 18t16 62v488h-756v-488 q0 -44 17 -62t59 -18h77v-99h-423zM418 1555l255 393h152l254 -393h-128l-204 307l-201 -307h-128z" />
<glyph unicode="&#x125;" horiz-adv-x="1321" d="M99 0v99h78q42 0 58.5 18t16.5 62v1106q0 44 -16.5 62t-58.5 18h-57v99h249v-535q74 86 167 126t220 40q162 0 249.5 -95t87.5 -268v-553q0 -44 16 -62t58 -18h78v-99h-272v730q0 139 -61 204.5t-188 65.5q-93 0 -175 -40t-131 -114t-49 -171v-496q0 -44 17 -62t59 -18 h77v-99h-423zM186 1555l255 393h152l254 -393h-128l-204 307l-201 -307h-128z" />
<glyph unicode="&#x126;" horiz-adv-x="1494" d="M99 0v99h78q42 0 58.5 18t16.5 62v783h-150v100h150v190q0 44 -16.5 62t-58.5 18h-78v99h423v-99h-77q-42 0 -59 -18t-17 -62v-190h756v190q0 44 -16 62t-58 18h-78v99h422v-99h-76q-42 0 -59 -18t-17 -62v-190h152v-100h-152v-783q0 -44 17 -62t59 -18h76v-99h-422v99 h78q42 0 58 18t16 62v488h-756v-488q0 -44 17 -62t59 -18h77v-99h-423zM369 768h756v194h-756v-194z" />
<glyph unicode="&#x127;" horiz-adv-x="1321" d="M99 0v99h78q42 0 58.5 18t16.5 62v995h-132v100h132v11q0 44 -16.5 62t-58.5 18h-57v99h249v-190h460v-100h-460v-245q74 86 167 126t220 40q162 0 249.5 -95t87.5 -268v-553q0 -44 16 -62t58 -18h78v-99h-272v730q0 139 -61 204.5t-188 65.5q-93 0 -175 -40t-131 -114 t-49 -171v-496q0 -44 17 -62t59 -18h77v-99h-423z" />
<glyph unicode="&#x128;" horiz-adv-x="621" d="M-80 1555q1 232 204 232q55 0 102.5 -18.5t109.5 -54.5q57 -31 89.5 -44t68.5 -13q52 0 75.5 26.5t23.5 103.5h104q0 -232 -203 -232q-51 0 -94.5 18t-101.5 50q-55 32 -93.5 47.5t-80.5 15.5q-53 0 -76 -27t-23 -104h-105zM99 0v99h78q42 0 58.5 18t16.5 62v1073 q0 44 -16.5 62t-58.5 18h-78v99h423v-99h-77q-42 0 -59 -18t-17 -62v-1073q0 -44 17 -62t59 -18h77v-99h-423z" />
<glyph unicode="&#x129;" horiz-adv-x="576" d="M-120 1170q1 232 204 232q55 0 102.5 -18.5t109.5 -54.5q57 -31 88.5 -44t69.5 -13q53 0 76 26.5t23 103.5h104q0 -232 -203 -232q-51 0 -94.5 17.5t-100.5 51.5q-55 31 -94 46t-81 15q-53 0 -76 -26.5t-23 -103.5h-105zM78 0v99h76q43 0 59.5 18t16.5 62v703 q0 45 -16.5 62.5t-59.5 17.5h-76v100h270v-883q0 -44 16 -62t58 -18h78v-99h-422z" />
<glyph unicode="&#x12a;" horiz-adv-x="621" d="M11 1599v100h599v-100h-599zM99 0v99h78q42 0 58.5 18t16.5 62v1073q0 44 -16.5 62t-58.5 18h-78v99h423v-99h-77q-42 0 -59 -18t-17 -62v-1073q0 -44 17 -62t59 -18h77v-99h-423z" />
<glyph unicode="&#x12b;" horiz-adv-x="576" d="M-62 1203v99h600v-99h-600zM78 0v99h76q43 0 59.5 18t16.5 62v703q0 45 -16.5 62.5t-59.5 17.5h-76v100h270v-883q0 -44 16 -62t58 -18h78v-99h-422z" />
<glyph unicode="&#x12c;" horiz-adv-x="621" d="M0 1842h95q0 -92 59 -142t156 -50t155.5 50t58.5 142h95q0 -130 -87 -208.5t-222 -78.5t-222.5 78.5t-87.5 208.5zM99 0v99h78q42 0 58.5 18t16.5 62v1073q0 44 -16.5 62t-58.5 18h-78v99h423v-99h-77q-42 0 -59 -18t-17 -62v-1073q0 -44 17 -62t59 -18h77v-99h-423z" />
<glyph unicode="&#x12d;" horiz-adv-x="576" d="M-22 1458h95q0 -93 58.5 -143t155.5 -50t156 50t59 143h95q0 -131 -87.5 -209.5t-222.5 -78.5t-222 78.5t-87 209.5zM78 0v99h76q43 0 59.5 18t16.5 62v703q0 45 -16.5 62.5t-59.5 17.5h-76v100h270v-883q0 -44 16 -62t58 -18h78v-99h-422z" />
<glyph unicode="&#x12e;" horiz-adv-x="621" d="M99 0v99h78q42 0 58.5 18t16.5 62v1073q0 44 -16.5 62t-58.5 18h-78v99h423v-99h-77q-42 0 -59 -18t-17 -62v-1073q0 -44 17 -62t59 -18h77v-99h-153q-112 -102 -112 -234q0 -64 23 -93t72 -29q55 0 108 16v-82q-44 -22 -108 -23q-88 0 -139 53.5t-51 157.5 q0 130 108 234h-171z" />
<glyph unicode="&#x12f;" horiz-adv-x="576" d="M78 0v99h76q43 0 59.5 18t16.5 62v703q0 45 -16.5 62.5t-59.5 17.5h-76v100h270v-883q0 -44 16 -62t58 -18h78v-99h-137q-114 -102 -114 -234q0 -64 23.5 -93t72.5 -29q55 0 109 16v-82q-45 -22 -109 -23q-89 0 -140 53.5t-51 157.5q0 130 110 234h-186zM219 1247v140 h140v-140h-140z" />
<glyph unicode="&#x130;" horiz-adv-x="621" d="M99 0v99h78q42 0 58.5 18t16.5 62v1073q0 44 -16.5 62t-58.5 18h-78v99h423v-99h-77q-42 0 -59 -18t-17 -62v-1073q0 -44 17 -62t59 -18h77v-99h-423zM234 1599v151h150v-151h-150z" />
<glyph unicode="&#x131;" horiz-adv-x="576" d="M78 0v99h76q43 0 59.5 18t16.5 62v703q0 45 -16.5 62.5t-59.5 17.5h-76v100h270v-883q0 -44 16 -62t58 -18h78v-99h-422z" />
<glyph unicode="&#x132;" horiz-adv-x="1607" d="M99 0v99h78q42 0 58.5 18t16.5 62v1073q0 44 -16.5 62t-58.5 18h-78v99h423v-99h-77q-42 0 -59 -18t-17 -62v-1073q0 -44 17 -62t59 -18h77v-99h-423zM595 114v145h115v-95q88 -95 265 -96q148 0 216.5 78t68.5 230v876q0 44 -16 62t-58 18h-78v99h422v-99h-76 q-42 0 -59 -18t-17 -62v-868q0 -196 -100.5 -306.5t-293.5 -110.5q-130 0 -223.5 37.5t-165.5 109.5z" />
<glyph unicode="&#x133;" horiz-adv-x="1098" d="M78 0v99h76q43 0 59.5 18t16.5 62v703q0 45 -16.5 62.5t-59.5 17.5h-76v100h270v-883q0 -44 16 -62t58 -18h78v-99h-422zM219 1247v140h140v-140h-140zM294 -102h115v-95q38 -42 85.5 -58.5t113.5 -16.5q110 0 164.5 61t54.5 207v886q0 45 -16.5 62.5t-58.5 17.5h-77v100 h269v-1058q0 -188 -86 -283t-241 -95q-106 0 -179 30t-144 99v143zM816 1247v140h140v-140h-140z" />
<glyph unicode="&#x134;" horiz-adv-x="1068" d="M33 114v145h115v-95q89 -95 266 -96q148 0 216.5 78t68.5 230v876q0 44 -17 62t-58 18h-78v99h423v-99h-78q-42 0 -58.5 -18t-16.5 -62v-868q0 -196 -100.5 -306.5t-293.5 -110.5q-130 0 -223 37.5t-166 109.5zM422 1555l255 393h152l255 -393h-128l-204 307l-201 -307 h-129z" />
<glyph unicode="&#x135;" horiz-adv-x="872" d="M-33 -102h115v-95q38 -42 85.5 -58.5t113.5 -16.5q110 0 164.5 61t54.5 207v886q0 45 -16.5 62.5t-59.5 17.5h-76v100h269v-1058q0 -188 -86 -283t-242 -95q-105 0 -178 30t-144 99v143zM179 1170l254 394h153l254 -394h-128l-203 307l-201 -307h-129z" />
<glyph unicode="&#x136;" horiz-adv-x="1401" d="M99 0v99h69q49 0 66.5 18t17.5 62v1077q0 44 -16.5 62t-58.5 18h-55v95h378v-95h-55q-42 0 -59 -18t-17 -62v-602l625 678h-129v99h412v-99h-89q-40 0 -63 -16t-66 -58l-396 -429l432 -652q29 -42 58 -60t73 -18h76v-99h-420v99h129l-427 644l-215 -232v-332 q0 -44 18 -62t67 -18h68v-99h-423zM564 -517l62 409h148l-124 -409h-86z" />
<glyph unicode="&#x137;" horiz-adv-x="1264" d="M99 0v99h69q49 0 66.5 18t17.5 62v1111q0 44 -16.5 61.5t-58.5 17.5h-55v95h378v-95h-55q-42 0 -59 -17.5t-17 -61.5v-771l494 443h-131v100h412v-100h-87q-33 0 -49.5 -7.5t-33 -24t-25.5 -23.5l-268 -242l301 -492q29 -47 52 -60.5t76 -13.5h78v-99h-226l-367 591 l-226 -204v-208q0 -44 18 -62t67 -18h68v-99h-423zM526 -517l63 409h148l-125 -409h-86z" />
<glyph unicode="&#x138;" horiz-adv-x="1260" d="M99 0v99h69q49 0 66.5 18t17.5 62v708q0 44 -16.5 62t-58.5 18h-55v95h378v-95h-55q-42 0 -59 -18t-17 -62v-410l482 485h-127v100h411v-100h-78q-40 0 -65 -15.5t-68 -57.5l-267 -263l297 -449q29 -42 53.5 -60t76.5 -18h77v-99h-420v99h139l-298 454l-213 -211v-163 q0 -44 18 -62t67 -18h68v-99h-423z" />
<glyph unicode="&#x139;" horiz-adv-x="1112" d="M99 0v95h47q48 0 66 18t18 62v1081q0 44 -16.5 62t-59.5 18h-55v95h378v-95h-55q-42 0 -58 -18t-16 -62v-1161h545q44 0 62 17t18 59v55h106v-226h-980zM230 1555l188 393h175l-257 -393h-106z" />
<glyph unicode="&#x13a;" horiz-adv-x="599" d="M99 0v99h78q42 0 58.5 18t16.5 62v1106q0 44 -16.5 62t-58.5 18h-78v99h270v-1285q0 -44 17 -62t59 -18h77v-99h-423zM133 1555l188 393h175l-257 -393h-106z" />
<glyph unicode="&#x13b;" horiz-adv-x="1112" d="M99 0v95h47q48 0 66 18t18 62v1081q0 44 -16.5 62t-59.5 18h-55v95h378v-95h-55q-42 0 -58 -18t-16 -62v-1161h545q44 0 62 17t18 59v55h106v-226h-980zM460 -517l62 409h149l-125 -409h-86z" />
<glyph unicode="&#x13c;" horiz-adv-x="599" d="M99 0v99h78q42 0 58.5 18t16.5 62v1106q0 44 -16.5 62t-58.5 18h-78v99h270v-1285q0 -44 17 -62t59 -18h77v-99h-423zM188 -517l61 409h150l-125 -409h-86z" />
<glyph unicode="&#x13d;" horiz-adv-x="1112" d="M99 0v95h47q48 0 66 18t18 62v1081q0 44 -16.5 62t-59.5 18h-55v95h378v-95h-55q-42 0 -58 -18t-16 -62v-1161h545q44 0 62 17t18 59v55h106v-226h-980zM705 1170l63 409h148l-124 -409h-87z" />
<glyph unicode="&#x13e;" horiz-adv-x="798" d="M99 0v99h78q42 0 58.5 18t16.5 62v1106q0 44 -16.5 62t-58.5 18h-78v99h270v-1285q0 -44 17 -62t59 -18h77v-99h-423zM578 1272l61 408h148l-124 -408h-85z" />
<glyph unicode="&#x13f;" horiz-adv-x="1112" d="M99 0v95h47q48 0 66 18t18 62v1081q0 44 -16.5 62t-59.5 18h-55v95h378v-95h-55q-42 0 -58 -18t-16 -62v-1161h545q44 0 62 17t18 59v55h106v-226h-980zM639 602v150h150v-150h-150z" />
<glyph unicode="&#x140;" horiz-adv-x="756" d="M99 0v99h78q42 0 58.5 18t16.5 62v1106q0 44 -16.5 62t-58.5 18h-78v99h270v-1285q0 -44 17 -62t59 -18h77v-99h-423zM595 621v151h150v-151h-150z" />
<glyph unicode="&#x141;" horiz-adv-x="1116" d="M99 460v115l135 77v604q0 44 -16.5 62t-58.5 18h-55v95h378v-95h-55q-43 0 -59 -18t-16 -62v-535l294 168v-115l-294 -168v-511h545q45 0 62.5 17t17.5 59v55h107v-226h-980v95h46q49 0 66.5 18t17.5 62v363z" />
<glyph unicode="&#x142;" horiz-adv-x="605" d="M53 460v115l206 117v593q0 44 -16.5 62t-58.5 18h-78v99h270v-703l223 128v-115l-223 -128v-467q0 -44 16.5 -62t58.5 -18h77v-99h-422v99h78q42 0 58.5 18t16.5 62v399z" />
<glyph unicode="&#x143;" horiz-adv-x="1516" d="M99 0v99h78q42 0 58.5 18t16.5 62v1073q0 44 -16.5 62t-58.5 18h-78v99h260l789 -1223v1044q0 44 -16.5 62t-59.5 18h-76v99h422v-99h-78q-42 0 -58.5 -18t-16.5 -62v-1252h-106l-790 1224v-1045q0 -44 17 -62t59 -18h77v-99h-423zM661 1555l188 393h175l-256 -393h-107z " />
<glyph unicode="&#x144;" horiz-adv-x="1319" d="M99 0v99h78q42 0 58.5 18t16.5 62v703q0 45 -16.5 62.5t-58.5 17.5h-57v100h220l14 -153q78 100 170.5 143t231.5 43q168 0 251.5 -94t83.5 -269v-553q0 -44 16 -62t58 -18h78v-99h-270v730q0 139 -57 201.5t-192 62.5q-95 0 -176 -39t-130 -111t-49 -169v-496 q0 -44 17 -62t59 -18h77v-99h-423zM578 1170l188 394h174l-256 -394h-106z" />
<glyph unicode="&#x145;" horiz-adv-x="1516" d="M99 0v99h78q42 0 58.5 18t16.5 62v1073q0 44 -16.5 62t-58.5 18h-78v99h260l789 -1223v1044q0 44 -16.5 62t-59.5 18h-76v99h422v-99h-78q-42 0 -58.5 -18t-16.5 -62v-1252h-106l-790 1224v-1045q0 -44 17 -62t59 -18h77v-99h-423zM665 -517l63 409h148l-124 -409h-87z " />
<glyph unicode="&#x146;" horiz-adv-x="1319" d="M99 0v99h78q42 0 58.5 18t16.5 62v703q0 45 -16.5 62.5t-58.5 17.5h-57v100h220l14 -153q78 100 170.5 143t231.5 43q168 0 251.5 -94t83.5 -269v-553q0 -44 16 -62t58 -18h78v-99h-270v730q0 139 -57 201.5t-192 62.5q-95 0 -176 -39t-130 -111t-49 -169v-496 q0 -44 17 -62t59 -18h77v-99h-423zM610 -517l63 409h148l-124 -409h-87z" />
<glyph unicode="&#x147;" horiz-adv-x="1516" d="M99 0v99h78q42 0 58.5 18t16.5 62v1073q0 44 -16.5 62t-58.5 18h-78v99h260l789 -1223v1044q0 44 -16.5 62t-59.5 18h-76v99h422v-99h-78q-42 0 -58.5 -18t-16.5 -62v-1252h-106l-790 1224v-1045q0 -44 17 -62t59 -18h77v-99h-423zM416 1948h128l201 -306l204 306h128 l-254 -393h-152z" />
<glyph unicode="&#x148;" horiz-adv-x="1319" d="M99 0v99h78q42 0 58.5 18t16.5 62v703q0 45 -16.5 62.5t-58.5 17.5h-57v100h220l14 -153q78 100 170.5 143t231.5 43q168 0 251.5 -94t83.5 -269v-553q0 -44 16 -62t58 -18h78v-99h-270v730q0 139 -57 201.5t-192 62.5q-95 0 -176 -39t-130 -111t-49 -169v-496 q0 -44 17 -62t59 -18h77v-99h-423zM345 1564h128l202 -308l203 308h129l-255 -394h-153z" />
<glyph unicode="&#x149;" horiz-adv-x="1472" d="M99 1170l63 409h148l-124 -409h-87zM252 0v99h77q43 0 59.5 18t16.5 62v703q0 45 -16.5 62.5t-59.5 17.5h-57v100h222l13 -153q77 100 170 143t232 43q169 0 251.5 -94t82.5 -269v-553q0 -44 17 -62t59 -18h76v-99h-270v730q0 139 -57 201.5t-192 62.5q-95 0 -176 -39 t-129.5 -111t-48.5 -169v-496q0 -44 16.5 -62t58.5 -18h78v-99h-423z" />
<glyph unicode="&#x14a;" horiz-adv-x="1516" d="M99 0v99h78q42 0 58.5 18t16.5 62v1073q0 44 -16.5 62t-58.5 18h-78v99h260l789 -1223v1044q0 44 -16.5 62t-59.5 18h-76v99h422v-99h-78q-42 0 -58.5 -18t-16.5 -62v-1465q0 -196 -100.5 -307t-292.5 -111q-131 0 -224 38t-166 111v144h115v-95q89 -95 266 -95 q148 0 216.5 77t68.5 230v236l-779 1209v-1045q0 -44 17 -62t59 -18h77v-99h-423z" />
<glyph unicode="&#x14b;" horiz-adv-x="1266" d="M99 0v99h78q42 0 58.5 18t16.5 62v703q0 45 -16.5 62.5t-58.5 17.5h-57v100h220l14 -153q78 100 170.5 143t231.5 43q168 0 251.5 -94t83.5 -269v-929q0 -187 -86.5 -282.5t-240.5 -95.5q-107 0 -180 30t-143 98v144h114v-96q38 -42 85.5 -58t113.5 -16q110 0 164.5 60.5 t54.5 207.5v935q0 139 -57 201.5t-192 62.5q-95 0 -176 -39t-130 -111t-49 -169v-496q0 -44 17 -62t59 -18h77v-99h-423z" />
<glyph unicode="&#x14c;" horiz-adv-x="1441" d="M99 710q0 378 150 566t472 188q323 0 472 -187.5t149 -566.5q0 -374 -152 -558.5t-469 -184.5q-316 0 -469 184.5t-153 558.5zM213 710q0 -341 128 -491.5t380 -150.5t380.5 150.5t128.5 491.5q0 347 -127.5 500t-381.5 153t-381 -153t-127 -500zM422 1599v100h600v-100 h-600z" />
<glyph unicode="&#x14d;" horiz-adv-x="1233" d="M99 528q0 264 126.5 415.5t391.5 151.5t391.5 -151.5t126.5 -415.5q0 -261 -125 -411t-393 -150q-267 0 -392.5 150.5t-125.5 410.5zM213 528q0 -230 102.5 -345t301.5 -115t302 115t103 345t-103 348t-302 118t-301.5 -118t-102.5 -348zM319 1214v100h599v-100h-599z " />
<glyph unicode="&#x14e;" horiz-adv-x="1441" d="M99 710q0 378 150 566t472 188q323 0 472 -187.5t149 -566.5q0 -374 -152 -558.5t-469 -184.5q-316 0 -469 184.5t-153 558.5zM213 710q0 -341 128 -491.5t380 -150.5t380.5 150.5t128.5 491.5q0 347 -127.5 500t-381.5 153t-381 -153t-127 -500zM411 1842h96 q0 -92 58.5 -142t155.5 -50q98 0 156 50t58 142h95q0 -130 -87 -208.5t-222 -78.5t-222.5 78.5t-87.5 208.5z" />
<glyph unicode="&#x14f;" horiz-adv-x="1233" d="M99 528q0 264 126.5 415.5t391.5 151.5t391.5 -151.5t126.5 -415.5q0 -261 -125 -411t-393 -150q-267 0 -392.5 150.5t-125.5 410.5zM213 528q0 -230 102.5 -345t301.5 -115t302 115t103 345t-103 348t-302 118t-301.5 -118t-102.5 -348zM308 1458h95q0 -93 58 -143 t156 -50q97 0 156 50t59 143h95q0 -131 -87.5 -209.5t-222.5 -78.5t-222 78.5t-87 209.5z" />
<glyph unicode="&#x150;" horiz-adv-x="1441" d="M99 710q0 378 150 566t472 188q323 0 472 -187.5t149 -566.5q0 -374 -152 -558.5t-469 -184.5q-316 0 -469 184.5t-153 558.5zM213 710q0 -341 128 -491.5t380 -150.5t380.5 150.5t128.5 491.5q0 347 -127.5 500t-381.5 153t-381 -153t-127 -500zM431 1555l188 393h175 l-256 -393h-107zM798 1555l188 393h175l-256 -393h-107z" />
<glyph unicode="&#x151;" horiz-adv-x="1233" d="M99 528q0 264 126.5 415.5t391.5 151.5t391.5 -151.5t126.5 -415.5q0 -261 -125 -411t-393 -150q-267 0 -392.5 150.5t-125.5 410.5zM213 528q0 -230 102.5 -345t301.5 -115t302 115t103 345t-103 348t-302 118t-301.5 -118t-102.5 -348zM348 1170l188 394h174l-256 -394 h-106zM715 1170l188 394h174l-256 -394h-106z" />
<glyph unicode="&#x152;" horiz-adv-x="1800" d="M99 710q0 371 157.5 546t486.5 175h958v-228h-106v53q0 42 -17.5 59t-62.5 17h-502v-564h422v-101h-422v-568h502q45 0 62.5 17t17.5 59v55h106v-230h-958q-323 0 -483.5 171t-160.5 539zM213 710q0 -334 134.5 -472.5t395.5 -138.5h152v1230h-152q-263 0 -396.5 -139 t-133.5 -480z" />
<glyph unicode="&#x153;" horiz-adv-x="2102" d="M99 528q0 264 126.5 415.5t391.5 151.5q177 0 292 -70.5t170 -201.5q61 133 179 202.5t277 69.5q234 0 351 -134t117 -379v-100h-861q0 -137 58 -232.5t150 -141.5t189 -46q112 0 183.5 16.5t126.5 52.5v74h118v-125q-95 -59 -195 -86t-233 -27q-159 0 -275 68.5 t-180 201.5q-61 -125 -178 -197.5t-289 -72.5q-267 0 -392.5 150.5t-125.5 410.5zM213 528q0 -230 102.5 -345t301.5 -115t302 115t103 345t-104 348t-301 118q-199 0 -301.5 -118t-102.5 -348zM1142 582h756q0 219 -87.5 315.5t-275.5 96.5t-290.5 -106.5t-102.5 -305.5z " />
<glyph unicode="&#x154;" horiz-adv-x="1346" d="M99 0v99h69q49 0 66.5 18t17.5 62v1073q0 44 -17.5 62t-66.5 18h-69v99h675q201 0 314 -103.5t113 -287.5q0 -177 -105 -289t-294 -120l238 -454q22 -44 52.5 -61t77.5 -17h77v-99h-420v99h129l-279 532h-308v-452q0 -44 18 -62t67 -18h68v-99h-423zM369 730h387 q164 0 248.5 81.5t84.5 228.5q0 152 -80 222t-253 70h-387v-602zM559 1555l188 393h175l-257 -393h-106z" />
<glyph unicode="&#x155;" horiz-adv-x="808" d="M99 0v99h78q42 0 58.5 18t16.5 62v703q0 45 -16.5 62.5t-58.5 17.5h-57v100h205l34 -133q46 78 115.5 105.5t182.5 27.5h75v-100h-71q-157 0 -224.5 -69.5t-67.5 -215.5v-498q0 -44 17 -62t59 -18h77v-99h-423zM374 1170l188 394h175l-257 -394h-106z" />
<glyph unicode="&#x156;" horiz-adv-x="1346" d="M99 0v99h69q49 0 66.5 18t17.5 62v1073q0 44 -17.5 62t-66.5 18h-69v99h675q201 0 314 -103.5t113 -287.5q0 -177 -105 -289t-294 -120l238 -454q22 -44 52.5 -61t77.5 -17h77v-99h-420v99h129l-279 532h-308v-452q0 -44 18 -62t67 -18h68v-99h-423zM369 730h387 q164 0 248.5 81.5t84.5 228.5q0 152 -80 222t-253 70h-387v-602zM568 -517l63 409h148l-125 -409h-86z" />
<glyph unicode="&#x157;" horiz-adv-x="808" d="M99 0v99h78q42 0 58.5 18t16.5 62v703q0 45 -16.5 62.5t-58.5 17.5h-57v100h205l34 -133q46 78 115.5 105.5t182.5 27.5h75v-100h-71q-157 0 -224.5 -69.5t-67.5 -215.5v-498q0 -44 17 -62t59 -18h77v-99h-423zM203 -517l63 409h148l-125 -409h-86z" />
<glyph unicode="&#x158;" horiz-adv-x="1346" d="M99 0v99h69q49 0 66.5 18t17.5 62v1073q0 44 -17.5 62t-66.5 18h-69v99h675q201 0 314 -103.5t113 -287.5q0 -177 -105 -289t-294 -120l238 -454q22 -44 52.5 -61t77.5 -17h77v-99h-420v99h129l-279 532h-308v-452q0 -44 18 -62t67 -18h68v-99h-423zM345 1948h128 l202 -306l203 306h129l-255 -393h-153zM369 730h387q164 0 248.5 81.5t84.5 228.5q0 152 -80 222t-253 70h-387v-602z" />
<glyph unicode="&#x159;" horiz-adv-x="808" d="M99 0v99h78q42 0 58.5 18t16.5 62v703q0 45 -16.5 62.5t-58.5 17.5h-57v100h205l34 -133q46 78 115.5 105.5t182.5 27.5h75v-100h-71q-157 0 -224.5 -69.5t-67.5 -215.5v-498q0 -44 17 -62t59 -18h77v-99h-423zM99 1564h129l201 -308l204 308h128l-254 -394h-153z" />
<glyph unicode="&#x15a;" horiz-adv-x="1149" d="M99 112v177h122v-125q64 -42 169.5 -69t206.5 -27q167 0 253.5 71.5t86.5 198.5q0 89 -40.5 147.5t-112.5 99.5t-191 86q-169 61 -269 115t-156 129.5t-56 186.5q0 179 130 270.5t336 91.5q124 0 245 -34.5t199 -87.5v-177h-121v127q-58 33 -144 52t-182 19 q-162 0 -255.5 -63t-93.5 -198q0 -89 50.5 -147t118 -89.5t217.5 -91.5q148 -57 236.5 -107t145.5 -129.5t57 -199.5q0 -164 -121.5 -267.5t-340.5 -103.5q-131 0 -265 41t-225 104zM513 1555l188 393h175l-257 -393h-106z" />
<glyph unicode="&#x15b;" horiz-adv-x="983" d="M99 82v155h118v-102q118 -66 294 -67q135 0 198 42t63 135q0 82 -59 130.5t-206 104.5q-159 59 -232.5 94.5t-119 93.5t-45.5 151q0 135 103 205.5t281 70.5q105 0 200 -28.5t165 -78.5v-154h-118v101q-51 29 -110 44t-140 15q-137 0 -202 -40t-65 -135q0 -85 54 -126 t167 -78q53 -18 79 -29q17 -6 129.5 -50.5t172 -117.5t59.5 -173q0 -133 -95.5 -205.5t-285.5 -72.5q-113 0 -218 31t-187 84zM427 1170l188 394h174l-255 -394h-107z" />
<glyph unicode="&#x15c;" horiz-adv-x="1149" d="M99 112v177h122v-125q64 -42 169.5 -69t206.5 -27q167 0 253.5 71.5t86.5 198.5q0 89 -40.5 147.5t-112.5 99.5t-191 86q-169 61 -269 115t-156 129.5t-56 186.5q0 179 130 270.5t336 91.5q124 0 245 -34.5t199 -87.5v-177h-121v127q-58 33 -144 52t-182 19 q-162 0 -255.5 -63t-93.5 -198q0 -89 50.5 -147t118 -89.5t217.5 -91.5q148 -57 236.5 -107t145.5 -129.5t57 -199.5q0 -164 -121.5 -267.5t-340.5 -103.5q-131 0 -265 41t-225 104zM257 1555l254 393h152l255 -393h-129l-203 307l-202 -307h-127z" />
<glyph unicode="&#x15d;" horiz-adv-x="983" d="M99 82v155h118v-102q118 -66 294 -67q135 0 198 42t63 135q0 82 -59 130.5t-206 104.5q-159 59 -232.5 94.5t-119 93.5t-45.5 151q0 135 103 205.5t281 70.5q105 0 200 -28.5t165 -78.5v-154h-118v101q-51 29 -110 44t-140 15q-137 0 -202 -40t-65 -135q0 -85 54 -126 t167 -78q53 -18 79 -29q17 -6 129.5 -50.5t172 -117.5t59.5 -173q0 -133 -95.5 -205.5t-285.5 -72.5q-113 0 -218 31t-187 84zM173 1170l254 394h153l254 -394h-129l-203 307l-201 -307h-128z" />
<glyph unicode="&#x15e;" horiz-adv-x="1149" d="M99 112v177h122v-125q64 -42 169.5 -69t206.5 -27q167 0 253.5 71.5t86.5 198.5q0 89 -40.5 147.5t-112.5 99.5t-191 86q-169 61 -269 115t-156 129.5t-56 186.5q0 179 130 270.5t336 91.5q124 0 245 -34.5t199 -87.5v-177h-121v127q-58 33 -144 52t-182 19 q-162 0 -255.5 -63t-93.5 -198q0 -89 50.5 -147t118 -89.5t217.5 -91.5q148 -57 236.5 -107t145.5 -129.5t57 -199.5q0 -157 -113 -260t-317 -111l-13 -85q102 -13 145 -61.5t43 -128.5q0 -97 -67.5 -146.5t-188.5 -49.5q-55 0 -120 19v86q64 -17 118 -17q164 0 163 104 q0 46 -15 71.5t-59.5 38t-128.5 12.5l24 159q-118 8 -231.5 47t-191.5 96z" />
<glyph unicode="&#x15f;" horiz-adv-x="983" d="M99 82v155h118v-102q118 -66 294 -67q135 0 198 42t63 135q0 82 -59 130.5t-206 104.5q-159 59 -232.5 94.5t-119 93.5t-45.5 151q0 135 103 205.5t281 70.5q105 0 200 -28.5t165 -78.5v-154h-118v101q-51 29 -110 44t-140 15q-137 0 -202 -40t-65 -135q0 -85 54 -126 t167 -78q53 -18 79 -29q17 -6 129.5 -50.5t172 -117.5t59.5 -173q0 -125 -85 -197.5t-256 -80.5l-13 -85q102 -13 145 -61.5t43 -128.5q0 -97 -67.5 -146.5t-189.5 -49.5q-55 0 -120 19v86q64 -17 118 -17q164 0 164 104q0 46 -15.5 71.5t-60 38t-128.5 12.5l25 159 q-194 13 -346 113z" />
<glyph unicode="&#x160;" horiz-adv-x="1149" d="M99 112v177h122v-125q64 -42 169.5 -69t206.5 -27q167 0 253.5 71.5t86.5 198.5q0 89 -40.5 147.5t-112.5 99.5t-191 86q-169 61 -269 115t-156 129.5t-56 186.5q0 179 130 270.5t336 91.5q124 0 245 -34.5t199 -87.5v-177h-121v127q-58 33 -144 52t-182 19 q-162 0 -255.5 -63t-93.5 -198q0 -89 50.5 -147t118 -89.5t217.5 -91.5q148 -57 236.5 -107t145.5 -129.5t57 -199.5q0 -164 -121.5 -267.5t-340.5 -103.5q-131 0 -265 41t-225 104zM266 1948h128l201 -306l203 306h129l-254 -393h-154z" />
<glyph unicode="&#x161;" horiz-adv-x="983" d="M99 82v155h118v-102q118 -66 294 -67q135 0 198 42t63 135q0 82 -59 130.5t-206 104.5q-159 59 -232.5 94.5t-119 93.5t-45.5 151q0 135 103 205.5t281 70.5q105 0 200 -28.5t165 -78.5v-154h-118v101q-51 29 -110 44t-140 15q-137 0 -202 -40t-65 -135q0 -85 54 -126 t167 -78q53 -18 79 -29q17 -6 129.5 -50.5t172 -117.5t59.5 -173q0 -133 -95.5 -205.5t-285.5 -72.5q-113 0 -218 31t-187 84zM166 1564h128l202 -308l203 308h128l-255 -394h-152z" />
<glyph unicode="&#x162;" horiz-adv-x="1165" d="M78 1203v228h1011v-228h-107v53q0 42 -17.5 59t-61.5 17h-261v-1153q0 -44 17.5 -62t66.5 -18h68v-99h-161l-18 -118q101 -13 144 -61.5t43 -128.5q0 -97 -67.5 -146.5t-188.5 -49.5q-55 0 -119 19v86q63 -17 117 -17q164 0 163 104q0 46 -15 71.5t-59 38t-129 12.5 l30 190h-162v99h69q48 0 65.5 18t17.5 62v1153h-260q-45 0 -62.5 -17t-17.5 -59v-53h-106z" />
<glyph unicode="&#x163;" horiz-adv-x="882" d="M78 962v100h181v259l117 55v-314h348v-100h-348v-664q0 -122 43 -176t136 -54q62 0 104 10.5t75 35.5v97h115v-131q-57 -53 -115.5 -80t-140.5 -31l-13 -87q101 -13 144.5 -61.5t43.5 -128.5q0 -97 -67.5 -146.5t-189.5 -49.5q-55 0 -120 19v86q64 -17 118 -17 q164 0 164 104q0 46 -15.5 71.5t-60 38t-128.5 12.5l25 161q-113 15 -174 99t-61 231v661h-181z" />
<glyph unicode="&#x164;" horiz-adv-x="1165" d="M78 1203v228h1011v-228h-107v53q0 42 -17.5 59t-61.5 17h-261v-1153q0 -44 17.5 -62t66.5 -18h68v-99h-422v99h69q48 0 65.5 18t17.5 62v1153h-260q-45 0 -62.5 -17t-17.5 -59v-53h-106zM252 1948h128l202 -306l203 306h129l-255 -393h-152z" />
<glyph unicode="&#x165;" horiz-adv-x="882" d="M78 962v100h181v259l117 55v-314h348v-100h-348v-664q0 -122 43 -176t136 -54q62 0 104 10.5t75 35.5v97h115v-131q-64 -59 -132.5 -86t-170.5 -27q-137 0 -212 85t-75 249v661h-181zM633 1277l61 409h148l-123 -409h-86z" />
<glyph unicode="&#x166;" horiz-adv-x="1165" d="M78 1203v228h1011v-228h-107v53q0 42 -17.5 59t-61.5 17h-261v-522h295v-100h-295v-531q0 -44 17.5 -62t66.5 -18h68v-99h-422v99h69q48 0 65.5 18t17.5 62v531h-296v100h296v522h-260q-45 0 -62.5 -17t-17.5 -59v-53h-106z" />
<glyph unicode="&#x167;" horiz-adv-x="886" d="M78 534v99h186v329h-182v100h182v259l116 55v-314h348v-100h-348v-329h407v-99h-407v-236q0 -122 43.5 -176t135.5 -54q62 0 104 10.5t76 35.5v97h115v-131q-63 -59 -132.5 -86t-170.5 -27q-137 0 -212 85t-75 249v233h-186z" />
<glyph unicode="&#x168;" horiz-adv-x="1428" d="M78 1338v93h378v-93h-55q-42 0 -59 -18t-17 -62v-882q0 -155 98.5 -234.5t291.5 -79.5q192 0 290.5 79.5t98.5 234.5v882q0 44 -17 62t-59 18h-55v93h378v-93h-55q-42 0 -59 -18t-17 -62v-867q0 -194 -126.5 -309t-378.5 -115q-253 0 -380 115t-127 309v867 q0 44 -16.5 62t-58.5 18h-55zM327 1555q1 232 204 232q55 0 102.5 -18.5t109.5 -54.5q57 -31 88.5 -44t69.5 -13q53 0 76 26.5t23 103.5h104q0 -232 -203 -232q-51 0 -94 18t-102 50q-55 32 -94 47.5t-80 15.5q-53 0 -76.5 -27t-23.5 -104h-104z" />
<glyph unicode="&#x169;" horiz-adv-x="1277" d="M78 962v100h270v-730q0 -270 269 -270q145 0 239.5 89.5t94.5 249.5v481q0 45 -16.5 62.5t-58.5 17.5h-78v100h270v-883q0 -44 17 -62t59 -18h57v-99h-219l-13 150q-72 -95 -161 -139t-224 -44q-170 0 -262 95t-92 267v553q0 45 -16.5 62.5t-59.5 17.5h-76zM264 1170 q0 232 203 232q55 0 102.5 -18.5t109.5 -54.5q58 -31 89.5 -44t67.5 -13q53 0 76 26.5t23 103.5h105q0 -232 -204 -232q-51 0 -94 17.5t-100 51.5q-56 31 -94.5 46t-80.5 15q-53 0 -76.5 -26.5t-23.5 -103.5h-103z" />
<glyph unicode="&#x16a;" horiz-adv-x="1428" d="M78 1338v93h378v-93h-55q-42 0 -59 -18t-17 -62v-882q0 -155 98.5 -234.5t291.5 -79.5q192 0 290.5 79.5t98.5 234.5v882q0 44 -17 62t-59 18h-55v93h378v-93h-55q-42 0 -59 -18t-17 -62v-867q0 -194 -126.5 -309t-378.5 -115q-253 0 -380 115t-127 309v867 q0 44 -16.5 62t-58.5 18h-55zM416 1599v100h599v-100h-599z" />
<glyph unicode="&#x16b;" horiz-adv-x="1277" d="M78 962v100h270v-730q0 -270 269 -270q145 0 239.5 89.5t94.5 249.5v481q0 45 -16.5 62.5t-58.5 17.5h-78v100h270v-883q0 -44 17 -62t59 -18h57v-99h-219l-13 150q-72 -95 -161 -139t-224 -44q-170 0 -262 95t-92 267v553q0 45 -16.5 62.5t-59.5 17.5h-76zM316 1214v100 h600v-100h-600z" />
<glyph unicode="&#x16c;" horiz-adv-x="1428" d="M78 1338v93h378v-93h-55q-42 0 -59 -18t-17 -62v-882q0 -155 98.5 -234.5t291.5 -79.5q192 0 290.5 79.5t98.5 234.5v882q0 44 -17 62t-59 18h-55v93h378v-93h-55q-42 0 -59 -18t-17 -62v-867q0 -194 -126.5 -309t-378.5 -115q-253 0 -380 115t-127 309v867 q0 44 -16.5 62t-58.5 18h-55zM401 1842h95q0 -92 58 -142t156 -50q97 0 155.5 50t58.5 142h96q0 -130 -87.5 -208.5t-222.5 -78.5t-222 78.5t-87 208.5z" />
<glyph unicode="&#x16d;" horiz-adv-x="1277" d="M78 962v100h270v-730q0 -270 269 -270q145 0 239.5 89.5t94.5 249.5v481q0 45 -16.5 62.5t-58.5 17.5h-78v100h270v-883q0 -44 17 -62t59 -18h57v-99h-219l-13 150q-72 -95 -161 -139t-224 -44q-170 0 -262 95t-92 267v553q0 45 -16.5 62.5t-59.5 17.5h-76zM325 1458h95 q0 -93 59 -143t156 -50t155.5 50t58.5 143h95q0 -131 -87 -209.5t-222 -78.5t-222.5 78.5t-87.5 209.5z" />
<glyph unicode="&#x16e;" horiz-adv-x="1428" d="M78 1338v93h378v-93h-55q-42 0 -59 -18t-17 -62v-882q0 -155 98.5 -234.5t291.5 -79.5q192 0 290.5 79.5t98.5 234.5v882q0 44 -17 62t-59 18h-55v93h378v-93h-55q-42 0 -59 -18t-17 -62v-867q0 -194 -126.5 -309t-378.5 -115q-253 0 -380 115t-127 309v867 q0 44 -16.5 62t-58.5 18h-55zM477 1792q0 99 69 168.5t169 69.5q99 0 169 -69.5t70 -168.5q0 -100 -70 -168.5t-169 -68.5q-100 0 -169 68.5t-69 168.5zM572 1792q0 -62 40 -102t103 -40q62 0 103 40t41 102q0 61 -41 102t-103 41t-102.5 -41t-40.5 -102z" />
<glyph unicode="&#x16f;" horiz-adv-x="1277" d="M78 962v100h270v-730q0 -270 269 -270q145 0 239.5 89.5t94.5 249.5v481q0 45 -16.5 62.5t-58.5 17.5h-78v100h270v-883q0 -44 17 -62t59 -18h57v-99h-219l-13 150q-72 -95 -161 -139t-224 -44q-170 0 -262 95t-92 267v553q0 45 -16.5 62.5t-59.5 17.5h-76zM376 1407 q0 100 68.5 169.5t167.5 69.5q100 0 169.5 -69.5t69.5 -169.5q0 -99 -69.5 -168t-169.5 -69q-99 0 -167.5 68.5t-68.5 168.5zM471 1407q0 -61 40 -101.5t101 -40.5q63 0 103.5 40t40.5 102t-40.5 103t-103.5 41q-61 0 -101 -41t-40 -103z" />
<glyph unicode="&#x170;" horiz-adv-x="1428" d="M78 1338v93h378v-93h-55q-42 0 -59 -18t-17 -62v-882q0 -155 98.5 -234.5t291.5 -79.5q192 0 290.5 79.5t98.5 234.5v882q0 44 -17 62t-59 18h-55v93h378v-93h-55q-42 0 -59 -18t-17 -62v-867q0 -194 -126.5 -309t-378.5 -115q-253 0 -380 115t-127 309v867 q0 44 -16.5 62t-58.5 18h-55zM443 1555l188 393h174l-256 -393h-106zM810 1555l188 393h174l-256 -393h-106z" />
<glyph unicode="&#x171;" horiz-adv-x="1277" d="M78 962v100h270v-730q0 -270 269 -270q145 0 239.5 89.5t94.5 249.5v481q0 45 -16.5 62.5t-58.5 17.5h-78v100h270v-883q0 -44 17 -62t59 -18h57v-99h-219l-13 150q-72 -95 -161 -139t-224 -44q-170 0 -262 95t-92 267v553q0 45 -16.5 62.5t-59.5 17.5h-76zM340 1170 l188 394h175l-256 -394h-107zM707 1170l188 394h175l-256 -394h-107z" />
<glyph unicode="&#x172;" horiz-adv-x="1428" d="M78 1338v93h378v-93h-55q-42 0 -59 -18t-17 -62v-882q0 -155 98.5 -234.5t291.5 -79.5q192 0 290.5 79.5t98.5 234.5v882q0 44 -17 62t-59 18h-55v93h378v-93h-55q-42 0 -59 -18t-17 -62v-867q0 -181 -109 -293.5t-328 -128.5q-82 -93 -82 -203q0 -64 23 -93t72 -29 q55 0 109 16v-82q-44 -22 -109 -23q-89 0 -139.5 53.5t-50.5 157.5q0 110 78 201q-237 8 -356.5 121t-119.5 303v867q0 44 -16.5 62t-58.5 18h-55z" />
<glyph unicode="&#x173;" horiz-adv-x="1277" d="M78 962v100h270v-730q0 -270 269 -270q145 0 239.5 89.5t94.5 249.5v481q0 45 -16.5 62.5t-58.5 17.5h-78v100h270v-883q0 -44 17 -62t59 -18h57v-99h-112q-114 -102 -114 -234q0 -64 23.5 -93t71.5 -29q55 0 109 16v-82q-44 -22 -109 -23q-88 0 -139 53.5t-51 157.5 q0 130 108 234h-6l-13 150q-72 -95 -161 -139t-224 -44q-170 0 -262 95t-92 267v553q0 45 -16.5 62.5t-59.5 17.5h-76z" />
<glyph unicode="&#x174;" horiz-adv-x="1961" d="M99 1332v99h257l265 -1239l299 998h122l298 -998l268 1239h254v-99h-68q-53 0 -75 -18t-33 -62l-284 -1252h-106l-316 1035l-313 -1035h-105l-286 1252q-10 44 -32.5 62t-75.5 18h-69zM650 1555l255 393h152l254 -393h-127l-204 307l-201 -307h-129z" />
<glyph unicode="&#x175;" horiz-adv-x="1716" d="M78 967v95h223l227 -967l274 872h110l272 -872l232 967h223v-95h-62q-44 0 -60.5 -9t-28.5 -40l-218 -918h-158l-253 812l-255 -812h-157l-221 918q-11 31 -26.5 40t-62.5 9h-59zM528 1170l255 394h152l255 -394h-128l-203 307l-202 -307h-129z" />
<glyph unicode="&#x176;" horiz-adv-x="1467" d="M99 1336v95h378v-95h-55q-48 0 -48 -29q0 -20 17 -51l343 -637l343 637q17 31 18 51q0 29 -48 29h-56v95h378v-95h-55q-40 0 -69 -20t-51 -60l-400 -741v-340q0 -44 16.5 -62t58.5 -18h55v-95h-378v95h56q42 0 58.5 18t16.5 62v340l-403 741q-21 40 -50.5 60t-69.5 20 h-55zM405 1555l254 393h153l254 -393h-129l-203 307l-200 -307h-129z" />
<glyph unicode="&#x177;" horiz-adv-x="1211" d="M78 962v100h270v-686q0 -270 269 -270q145 0 239.5 89.5t94.5 249.5v437q0 45 -16.5 62.5t-58.5 17.5h-78v100h270v-1073q0 -194 -107 -313t-290 -119q-131 0 -221.5 38t-164.5 111v144h116v-95q88 -95 260 -95q146 0 218 83.5t72 237.5v196q-68 -91 -150 -128.5 t-217 -37.5q-170 0 -262 95t-92 268v508q0 45 -16.5 62.5t-59.5 17.5h-76zM296 1170l255 394h152l255 -394h-129l-203 307l-202 -307h-128z" />
<glyph unicode="&#x178;" horiz-adv-x="1467" d="M99 1336v95h378v-95h-55q-48 0 -48 -29q0 -20 17 -51l343 -637l343 637q17 31 18 51q0 29 -48 29h-56v95h378v-95h-55q-40 0 -69 -20t-51 -60l-400 -741v-340q0 -44 16.5 -62t58.5 -18h55v-95h-378v95h56q42 0 58.5 18t16.5 62v340l-403 741q-21 40 -50.5 60t-69.5 20 h-55zM451 1599v151h151v-151h-151zM869 1599v151h151v-151h-151z" />
<glyph unicode="&#x179;" horiz-adv-x="1226" d="M99 0v95l874 1241h-650q-44 0 -62 -17t-18 -59v-55h-106v226h967v-95l-874 -1241h712q44 0 62 17t18 59v55h106v-226h-1029zM544 1555l188 393h175l-257 -393h-106z" />
<glyph unicode="&#x17a;" horiz-adv-x="1072" d="M99 0v95l720 872h-496q-44 0 -62 -17t-18 -59v-55h-106v226h812v-95l-719 -872h557q45 0 62.5 17t17.5 59v55h106v-226h-874zM458 1170l188 394h175l-257 -394h-106z" />
<glyph unicode="&#x17b;" horiz-adv-x="1226" d="M99 0v95l874 1241h-650q-44 0 -62 -17t-18 -59v-55h-106v226h967v-95l-874 -1241h712q44 0 62 17t18 59v55h106v-226h-1029zM553 1599v151h150v-151h-150z" />
<glyph unicode="&#x17c;" horiz-adv-x="1072" d="M99 0v95l720 872h-496q-44 0 -62 -17t-18 -59v-55h-106v226h812v-95l-719 -872h557q45 0 62.5 17t17.5 59v55h106v-226h-874zM485 1214v151h150v-151h-150z" />
<glyph unicode="&#x17d;" horiz-adv-x="1226" d="M99 0v95l874 1241h-650q-44 0 -62 -17t-18 -59v-55h-106v226h967v-95l-874 -1241h712q44 0 62 17t18 59v55h106v-226h-1029zM298 1948h129l202 -306l203 306h128l-255 -393h-152z" />
<glyph unicode="&#x17e;" horiz-adv-x="1072" d="M99 0v95l720 872h-496q-44 0 -62 -17t-18 -59v-55h-106v226h812v-95l-719 -872h557q45 0 62.5 17t17.5 59v55h106v-226h-874zM239 1564h128l201 -308l204 308h129l-255 -394h-152z" />
<glyph unicode="&#x18f;" horiz-adv-x="1479" d="M99 659v111h1169q0 292 -152 442.5t-399 150.5q-314 0 -449 -91v-124h-118v166q104 78 244 114t323 36q195 0 344 -78.5t234 -241t85 -403.5q0 -378 -169 -576t-490 -198q-310 0 -466 185.5t-156 506.5zM219 671q0 -602 502 -603q275 0 411 169.5t136 433.5h-1049z" />
<glyph unicode="&#x192;" horiz-adv-x="1211" d="M-329 -241l28 131h115l-19 -95q33 -27 65 -35.5t89 -8.5q108 0 162.5 59t82.5 190l205 962h-182l22 100h179l15 82q68 354 394 353q91 0 153 -28.5t111 -86.5l-25 -126h-115l20 95q-27 27 -61 35.5t-96 8.5q-110 0 -174.5 -61.5t-88.5 -187.5l-15 -84h349l-22 -100h-348 l-203 -960q-38 -173 -127.5 -263.5t-246.5 -90.5q-90 0 -154.5 27t-112.5 84z" />
<glyph unicode="&#x1a0;" horiz-adv-x="1526" d="M99 710q0 378 150 566t472 188q336 0 486 -208q104 0 142 46.5t38 147.5v74h117v-74q0 -261 -244 -285q82 -172 82 -455q0 -374 -152 -558.5t-469 -184.5q-316 0 -469 184.5t-153 558.5zM213 710q0 -341 128 -491.5t380 -150.5t380.5 150.5t128.5 491.5q0 347 -127.5 500 t-381.5 153t-381 -153t-127 -500z" />
<glyph unicode="&#x1a1;" horiz-adv-x="1344" d="M99 528q0 264 126.5 415.5t391.5 151.5q276 0 409 -175v2q104 0 141.5 46.5t37.5 148.5v73h118v-73q0 -262 -246 -285q57 -125 58 -304q0 -261 -125 -411t-393 -150q-267 0 -392.5 150.5t-125.5 410.5zM213 528q0 -230 102.5 -345t301.5 -115t302 115t103 345t-103 348 t-302 118t-301.5 -118t-102.5 -348z" />
<glyph unicode="&#x1af;" horiz-adv-x="1523" d="M78 1338v93h378v-93h-55q-42 0 -59 -18t-17 -62v-882q0 -155 98.5 -234.5t291.5 -79.5q192 0 290.5 79.5t98.5 234.5v882q0 44 -17 62t-59 18h-55v93h247v-175q95 2 130 49.5t35 144.5v74h117v-74q0 -280 -282 -287v-772q0 -194 -126.5 -309t-378.5 -115q-253 0 -380 115 t-127 309v867q0 44 -16.5 62t-58.5 18h-55z" />
<glyph unicode="&#x1b0;" horiz-adv-x="1370" d="M78 962v100h270v-730q0 -270 269 -270q145 0 239.5 89.5t94.5 249.5v481q0 45 -16.5 62.5t-58.5 17.5h-78v100h270v-140q95 2 129.5 50t34.5 145v73h117v-73q0 -281 -281 -288v-650q0 -44 17 -62t59 -18h57v-99h-219l-13 150q-72 -95 -161 -139t-224 -44q-170 0 -262 95 t-92 267v553q0 45 -16.5 62.5t-59.5 17.5h-76z" />
<glyph unicode="&#x1cd;" horiz-adv-x="1600" d="M99 0v99h78q91 0 119 80l451 1252h109l449 -1252q29 -80 120 -80h77v-99h-411v99h127l-129 363h-576l-131 -363h129v-99h-412zM471 1948h128l201 -306l204 306h129l-255 -393h-152zM549 562h504l-253 703z" />
<glyph unicode="&#x1ce;" horiz-adv-x="1144" d="M78 259q0 152 93 221t262 79l386 27v144q0 142 -56 203t-201 61q-91 0 -155.5 -13.5t-123.5 -43.5v-81h-117v135q173 104 391 104q205 0 291.5 -95t86.5 -272v-555q0 -49 17 -69t55 -20h61v-84h-212l-24 135q-125 -168 -416 -168q-164 0 -251 75.5t-87 216.5zM190 255 q0 -93 59 -140t194 -47q167 0 271.5 74.5t104.5 222.5v129l-388 -27q-137 -9 -189 -55.5t-52 -156.5zM234 1564h129l201 -308l204 308h127l-253 -394h-153z" />
<glyph unicode="&#x1cf;" horiz-adv-x="621" d="M-19 1948h127l202 -306l203 306h129l-255 -393h-153zM99 0v99h78q42 0 58.5 18t16.5 62v1073q0 44 -16.5 62t-58.5 18h-78v99h423v-99h-77q-42 0 -59 -18t-17 -62v-1073q0 -44 17 -62t59 -18h77v-99h-423z" />
<glyph unicode="&#x1d0;" horiz-adv-x="576" d="M-93 1564h129l201 -308l204 308h127l-254 -394h-152zM78 0v99h76q43 0 59.5 18t16.5 62v703q0 45 -16.5 62.5t-59.5 17.5h-76v100h270v-883q0 -44 16 -62t58 -18h78v-99h-422z" />
<glyph unicode="&#x1d1;" horiz-adv-x="1441" d="M99 710q0 378 150 566t472 188q323 0 472 -187.5t149 -566.5q0 -374 -152 -558.5t-469 -184.5q-316 0 -469 184.5t-153 558.5zM213 710q0 -341 128 -491.5t380 -150.5t380.5 150.5t128.5 491.5q0 347 -127.5 500t-381.5 153t-381 -153t-127 -500zM391 1948h128l202 -306 l203 306h129l-255 -393h-152z" />
<glyph unicode="&#x1d2;" horiz-adv-x="1233" d="M99 528q0 264 126.5 415.5t391.5 151.5t391.5 -151.5t126.5 -415.5q0 -261 -125 -411t-393 -150q-267 0 -392.5 150.5t-125.5 410.5zM213 528q0 -230 102.5 -345t301.5 -115t302 115t103 345t-103 348t-302 118t-301.5 -118t-102.5 -348zM287 1564h129l201 -308l204 308 h128l-255 -394h-152z" />
<glyph unicode="&#x1d3;" horiz-adv-x="1428" d="M78 1338v93h378v-93h-55q-42 0 -59 -18t-17 -62v-882q0 -155 98.5 -234.5t291.5 -79.5q192 0 290.5 79.5t98.5 234.5v882q0 44 -17 62t-59 18h-55v93h378v-93h-55q-42 0 -59 -18t-17 -62v-867q0 -194 -126.5 -309t-378.5 -115q-253 0 -380 115t-127 309v867 q0 44 -16.5 62t-58.5 18h-55zM384 1948h129l202 -306l203 306h129l-255 -393h-153z" />
<glyph unicode="&#x1d4;" horiz-adv-x="1277" d="M78 962v100h270v-730q0 -270 269 -270q145 0 239.5 89.5t94.5 249.5v481q0 45 -16.5 62.5t-58.5 17.5h-78v100h270v-883q0 -44 17 -62t59 -18h57v-99h-219l-13 150q-72 -95 -161 -139t-224 -44q-170 0 -262 95t-92 267v553q0 45 -16.5 62.5t-59.5 17.5h-76zM306 1564h127 l202 -308l203 308h129l-255 -394h-153z" />
<glyph unicode="&#x1d5;" horiz-adv-x="1428" d="M78 1338v93h378v-93h-55q-42 0 -59 -18t-17 -62v-882q0 -155 98.5 -234.5t291.5 -79.5q192 0 290.5 79.5t98.5 234.5v882q0 44 -17 62t-59 18h-55v93h378v-93h-55q-42 0 -59 -18t-17 -62v-867q0 -194 -126.5 -309t-378.5 -115q-253 0 -380 115t-127 309v867 q0 44 -16.5 62t-58.5 18h-55zM416 1965v99h599v-99h-599zM431 1599v151h151v-151h-151zM849 1599v151h151v-151h-151z" />
<glyph unicode="&#x1d6;" horiz-adv-x="1277" d="M78 962v100h270v-730q0 -270 269 -270q145 0 239.5 89.5t94.5 249.5v481q0 45 -16.5 62.5t-58.5 17.5h-78v100h270v-883q0 -44 17 -62t59 -18h57v-99h-219l-13 150q-72 -95 -161 -139t-224 -44q-170 0 -262 95t-92 267v553q0 45 -16.5 62.5t-59.5 17.5h-76zM310 1566v99 h599v-99h-599zM325 1214v151h150v-151h-150zM743 1214v151h150v-151h-150z" />
<glyph unicode="&#x1d7;" horiz-adv-x="1428" d="M78 1338v93h378v-93h-55q-42 0 -59 -18t-17 -62v-882q0 -155 98.5 -234.5t291.5 -79.5q192 0 290.5 79.5t98.5 234.5v882q0 44 -17 62t-59 18h-55v93h378v-93h-55q-42 0 -59 -18t-17 -62v-867q0 -194 -126.5 -309t-378.5 -115q-253 0 -380 115t-127 309v867 q0 44 -16.5 62t-58.5 18h-55zM433 1599v151h151v-151h-151zM650 1840l166 328h175l-235 -328h-106zM851 1599v151h151v-151h-151z" />
<glyph unicode="&#x1d8;" horiz-adv-x="1277" d="M78 962v100h270v-730q0 -270 269 -270q145 0 239.5 89.5t94.5 249.5v481q0 45 -16.5 62.5t-58.5 17.5h-78v100h270v-883q0 -44 17 -62t59 -18h57v-99h-219l-13 150q-72 -95 -161 -139t-224 -44q-170 0 -262 95t-92 267v553q0 45 -16.5 62.5t-59.5 17.5h-76zM325 1214v151 h150v-151h-150zM542 1456l165 327h175l-234 -327h-106zM743 1214v151h150v-151h-150z" />
<glyph unicode="&#x1d9;" horiz-adv-x="1428" d="M78 1338v93h378v-93h-55q-42 0 -59 -18t-17 -62v-882q0 -155 98.5 -234.5t291.5 -79.5q192 0 290.5 79.5t98.5 234.5v882q0 44 -17 62t-59 18h-55v93h378v-93h-55q-42 0 -59 -18t-17 -62v-867q0 -194 -126.5 -309t-378.5 -115q-253 0 -380 115t-127 309v867 q0 44 -16.5 62t-58.5 18h-55zM431 2119h128l158 -219l159 219h128l-210 -283h-152zM433 1599v151h151v-151h-151zM851 1599v151h151v-151h-151z" />
<glyph unicode="&#x1da;" horiz-adv-x="1277" d="M78 962v100h270v-730q0 -270 269 -270q145 0 239.5 89.5t94.5 249.5v481q0 45 -16.5 62.5t-58.5 17.5h-78v100h270v-883q0 -44 17 -62t59 -18h57v-99h-219l-13 150q-72 -95 -161 -139t-224 -44q-170 0 -262 95t-92 267v553q0 45 -16.5 62.5t-59.5 17.5h-76zM323 1734h128 l157 -219l160 219h127l-209 -284h-152zM325 1214v151h150v-151h-150zM743 1214v151h150v-151h-150z" />
<glyph unicode="&#x1db;" horiz-adv-x="1428" d="M78 1338v93h378v-93h-55q-42 0 -59 -18t-17 -62v-882q0 -155 98.5 -234.5t291.5 -79.5q192 0 290.5 79.5t98.5 234.5v882q0 44 -17 62t-59 18h-55v93h378v-93h-55q-42 0 -59 -18t-17 -62v-867q0 -194 -126.5 -309t-378.5 -115q-253 0 -380 115t-127 309v867 q0 44 -16.5 62t-58.5 18h-55zM433 1599v151h151v-151h-151zM445 2168h174l166 -328h-106zM851 1599v151h151v-151h-151z" />
<glyph unicode="&#x1dc;" horiz-adv-x="1277" d="M78 962v100h270v-730q0 -270 269 -270q145 0 239.5 89.5t94.5 249.5v481q0 45 -16.5 62.5t-58.5 17.5h-78v100h270v-883q0 -44 17 -62t59 -18h57v-99h-219l-13 150q-72 -95 -161 -139t-224 -44q-170 0 -262 95t-92 267v553q0 45 -16.5 62.5t-59.5 17.5h-76zM325 1214v151 h150v-151h-150zM336 1783h175l166 -327h-107zM743 1214v151h150v-151h-150z" />
<glyph unicode="&#x1e6;" horiz-adv-x="1334" d="M99 710q0 340 165 547t494 207q279 0 436 -113v-172h-117v121q-118 62 -319 63q-263 0 -404 -171.5t-141 -481.5q0 -302 149 -472t410 -170q108 0 190 15.5t157 51.5v484h-338v100h456v-630q-102 -64 -212.5 -93t-252.5 -29q-217 0 -368.5 95t-228 263.5t-76.5 384.5z M441 1948h127l202 -306l203 306h129l-255 -393h-153z" />
<glyph unicode="&#x1e7;" horiz-adv-x="1288" d="M99 542q0 264 128.5 408.5t347.5 144.5q126 0 221 -47.5t162 -152.5l22 167h232v-85h-62q-38 0 -54.5 -20t-16.5 -68v-900q0 -194 -107 -313t-286 -119q-131 0 -218.5 31.5t-166.5 99.5v144h115v-96q48 -42 110.5 -59t150.5 -17q137 0 211 84.5t74 236.5v190 q-61 -108 -156.5 -155t-241.5 -47q-217 0 -341 152.5t-124 420.5zM213 542q0 -477 380 -478q165 0 270.5 107.5t105.5 290.5v124q0 122 -47.5 215.5t-134 147t-196.5 53.5q-184 0 -281 -116t-97 -344zM314 1564h129l201 -308l203 308h128l-254 -394h-153z" />
<glyph unicode="&#x1fa;" horiz-adv-x="1600" d="M99 0v99h78q91 0 119 80l423 1170q-68 25 -111.5 85.5t-43.5 137.5q0 100 68.5 169.5t167.5 69.5q100 0 170 -69.5t70 -169.5q0 -77 -43 -136.5t-112 -84.5l420 -1172q29 -80 120 -80h77v-99h-411v99h127l-129 363h-576l-131 -363h129v-99h-412zM549 562h504l-253 703z M659 1572q0 -61 40 -101t101 -40q62 0 103 40t41 101q0 62 -40.5 103t-103.5 41q-61 0 -101 -41t-40 -103zM730 1869l188 394h175l-257 -394h-106z" />
<glyph unicode="&#x1fb;" horiz-adv-x="1144" d="M78 259q0 152 93 221t262 79l386 27v144q0 142 -56 203t-201 61q-91 0 -155.5 -13.5t-123.5 -43.5v-81h-117v135q173 104 391 104q205 0 291.5 -95t86.5 -272v-555q0 -49 17 -69t55 -20h61v-84h-212l-24 135q-125 -168 -416 -168q-164 0 -251 75.5t-87 216.5zM190 255 q0 -93 59 -140t194 -47q167 0 271.5 74.5t104.5 222.5v129l-388 -27q-137 -9 -189 -55.5t-52 -156.5zM327 1393q0 100 68.5 169.5t168.5 69.5q99 0 168.5 -69.5t69.5 -169.5q0 -99 -69.5 -167.5t-168.5 -68.5q-100 0 -168.5 68.5t-68.5 167.5zM422 1393q0 -61 40 -101 t102 -40t102.5 40t40.5 101q0 62 -40.5 103t-102.5 41t-102 -40.5t-40 -103.5zM480 1703l187 317h175l-256 -317h-106z" />
<glyph unicode="&#x1fc;" horiz-adv-x="1879" d="M99 0v99h78q91 0 119 80l496 1252h989v-228h-107v53q0 42 -17.5 59t-61.5 17h-525v-564h445v-101h-445v-568h525q44 0 61.5 17t17.5 59v55h107v-230h-981v99h69q49 0 67 18t18 62v283h-430l-142 -363h129v-99h-412zM564 562h390v770h-87zM1099 1555l188 393h175 l-257 -393h-106z" />
<glyph unicode="&#x1fd;" horiz-adv-x="1899" d="M78 259q0 152 93 221t262 79l386 27v144q0 142 -56 203t-201 61q-91 0 -155.5 -13.5t-123.5 -43.5v-81h-117v135q173 104 391 104q153 0 234 -50.5t121 -157.5q128 208 420 208q234 0 351 -134t117 -379v-100h-863q0 -137 59 -232.5t151 -141.5t189 -46q112 0 183.5 16.5 t126.5 52.5v74h117v-125q-95 -59 -194.5 -86t-232.5 -27q-144 0 -258 64t-183 186q-55 -126 -187.5 -188t-291.5 -62q-164 0 -251 75.5t-87 216.5zM190 255q0 -93 59 -140t194 -47q167 0 271.5 74.5t104.5 222.5v129l-388 -27q-137 -9 -189 -55.5t-52 -156.5zM865 1170 l188 394h175l-257 -394h-106zM937 582h758q0 219 -87.5 315.5t-275.5 96.5t-291.5 -106.5t-103.5 -305.5z" />
<glyph unicode="&#x1fe;" horiz-adv-x="1441" d="M99 710q0 378 150 566t472 188q113 0 195 -22l31 82h117l-44 -117q166 -73 244 -248t78 -449q0 -374 -152 -558.5t-469 -184.5q-114 0 -223 29l-34 -91h-116l48 131q-296 152 -297 674zM213 710q0 -436 220 -573l447 1208q-78 17 -159 18q-254 0 -381 -153t-127 -500z M534 93q75 -25 187 -25q252 0 380.5 150.5t128.5 491.5q0 240 -62 386.5t-184 210.5zM631 1535l188 394h175l-257 -394h-106z" />
<glyph unicode="&#x1ff;" horiz-adv-x="1233" d="M99 528q0 264 126.5 415.5t391.5 151.5q68 0 147 -16l36 105h118l-51 -137q137 -62 202.5 -196t65.5 -323q0 -261 -125 -411t-393 -150q-76 0 -142 14l-32 -95h-118l47 125q-140 59 -206.5 193t-66.5 324zM213 528q0 -316 194 -418l321 872q-59 11 -111 12 q-199 0 -301.5 -118t-102.5 -348zM504 1157l188 394h175l-257 -394h-106zM511 78q44 -9 106 -10q199 0 302 115t103 345q0 314 -193 419z" />
<glyph unicode="&#x218;" horiz-adv-x="1149" d="M99 112v177h122v-125q64 -42 169.5 -69t206.5 -27q167 0 253.5 71.5t86.5 198.5q0 89 -40.5 147.5t-112.5 99.5t-191 86q-169 61 -269 115t-156 129.5t-56 186.5q0 179 130 270.5t336 91.5q124 0 245 -34.5t199 -87.5v-177h-121v127q-58 33 -144 52t-182 19 q-162 0 -255.5 -63t-93.5 -198q0 -89 50.5 -147t118 -89.5t217.5 -91.5q148 -57 236.5 -107t145.5 -129.5t57 -199.5q0 -164 -121.5 -267.5t-340.5 -103.5q-131 0 -265 41t-225 104zM401 -502l121 394h175l-190 -394h-106z" />
<glyph unicode="&#x219;" horiz-adv-x="983" d="M99 82v155h118v-102q118 -66 294 -67q135 0 198 42t63 135q0 82 -59 130.5t-206 104.5q-159 59 -232.5 94.5t-119 93.5t-45.5 151q0 135 103 205.5t281 70.5q105 0 200 -28.5t165 -78.5v-154h-118v101q-51 29 -110 44t-140 15q-137 0 -202 -40t-65 -135q0 -85 54 -126 t167 -78q53 -18 79 -29q17 -6 129.5 -50.5t172 -117.5t59.5 -173q0 -133 -95.5 -205.5t-285.5 -72.5q-113 0 -218 31t-187 84zM316 -502l122 394h174l-190 -394h-106z" />
<glyph unicode="&#x21a;" horiz-adv-x="1165" d="M78 1203v228h1011v-228h-107v53q0 42 -17.5 59t-61.5 17h-261v-1153q0 -44 17.5 -62t66.5 -18h68v-99h-422v99h69q48 0 65.5 18t17.5 62v1153h-260q-45 0 -62.5 -17t-17.5 -59v-53h-106zM480 -517l62 409h148l-124 -409h-86z" />
<glyph unicode="&#x21b;" horiz-adv-x="882" d="M78 962v100h181v259l117 55v-314h348v-100h-348v-664q0 -122 43 -176t136 -54q62 0 104 10.5t75 35.5v97h115v-131q-64 -59 -132.5 -86t-170.5 -27q-137 0 -212 85t-75 249v661h-181zM429 -517l62 409h148l-124 -409h-86z" />
<glyph unicode="&#x237;" horiz-adv-x="760" d="M-33 -102h115v-95q38 -42 85.5 -58.5t113.5 -16.5q110 0 164.5 61t54.5 207v886q0 45 -16.5 62.5t-59.5 17.5h-76v100h269v-1058q0 -188 -86 -283t-242 -95q-105 0 -178 30t-144 99v143z" />
<glyph unicode="&#x251;" horiz-adv-x="1288" d="M99 522q0 267 124.5 420t340.5 153q146 0 241.5 -46.5t156.5 -155.5l11 169h106v-889q0 -49 16.5 -69t54.5 -20h62v-84h-232l-22 168q-129 -198 -396 -199q-217 0 -340 144t-123 409zM213 522q0 -228 91.5 -344t273.5 -116q110 0 199.5 53t140.5 148.5t51 213.5v125 q0 183 -105.5 290.5t-270.5 107.5q-380 0 -380 -478z" />
<glyph unicode="&#x259;" horiz-adv-x="1180" d="M99 480v100h863q0 215 -114 317.5t-284 102.5q-113 0 -183.5 -16.5t-125.5 -52.5v-75h-118v126q95 59 194.5 86t232.5 27q146 0 263 -61t185.5 -183.5t68.5 -301.5q0 -288 -133.5 -435t-379.5 -147q-234 0 -351.5 136t-117.5 377zM205 480q0 -209 87.5 -310.5 t275.5 -101.5q193 0 293.5 110.5t100.5 301.5h-757z" />
<glyph unicode="&#x2bb;" horiz-adv-x="557" d="M122 1038l207 437h106l-139 -437h-174z" />
<glyph unicode="&#x2bc;" horiz-adv-x="557" d="M122 1038l139 437h174l-207 -437h-106z" />
<glyph unicode="&#x2be;" d="M-144 1089v95q95 0 135 37t40 124q0 86 -40 124t-135 38v95q131 0 200.5 -67.5t69.5 -189.5t-69.5 -189t-200.5 -67z" />
<glyph unicode="&#x2bf;" d="M-144 1345q0 122 70 189.5t200 67.5v-95q-95 0 -135 -38t-40 -124q0 -87 40 -124t135 -37v-95q-130 0 -200 67.5t-70 188.5z" />
<glyph unicode="&#x2c6;" horiz-adv-x="903" d="M122 1201l254 394h152l255 -394h-129l-203 308l-202 -308h-127z" />
<glyph unicode="&#x2c7;" horiz-adv-x="903" d="M122 1595h127l202 -308l203 308h129l-255 -394h-152z" />
<glyph unicode="&#x2c8;" d="M-73 1179v372h144v-372h-144z" />
<glyph unicode="&#x2c9;" horiz-adv-x="1302" d="M352 1270v99h599v-99h-599z" />
<glyph unicode="&#x2ca;" d="M-89 1157l188 394h175l-257 -394h-106z" />
<glyph unicode="&#x2cb;" d="M-205 1551h174l188 -394h-106z" />
<glyph unicode="&#x2cc;" d="M-73 -91h144v-371h-144v371z" />
<glyph unicode="&#x2d8;" horiz-adv-x="861" d="M122 1533h95q0 -93 58.5 -143t155.5 -50t156 50t59 143h95q0 -131 -87.5 -209.5t-222.5 -78.5t-222 78.5t-87 209.5z" />
<glyph unicode="&#x2d9;" horiz-adv-x="393" d="M122 1311v151h150v-151h-150z" />
<glyph unicode="&#x2da;" horiz-adv-x="718" d="M122 1416q0 99 68.5 169t168.5 70q99 0 168.5 -70t69.5 -169t-69.5 -168t-168.5 -69q-100 0 -168.5 69t-68.5 168zM217 1416q0 -62 39.5 -102t102.5 -40q61 0 102 39.5t41 102.5q0 61 -41 102.5t-102 41.5q-62 0 -102 -41.5t-40 -102.5z" />
<glyph unicode="&#x2db;" horiz-adv-x="541" d="M122 -234q0 130 108 234h99q-112 -102 -112 -234q0 -64 23.5 -93t71.5 -29q55 0 108 16v-82q-44 -22 -108 -23q-88 0 -139 53.5t-51 157.5z" />
<glyph unicode="&#x2dc;" horiz-adv-x="1019" d="M122 1274q0 233 203 233q55 0 102.5 -19t110.5 -55q57 -31 88 -44t68 -13q53 0 76.5 26.5t23.5 104.5h103q0 -233 -203 -233q-50 0 -93.5 17.5t-100.5 50.5q-55 32 -94 47t-81 15q-53 0 -76 -26.5t-23 -103.5h-104z" />
<glyph unicode="&#x2dd;" horiz-adv-x="973" d="M122 1201l188 394h175l-257 -394h-106zM489 1201l188 394h174l-256 -394h-106z" />
<glyph unicode="&#x300;" d="M-903 1551h175l188 -394h-106z" />
<glyph unicode="&#x301;" d="M-774 1157l188 394h175l-256 -394h-107z" />
<glyph unicode="&#x302;" d="M-329 1157l253 394h154l254 -394h-129l-203 307l-201 -307h-128z" />
<glyph unicode="&#x303;" d="M-1075 1230q0 232 203 232q56 0 103.5 -18.5t109.5 -54.5q57 -31 88 -44t69 -13q53 0 76 26.5t23 103.5h105q0 -232 -204 -232q-51 0 -94 17.5t-101 50.5q-55 31 -93.5 47t-81.5 16q-52 0 -75.5 -27t-23.5 -104h-104z" />
<glyph unicode="&#x304;" d="M-296 1270v99h599v-99h-599z" />
<glyph unicode="&#x306;" d="M-310 1488h95q0 -93 59 -142.5t156 -49.5t156 49.5t59 142.5h95q0 -130 -87.5 -208.5t-222.5 -78.5t-222.5 78.5t-87.5 208.5z" />
<glyph unicode="&#x307;" d="M-76 1268v150h152v-150h-152z" />
<glyph unicode="&#x308;" d="M-283 1268v150h150v-150h-150zM135 1268v150h150v-150h-150z" />
<glyph unicode="&#x309;" d="M-849 1454v90q51 20 121 20q108 0 166 -42t58 -140q0 -139 -157 -172v-85h-97v147q91 0 125 27.5t34 82.5q0 51 -33 70t-111 19q-49 0 -106 -17z" />
<glyph unicode="&#x30a;" d="M-237 1372q0 99 69 168.5t168 69.5t169 -69.5t70 -168.5q0 -100 -70 -168.5t-169 -68.5t-168 68.5t-69 168.5zM-141 1372q0 -62 39.5 -102t101.5 -40t103 39.5t41 102.5q0 61 -41 102t-103 41t-101.5 -41t-39.5 -102z" />
<glyph unicode="&#x30b;" d="M-429 1157l188 394h175l-257 -394h-106zM-62 1157l188 394h175l-257 -394h-106z" />
<glyph unicode="&#x30c;" d="M-329 1551h128l201 -308l203 308h129l-254 -394h-154z" />
<glyph unicode="&#x31b;" d="M-221 1119v93q103 0 141 46.5t38 148.5v73h118v-73q0 -287 -297 -288z" />
<glyph unicode="&#x323;" d="M-737 -141h151v-151h-151v151z" />
<glyph unicode="&#x324;" d="M-281 -141h150v-151h-150v151zM133 -141h150v-151h-150v151z" />
<glyph unicode="&#x326;" d="M-152 -502l121 394h175l-190 -394h-106z" />
<glyph unicode="&#x327;" d="M-215 -399q64 -17 118 -17q164 0 163 104q0 46 -15 71.5t-59.5 38t-128.5 12.5l29 190h99l-18 -118q102 -13 145.5 -61.5t43.5 -128.5q0 -97 -67.5 -146.5t-189.5 -49.5q-56 0 -120 19v86z" />
<glyph unicode="&#x328;" d="M-139 -234q0 130 108 234h99q-112 -102 -112 -234q0 -64 23 -93t72 -29q55 0 108 16v-82q-45 -22 -108 -23q-89 0 -139.5 53.5t-50.5 157.5z" />
<glyph unicode="&#x32e;" d="M-310 -110h95q0 -93 59 -143t156 -50t156 50t59 143h95q0 -131 -87.5 -210t-222.5 -79t-222.5 79t-87.5 210z" />
<glyph unicode="&#x331;" d="M-296 -168h599v-100h-599v100z" />
<glyph unicode="&#x394;" horiz-adv-x="1614" d="M122 0v108l621 1380h129l621 -1380v-108h-1371zM249 108h1114l-555 1239z" />
<glyph unicode="&#x3a9;" horiz-adv-x="1716" d="M122 0v228h106v-53q0 -42 18 -59t62 -17h285q-194 162 -293 319t-99 380q0 325 162.5 532t495.5 207q331 0 493.5 -207t162.5 -532q0 -223 -98 -380t-294 -319h286q45 0 62 17t17 59v53h107v-228h-584v139q196 137 293.5 294.5t97.5 364.5q0 294 -133.5 465.5 t-409.5 171.5q-275 0 -410 -171t-135 -466q0 -208 97.5 -365t293.5 -294v-139h-583z" />
<glyph unicode="&#x3bc;" horiz-adv-x="1279" d="M78 962v100h272v-743q0 -127 68.5 -192t200.5 -65q146 0 240.5 89.5t94.5 249.5v481q0 45 -17 62.5t-59 17.5h-78v100h270v-883q0 -44 17 -62t59 -18h57v-99h-219l-13 150q-71 -95 -160.5 -139t-224.5 -44q-145 0 -236 95v-522h-118v1342q0 45 -17.5 62.5t-60.5 17.5h-76 z" />
<glyph unicode="&#x3c0;" horiz-adv-x="1488" d="M78 962v100h1236v-100h-261v-721q0 -95 26.5 -134t102.5 -39q86 0 114 58v95h116v-130q-51 -66 -103.5 -95t-126.5 -29q-123 0 -185 67.5t-62 199.5v728h-494v-783q0 -44 17 -62t66 -18h69v-99h-422v99h68q48 0 66 18t18 62v783h-245z" />
<glyph unicode="&#xe01;" horiz-adv-x="1207" d="M99 891v126q100 89 226 137.5t270 48.5q228 0 348.5 -103.5t120.5 -287.5v-812h-120v808q0 301 -349 300q-118 0 -219.5 -35t-174.5 -100v-26l202 -128v-78q-76 -31 -102.5 -81t-26.5 -147v-513h-120v526q0 188 133 253z" />
<glyph unicode="&#xe02;" horiz-adv-x="1096" d="M99 1013q0 102 47.5 146t149.5 44q104 0 149.5 -42t45.5 -139v-64q0 -40 -23 -75.5t-72 -86.5q-71 -78 -107.5 -138.5t-36.5 -148.5v-87q0 -137 14.5 -206.5t77.5 -111.5t200 -42t199 42t76.5 110.5t14.5 207.5v748h120v-748q0 -148 -26.5 -243t-116.5 -153.5t-267 -58.5 t-266.5 58.5t-116 153.5t-26.5 243v80q0 100 43 182t111 141q-105 0 -147.5 44.5t-42.5 143.5zM188 1013q0 -55 23 -78t83 -23t83.5 24t23.5 77q0 59 -23.5 80.5t-83.5 21.5q-62 0 -84 -21.5t-22 -80.5z" />
<glyph unicode="&#xe03;" horiz-adv-x="1205" d="M78 1022q0 181 196 181q74 0 116.5 -23t60.5 -74l108 64h120v-148q0 -78 -41 -142t-121 -150q-80 -93 -118 -153t-38 -134v-65q0 -112 14 -174.5t77 -102t200 -39.5t199.5 42t76.5 110.5t14 207.5v748h120v-748q0 -148 -26.5 -243t-116.5 -153.5t-267 -58.5 q-175 0 -264.5 56.5t-117 142.5t-27.5 212v57q0 97 45.5 171.5t131.5 167.5q71 76 105 128t34 113v53l-90 -53v-2q0 -190 -197 -190q-110 0 -152 45.5t-42 153.5zM168 1013q0 -59 23.5 -80t82.5 -21q62 0 84 21t22 80q0 55 -23 78.5t-83 23.5q-57 0 -81.5 -23.5t-24.5 -78.5 z" />
<glyph unicode="&#xe04;" horiz-adv-x="1237" d="M144 0v747q0 211 107.5 333.5t367.5 122.5q261 0 368.5 -122.5t107.5 -333.5v-747h-120v747q0 182 -76 271.5t-280 89.5q-203 0 -279 -89.5t-76 -271.5v-256l88 77q31 27 72 74q49 52 88 74.5t114 22.5q102 0 149.5 -44.5t47.5 -145.5q0 -93 -54 -140.5t-152 -47.5 q-80 0 -134 38.5t-54 100.5l-165 -144v-356h-120zM513 549q0 -53 24.5 -77.5t81.5 -24.5q60 0 83.5 23.5t23.5 78.5q0 59 -22.5 80t-84.5 21q-60 0 -83 -21t-23 -80z" />
<glyph unicode="&#xe05;" horiz-adv-x="1237" d="M144 0v876q0 164 65 245.5t192 81.5q90 0 143 -34t75 -107q27 73 79 107t140 34q133 0 195 -78t62 -249v-876h-120v872q0 132 -26.5 183t-116.5 51q-76 0 -115.5 -42t-39.5 -120v-32h-118v32q0 80 -34 121t-109 41q-89 0 -120.5 -53t-31.5 -184v-378l88 77q31 27 72 74 q49 52 88 74.5t114 22.5q102 0 149.5 -44.5t47.5 -145.5q0 -93 -54 -140.5t-152 -47.5q-80 0 -134 38.5t-54 100.5l-165 -144v-356h-120zM513 549q0 -53 24.5 -77.5t81.5 -24.5q60 0 83.5 23.5t23.5 78.5q0 59 -22.5 80t-84.5 21q-60 0 -83 -21t-23 -80z" />
<glyph unicode="&#xe06;" horiz-adv-x="1251" d="M99 157q0 99 51 145t156 46q19 0 31.5 -3t21.5 -3v93q0 100 34 174.5t98 164.5q53 80 78.5 130t25.5 111v53l-101 -53v-2q0 -190 -198 -190q-110 0 -152 45.5t-42 153.5q0 181 196 181q74 0 117 -23t60 -74l120 64h120v-148q0 -78 -30.5 -140.5t-89.5 -151.5 q-59 -91 -89.5 -152t-30.5 -135v-122l513 -211v1060h120v-1170h-101l-525 215q8 -20 9 -58q0 -100 -50 -145t-147 -45q-195 0 -195 190zM188 157q0 -55 23 -78.5t83 -23.5t83.5 24.5t23.5 77.5q0 59 -23.5 80.5t-83.5 21.5q-62 0 -84 -21t-22 -81zM192 1013q0 -59 23.5 -80 t82.5 -21q63 0 85 21t22 80q0 55 -23 78.5t-84 23.5q-57 0 -81.5 -23.5t-24.5 -78.5z" />
<glyph unicode="&#xe07;" horiz-adv-x="1063" d="M55 796h129l259 -701h174q93 0 138 38t45 119v584q-33 -13 -79 -13q-194 0 -195 190q0 102 47.5 146t150.5 44q108 0 152 -47.5t44 -157.5v-728q0 -108 -68.5 -189t-216.5 -81h-285zM615 1013q0 -55 23 -78t83 -23t83 24t23 77q0 59 -23 80.5t-83 21.5q-61 0 -83.5 -21.5 t-22.5 -80.5z" />
<glyph unicode="&#xe08;" horiz-adv-x="1140" d="M78 1040q179 164 456 163q251 0 357.5 -103.5t106.5 -299.5v-530q0 -108 -68.5 -189t-219.5 -81h-170l-97 429q-38 -36 -114 -35q-194 0 -194 188q0 102 47.5 146t149.5 44q73 0 110.5 -19t56 -61t37.5 -126l97 -471h61q184 0 184 171v544q0 157 -84 227.5t-260 70.5 q-113 0 -207.5 -32t-180.5 -112zM224 582q0 -55 23 -78.5t82 -23.5q60 0 83 24t23 78q0 60 -23 81t-83 21q-61 0 -83 -21t-22 -81z" />
<glyph unicode="&#xe09;" horiz-adv-x="1237" d="M99 549q0 101 47.5 145.5t149.5 44.5q108 0 151.5 -47.5t43.5 -157.5v-416l431 373q32 27 42.5 49t10.5 62v214q0 144 -107 218t-269 74q-249 0 -405 -144l-68 76q175 164 473 163q228 0 362 -106t134 -289v-224q0 -59 -43 -110.5t-136 -121.5q118 0 169.5 -47.5 t51.5 -147.5q0 -102 -47.5 -146t-149.5 -44q-108 0 -151.5 47.5t-43.5 158.5q0 25 16 55l-259 -228h-128v372q-34 -13 -80 -13q-195 0 -195 190zM188 549q0 -55 23 -78.5t83 -23.5t83.5 24.5t23.5 77.5q0 59 -23.5 80t-83.5 21q-62 0 -84 -21t-22 -80zM836 157q0 -60 23 -81 t83 -21q62 0 84.5 21t22.5 81q0 55 -23.5 78.5t-83.5 23.5t-83 -22t-23 -80z" />
<glyph unicode="&#xe0a;" horiz-adv-x="1096" d="M99 1013q0 102 47.5 146t149.5 44q104 0 149.5 -42t45.5 -139v-64q0 -40 -23 -75.5t-72 -86.5q-71 -78 -107.5 -138.5t-36.5 -148.5v-87q0 -137 14.5 -206.5t77.5 -111.5t200 -42t199 42t76.5 110.5t14.5 207.5v133q0 112 -40 165.5t-142 53.5h-33v95h33q78 0 117 22.5 t52 69t13 128.5v114h120v-114q0 -102 -28.5 -170t-100.5 -100q71 -38 100 -103.5t29 -160.5v-133q0 -148 -26.5 -243t-116.5 -153.5t-267 -58.5t-266.5 58.5t-116 153.5t-26.5 243v80q0 100 43 182t111 141q-105 0 -147.5 44.5t-42.5 143.5zM188 1013q0 -55 23 -78t83 -23 t83.5 24t23.5 77q0 59 -23.5 80.5t-83.5 21.5q-62 0 -84 -21.5t-22 -80.5z" />
<glyph unicode="&#xe0b;" horiz-adv-x="1205" d="M78 1022q0 181 196 181q74 0 116.5 -23t60.5 -74l108 64h120v-148q0 -78 -41 -142t-121 -150q-80 -93 -118 -153t-38 -134v-65q0 -112 14 -174.5t77 -102t200 -39.5t199.5 42t76.5 110.5t14 207.5v133q0 112 -39.5 165.5t-141.5 53.5h-33v95h33q78 0 116.5 22.5t51.5 69 t13 128.5v114h120v-114q0 -102 -27.5 -170t-101.5 -100q71 -38 100 -103.5t29 -160.5v-133q0 -148 -26.5 -243t-116.5 -153.5t-267 -58.5q-175 0 -264.5 56.5t-117 142.5t-27.5 212v57q0 97 45.5 171.5t131.5 167.5q71 76 105 128t34 113v53l-90 -53v-2q0 -190 -197 -190 q-110 0 -152 45.5t-42 153.5zM168 1013q0 -59 23.5 -80t82.5 -21q62 0 84 21t22 80q0 55 -23 78.5t-83 23.5q-57 0 -81.5 -23.5t-24.5 -78.5z" />
<glyph unicode="&#xe0c;" horiz-adv-x="1782" d="M99 891v126q102 91 217 138.5t256 47.5q226 0 335.5 -102.5t109.5 -288.5v-491l503 -211v1060h119v-1170h-102l-509 215q9 -20 10 -58q0 -100 -50.5 -145t-147.5 -45q-194 0 -194 190q0 101 49.5 146t153.5 45q25 0 52 -6v466q0 159 -77 229.5t-252 70.5 q-219 0 -371 -135v-26l202 -128v-78q-76 -31 -102.5 -81t-26.5 -147v-179q34 13 80 14q195 0 195 -191q0 -102 -47.5 -146t-149.5 -44q-109 0 -153.5 47.5t-44.5 158.5v353q0 188 133 253zM247 157q0 -60 23.5 -81t83.5 -21q62 0 84 21t22 81q0 55 -23 78.5t-83 23.5 q-57 0 -82 -23t-25 -79zM734 157q0 -55 23.5 -78.5t82.5 -23.5q61 0 84 24.5t23 77.5q0 59 -23 80.5t-84 21.5t-83.5 -21t-22.5 -81z" />
<glyph unicode="&#xe0d;" horiz-adv-x="1906" d="M99 891v126q102 91 217 138.5t256 47.5q226 0 335.5 -102.5t109.5 -288.5v-301q0 -122 24.5 -199.5t93 -119.5t197.5 -42q128 0 196.5 42t92 119.5t23.5 199.5v659h119v-659q0 -215 -94 -335.5t-337 -120.5t-337 120.5t-94 335.5v297q0 159 -77 229.5t-252 70.5 q-219 0 -371 -135v-26l202 -128v-78q-76 -31 -102.5 -81t-26.5 -147v-179q34 13 80 14q195 0 195 -191q0 -102 -47.5 -146t-149.5 -44q-109 0 -153.5 47.5t-44.5 158.5v353q0 188 133 253zM247 157q0 -60 23.5 -81t83.5 -21q62 0 84 21t22 81q0 55 -23 78.5t-83 23.5 q-57 0 -82 -23t-25 -79zM878 -175q0 99 44.5 145.5t149.5 46.5q100 0 149 -45t49 -145q0 -86 -31.5 -123.5t-90.5 -45.5q22 -18 59.5 -24t109.5 -6h123q114 0 183 55.5t124 164.5l80 -114q-71 -103 -158.5 -156t-228.5 -53q-224 0 -393 74t-169 226zM967 -173q0 -53 24 -77 t84 -24t83.5 23t23.5 78q0 60 -22.5 81t-84.5 21q-60 0 -84 -20.5t-24 -81.5z" />
<glyph unicode="&#xe0e;" horiz-adv-x="1332" d="M99 157q0 190 195 191q46 0 80 -14v170q0 93 13.5 145t63.5 101l-232 141v126q100 89 230.5 137.5t274.5 48.5q227 0 346.5 -103.5t119.5 -287.5v-1301h-118q-35 63 -108 107t-168 44q-91 0 -150.5 -31.5t-101.5 -119.5l-97 33q49 120 137.5 167.5t211.5 47.5 q181 0 276 -111v1160q0 301 -348 300q-120 0 -225 -35t-178 -100v-26l245 -151v-77q-38 -31 -53 -56.5t-18.5 -60t-3.5 -111.5v-318q0 -108 -44 -157t-151 -49q-99 0 -148 44t-49 146zM188 157q0 -60 22 -81t84 -21q60 0 83.5 21t23.5 81q0 55 -23.5 78.5t-83.5 23.5 t-83 -23t-23 -79z" />
<glyph unicode="&#xe0f;" horiz-adv-x="1332" d="M99 157q0 190 195 191q46 0 80 -14v170q0 93 13.5 145t63.5 101l-232 141v126q100 89 230.5 137.5t274.5 48.5q227 0 346.5 -103.5t119.5 -287.5v-1301h-118l-285 128q-80 -112 -203 -112q-208 0 -263 218l95 25q25 -80 63 -113t105 -33q118 0 180 121l308 -134v1197 q0 301 -348 300q-120 0 -225 -35t-178 -100v-26l245 -151v-77q-38 -31 -53 -56.5t-18.5 -60t-3.5 -111.5v-318q0 -108 -44 -157t-151 -49q-99 0 -148 44t-49 146zM188 157q0 -60 22 -81t84 -21q60 0 83.5 21t23.5 81q0 55 -23.5 78.5t-83.5 23.5t-83 -23t-23 -79z" />
<glyph unicode="&#xe10;" horiz-adv-x="1186" d="M89 1040q179 164 455 163q188 0 298 -61q78 42 91 128l111 -25q-4 -51 -33 -100.5t-78 -80.5q76 -97 76 -264v-530q0 -108 -68.5 -189t-219.5 -81h-170l-97 429q-38 -36 -114 -35q-194 0 -194 188q0 102 47.5 146t148.5 44q74 0 111.5 -19t56 -61t36.5 -126l98 -471h61 q184 0 184 171v544q0 157 -84 227.5t-261 70.5q-112 0 -206.5 -32t-180.5 -112zM171 -391l95 24q25 -80 61 -113t102 -33q124 0 179 106l312 -97v126q-15 -9 -43 -15t-52 -6q-194 0 -194 175q0 98 46.5 139t149.5 41q97 0 140.5 -45.5t43.5 -149.5v-365h-89l-289 91 q-68 -97 -204 -97q-203 0 -258 219zM234 582q0 -55 23.5 -78.5t82.5 -23.5q61 0 84 24t23 78q0 60 -23 81t-84 21t-83.5 -21t-22.5 -81zM717 -224q0 -46 23.5 -67t80.5 -21q55 0 79 22t24 66q0 49 -23 69t-80 20q-60 0 -82 -19t-22 -70z" />
<glyph unicode="&#xe11;" horiz-adv-x="1293" d="M78 1022q0 181 196 181q74 0 116.5 -23t60.5 -74l119 64h120v-123l49 48q61 62 111.5 85t122.5 23q89 0 133 -42t44 -117v-1044h-120v1044q0 32 -18 48t-50 16q-53 0 -78 -15.5t-76 -66.5l-151 -150q-32 -66 -89 -146q-59 -93 -88 -153t-29 -134v-443h-117v435 q0 100 34.5 174.5t98.5 164.5q52 80 77.5 130t25.5 111v53l-101 -53v-2q0 -190 -197 -190q-110 0 -152 45.5t-42 153.5zM168 1013q0 -59 23.5 -80t82.5 -21q62 0 84 21t22 80q0 55 -23 78.5t-83 23.5q-57 0 -81.5 -23.5t-24.5 -78.5z" />
<glyph unicode="&#xe12;" horiz-adv-x="1864" d="M166 0v876q0 327 252 327q89 0 140.5 -34t74.5 -107q27 75 76 108t138 33q133 0 192.5 -78t59.5 -249v-555l503 -211v1060h118v-1170h-101l-509 215q9 -20 9 -58q0 -100 -49.5 -145t-147.5 -45q-194 0 -194 190q0 101 49.5 146t153.5 45q25 0 51 -6v530q0 90 -10 138.5 t-39.5 72t-92.5 23.5q-150 0 -150 -162v-32h-118v32q0 82 -31.5 122t-107.5 40q-86 0 -118 -53t-32 -184v-765l329 287q-71 4 -114.5 47.5t-43.5 129.5q0 99 48.5 144.5t147.5 45.5q106 0 150.5 -42.5t44.5 -140.5q0 -66 -23.5 -108.5t-78.5 -90.5l-431 -376h-146zM542 568 q0 -55 23.5 -78t82.5 -23t83.5 24t24.5 77q0 59 -24.5 81t-83.5 22q-62 0 -84 -21t-22 -82zM816 157q0 -55 23.5 -78.5t82.5 -23.5q60 0 83 24.5t23 77.5q0 59 -23 80.5t-83 21.5q-61 0 -83.5 -21t-22.5 -81z" />
<glyph unicode="&#xe13;" horiz-adv-x="1826" d="M99 891v126q102 91 217 138.5t256 47.5q226 0 335.5 -102.5t109.5 -288.5v-698l494 355q33 21 43 39t10 56v606h120v-608q0 -62 -36 -104t-137 -108q118 0 166 -46.5t48 -146.5q0 -102 -47.5 -146t-149.5 -44q-108 0 -151 47.5t-43 158.5q0 42 11 64l-319 -237h-125v808 q0 159 -77 229.5t-252 70.5q-219 0 -371 -135v-26l202 -128v-78q-76 -31 -102.5 -81t-26.5 -147v-179q34 13 80 14q195 0 195 -191q0 -102 -47.5 -146t-149.5 -44q-109 0 -153.5 47.5t-44.5 158.5v353q0 188 133 253zM247 157q0 -60 23.5 -81t83.5 -21q62 0 84 21t22 81 q0 55 -23 78.5t-83 23.5q-57 0 -82 -23t-25 -79zM1425 157q0 -60 23 -81t82 -21q63 0 85 21t22 81q0 55 -23 78.5t-84 23.5q-59 0 -82 -22t-23 -80z" />
<glyph unicode="&#xe14;" horiz-adv-x="1251" d="M144 0v770q0 205 109.5 319t372.5 114q264 0 373 -114t109 -319v-770h-120v770q0 175 -78 256.5t-284 81.5q-205 0 -283.5 -82t-78.5 -256v-666l329 287q-71 4 -115.5 47.5t-44.5 129.5q0 99 49 144.5t149 45.5q106 0 150 -42.5t44 -140.5q0 -66 -23 -108.5t-78 -90.5 l-432 -376h-148zM522 568q0 -55 23 -78t84 -23q59 0 83.5 24t24.5 77q0 59 -24.5 81t-83.5 22q-62 0 -84.5 -21t-22.5 -82z" />
<glyph unicode="&#xe15;" horiz-adv-x="1251" d="M144 0v876q0 164 67.5 245.5t193.5 81.5q179 0 221 -141q27 73 79.5 107t141.5 34q133 0 197 -79.5t64 -247.5v-876h-120v872q0 132 -28.5 183t-119.5 51q-75 0 -115.5 -42t-40.5 -120v-32h-118v32q0 80 -35 121t-111 41q-88 0 -122 -54t-34 -183v-765l329 287 q-71 4 -115.5 47.5t-44.5 129.5q0 99 49 144.5t149 45.5q106 0 150 -42.5t44 -140.5q0 -66 -23 -108.5t-78 -90.5l-432 -376h-148zM522 568q0 -55 23 -78t84 -23q59 0 83.5 24t24.5 77q0 59 -24.5 81t-83.5 22q-62 0 -84.5 -21t-22.5 -82z" />
<glyph unicode="&#xe16;" horiz-adv-x="1207" d="M99 891v126q100 89 226 137.5t270 48.5q228 0 348.5 -103.5t120.5 -287.5v-812h-120v808q0 301 -349 300q-118 0 -219.5 -35t-174.5 -100v-26l202 -128v-78q-76 -31 -102.5 -81t-26.5 -147v-179q34 13 80 14q195 0 195 -191q0 -102 -49 -146t-148 -44q-107 0 -152.5 48.5 t-45.5 157.5v353q0 188 133 253zM247 157q0 -60 23.5 -81t83.5 -21q62 0 84 21t22 81q0 55 -23 78.5t-83 23.5q-57 0 -82 -23t-25 -79z" />
<glyph unicode="&#xe17;" horiz-adv-x="1311" d="M78 1013q0 102 47.5 146t148.5 44q108 0 151.5 -47.5t43.5 -157.5v-470l331 556q38 64 83.5 91.5t116.5 27.5q169 0 167 -159v-1044h-118v1044q0 64 -58 64q-31 0 -52 -14.5t-42 -49.5l-428 -712v-332h-117v836q-33 -13 -80 -13q-194 0 -194 190zM166 1013 q0 -55 23.5 -78t82.5 -23q60 0 83 24t23 77q0 59 -23 80.5t-83 21.5q-61 0 -83.5 -21.5t-22.5 -80.5z" />
<glyph unicode="&#xe18;" horiz-adv-x="1087" d="M99 743v148q0 139 124.5 225.5t322.5 86.5q266 0 408 -112l-63 -71q-118 88 -347 88q-152 0 -239.5 -57t-87.5 -160v-77l535 -120q130 -29 183 -89.5t53 -177.5v-140q0 -154 -115 -237t-316 -83q-177 0 -272 58.5t-127 156t-32 240.5v93h119v-93q0 -128 19 -202 t86.5 -116t206.5 -42q150 0 231 53t81 172v142q0 84 -36.5 120.5t-133.5 58.5z" />
<glyph unicode="&#xe19;" horiz-adv-x="1300" d="M78 1013q0 102 47.5 146t148.5 44q108 0 151.5 -47.5t43.5 -157.5v-884l515 355q33 21 43.5 39t10.5 56v606h119v-608q0 -62 -35.5 -104t-137.5 -108q118 0 166.5 -46.5t48.5 -146.5q0 -102 -47.5 -146t-149.5 -44q-109 0 -151.5 47.5t-42.5 158.5q0 42 11 64l-342 -237 h-125v836q-33 -13 -80 -13q-194 0 -194 190zM166 1013q0 -55 23.5 -78t82.5 -23q60 0 83 24t23 77q0 59 -23 80.5t-83 21.5q-61 0 -83.5 -21.5t-22.5 -80.5zM897 157q0 -60 23.5 -81t83.5 -21q62 0 84 21t22 81q0 55 -23 78.5t-83 23.5q-59 0 -83 -22t-24 -80z" />
<glyph unicode="&#xe1a;" horiz-adv-x="1401" d="M78 1013q0 102 47.5 146t148.5 44q108 0 152.5 -47.5t44.5 -157.5v-576q0 -124 24 -200t97 -118t213 -42q139 0 212.5 42t97.5 118t24 200v748h119v-748q0 -215 -97 -335t-356 -120t-356 120.5t-97 334.5v414q-33 -13 -80 -13q-194 0 -194 190zM166 1013q0 -55 23.5 -78 t82.5 -23q60 0 83 24t23 77q0 59 -23 80.5t-83 21.5q-61 0 -83.5 -21.5t-22.5 -80.5z" />
<glyph unicode="&#xe1b;" horiz-adv-x="1401" d="M78 1013q0 102 47.5 146t148.5 44q108 0 152.5 -47.5t44.5 -157.5v-576q0 -124 24 -200t97 -118t213 -42q139 0 212.5 42t97.5 118t24 200v1157h119v-1157q0 -215 -97 -335t-356 -120t-356 120.5t-97 334.5v414q-33 -13 -80 -13q-194 0 -194 190zM166 1013 q0 -55 23.5 -78t82.5 -23q60 0 83 24t23 77q0 59 -23 80.5t-83 21.5q-61 0 -83.5 -21.5t-22.5 -80.5z" />
<glyph unicode="&#xe1c;" horiz-adv-x="1233" d="M144 0v998q0 110 44 157.5t152 47.5q102 0 150 -44t48 -146q0 -190 -196 -190q-46 0 -78 13v-665l300 388h107l300 -388v999h120v-1170h-120l-354 460l-353 -460h-120zM237 1013q0 -53 24 -77t81 -24q61 0 84 23t23 78q0 59 -22 80.5t-85 21.5q-59 0 -82 -21.5t-23 -80.5 z" />
<glyph unicode="&#xe1d;" horiz-adv-x="1233" d="M144 0v998q0 110 44 157.5t152 47.5q102 0 150 -44t48 -146q0 -190 -196 -190q-46 0 -78 13v-665l300 388h107l300 -388v1408h120v-1579h-120l-354 460l-353 -460h-120zM237 1013q0 -53 24 -77t81 -24q61 0 84 23t23 78q0 59 -22 80.5t-85 21.5q-59 0 -82 -21.5 t-23 -80.5z" />
<glyph unicode="&#xe1e;" horiz-adv-x="1410" d="M78 1013q0 102 47.5 146t148.5 44q108 0 152.5 -47.5t44.5 -157.5v-751l285 667h107l285 -667v923h120v-1170h-120l-338 781l-339 -781h-119v836q-33 -13 -80 -13q-194 0 -194 190zM166 1013q0 -55 23.5 -78t82.5 -23q60 0 83 24t23 77q0 59 -23 80.5t-83 21.5 q-61 0 -83.5 -21.5t-22.5 -80.5z" />
<glyph unicode="&#xe1f;" horiz-adv-x="1410" d="M78 1013q0 102 47.5 146t148.5 44q108 0 152.5 -47.5t44.5 -157.5v-751l285 667h107l285 -667v1332h120v-1579h-120l-338 781l-339 -781h-119v836q-33 -13 -80 -13q-194 0 -194 190zM166 1013q0 -55 23.5 -78t82.5 -23q60 0 83 24t23 77q0 59 -23 80.5t-83 21.5 q-61 0 -83.5 -21.5t-22.5 -80.5z" />
<glyph unicode="&#xe20;" horiz-adv-x="1334" d="M99 157q0 190 195 191q46 0 80 -14v170q0 93 13.5 145t63.5 101l-232 141v126q100 89 230.5 137.5t274.5 48.5q227 0 347.5 -103.5t120.5 -287.5v-812h-120v808q0 301 -348 300q-120 0 -225 -35t-178 -100v-26l247 -151v-77q-38 -31 -53 -56.5t-18 -60t-3 -111.5v-318 q0 -108 -45.5 -157t-152.5 -49q-99 0 -148 44t-49 146zM188 157q0 -60 22 -81t84 -21q60 0 83.5 21t23.5 81q0 55 -23.5 78.5t-83.5 23.5t-83 -23t-23 -79z" />
<glyph unicode="&#xe21;" horiz-adv-x="1277" d="M99 1013q0 102 47.5 146t149.5 44q108 0 151.5 -47.5t43.5 -157.5v-677l524 -211v1060h120v-1170h-103l-534 215q9 -20 9 -58q0 -100 -50 -145t-147 -45q-196 0 -196 190q0 99 51.5 145t155.5 46q19 0 31.5 -3t21.5 -3v494q-34 -13 -80 -13q-195 0 -195 190zM188 1013 q0 -55 23 -78t83 -23t83.5 24t23.5 77q0 59 -23.5 80.5t-83.5 21.5q-62 0 -84 -21.5t-22 -80.5zM203 157q0 -55 23 -78.5t84 -23.5q59 0 82.5 24.5t23.5 77.5q0 59 -23.5 80.5t-82.5 21.5q-62 0 -84.5 -21t-22.5 -81z" />
<glyph unicode="&#xe22;" horiz-adv-x="1156" d="M99 306q0 196 135 269q-68 40 -97 102t-29 163v148q0 108 47.5 161.5t147.5 53.5t148.5 -44t48.5 -146q0 -190 -194 -190q-20 0 -46 5.5t-41 13.5q0 -108 44.5 -162t143.5 -54h100v-95h-100q-194 0 -194 -223q0 -127 81.5 -186.5t264.5 -59.5q171 0 253.5 73t82.5 228 v807h118v-811q0 -186 -114 -289t-340 -103q-230 0 -345 88.5t-115 250.5zM199 1013q0 -53 24 -77t83 -24t82 23t23 78q0 59 -22 80.5t-83 21.5q-60 0 -83.5 -21.5t-23.5 -80.5z" />
<glyph unicode="&#xe23;" horiz-adv-x="1017" d="M99 766v125q0 141 114 226.5t311 85.5q135 0 228 -26.5t166 -83.5l-62 -71q-63 48 -143 67t-191 19q-150 0 -227.5 -56t-77.5 -161v-55l380 -97q89 -25 117.5 -78t28.5 -159v-329q0 -108 -44.5 -157t-149.5 -49q-100 0 -148.5 44t-48.5 146q0 190 194 191q47 0 80 -14 v168q0 62 -10 89.5t-38.5 43t-97.5 32.5zM441 157q0 -60 22 -81t83 -21q60 0 83 21t23 81q0 55 -23 78.5t-83 23.5q-59 0 -82 -23t-23 -79z" />
<glyph unicode="&#xe24;" horiz-adv-x="1207" d="M99 891v126q100 89 226 137.5t270 48.5q228 0 348.5 -103.5t120.5 -287.5v-1257h-120v1253q0 301 -349 300q-118 0 -219.5 -35t-174.5 -100v-26l202 -128v-78q-76 -31 -102.5 -81t-26.5 -147v-179q34 13 80 14q195 0 195 -191q0 -102 -49 -146t-148 -44q-106 0 -152 48.5 t-46 157.5v353q0 188 133 253zM247 157q0 -60 23.5 -81t83.5 -21q62 0 84 21t22 81q0 55 -23 78.5t-83 23.5q-57 0 -82 -23t-25 -79z" />
<glyph unicode="&#xe25;" horiz-adv-x="1144" d="M99 1040q95 89 207 126t245 37q223 0 337 -103.5t114 -291.5v-808h-117q0 308 -86.5 455t-298.5 147q-259 0 -279 -270q40 15 80 16q195 0 195 -191q0 -102 -48.5 -146t-149.5 -44q-196 1 -196 250q0 250 104 365t309 115q133 0 228 -53t139 -155v327q0 146 -87.5 219 t-243.5 73q-113 0 -204.5 -32t-178.5 -112zM194 157q0 -53 25.5 -77.5t81.5 -24.5q62 0 84 21t22 81q0 55 -23 78.5t-83 23.5q-57 0 -82 -23t-25 -79z" />
<glyph unicode="&#xe26;" horiz-adv-x="1334" d="M99 157q0 190 195 191q46 0 80 -14v170q0 93 13.5 145t63.5 101l-232 141v126q100 89 230.5 137.5t274.5 48.5q227 0 347.5 -103.5t120.5 -287.5v-1257h-120v1253q0 301 -348 300q-120 0 -225 -35t-178 -100v-26l247 -151v-77q-38 -31 -53 -56.5t-18 -60t-3 -111.5v-318 q0 -108 -45.5 -157t-152.5 -49q-99 0 -148 44t-49 146zM188 157q0 -60 22 -81t84 -21q60 0 83.5 21t23.5 81q0 55 -23.5 78.5t-83.5 23.5t-83 -23t-23 -79z" />
<glyph unicode="&#xe27;" horiz-adv-x="1030" d="M55 1040q108 91 194.5 127t217.5 36q232 0 326 -103.5t94 -303.5v-623q0 -110 -44.5 -158t-152.5 -48q-101 0 -148.5 44t-47.5 146q0 190 194 191q46 0 80 -14v471q0 158 -71 230.5t-230 72.5q-104 0 -176 -32t-167 -112zM582 157q0 -60 22 -81t84 -21q59 0 82.5 21 t23.5 81q0 55 -23.5 78.5t-82.5 23.5t-82.5 -23t-23.5 -79z" />
<glyph unicode="&#xe28;" horiz-adv-x="1253" d="M144 0v747q0 211 107.5 333.5t367.5 122.5q179 0 290 -61q78 42 91 128l110 -25q-4 -53 -32.5 -101.5t-75.5 -79.5q93 -110 93 -317v-747h-120v747q0 182 -76 271.5t-280 89.5q-203 0 -279 -89.5t-76 -271.5v-256l88 77q31 27 72 74q49 52 88 74.5t114 22.5 q102 0 149.5 -44.5t47.5 -145.5q0 -93 -54 -140.5t-152 -47.5q-80 0 -134 38.5t-54 100.5l-165 -144v-356h-120zM513 549q0 -53 24.5 -77.5t81.5 -24.5q60 0 83.5 23.5t23.5 78.5q0 59 -22.5 80t-84.5 21q-60 0 -83 -21t-23 -80z" />
<glyph unicode="&#xe29;" horiz-adv-x="1401" d="M78 1013q0 102 47.5 146t148.5 44q108 0 151.5 -47.5t43.5 -157.5v-576q0 -122 25 -199t98 -119t213 -42q139 0 212.5 42t97.5 118t24 200v36q-61 -4 -92 -4q-209 0 -320.5 58t-111.5 195q0 190 193 190q104 0 146 -48.5t42 -145.5q0 -51 -20 -86t-69 -60q44 -8 90.5 -8 h55.5q42 0 86 6v615h119v-748q0 -215 -97 -335t-356 -120t-356 120.5t-97 334.5v414q-33 -13 -80 -13q-194 0 -194 190zM166 1013q0 -55 23.5 -78t82.5 -23q60 0 83 24t23 77q0 59 -23 80.5t-83 21.5q-61 0 -83.5 -21.5t-22.5 -80.5zM699 710q0 -56 23 -79t83 -23 q58 0 81 24.5t23 77.5q0 57 -22 78.5t-82 21.5q-62 0 -84 -21t-22 -79z" />
<glyph unicode="&#xe2a;" horiz-adv-x="1144" d="M99 1040q95 89 207 126t245 37q168 0 278 -61q76 42 89 128l110 -25q-4 -53 -32.5 -101.5t-75.5 -79.5q82 -97 82 -256v-808h-117q0 308 -86.5 455t-298.5 147q-259 0 -279 -270q40 15 80 16q195 0 195 -191q0 -102 -48.5 -146t-149.5 -44q-196 1 -196 250q0 250 104 365 t309 115q133 0 228 -53t139 -155v327q0 146 -87.5 219t-243.5 73q-113 0 -204.5 -32t-178.5 -112zM194 157q0 -53 25.5 -77.5t81.5 -24.5q62 0 84 21t22 81q0 55 -23 78.5t-83 23.5q-57 0 -82 -23t-25 -79z" />
<glyph unicode="&#xe2b;" horiz-adv-x="1286" d="M78 1013q0 102 47.5 146t148.5 44q108 0 151.5 -47.5t43.5 -157.5v-825l390 588q21 34 38 50t45 25q-68 11 -105 52t-37 112q0 104 46.5 153.5t147.5 49.5t147.5 -49.5t46.5 -153.5q0 -66 -34.5 -108.5t-98.5 -55.5q51 -13 70 -49.5t19 -94.5v-692h-120v684q0 35 -6.5 48 t-23.5 13q-13 0 -22.5 -7.5t-24.5 -30.5l-478 -707h-117v836q-33 -13 -80 -13q-194 0 -194 190zM166 1013q0 -55 23.5 -78t82.5 -23q60 0 83 24t23 77q0 59 -23 80.5t-83 21.5q-61 0 -83.5 -21.5t-22.5 -80.5zM887 1013q0 -55 23 -78t84 -23q59 0 82 24t23 77q0 59 -23 80.5 t-82 21.5q-62 0 -84.5 -21.5t-22.5 -80.5z" />
<glyph unicode="&#xe2c;" horiz-adv-x="1410" d="M78 1013q0 102 47.5 146t148.5 44q108 0 152.5 -47.5t44.5 -157.5v-751l285 622h107l285 -622v693q0 112 -40 165.5t-141 53.5h-34v95h34q77 0 115.5 22t52 68.5t13.5 128.5v106h120v-106q0 -101 -28 -168.5t-101 -101.5q72 -38 100.5 -103t28.5 -160v-940h-120l-338 737 l-339 -737h-119v836q-33 -13 -80 -13q-194 0 -194 190zM166 1013q0 -55 23.5 -78t82.5 -23q60 0 83 24t23 77q0 59 -23 80.5t-83 21.5q-61 0 -83.5 -21.5t-22.5 -80.5z" />
<glyph unicode="&#xe2d;" horiz-adv-x="1149" d="M99 1040q180 164 452 163q245 0 350.5 -103.5t105.5 -299.5v-497q0 -132 -104.5 -234t-343.5 -102q-245 0 -339 98.5t-94 259.5v201q0 110 43.5 158t151.5 48q101 0 148.5 -44t47.5 -146q0 -190 -194 -190q-47 0 -80 13v-97q0 -104 83 -155t233 -51q148 0 238 52t90 156 v546q0 153 -77.5 222.5t-258.5 69.5q-113 0 -206 -33t-177 -111zM217 542q0 -53 24.5 -77t81.5 -24q59 0 82.5 23t23.5 78q0 60 -22.5 81t-83.5 21q-59 0 -82.5 -21t-23.5 -81z" />
<glyph unicode="&#xe2e;" horiz-adv-x="1193" d="M99 1040q180 164 452 163q181 0 296 -64q80 43 93 131l111 -25q-4 -53 -35.5 -103.5t-80.5 -82.5q72 -97 72 -259v-497q0 -132 -104.5 -234t-343.5 -102q-245 0 -339 98.5t-94 259.5v201q0 110 43.5 158t151.5 48q101 0 148.5 -44t47.5 -146q0 -190 -194 -190 q-47 0 -80 13v-97q0 -104 83 -155t233 -51q148 0 238 52t90 156v546q0 153 -77.5 222.5t-258.5 69.5q-113 0 -206 -33t-177 -111zM217 542q0 -53 24.5 -77t81.5 -24q59 0 82.5 23t23.5 78q0 60 -22.5 81t-83.5 21q-59 0 -82.5 -21t-23.5 -81z" />
<glyph unicode="&#xe2f;" horiz-adv-x="1054" d="M99 954q0 249 197 249q99 0 148.5 -44t49.5 -146q0 -190 -196 -190q-51 0 -77 17q18 -59 92 -87.5t160 -28.5q164 0 242.5 104.5t78.5 341.5h118v-1170h-120v783q-42 -73 -125 -113.5t-194 -40.5q-159 0 -266.5 78t-107.5 247zM192 1013q0 -53 24.5 -77t81.5 -24 q61 0 84 23t23 78q0 59 -22 80.5t-85 21.5q-55 0 -80.5 -24.5t-25.5 -77.5z" />
<glyph unicode="&#xe30;" horiz-adv-x="870" d="M99 312q0 192 195 192q106 0 149.5 -48.5t43.5 -147.5q0 -44 -24.5 -83t-66.5 -52q36 -9 113 -9q128 0 206 81l57 -68q-95 -108 -299 -109q-150 0 -262 61t-112 183zM99 931q0 192 195 192q106 0 149.5 -48.5t43.5 -147.5q0 -45 -24.5 -83.5t-66.5 -51.5q36 -9 113 -9 q128 0 206 82l57 -69q-95 -108 -299 -108q-150 0 -262 61t-112 182zM186 314q0 -53 24 -77t82 -24q107 0 107 101q0 60 -23.5 81t-83.5 21q-62 0 -84 -21t-22 -81zM186 933q0 -53 24 -77t82 -24q107 0 107 101q0 60 -23.5 81t-83.5 21q-62 0 -84 -20.5t-22 -81.5z" />
<glyph unicode="&#xe31;" d="M-665 1617q0 192 194 192q106 0 149 -48.5t43 -148.5q0 -101 -93 -150q43 -6 80 -6h49q215 0 342 119l55 -75q-71 -68 -177 -103.5t-226 -35.5q-207 0 -311.5 60.5t-104.5 195.5zM-580 1619q0 -55 23 -78.5t84 -23.5q57 0 81.5 24.5t24.5 77.5q0 59 -23.5 80t-82.5 21 q-62 0 -84.5 -21t-22.5 -80z" />
<glyph unicode="&#xe32;" horiz-adv-x="975" d="M55 1057q82 78 176 112t207 34q215 0 304.5 -102.5t89.5 -300.5v-800h-117v800q0 157 -62 232.5t-212 75.5q-98 0 -171 -29.5t-146 -96.5z" />
<glyph unicode="&#xe33;" horiz-adv-x="975" d="M-424 1553q0 93 55 142.5t148 49.5q92 0 148 -49.5t56 -142.5t-56 -142.5t-148 -49.5q-93 0 -148 49.5t-55 142.5zM-332 1553q0 -51 26.5 -75t84.5 -24q57 0 84 24t27 75t-27 75t-84 24q-58 0 -84.5 -24t-26.5 -75zM55 1057q82 78 176 112t207 34q215 0 304.5 -102.5 t89.5 -300.5v-800h-117v800q0 157 -62 232.5t-212 75.5q-98 0 -171 -29.5t-146 -96.5z" />
<glyph unicode="&#xe34;" d="M-1084 1361q16 163 146 250.5t326 87.5t325.5 -87.5t145.5 -250.5h-943zM-947 1450h668q-21 72 -114.5 114t-218.5 42q-127 0 -219.5 -42t-115.5 -114z" />
<glyph unicode="&#xe35;" d="M-1084 1361q16 163 146 250.5t326 87.5q101 0 196 -33.5t152 -90.5v225h120v-439h-940zM-947 1450h673q-45 74 -132.5 115t-205.5 41q-127 0 -219.5 -42t-115.5 -114z" />
<glyph unicode="&#xe36;" d="M-1084 1361q16 163 146 250.5t326 87.5q97 0 171 -25q3 82 45 121t126 39q95 0 135 -39t40 -130q0 -63 -24.5 -99t-79.5 -53q51 -55 58 -152h-943zM-947 1450h668q-31 62 -121.5 109t-211.5 47q-127 0 -219.5 -42t-115.5 -114zM-356 1670q0 -36 25 -60.5t61 -24.5 q46 0 67.5 20t21.5 65q0 46 -20 64t-69 18t-67.5 -18t-18.5 -64z" />
<glyph unicode="&#xe37;" d="M-1084 1361q16 163 146 250.5t326 87.5q63 0 132 -15v116h119v-158q58 -27 97 -67v225h120v-439h-940zM-947 1450h677q-104 155 -342 156q-127 0 -219.5 -42t-115.5 -114z" />
<glyph unicode="&#xe38;" d="M-536 -323q0 102 47.5 146t150.5 44q108 0 151 -47.5t43 -157.5v-396h-117v236q-38 -15 -79 -15q-195 0 -196 190zM-447 -323q0 -55 23 -78t84 -23q57 0 81.5 23t24.5 78q0 59 -23.5 80.5t-82.5 21.5q-62 0 -84.5 -21.5t-22.5 -80.5z" />
<glyph unicode="&#xe39;" d="M-827 -323q0 102 47.5 146t148.5 44q108 0 152 -47.5t44 -157.5v-162q0 -55 17 -75t66 -20q57 0 74 19t17 76v354h117v-376q0 -80 -47.5 -124t-160.5 -44q-110 0 -155.5 43t-45.5 125v24q-40 -15 -80 -15q-194 0 -194 190zM-739 -323q0 -55 23.5 -78t82.5 -23 q58 0 82.5 23t24.5 78q0 59 -23 80.5t-84 21.5t-83.5 -21.5t-22.5 -80.5z" />
<glyph unicode="&#xe3a;" d="M-287 -261q0 46 16 63t66 17q46 0 63.5 -17t17.5 -63q0 -42 -19 -59.5t-62 -17.5q-47 0 -64.5 16t-17.5 61z" />
<glyph unicode="&#xe3f;" horiz-adv-x="1249" d="M78 0v99h76q43 0 59.5 18t16.5 62v1073q0 44 -16.5 62t-59.5 18h-76v99h486v266h117v-266h60q192 0 287 -98.5t95 -273.5q0 -117 -48.5 -204t-147.5 -127q112 -31 167.5 -123t55.5 -218q0 -165 -91.5 -276t-266.5 -111h-111v-266h-117v266h-486zM348 99h435 q124 0 189.5 73t65.5 217q0 146 -70.5 215t-237.5 69h-382v-574zM348 772h362q150 0 225.5 76t75.5 211q0 146 -63 209.5t-216 63.5h-384v-560z" />
<glyph unicode="&#xe40;" horiz-adv-x="589" d="M144 173v997h117v-838q40 15 79 16q195 0 196 -191q0 -102 -47.5 -146t-150.5 -44q-108 0 -151 47.5t-43 158.5zM234 157q0 -60 23.5 -81t82.5 -21q63 0 85 21t22 81q0 55 -23 78.5t-84 23.5q-57 0 -81.5 -23t-24.5 -79z" />
<glyph unicode="&#xe41;" horiz-adv-x="1129" d="M144 173v997h117v-838q40 15 79 16q195 0 196 -191q0 -102 -47.5 -146t-150.5 -44q-108 0 -151 47.5t-43 158.5zM234 157q0 -60 23.5 -81t82.5 -21q63 0 85 21t22 81q0 55 -23 78.5t-84 23.5q-57 0 -81.5 -23t-24.5 -79zM684 173v997h116v-838q40 15 80 16 q195 0 195 -191q0 -102 -47.5 -146t-149.5 -44q-108 0 -151 47.5t-43 158.5zM774 157q0 -60 23.5 -81t82.5 -21q62 0 84 21t22 81q0 55 -23 78.5t-83 23.5q-57 0 -81.5 -23t-24.5 -79z" />
<glyph unicode="&#xe42;" horiz-adv-x="703" d="M-55 1429v137q66 57 164.5 88.5t204.5 31.5q118 0 201.5 -19t155.5 -63l-59 -80q-63 33 -132 50t-166 17q-73 0 -142.5 -18t-109.5 -47v-49l177 -92q55 -30 79 -62.5t29 -75t5 -137.5v-778q40 15 79 16q194 0 195 -191q0 -102 -47.5 -146t-149.5 -44q-108 0 -151.5 47.5 t-43.5 158.5v937q0 78 -5 113t-24 57t-66 47zM325 157q0 -60 23.5 -81t82.5 -21q63 0 85 21t22 81q0 55 -23.5 78.5t-83.5 23.5q-57 0 -81.5 -23t-24.5 -79z" />
<glyph unicode="&#xe43;" horiz-adv-x="722" d="M-33 1307v60q0 140 107 216t266 76q175 0 262.5 -78.5t87.5 -206.5q0 -80 -41 -148.5t-121 -161.5q-64 -76 -95.5 -126.5t-31.5 -101.5v-504q40 15 79 16q194 0 195 -191q0 -102 -47.5 -146t-150.5 -44q-108 0 -151 47.5t-43 158.5v667q0 66 38 126t110 144 q76 87 111.5 143t35.5 121q0 95 -55.5 142.5t-182.5 47.5q-120 0 -188 -52t-68 -145v-60h-117zM374 157q0 -60 23 -81t83 -21q62 0 84 21t22 81q0 55 -23 78.5t-83 23.5q-58 0 -82 -23t-24 -79z" />
<glyph unicode="&#xe44;" horiz-adv-x="625" d="M-55 1579v95h648v-89l-188 -187q-64 -64 -85.5 -129.5t-16.5 -191.5v-745q40 15 79 16q195 0 196 -191q0 -102 -48 -146t-150 -44q-108 0 -151 47.5t-43 158.5v908q0 144 25.5 216t109.5 161l117 121h-493zM276 157q0 -60 23.5 -81t82.5 -21q63 0 85 21t22 81 q0 55 -23 78.5t-84 23.5q-57 0 -81.5 -23t-24.5 -79z" />
<glyph unicode="&#xe45;" horiz-adv-x="975" d="M55 1057q82 78 176 112t207 34q215 0 304.5 -102.5t89.5 -300.5v-1245h-117v1245q0 157 -62 232.5t-212 75.5q-98 0 -171 -29.5t-146 -96.5z" />
<glyph unicode="&#xe46;" horiz-adv-x="1078" d="M78 745v144q0 314 234 314q87 0 132 -34t63 -107q19 73 69 107t136 34q122 0 172.5 -64t50.5 -227v-912h-119v933q0 104 -26 138.5t-96 34.5q-128 0 -128 -139v-20h-119v20q0 68 -25.5 103.5t-94.5 35.5q-78 0 -104 -48.5t-26 -160.5q33 13 79 15q195 0 195 -191 q0 -101 -48.5 -145.5t-148.5 -44.5q-103 0 -149.5 54t-46.5 160zM171 721q0 -59 23 -80.5t82 -21.5q62 0 84 21t22 81q0 56 -23 79t-83 23q-57 0 -81 -23t-24 -79z" />
<glyph unicode="&#xe47;" d="M-922 1361v241q0 117 58.5 178.5t192.5 61.5h430v-92h-426q-80 0 -117 -33t-37 -115v-127l100 100h77l58 -62q0 89 41 125t131 36q175 0 175 -159q0 -90 -41 -131.5t-134 -41.5q-57 0 -99 16t-89 60l-82 77l-137 -134h-101zM-502 1509q0 -51 19 -69t69 -18q51 0 71 18 t20 69q0 44 -21 65t-70 21q-50 0 -69 -20t-19 -66z" />
<glyph unicode="&#xe48;" d="M-261 1361v353h117v-353h-117z" />
<glyph unicode="&#xe49;" d="M-705 1637q0 82 39.5 117.5t123.5 35.5q88 0 126 -38t38 -122q0 -124 -69 -182q128 0 200 74.5t72 200.5v20h111v-27q0 -91 -42 -172.5t-126 -132t-203 -50.5h-215v81q53 0 80.5 13.5t41.5 44.5q-17 -4 -38 -5q-139 0 -139 142zM-631 1637q0 -44 19 -63t70 -19 q48 0 67 20t19 62q0 47 -20 63t-66 16q-53 0 -71 -15t-18 -64z" />
<glyph unicode="&#xe4a;" d="M-772 1533q0 95 43 140t140 45q62 0 95.5 -17t50.5 -55q42 73 131 72q118 0 118 -137v-88h23q49 0 71 28t22 100v93h95v-84q0 -133 -51.5 -180.5t-155.5 -47.5h-108v155q0 36 -11.5 51t-38.5 15t-42 -22t-15 -60q0 -179 -186 -178q-90 0 -135.5 40.5t-45.5 129.5z M-686 1539q0 -49 21 -71t74 -22q55 0 77.5 21t22.5 72q0 55 -20 74t-78 19q-55 0 -76 -19.5t-21 -73.5z" />
<glyph unicode="&#xe4b;" d="M-593 1486v99h166v129h117v-129h166v-99h-166v-125h-117v125h-166z" />
<glyph unicode="&#xe4c;" d="M-688 1537q0 124 105.5 185t303.5 61h264v-95h-251q-97 0 -143 -12q86 -40 86 -137q0 -91 -43 -134.5t-141 -43.5q-181 -1 -181 176zM-606 1539q0 -55 21 -75t78 -20q56 0 78 20t22 75q0 51 -23.5 73t-76.5 22q-57 0 -78 -20.5t-21 -74.5z" />
<glyph unicode="&#xe4d;" d="M-424 1553q0 93 55 142.5t148 49.5q92 0 148 -49.5t56 -142.5t-56 -142.5t-148 -49.5q-93 0 -148 49.5t-55 142.5zM-332 1553q0 -51 26.5 -75t84.5 -24q57 0 84 24t27 75t-27 75t-84 24q-58 0 -84.5 -24t-26.5 -75z" />
<glyph unicode="&#xe4e;" d="M-540 1482q0 46 23 80.5t57 52.5q-80 46 -80 132q0 72 51 111.5t120 39.5h135v-104h-125q-79 0 -79 -69q0 -29 19.5 -48.5t62.5 -19.5h82v-87h-80q-51 0 -72 -23t-21 -65q0 -76 86 -75q64 0 89 35l75 -47q-48 -75 -162 -74q-84 0 -132.5 41.5t-48.5 119.5z" />
<glyph unicode="&#xe4f;" horiz-adv-x="1321" d="M99 528q0 257 146 412t416 155t416.5 -155t146.5 -412q0 -255 -145.5 -408t-417.5 -153t-417 153.5t-145 407.5zM213 528q0 -226 121.5 -343t326.5 -117q206 0 327.5 117.5t121.5 342.5q0 226 -122.5 346t-326.5 120q-203 0 -325.5 -120t-122.5 -346zM321 528 q0 157 88.5 251.5t251.5 94.5q164 0 252.5 -94t88.5 -252q0 -154 -88.5 -247t-252.5 -93q-163 0 -251.5 93t-88.5 247zM429 528q0 -114 63 -175t169 -61q107 0 169.5 61t62.5 175q0 118 -62.5 180t-169.5 62q-106 0 -169 -62t-63 -180z" />
<glyph unicode="&#xe50;" horiz-adv-x="1321" d="M99 528q0 257 146 412t416 155t416.5 -155t146.5 -412q0 -255 -145.5 -408t-417.5 -153t-417 153.5t-145 407.5zM213 528q0 -226 121.5 -343t326.5 -117q206 0 327.5 117.5t121.5 342.5q0 226 -122.5 346t-326.5 120q-203 0 -325.5 -120t-122.5 -346z" />
<glyph unicode="&#xe51;" horiz-adv-x="1330" d="M99 546q0 246 146 381t418 135q292 0 430.5 -155t138.5 -400q0 -275 -162.5 -434t-512.5 -210l-23 104q293 44 435.5 167t142.5 373q0 210 -104.5 331.5t-344.5 121.5q-451 0 -450 -414q0 -132 67.5 -205t177.5 -73q49 0 83 7.5t69 27.5q-141 25 -141 174q0 100 48.5 145 t147.5 45q106 0 151 -46t45 -146q0 -135 -105.5 -222t-288.5 -87q-165 0 -266.5 100.5t-101.5 279.5zM557 477q0 -55 23.5 -78t82.5 -23q61 0 85 24t24 77q0 60 -24 81.5t-85 21.5t-83.5 -21t-22.5 -82z" />
<glyph unicode="&#xe52;" horiz-adv-x="1459" d="M144 403v800h120v-800q0 -166 113.5 -253.5t329.5 -87.5q224 0 357 89.5t133 251.5v384q0 125 -30 168t-112 43q-61 0 -101 -43t-40 -119v-42h-118v42q0 78 -36 120t-99 42q-82 0 -114 -54.5t-32 -182.5v-37q34 13 80 13q194 0 194 -191q0 -101 -48.5 -145.5 t-147.5 -44.5q-106 0 -151.5 49t-45.5 157v206q0 327 250 327q168 0 210 -141q51 141 210 141q141 0 196 -70.5t55 -243.5v-378q0 -127 -75 -225t-213 -154.5t-322 -56.5q-272 0 -417.5 119t-145.5 317zM489 546q0 -59 23.5 -80t82.5 -21q62 0 84 21t22 80q0 56 -23.5 79 t-82.5 23q-57 0 -81.5 -23t-24.5 -79z" />
<glyph unicode="&#xe53;" horiz-adv-x="1340" d="M144 173v595q0 164 74 245.5t209 81.5q92 0 157.5 -35.5t86.5 -105.5q50 141 243 141q148 0 215.5 -79t67.5 -248v-768h-120v764q0 126 -38.5 180t-131.5 54q-80 0 -129.5 -43t-49.5 -119v-321h-118v321q0 78 -44 120t-123 42q-91 0 -135 -56.5t-44 -180.5v-427 q33 13 78 14q195 0 196 -191q0 -102 -48.5 -146t-149.5 -44q-106 0 -151 48.5t-45 157.5zM237 157q0 -60 23 -81t82 -21q63 0 85 21t22 81q0 55 -23 78.5t-84 23.5q-57 0 -81 -23t-24 -79z" />
<glyph unicode="&#xe54;" horiz-adv-x="1332" d="M99 372v232q0 201 117.5 329.5t349.5 128.5h303q131 0 197.5 25t136.5 107l76 -55q-68 -95 -159.5 -133.5t-250.5 -38.5h-294q-182 0 -269 -95t-87 -268v-228q0 -131 58.5 -205t178.5 -74h268q-43 40 -59.5 96t-16.5 134v197q0 108 45.5 157t151.5 49q99 0 148 -44 t49 -146q0 -190 -195 -190q-47 0 -79 13v-29q0 -124 44 -180.5t135 -56.5h227v-97h-725q-166 0 -258 100.5t-92 271.5zM741 540q0 -53 24 -77.5t82 -24.5q60 0 83.5 23.5t23.5 78.5q0 59 -22.5 80.5t-84.5 21.5q-60 0 -83 -21.5t-23 -80.5z" />
<glyph unicode="&#xe55;" horiz-adv-x="1332" d="M99 372v232q0 201 117.5 329.5t349.5 128.5q-13 27 -13 71q0 101 47.5 145.5t149.5 44.5q99 0 148 -44.5t49 -145.5q0 -44 -10 -71q91 4 148 32.5t118 99.5l76 -55q-68 -95 -159.5 -133.5t-250.5 -38.5h-294q-182 0 -269 -95t-87 -268v-228q0 -131 58.5 -205t178.5 -74 h268q-43 40 -59.5 96t-16.5 134v197q0 108 45.5 157t151.5 49q99 0 148 -44t49 -146q0 -190 -195 -190q-47 0 -79 13v-29q0 -124 44 -180.5t135 -56.5h227v-97h-725q-166 0 -258 100.5t-92 271.5zM646 1133q0 -53 24 -78t82 -25q60 0 83.5 23.5t23.5 79.5q0 59 -22.5 80 t-84.5 21q-60 0 -83 -21t-23 -80zM741 540q0 -53 24 -77.5t82 -24.5q60 0 83.5 23.5t23.5 78.5q0 59 -22.5 80.5t-84.5 21.5q-60 0 -83 -21.5t-23 -80.5z" />
<glyph unicode="&#xe56;" horiz-adv-x="1298" d="M55 1194l107 38l132 -299q143 162 407 162q259 0 389 -162.5t130 -423.5q0 -248 -140 -395t-407 -147q-202 0 -340.5 79.5t-138.5 229.5q0 100 44.5 146.5t150.5 46.5q99 0 148 -45.5t49 -144.5q0 -148 -130 -173q73 -38 217 -38q215 0 325 114t110 327q0 225 -103.5 355 t-303.5 130q-241 0 -361 -173h-119zM283 279q0 -53 24.5 -77.5t83.5 -24.5q60 0 83.5 23.5t23.5 78.5q0 59 -22 80t-85 21q-59 0 -83.5 -21t-24.5 -80z" />
<glyph unicode="&#xe57;" horiz-adv-x="1705" d="M144 173v595q0 162 71.5 244.5t200.5 82.5q190 0 232 -141q51 141 232 141q272 0 272 -327v-673q120 0 183 38t85 109.5t22 190.5v770h120v-770q0 -211 -90 -322t-320 -111h-120v764q0 128 -32.5 181t-125.5 53q-78 0 -123.5 -42t-45.5 -120v-321h-116v321q0 78 -40 120 t-118 42q-89 0 -128 -55.5t-39 -181.5v-427q33 13 78 14q195 0 196 -191q0 -102 -48.5 -146t-149.5 -44q-106 0 -151 48.5t-45 157.5zM237 157q0 -60 23 -81t82 -21q63 0 85 21t22 81q0 55 -23 78.5t-84 23.5q-57 0 -81 -23t-24 -79z" />
<glyph unicode="&#xe58;" horiz-adv-x="1260" d="M99 294v332q0 197 107.5 316.5t315.5 119.5h263q131 0 197.5 25t136.5 107l75 -55q-68 -95 -159 -133.5t-250 -38.5h-254q-150 0 -231 -87.5t-81 -253.5v-328q0 -126 38.5 -180t131.5 -54q80 0 129.5 43t49.5 119v122h118v-122q0 -78 44 -120t124 -42q91 0 134.5 56.5 t43.5 180.5v73q-33 -13 -78 -13q-195 0 -196 190q0 101 49 145.5t149 44.5q106 0 151 -48.5t45 -156.5v-242q0 -164 -74 -245.5t-209 -81.5q-92 0 -157.5 35.5t-85.5 105.5q-50 -141 -244 -141q-148 0 -215.5 78.5t-67.5 248.5zM847 551q0 -55 23 -78.5t84 -23.5 q59 0 82 24.5t23 77.5q0 59 -23 80t-82 21q-62 0 -84.5 -21t-22.5 -80z" />
<glyph unicode="&#xe59;" horiz-adv-x="1412" d="M144 173v595q0 168 71.5 247.5t227.5 79.5q86 0 136 -33.5t82 -90.5q29 59 85 91.5t130 32.5q108 0 167 -60t59 -159q75 0 115.5 60t40.5 159h100q0 -137 -69 -225.5t-198 -88.5h-80q0 124 -32 170.5t-114 46.5q-57 0 -100.5 -37t-43.5 -98q0 -20 3 -31l158 -832h-116 l-156 816q-17 91 -51.5 136.5t-115.5 45.5q-100 0 -139.5 -54.5t-39.5 -182.5v-427q33 13 78 14q195 0 196 -191q0 -102 -48.5 -146t-149.5 -44q-106 0 -151 48.5t-45 157.5zM237 157q0 -60 23 -81t82 -21q63 0 85 21t22 81q0 55 -23 78.5t-84 23.5q-57 0 -81 -23t-24 -79z " />
<glyph unicode="&#xe5a;" horiz-adv-x="1564" d="M99 954q0 249 197 249q99 0 148.5 -44t49.5 -146q0 -190 -196 -190q-51 0 -77 17q18 -59 92 -87.5t160 -28.5q164 0 242.5 104.5t78.5 341.5h118v-444q27 -2 72 -2q164 0 242.5 104.5t78.5 341.5h117v-1170h-120v783q-42 -73 -124.5 -113.5t-193.5 -40.5q-49 0 -72 2 v-631h-120v783q-42 -73 -125 -113.5t-194 -40.5q-159 0 -266.5 78t-107.5 247zM192 1013q0 -53 24.5 -77t81.5 -24q61 0 84 23t23 78q0 59 -22 80.5t-85 21.5q-55 0 -80.5 -24.5t-25.5 -77.5z" />
<glyph unicode="&#xe5b;" horiz-adv-x="2520" d="M99 507q0 254 118.5 404.5t406.5 150.5q245 0 360 -116.5t115 -321.5q0 -179 -93.5 -285.5t-239.5 -106.5q-173 0 -267 77.5t-94 209.5q0 100 44.5 146.5t149.5 46.5q100 0 148.5 -45.5t48.5 -144.5q0 -153 -157 -180q53 -17 138 -17q97 0 153 81t56 218q0 175 -87 255.5 t-275 80.5q-234 0 -319.5 -117t-85.5 -336q0 -204 129 -320t355 -116q243 0 384 126t141 375q0 178 50.5 253.5t183.5 75.5q122 0 169 -70t47 -189v-100q0 -93 6 -135t24.5 -60t60.5 -18q57 0 78.5 39t21.5 123v87q0 141 48 195t158 54q103 0 145.5 -63t42.5 -180v-33h204 v-97h-321v114q0 89 -13.5 125.5t-59.5 36.5q-40 0 -59 -15.5t-23.5 -50.5t-4.5 -111v-62q0 -119 -47.5 -189t-167.5 -70t-164.5 68.5t-44.5 239.5v102q0 84 -20 122t-82 38q-46 0 -70.5 -20.5t-33.5 -70.5t-9 -145q0 -171 -71 -306.5t-215.5 -214t-357.5 -78.5 q-194 0 -330 69.5t-205 192.5t-69 278zM494 522q0 -53 24 -77.5t84 -24.5q59 0 82 23.5t23 78.5q0 59 -22 80.5t-83 21.5q-60 0 -84 -21t-24 -81z" />
<glyph unicode="&#x1e0c;" horiz-adv-x="1370" d="M99 0v95h55q43 0 59.5 18t16.5 62v1081q0 44 -16.5 62t-59.5 18h-55v95h585q301 0 444.5 -191t143.5 -530q0 -332 -148.5 -521t-439.5 -189h-585zM348 95h325q251 0 368.5 154t117.5 461q0 314 -116 470t-370 156h-325v-1241zM522 -141h151v-151h-151v151z" />
<glyph unicode="&#x1e0d;" horiz-adv-x="1288" d="M99 522q0 267 124.5 420t340.5 153q146 0 241.5 -46.5t156.5 -155.5v370q0 61 -15.5 85t-70.5 24h-47v92h250v-1291q0 -49 16.5 -69t54.5 -20h62v-84h-232l-22 168q-129 -198 -396 -199q-217 0 -340 144t-123 409zM213 522q0 -228 91.5 -344t273.5 -116q110 0 199.5 53 t140.5 148.5t51 213.5v125q0 183 -105.5 290.5t-270.5 107.5q-380 0 -380 -478zM589 -141h150v-151h-150v151z" />
<glyph unicode="&#x1e0e;" horiz-adv-x="1370" d="M99 0v95h55q43 0 59.5 18t16.5 62v1081q0 44 -16.5 62t-59.5 18h-55v95h585q301 0 444.5 -191t143.5 -530q0 -332 -148.5 -521t-439.5 -189h-585zM312 -168h600v-100h-600v100zM348 95h325q251 0 368.5 154t117.5 461q0 314 -116 470t-370 156h-325v-1241z" />
<glyph unicode="&#x1e0f;" horiz-adv-x="1288" d="M99 522q0 267 124.5 420t340.5 153q146 0 241.5 -46.5t156.5 -155.5v370q0 61 -15.5 85t-70.5 24h-47v92h250v-1291q0 -49 16.5 -69t54.5 -20h62v-84h-232l-22 168q-129 -198 -396 -199q-217 0 -340 144t-123 409zM213 522q0 -228 91.5 -344t273.5 -116q110 0 199.5 53 t140.5 148.5t51 213.5v125q0 183 -105.5 290.5t-270.5 107.5q-380 0 -380 -478zM409 -168h600v-100h-600v100z" />
<glyph unicode="&#x1e20;" horiz-adv-x="1334" d="M99 710q0 340 165 547t494 207q279 0 436 -113v-172h-117v121q-118 62 -319 63q-263 0 -404 -171.5t-141 -481.5q0 -302 149 -472t410 -170q108 0 190 15.5t157 51.5v484h-338v100h456v-630q-102 -64 -212.5 -93t-252.5 -29q-217 0 -368.5 95t-228 263.5t-76.5 384.5z M454 1599v100h599v-100h-599z" />
<glyph unicode="&#x1e21;" horiz-adv-x="1288" d="M99 542q0 264 128.5 408.5t347.5 144.5q126 0 221 -47.5t162 -152.5l22 167h232v-85h-62q-38 0 -54.5 -20t-16.5 -68v-900q0 -194 -107 -313t-286 -119q-131 0 -218.5 31.5t-166.5 99.5v144h115v-96q48 -42 110.5 -59t150.5 -17q137 0 211 84.5t74 236.5v190 q-61 -108 -156.5 -155t-241.5 -47q-217 0 -341 152.5t-124 420.5zM213 542q0 -477 380 -478q165 0 270.5 107.5t105.5 290.5v124q0 122 -47.5 215.5t-134 147t-196.5 53.5q-184 0 -281 -116t-97 -344zM319 1214v100h599v-100h-599z" />
<glyph unicode="&#x1e24;" horiz-adv-x="1494" d="M99 0v99h78q42 0 58.5 18t16.5 62v1073q0 44 -16.5 62t-58.5 18h-78v99h423v-99h-77q-42 0 -59 -18t-17 -62v-484h756v484q0 44 -16 62t-58 18h-78v99h422v-99h-76q-42 0 -59 -18t-17 -62v-1073q0 -44 17 -62t59 -18h76v-99h-422v99h78q42 0 58 18t16 62v488h-756v-488 q0 -44 17 -62t59 -18h77v-99h-423zM673 -141h150v-151h-150v151z" />
<glyph unicode="&#x1e25;" horiz-adv-x="1321" d="M99 0v99h78q42 0 58.5 18t16.5 62v1106q0 44 -16.5 62t-58.5 18h-57v99h249v-535q74 86 167 126t220 40q162 0 249.5 -95t87.5 -268v-553q0 -44 16 -62t58 -18h78v-99h-272v730q0 139 -61 204.5t-188 65.5q-93 0 -175 -40t-131 -114t-49 -171v-496q0 -44 17 -62t59 -18 h77v-99h-423zM624 -141h150v-151h-150v151z" />
<glyph unicode="&#x1e2a;" horiz-adv-x="1494" d="M99 0v99h78q42 0 58.5 18t16.5 62v1073q0 44 -16.5 62t-58.5 18h-78v99h423v-99h-77q-42 0 -59 -18t-17 -62v-484h756v484q0 44 -16 62t-58 18h-78v99h422v-99h-76q-42 0 -59 -18t-17 -62v-1073q0 -44 17 -62t59 -18h76v-99h-422v99h78q42 0 58 18t16 62v488h-756v-488 q0 -44 17 -62t59 -18h77v-99h-423zM438 -110h96q0 -93 58 -143t155 -50q98 0 156.5 50t58.5 143h95q0 -131 -87.5 -210t-222.5 -79t-222 79t-87 210z" />
<glyph unicode="&#x1e2b;" horiz-adv-x="1321" d="M99 0v99h78q42 0 58.5 18t16.5 62v1106q0 44 -16.5 62t-58.5 18h-57v99h249v-535q74 86 167 126t220 40q162 0 249.5 -95t87.5 -268v-553q0 -44 16 -62t58 -18h78v-99h-272v730q0 139 -61 204.5t-188 65.5q-93 0 -175 -40t-131 -114t-49 -171v-496q0 -44 17 -62t59 -18 h77v-99h-423zM418 -110h95q0 -93 59 -143t156 -50t155.5 50t58.5 143h96q0 -131 -87.5 -210t-222.5 -79t-222.5 79t-87.5 210z" />
<glyph unicode="&#x1e36;" horiz-adv-x="1112" d="M99 0v95h47q48 0 66 18t18 62v1081q0 44 -16.5 62t-59.5 18h-55v95h378v-95h-55q-42 0 -58 -18t-16 -62v-1161h545q44 0 62 17t18 59v55h106v-226h-980zM515 -141h150v-151h-150v151z" />
<glyph unicode="&#x1e37;" horiz-adv-x="599" d="M99 0v99h78q42 0 58.5 18t16.5 62v1106q0 44 -16.5 62t-58.5 18h-78v99h270v-1285q0 -44 17 -62t59 -18h77v-99h-423zM234 -141h150v-151h-150v151z" />
<glyph unicode="&#x1e38;" horiz-adv-x="1112" d="M82 1599v100h599v-100h-599zM99 0v95h47q48 0 66 18t18 62v1081q0 44 -16.5 62t-59.5 18h-55v95h378v-95h-55q-42 0 -58 -18t-16 -62v-1161h545q44 0 62 17t18 59v55h106v-226h-980zM515 -141h150v-151h-150v151z" />
<glyph unicode="&#x1e39;" horiz-adv-x="599" d="M-2 1599v100h599v-100h-599zM99 0v99h78q42 0 58.5 18t16.5 62v1106q0 44 -16.5 62t-58.5 18h-78v99h270v-1285q0 -44 17 -62t59 -18h77v-99h-423zM230 -141h150v-151h-150v151z" />
<glyph unicode="&#x1e3a;" horiz-adv-x="1112" d="M99 0v95h47q48 0 66 18t18 62v1081q0 44 -16.5 62t-59.5 18h-55v95h378v-95h-55q-42 0 -58 -18t-16 -62v-1161h545q44 0 62 17t18 59v55h106v-226h-980zM292 -168h599v-100h-599v100z" />
<glyph unicode="&#x1e3b;" horiz-adv-x="599" d="M15 -168h600v-100h-600v100zM99 0v99h78q42 0 58.5 18t16.5 62v1106q0 44 -16.5 62t-58.5 18h-78v99h270v-1285q0 -44 17 -62t59 -18h77v-99h-423z" />
<glyph unicode="&#x1e42;" horiz-adv-x="1716" d="M99 0v99h78q42 0 58.5 18t16.5 62v1073q0 44 -16.5 62t-58.5 18h-78v99h304l456 -1075l455 1075h303v-99h-78q-42 0 -58.5 -18t-16.5 -62v-1073q0 -44 16.5 -62t58.5 -18h78v-99h-423v99h78q42 0 58.5 18t16.5 62v1068l-435 -1026h-107l-436 1026v-1068q0 -44 17 -62 t59 -18h77v-99h-423zM783 -141h150v-151h-150v151z" />
<glyph unicode="&#x1e43;" horiz-adv-x="1861" d="M99 0v99h78q42 0 58.5 18t16.5 62v703q0 45 -16.5 62.5t-58.5 17.5h-57v100h220l14 -150q55 92 134.5 137.5t208.5 45.5q103 0 170.5 -50.5t92.5 -143.5q51 97 132.5 145.5t216.5 48.5q171 0 247 -88.5t76 -265.5v-562q0 -44 16.5 -62t58.5 -18h78v-99h-272v743 q0 137 -52 194t-178 57q-128 0 -206.5 -76t-78.5 -215v-524q0 -44 16 -62t58 -18h78v-99h-265v732q0 133 -49 197.5t-163 64.5q-142 0 -223 -83.5t-81 -235.5v-496q0 -44 17 -62t59 -18h77v-99h-423zM885 -141h150v-151h-150v151z" />
<glyph unicode="&#x1e44;" horiz-adv-x="1516" d="M99 0v99h78q42 0 58.5 18t16.5 62v1073q0 44 -16.5 62t-58.5 18h-78v99h260l789 -1223v1044q0 44 -16.5 62t-59.5 18h-76v99h422v-99h-78q-42 0 -58.5 -18t-16.5 -62v-1252h-106l-790 1224v-1045q0 -44 17 -62t59 -18h77v-99h-423zM684 1599v151h150v-151h-150z" />
<glyph unicode="&#x1e45;" horiz-adv-x="1319" d="M99 0v99h78q42 0 58.5 18t16.5 62v703q0 45 -16.5 62.5t-58.5 17.5h-57v100h220l14 -153q78 100 170.5 143t231.5 43q168 0 251.5 -94t83.5 -269v-553q0 -44 16 -62t58 -18h78v-99h-270v730q0 139 -57 201.5t-192 62.5q-95 0 -176 -39t-130 -111t-49 -169v-496 q0 -44 17 -62t59 -18h77v-99h-423zM644 1214v151h150v-151h-150z" />
<glyph unicode="&#x1e46;" horiz-adv-x="1516" d="M99 0v99h78q42 0 58.5 18t16.5 62v1073q0 44 -16.5 62t-58.5 18h-78v99h260l789 -1223v1044q0 44 -16.5 62t-59.5 18h-76v99h422v-99h-78q-42 0 -58.5 -18t-16.5 -62v-1252h-106l-790 1224v-1045q0 -44 17 -62t59 -18h77v-99h-423zM694 -141h151v-151h-151v151z" />
<glyph unicode="&#x1e47;" horiz-adv-x="1319" d="M99 0v99h78q42 0 58.5 18t16.5 62v703q0 45 -16.5 62.5t-58.5 17.5h-57v100h220l14 -153q78 100 170.5 143t231.5 43q168 0 251.5 -94t83.5 -269v-553q0 -44 16 -62t58 -18h78v-99h-270v730q0 139 -57 201.5t-192 62.5q-95 0 -176 -39t-130 -111t-49 -169v-496 q0 -44 17 -62t59 -18h77v-99h-423zM646 -141h150v-151h-150v151z" />
<glyph unicode="&#x1e48;" horiz-adv-x="1516" d="M99 0v99h78q42 0 58.5 18t16.5 62v1073q0 44 -16.5 62t-58.5 18h-78v99h260l789 -1223v1044q0 44 -16.5 62t-59.5 18h-76v99h422v-99h-78q-42 0 -58.5 -18t-16.5 -62v-1252h-106l-790 1224v-1045q0 -44 17 -62t59 -18h77v-99h-423zM449 -168h600v-100h-600v100z" />
<glyph unicode="&#x1e49;" horiz-adv-x="1319" d="M99 0v99h78q42 0 58.5 18t16.5 62v703q0 45 -16.5 62.5t-58.5 17.5h-57v100h220l14 -153q78 100 170.5 143t231.5 43q168 0 251.5 -94t83.5 -269v-553q0 -44 16 -62t58 -18h78v-99h-270v730q0 139 -57 201.5t-192 62.5q-95 0 -176 -39t-130 -111t-49 -169v-496 q0 -44 17 -62t59 -18h77v-99h-423zM356 -168h600v-100h-600v100z" />
<glyph unicode="&#x1e5a;" horiz-adv-x="1346" d="M99 0v99h69q49 0 66.5 18t17.5 62v1073q0 44 -17.5 62t-66.5 18h-69v99h675q201 0 314 -103.5t113 -287.5q0 -177 -105 -289t-294 -120l238 -454q22 -44 52.5 -61t77.5 -17h77v-99h-420v99h129l-279 532h-308v-452q0 -44 18 -62t67 -18h68v-99h-423zM369 730h387 q164 0 248.5 81.5t84.5 228.5q0 152 -80 222t-253 70h-387v-602zM624 -141h150v-151h-150v151z" />
<glyph unicode="&#x1e5b;" horiz-adv-x="808" d="M99 0v99h78q42 0 58.5 18t16.5 62v703q0 45 -16.5 62.5t-58.5 17.5h-57v100h205l34 -133q46 78 115.5 105.5t182.5 27.5h75v-100h-71q-157 0 -224.5 -69.5t-67.5 -215.5v-498q0 -44 17 -62t59 -18h77v-99h-423zM237 -141h150v-151h-150v151z" />
<glyph unicode="&#x1e5c;" horiz-adv-x="1346" d="M99 0v99h69q49 0 66.5 18t17.5 62v1073q0 44 -17.5 62t-66.5 18h-69v99h675q201 0 314 -103.5t113 -287.5q0 -177 -105 -289t-294 -120l238 -454q22 -44 52.5 -61t77.5 -17h77v-99h-420v99h129l-279 532h-308v-452q0 -44 18 -62t67 -18h68v-99h-423zM369 730h387 q164 0 248.5 81.5t84.5 228.5q0 152 -80 222t-253 70h-387v-602zM378 1599v100h599v-100h-599zM624 -141h150v-151h-150v151z" />
<glyph unicode="&#x1e5d;" horiz-adv-x="808" d="M99 0v99h78q42 0 58.5 18t16.5 62v703q0 45 -16.5 62.5t-58.5 17.5h-57v100h205l34 -133q46 78 115.5 105.5t182.5 27.5h75v-100h-71q-157 0 -224.5 -69.5t-67.5 -215.5v-498q0 -44 17 -62t59 -18h77v-99h-423zM122 1214v100h599v-100h-599zM237 -141h150v-151h-150v151z " />
<glyph unicode="&#x1e5e;" horiz-adv-x="1346" d="M99 0v99h69q49 0 66.5 18t17.5 62v1073q0 44 -17.5 62t-66.5 18h-69v99h675q201 0 314 -103.5t113 -287.5q0 -177 -105 -289t-294 -120l238 -454q22 -44 52.5 -61t77.5 -17h77v-99h-420v99h129l-279 532h-308v-452q0 -44 18 -62t67 -18h68v-99h-423zM369 730h387 q164 0 248.5 81.5t84.5 228.5q0 152 -80 222t-253 70h-387v-602zM422 -168h600v-100h-600v100z" />
<glyph unicode="&#x1e5f;" horiz-adv-x="851" d="M99 -168h600v-100h-600v100zM141 0v99h78q42 0 58.5 18t16.5 62v703q0 45 -16.5 62.5t-58.5 17.5h-57v100h205l34 -133q46 78 115.5 105.5t182.5 27.5h75v-100h-71q-157 0 -224.5 -69.5t-67.5 -215.5v-498q0 -44 17 -62t59 -18h77v-99h-423z" />
<glyph unicode="&#x1e60;" horiz-adv-x="1149" d="M99 112v177h122v-125q64 -42 169.5 -69t206.5 -27q167 0 253.5 71.5t86.5 198.5q0 89 -40.5 147.5t-112.5 99.5t-191 86q-169 61 -269 115t-156 129.5t-56 186.5q0 179 130 270.5t336 91.5q124 0 245 -34.5t199 -87.5v-177h-121v127q-58 33 -144 52t-182 19 q-162 0 -255.5 -63t-93.5 -198q0 -89 50.5 -147t118 -89.5t217.5 -91.5q148 -57 236.5 -107t145.5 -129.5t57 -199.5q0 -164 -121.5 -267.5t-340.5 -103.5q-131 0 -265 41t-225 104zM513 1599v151h150v-151h-150z" />
<glyph unicode="&#x1e61;" horiz-adv-x="983" d="M99 82v155h118v-102q118 -66 294 -67q135 0 198 42t63 135q0 82 -59 130.5t-206 104.5q-159 59 -232.5 94.5t-119 93.5t-45.5 151q0 135 103 205.5t281 70.5q105 0 200 -28.5t165 -78.5v-154h-118v101q-51 29 -110 44t-140 15q-137 0 -202 -40t-65 -135q0 -85 54 -126 t167 -78q53 -18 79 -29q17 -6 129.5 -50.5t172 -117.5t59.5 -173q0 -133 -95.5 -205.5t-285.5 -72.5q-113 0 -218 31t-187 84zM420 1214v151h150v-151h-150z" />
<glyph unicode="&#x1e62;" horiz-adv-x="1149" d="M99 112v177h122v-125q64 -42 169.5 -69t206.5 -27q167 0 253.5 71.5t86.5 198.5q0 89 -40.5 147.5t-112.5 99.5t-191 86q-169 61 -269 115t-156 129.5t-56 186.5q0 179 130 270.5t336 91.5q124 0 245 -34.5t199 -87.5v-177h-121v127q-58 33 -144 52t-182 19 q-162 0 -255.5 -63t-93.5 -198q0 -89 50.5 -147t118 -89.5t217.5 -91.5q148 -57 236.5 -107t145.5 -129.5t57 -199.5q0 -164 -121.5 -267.5t-340.5 -103.5q-131 0 -265 41t-225 104zM517 -141h150v-151h-150v151z" />
<glyph unicode="&#x1e63;" horiz-adv-x="983" d="M99 82v155h118v-102q118 -66 294 -67q135 0 198 42t63 135q0 82 -59 130.5t-206 104.5q-159 59 -232.5 94.5t-119 93.5t-45.5 151q0 135 103 205.5t281 70.5q105 0 200 -28.5t165 -78.5v-154h-118v101q-51 29 -110 44t-140 15q-137 0 -202 -40t-65 -135q0 -85 54 -126 t167 -78q53 -18 79 -29q17 -6 129.5 -50.5t172 -117.5t59.5 -173q0 -133 -95.5 -205.5t-285.5 -72.5q-113 0 -218 31t-187 84zM420 -141h150v-151h-150v151z" />
<glyph unicode="&#x1e6c;" horiz-adv-x="1165" d="M78 1203v228h1011v-228h-107v53q0 42 -17.5 59t-61.5 17h-261v-1153q0 -44 17.5 -62t66.5 -18h68v-99h-422v99h69q48 0 65.5 18t17.5 62v1153h-260q-45 0 -62.5 -17t-17.5 -59v-53h-106zM507 -141h150v-151h-150v151z" />
<glyph unicode="&#x1e6d;" horiz-adv-x="882" d="M78 962v100h181v259l117 55v-314h348v-100h-348v-664q0 -122 43 -176t136 -54q62 0 104 10.5t75 35.5v97h115v-131q-64 -59 -132.5 -86t-170.5 -27q-137 0 -212 85t-75 249v661h-181zM471 -141h150v-151h-150v151z" />
<glyph unicode="&#x1e6e;" horiz-adv-x="1165" d="M78 1203v228h1011v-228h-107v53q0 42 -17.5 59t-61.5 17h-261v-1153q0 -44 17.5 -62t66.5 -18h68v-99h-422v99h69q48 0 65.5 18t17.5 62v1153h-260q-45 0 -62.5 -17t-17.5 -59v-53h-106zM283 -168h599v-100h-599v100z" />
<glyph unicode="&#x1e6f;" horiz-adv-x="882" d="M78 962v100h181v259l117 55v-314h348v-100h-348v-664q0 -122 43 -176t136 -54q62 0 104 10.5t75 35.5v97h115v-131q-64 -59 -132.5 -86t-170.5 -27q-137 0 -212 85t-75 249v661h-181zM266 -168h599v-100h-599v100z" />
<glyph unicode="&#x1e80;" horiz-adv-x="1961" d="M99 1332v99h257l265 -1239l299 998h122l298 -998l268 1239h254v-99h-68q-53 0 -75 -18t-33 -62l-284 -1252h-106l-316 1035l-313 -1035h-105l-286 1252q-10 44 -32.5 62t-75.5 18h-69zM657 1948h175l188 -393h-106z" />
<glyph unicode="&#x1e81;" horiz-adv-x="1716" d="M78 967v95h223l227 -967l274 872h110l272 -872l232 967h223v-95h-62q-44 0 -60.5 -9t-28.5 -40l-218 -918h-158l-253 812l-255 -812h-157l-221 918q-11 31 -26.5 40t-62.5 9h-59zM557 1564h175l188 -394h-106z" />
<glyph unicode="&#x1e82;" horiz-adv-x="1961" d="M99 1332v99h257l265 -1239l299 998h122l298 -998l268 1239h254v-99h-68q-53 0 -75 -18t-33 -62l-284 -1252h-106l-316 1035l-313 -1035h-105l-286 1252q-10 44 -32.5 62t-75.5 18h-69zM942 1555l189 393h174l-256 -393h-107z" />
<glyph unicode="&#x1e83;" horiz-adv-x="1716" d="M78 967v95h223l227 -967l274 872h110l272 -872l232 967h223v-95h-62q-44 0 -60.5 -9t-28.5 -40l-218 -918h-158l-253 812l-255 -812h-157l-221 918q-11 31 -26.5 40t-62.5 9h-59zM798 1170l188 394h175l-256 -394h-107z" />
<glyph unicode="&#x1e84;" horiz-adv-x="1961" d="M99 1332v99h257l265 -1239l299 998h122l298 -998l268 1239h254v-99h-68q-53 0 -75 -18t-33 -62l-284 -1252h-106l-316 1035l-313 -1035h-105l-286 1252q-10 44 -32.5 62t-75.5 18h-69zM699 1599v151h150v-151h-150zM1117 1599v151h151v-151h-151z" />
<glyph unicode="&#x1e85;" horiz-adv-x="1716" d="M78 967v95h223l227 -967l274 872h110l272 -872l232 967h223v-95h-62q-44 0 -60.5 -9t-28.5 -40l-218 -918h-158l-253 812l-255 -812h-157l-221 918q-11 31 -26.5 40t-62.5 9h-59zM575 1214v151h151v-151h-151zM994 1214v151h150v-151h-150z" />
<glyph unicode="&#x1e8e;" horiz-adv-x="1467" d="M99 1336v95h378v-95h-55q-48 0 -48 -29q0 -20 17 -51l343 -637l343 637q17 31 18 51q0 29 -48 29h-56v95h378v-95h-55q-40 0 -69 -20t-51 -60l-400 -741v-340q0 -44 16.5 -62t58.5 -18h55v-95h-378v95h56q42 0 58.5 18t16.5 62v340l-403 741q-21 40 -50.5 60t-69.5 20 h-55zM659 1555v150h151v-150h-151z" />
<glyph unicode="&#x1e8f;" horiz-adv-x="1211" d="M78 962v100h270v-686q0 -270 269 -270q145 0 239.5 89.5t94.5 249.5v437q0 45 -16.5 62.5t-58.5 17.5h-78v100h270v-1073q0 -194 -107 -313t-290 -119q-131 0 -221.5 38t-164.5 111v144h116v-95q88 -95 260 -95q146 0 218 83.5t72 237.5v196q-68 -91 -150 -128.5 t-217 -37.5q-170 0 -262 95t-92 268v508q0 45 -16.5 62.5t-59.5 17.5h-76zM540 1214v151h150v-151h-150z" />
<glyph unicode="&#x1e92;" horiz-adv-x="1226" d="M99 0v95l874 1241h-650q-44 0 -62 -17t-18 -59v-55h-106v226h967v-95l-874 -1241h712q44 0 62 17t18 59v55h106v-226h-1029zM557 -141h150v-151h-150v151z" />
<glyph unicode="&#x1e93;" horiz-adv-x="1072" d="M99 0v95l720 872h-496q-44 0 -62 -17t-18 -59v-55h-106v226h812v-95l-719 -872h557q45 0 62.5 17t17.5 59v55h106v-226h-874zM464 -141h151v-151h-151v151z" />
<glyph unicode="&#x1e97;" horiz-adv-x="882" d="M78 962v100h181v259l117 55v-314h348v-100h-348v-664q0 -122 43 -176t136 -54q62 0 104 10.5t75 35.5v97h115v-131q-64 -59 -132.5 -86t-170.5 -27q-137 0 -212 85t-75 249v661h-181zM91 1431v150h150v-150h-150zM509 1431v150h150v-150h-150z" />
<glyph unicode="&#x1e9e;" horiz-adv-x="1448" d="M78 0v95h55q42 0 58.5 18t16.5 62v836q0 234 127 374.5t406 140.5q148 0 255.5 -46.5t162.5 -123.5t55 -170l-313 -378h48q209 0 304.5 -108.5t95.5 -305.5q0 -188 -107 -307.5t-313 -119.5q-205 0 -343 79l47 89q73 -38 140 -52.5t156 -14.5q152 0 230 89.5t78 236.5 q0 175 -73 244t-233 69h-192v85l352 424q0 49 -42 98t-122 80t-190 31q-215 0 -313.5 -107.5t-98.5 -317.5v-1000h-247z" />
<glyph unicode="&#x1ea0;" horiz-adv-x="1600" d="M99 0v99h78q91 0 119 80l451 1252h109l449 -1252q29 -80 120 -80h77v-99h-411v99h127l-129 363h-576l-131 -363h129v-99h-412zM549 562h504l-253 703zM726 -141h150v-151h-150v151z" />
<glyph unicode="&#x1ea1;" horiz-adv-x="1144" d="M78 259q0 152 93 221t262 79l386 27v144q0 142 -56 203t-201 61q-91 0 -155.5 -13.5t-123.5 -43.5v-81h-117v135q173 104 391 104q205 0 291.5 -95t86.5 -272v-555q0 -49 17 -69t55 -20h61v-84h-212l-24 135q-125 -168 -416 -168q-164 0 -251 75.5t-87 216.5zM190 255 q0 -93 59 -140t194 -47q167 0 271.5 74.5t104.5 222.5v129l-388 -27q-137 -9 -189 -55.5t-52 -156.5zM469 -141h150v-151h-150v151z" />
<glyph unicode="&#x1ea2;" horiz-adv-x="1600" d="M99 0v99h78q91 0 119 80l451 1252h109l449 -1252q29 -80 120 -80h77v-99h-411v99h127l-129 363h-576l-131 -363h129v-99h-412zM549 562h504l-253 703zM650 1882v91q51 20 122 20q108 0 166 -42.5t58 -139.5q0 -139 -158 -172v-84h-97v146q91 0 125.5 27.5t34.5 82.5 q0 51 -33.5 70t-111.5 19q-49 0 -106 -18z" />
<glyph unicode="&#x1ea3;" horiz-adv-x="1144" d="M78 259q0 152 93 221t262 79l386 27v144q0 142 -56 203t-201 61q-91 0 -155.5 -13.5t-123.5 -43.5v-81h-117v135q173 104 391 104q205 0 291.5 -95t86.5 -272v-555q0 -49 17 -69t55 -20h61v-84h-212l-24 135q-125 -168 -416 -168q-164 0 -251 75.5t-87 216.5zM190 255 q0 -93 59 -140t194 -47q167 0 271.5 74.5t104.5 222.5v129l-388 -27q-137 -9 -189 -55.5t-52 -156.5zM409 1497v91q51 19 122 20q108 0 165.5 -42t57.5 -139q0 -140 -157 -173v-84h-97v147q91 0 125 27.5t34 82.5q0 50 -33 69t-111 19q-48 0 -106 -18z" />
<glyph unicode="&#x1ea4;" horiz-adv-x="1600" d="M99 0v99h78q91 0 119 80l451 1252h109l449 -1252q29 -80 120 -80h77v-99h-411v99h127l-129 363h-576l-131 -363h129v-99h-412zM504 1555l222 283h152l221 -283h-128l-171 218l-167 -218h-129zM549 562h504l-253 703zM1000 1787l139 254h175l-208 -254h-106z" />
<glyph unicode="&#x1ea5;" horiz-adv-x="1144" d="M78 259q0 152 93 221t262 79l386 27v144q0 142 -56 203t-201 61q-91 0 -155.5 -13.5t-123.5 -43.5v-81h-117v135q173 104 391 104q205 0 291.5 -95t86.5 -272v-555q0 -49 17 -69t55 -20h61v-84h-212l-24 135q-125 -168 -416 -168q-164 0 -251 75.5t-87 216.5zM190 255 q0 -93 59 -140t194 -47q167 0 271.5 74.5t104.5 222.5v129l-388 -27q-137 -9 -189 -55.5t-52 -156.5zM255 1170l220 284h154l220 -284h-128l-170 219l-169 -219h-127zM750 1402l139 255h175l-208 -255h-106z" />
<glyph unicode="&#x1ea6;" horiz-adv-x="1600" d="M99 0v99h78q91 0 119 80l451 1252h109l449 -1252q29 -80 120 -80h77v-99h-411v99h127l-129 363h-576l-131 -363h129v-99h-412zM287 2041h175l140 -254h-106zM502 1555l222 283h152l221 -283h-128l-169 218l-169 -218h-129zM549 562h504l-253 703z" />
<glyph unicode="&#x1ea7;" horiz-adv-x="1178" d="M55 1657h175l139 -255h-105zM110 259q0 152 93 221t264 79l384 27v144q0 142 -55 203t-201 61q-91 0 -155 -13.5t-124 -43.5v-81h-117v135q173 104 392 104q205 0 291.5 -95t86.5 -272v-555q0 -49 16.5 -69t54.5 -20h62v-84h-213l-24 135q-124 -168 -416 -168 q-164 0 -251.5 75.5t-87.5 216.5zM224 255q0 -93 58 -140t193 -47q169 0 272.5 74.5t103.5 222.5v129l-387 -27q-137 -9 -188.5 -55.5t-51.5 -156.5zM270 1170l221 284h153l221 -284h-128l-169 219l-169 -219h-129z" />
<glyph unicode="&#x1ea8;" horiz-adv-x="1600" d="M99 0v99h78q91 0 119 80l451 1252h109l449 -1252q29 -80 120 -80h77v-99h-411v99h127l-129 363h-576l-131 -363h129v-99h-412zM504 1555l222 283h152l221 -283h-128l-171 218l-167 -218h-129zM549 562h504l-253 703zM920 2057v91q51 20 122 20q84 0 126 -42.5t42 -116.5 q0 -68 -36.5 -102.5t-120.5 -46.5v-53h-97v115q95 0 127 17.5t32 69.5q0 66 -89 66q-49 0 -106 -18z" />
<glyph unicode="&#x1ea9;" horiz-adv-x="1144" d="M78 259q0 152 93 221t262 79l386 27v144q0 142 -56 203t-201 61q-91 0 -155.5 -13.5t-123.5 -43.5v-81h-117v135q173 104 391 104q205 0 291.5 -95t86.5 -272v-555q0 -49 17 -69t55 -20h61v-84h-212l-24 135q-125 -168 -416 -168q-164 0 -251 75.5t-87 216.5zM190 255 q0 -93 59 -140t194 -47q167 0 271.5 74.5t104.5 222.5v129l-388 -27q-137 -9 -189 -55.5t-52 -156.5zM232 1170l222 284h152l221 -284h-128l-171 219l-167 -219h-129zM648 1672v91q51 19 122 20q84 0 125.5 -42t41.5 -118q0 -68 -36 -102.5t-120 -45.5v-53h-97v115 q95 0 126.5 17.5t31.5 68.5q0 66 -88 67q-49 0 -106 -18z" />
<glyph unicode="&#x1eaa;" horiz-adv-x="1600" d="M99 0v99h78q91 0 119 80l451 1252h109l449 -1252q29 -80 120 -80h77v-99h-411v99h127l-129 363h-576l-131 -363h129v-99h-412zM485 1887q0 116 42.5 163t126.5 47q40 0 78 -15.5t89 -44.5q46 -27 72.5 -38t53.5 -11q38 0 52 26.5t14 82.5h104q0 -117 -43.5 -163.5 t-126.5 -46.5q-42 0 -77.5 14.5t-88.5 44.5q-49 27 -73 38t-54 11q-37 0 -51 -26.5t-14 -81.5h-104zM502 1555l222 283h152l221 -283h-128l-171 218l-167 -218h-129zM549 562h504l-253 703z" />
<glyph unicode="&#x1eab;" horiz-adv-x="1144" d="M78 259q0 152 93 221t262 79l386 27v144q0 142 -56 203t-201 61q-91 0 -155.5 -13.5t-123.5 -43.5v-81h-117v135q173 104 391 104q205 0 291.5 -95t86.5 -272v-555q0 -49 17 -69t55 -20h61v-84h-212l-24 135q-125 -168 -416 -168q-164 0 -251 75.5t-87 216.5zM190 255 q0 -93 59 -140t194 -47q167 0 271.5 74.5t104.5 222.5v129l-388 -27q-137 -9 -189 -55.5t-52 -156.5zM259 1502q0 117 43 163.5t127 46.5q40 0 77.5 -16t88.5 -44q47 -27 73 -37.5t53 -10.5q38 0 52 26.5t14 81.5h104q0 -118 -43 -164t-127 -46q-42 0 -77.5 14t-88.5 46 q-48 27 -72.5 37.5t-53.5 10.5q-38 0 -52 -26.5t-14 -81.5h-104zM276 1170l222 284h152l222 -284h-129l-171 219l-167 -219h-129z" />
<glyph unicode="&#x1eac;" horiz-adv-x="1600" d="M99 0v99h78q91 0 119 80l451 1252h109l449 -1252q29 -80 120 -80h77v-99h-411v99h127l-129 363h-576l-131 -363h129v-99h-412zM471 1555l255 393h152l255 -393h-129l-204 307l-201 -307h-128zM549 562h504l-253 703zM726 -141h150v-151h-150v151z" />
<glyph unicode="&#x1ead;" horiz-adv-x="1144" d="M78 259q0 152 93 221t262 79l386 27v144q0 142 -56 203t-201 61q-91 0 -155.5 -13.5t-123.5 -43.5v-81h-117v135q173 104 391 104q205 0 291.5 -95t86.5 -272v-555q0 -49 17 -69t55 -20h61v-84h-212l-24 135q-125 -168 -416 -168q-164 0 -251 75.5t-87 216.5zM190 255 q0 -93 59 -140t194 -47q167 0 271.5 74.5t104.5 222.5v129l-388 -27q-137 -9 -189 -55.5t-52 -156.5zM213 1170l254 394h152l255 -394h-129l-203 307l-202 -307h-127zM469 -141h150v-151h-150v151z" />
<glyph unicode="&#x1eae;" horiz-adv-x="1600" d="M99 0v99h78q91 0 119 80l451 1252h109l449 -1252q29 -80 120 -80h77v-99h-411v99h127l-129 363h-576l-131 -363h129v-99h-412zM491 1842h95q0 -92 58.5 -142t155.5 -50t156 50t59 142h95q0 -130 -87.5 -208.5t-222.5 -78.5t-222 78.5t-87 208.5zM549 562h504l-253 703z M707 1840l167 328h175l-235 -328h-107z" />
<glyph unicode="&#x1eaf;" horiz-adv-x="1144" d="M78 259q0 152 93 221t262 79l386 27v144q0 142 -56 203t-201 61q-91 0 -155.5 -13.5t-123.5 -43.5v-81h-117v135q173 104 391 104q205 0 291.5 -95t86.5 -272v-555q0 -49 17 -69t55 -20h61v-84h-212l-24 135q-125 -168 -416 -168q-164 0 -251 75.5t-87 216.5zM190 255 q0 -93 59 -140t194 -47q167 0 271.5 74.5t104.5 222.5v129l-388 -27q-137 -9 -189 -55.5t-52 -156.5zM259 1458h95q0 -93 58.5 -143t155.5 -50t156 50t59 143h95q0 -131 -87.5 -209.5t-222.5 -78.5t-222 78.5t-87 209.5zM475 1456l167 327h174l-234 -327h-107z" />
<glyph unicode="&#x1eb0;" horiz-adv-x="1600" d="M99 0v99h78q91 0 119 80l451 1252h109l449 -1252q29 -80 120 -80h77v-99h-411v99h127l-129 363h-576l-131 -363h129v-99h-412zM491 1842h95q0 -92 58.5 -142t155.5 -50t156 50t59 142h95q0 -130 -87.5 -208.5t-222.5 -78.5t-222 78.5t-87 208.5zM549 562h504l-253 703z M564 2168h175l166 -328h-107z" />
<glyph unicode="&#x1eb1;" horiz-adv-x="1144" d="M78 259q0 152 93 221t262 79l386 27v144q0 142 -56 203t-201 61q-91 0 -155.5 -13.5t-123.5 -43.5v-81h-117v135q173 104 391 104q205 0 291.5 -95t86.5 -272v-555q0 -49 17 -69t55 -20h61v-84h-212l-24 135q-125 -168 -416 -168q-164 0 -251 75.5t-87 216.5zM190 255 q0 -93 59 -140t194 -47q167 0 271.5 74.5t104.5 222.5v129l-388 -27q-137 -9 -189 -55.5t-52 -156.5zM239 1458h95q0 -93 58.5 -143t156.5 -50q97 0 156 50t59 143h95q0 -131 -87.5 -209.5t-222.5 -78.5t-222.5 78.5t-87.5 209.5zM312 1783h175l165 -327h-106z" />
<glyph unicode="&#x1eb2;" horiz-adv-x="1600" d="M99 0v99h78q91 0 119 80l451 1252h109l449 -1252q29 -80 120 -80h77v-99h-411v99h127l-129 363h-576l-131 -363h129v-99h-412zM494 1842h95q0 -92 58 -142t155 -50q98 0 156.5 50t58.5 142h95q0 -130 -87.5 -208.5t-222.5 -78.5t-221.5 78.5t-86.5 208.5zM549 562h504 l-253 703zM697 2073v90q50 20 122 20q84 0 125.5 -41.5t41.5 -117.5q0 -68 -36 -102.5t-121 -45.5v-53h-97v115q95 0 127 17.5t32 68.5q0 66 -89 66q-48 0 -105 -17z" />
<glyph unicode="&#x1eb3;" horiz-adv-x="1144" d="M78 259q0 152 93 221t262 79l386 27v144q0 142 -56 203t-201 61q-91 0 -155.5 -13.5t-123.5 -43.5v-81h-117v135q173 104 391 104q205 0 291.5 -95t86.5 -272v-555q0 -49 17 -69t55 -20h61v-84h-212l-24 135q-125 -168 -416 -168q-164 0 -251 75.5t-87 216.5zM190 255 q0 -93 59 -140t194 -47q167 0 271.5 74.5t104.5 222.5v129l-388 -27q-137 -9 -189 -55.5t-52 -156.5zM247 1458h95q0 -93 59 -143t156 -50t156 50t59 143h95q0 -131 -87.5 -209.5t-222.5 -78.5t-222.5 78.5t-87.5 209.5zM451 1688v91q51 19 121 19q85 0 127 -42t42 -117 q0 -68 -37 -102.5t-120 -46.5v-53h-97v116q95 0 127 17.5t32 68.5q0 66 -89 66q-48 0 -106 -17z" />
<glyph unicode="&#x1eb4;" horiz-adv-x="1600" d="M99 0v99h78q91 0 119 80l451 1252h109l449 -1252q29 -80 120 -80h77v-99h-411v99h127l-129 363h-576l-131 -363h129v-99h-412zM485 1935q0 118 42.5 164.5t126.5 46.5q40 0 78 -15.5t89 -45.5q46 -27 72.5 -37.5t53.5 -10.5q38 0 52 26.5t14 82.5h104 q0 -118 -43.5 -164.5t-126.5 -46.5q-42 0 -77.5 15t-88.5 45q-49 27 -73 37.5t-54 10.5q-37 0 -51 -26.5t-14 -81.5h-104zM494 1842h95q0 -92 58 -142t155 -50q98 0 156.5 50t58.5 142h95q0 -130 -87.5 -208.5t-222.5 -78.5t-221.5 78.5t-86.5 208.5zM549 562h504l-253 703z " />
<glyph unicode="&#x1eb5;" horiz-adv-x="1144" d="M78 259q0 152 93 221t262 79l386 27v144q0 142 -56 203t-201 61q-91 0 -155.5 -13.5t-123.5 -43.5v-81h-117v135q173 104 391 104q205 0 291.5 -95t86.5 -272v-555q0 -49 17 -69t55 -20h61v-84h-212l-24 135q-125 -168 -416 -168q-164 0 -251 75.5t-87 216.5zM190 255 q0 -93 59 -140t194 -47q167 0 271.5 74.5t104.5 222.5v129l-388 -27q-137 -9 -189 -55.5t-52 -156.5zM243 1551q0 117 43 163t128 46q40 0 77 -15t89 -44q46 -27 72.5 -38t52.5 -11q38 0 52.5 26.5t14.5 81.5h104q0 -117 -43.5 -163t-127.5 -46q-42 0 -77 14t-88 45 q-49 27 -74 38t-52 11q-38 0 -52 -26.5t-14 -81.5h-105zM252 1458h96q0 -93 58 -143t156 -50q97 0 156 50t59 143h95q0 -131 -87.5 -209.5t-222.5 -78.5t-222.5 78.5t-87.5 209.5z" />
<glyph unicode="&#x1eb6;" horiz-adv-x="1600" d="M99 0v99h78q91 0 119 80l451 1252h109l449 -1252q29 -80 120 -80h77v-99h-411v99h127l-129 363h-576l-131 -363h129v-99h-412zM491 1842h95q0 -92 58.5 -142t155.5 -50t156 50t59 142h95q0 -130 -87.5 -208.5t-222.5 -78.5t-222 78.5t-87 208.5zM549 562h504l-253 703z M726 -141h150v-151h-150v151z" />
<glyph unicode="&#x1eb7;" horiz-adv-x="1144" d="M78 259q0 152 93 221t262 79l386 27v144q0 142 -56 203t-201 61q-91 0 -155.5 -13.5t-123.5 -43.5v-81h-117v135q173 104 391 104q205 0 291.5 -95t86.5 -272v-555q0 -49 17 -69t55 -20h61v-84h-212l-24 135q-125 -168 -416 -168q-164 0 -251 75.5t-87 216.5zM190 255 q0 -93 59 -140t194 -47q167 0 271.5 74.5t104.5 222.5v129l-388 -27q-137 -9 -189 -55.5t-52 -156.5zM255 1458h95q0 -93 58.5 -143t155.5 -50t156 50t59 143h95q0 -131 -87.5 -209.5t-222.5 -78.5t-222 78.5t-87 209.5zM469 -141h150v-151h-150v151z" />
<glyph unicode="&#x1eb8;" horiz-adv-x="1200" d="M99 0v99h78q42 0 58.5 18t16.5 62v1073q0 44 -16.5 62t-58.5 18h-78v99h1003v-228h-106v53q0 42 -18 59t-62 17h-547v-564h467v-101h-467v-568h547q44 0 62 17t18 59v55h106v-230h-1003zM549 -141h150v-151h-150v151z" />
<glyph unicode="&#x1eb9;" horiz-adv-x="1180" d="M99 513q0 287 134 434.5t379 147.5q235 0 352 -136t117 -377v-100h-862q0 -215 114 -317.5t284 -102.5q112 0 183.5 16.5t126.5 52.5v74h117v-125q-95 -59 -194.5 -86t-232.5 -27q-146 0 -263 61t-186 183.5t-69 301.5zM219 582h756q0 209 -87.5 310.5t-275.5 101.5 q-192 0 -292.5 -111t-100.5 -301zM549 -141h150v-151h-150v151z" />
<glyph unicode="&#x1eba;" horiz-adv-x="1200" d="M99 0v99h78q42 0 58.5 18t16.5 62v1073q0 44 -16.5 62t-58.5 18h-78v99h1003v-228h-106v53q0 42 -18 59t-62 17h-547v-564h467v-101h-467v-568h547q44 0 62 17t18 59v55h106v-230h-1003zM469 1882v91q50 20 122 20q108 0 165.5 -42.5t57.5 -139.5q0 -139 -157 -172v-84 h-98v146q91 0 125.5 27.5t34.5 82.5q0 51 -33.5 70t-110.5 19q-49 0 -106 -18z" />
<glyph unicode="&#x1ebb;" horiz-adv-x="1180" d="M99 513q0 287 134 434.5t379 147.5q235 0 352 -136t117 -377v-100h-862q0 -215 114 -317.5t284 -102.5q112 0 183.5 16.5t126.5 52.5v74h117v-125q-95 -59 -194.5 -86t-232.5 -27q-146 0 -263 61t-186 183.5t-69 301.5zM219 582h756q0 209 -87.5 310.5t-275.5 101.5 q-192 0 -292.5 -111t-100.5 -301zM445 1497v91q51 19 121 20q108 0 165.5 -42t57.5 -139q0 -140 -156 -173v-84h-97v147q90 0 124 27.5t34 82.5q0 50 -32.5 69t-110.5 19q-49 0 -106 -18z" />
<glyph unicode="&#x1ebc;" horiz-adv-x="1200" d="M99 0v99h78q42 0 58.5 18t16.5 62v1073q0 44 -16.5 62t-58.5 18h-78v99h1003v-228h-106v53q0 42 -18 59t-62 17h-547v-564h467v-101h-467v-568h547q44 0 62 17t18 59v55h106v-230h-1003zM230 1555q0 232 203 232q55 0 103 -18.5t110 -54.5q57 -31 88.5 -44t67.5 -13 q53 0 77 26.5t24 103.5h104q0 -232 -205 -232q-50 0 -93.5 18t-100.5 50q-55 32 -94 47.5t-81 15.5q-53 0 -76 -27t-23 -104h-104z" />
<glyph unicode="&#x1ebd;" horiz-adv-x="1180" d="M99 513q0 287 134 434.5t379 147.5q235 0 352 -136t117 -377v-100h-862q0 -215 114 -317.5t284 -102.5q112 0 183.5 16.5t126.5 52.5v74h117v-125q-95 -59 -194.5 -86t-232.5 -27q-146 0 -263 61t-186 183.5t-69 301.5zM219 582h756q0 209 -87.5 310.5t-275.5 101.5 q-192 0 -292.5 -111t-100.5 -301zM228 1170q0 232 203 232q55 0 103 -18.5t110 -54.5q57 -31 88.5 -44t67.5 -13q53 0 77 26.5t24 103.5h103q0 -232 -204 -232q-50 0 -93.5 17.5t-100.5 51.5q-55 31 -94 46t-81 15q-53 0 -76 -26.5t-23 -103.5h-104z" />
<glyph unicode="&#x1ebe;" horiz-adv-x="1200" d="M99 0v99h78q42 0 58.5 18t16.5 62v1073q0 44 -16.5 62t-58.5 18h-78v99h1003v-228h-106v53q0 42 -18 59t-62 17h-547v-564h467v-101h-467v-568h547q44 0 62 17t18 59v55h106v-230h-1003zM345 1555l221 283h153l221 -283h-128l-170 218l-169 -218h-128zM840 1787l140 254 h175l-208 -254h-107z" />
<glyph unicode="&#x1ebf;" horiz-adv-x="1180" d="M99 513q0 287 134 434.5t379 147.5q235 0 352 -136t117 -377v-100h-862q0 -215 114 -317.5t284 -102.5q112 0 183.5 16.5t126.5 52.5v74h117v-125q-95 -59 -194.5 -86t-232.5 -27q-146 0 -263 61t-186 183.5t-69 301.5zM219 582h756q0 209 -87.5 310.5t-275.5 101.5 q-192 0 -292.5 -111t-100.5 -301zM325 1170l221 284h153l221 -284h-128l-171 219l-167 -219h-129zM821 1402l139 255h175l-208 -255h-106z" />
<glyph unicode="&#x1ec0;" horiz-adv-x="1200" d="M99 0v99h78q42 0 58.5 18t16.5 62v1073q0 44 -16.5 62t-58.5 18h-78v99h1003v-228h-106v53q0 42 -18 59t-62 17h-547v-564h467v-101h-467v-568h547q44 0 62 17t18 59v55h106v-230h-1003zM148 2041h175l139 -254h-106zM363 1555l221 283h153l221 -283h-129l-168 218 l-170 -218h-128z" />
<glyph unicode="&#x1ec1;" horiz-adv-x="1178" d="M89 1657h175l139 -255h-107zM97 513q0 287 134 434.5t379 147.5q235 0 352 -136t117 -377v-100h-862q0 -215 114 -317.5t284 -102.5q112 0 183 16.5t126 52.5v74h118v-125q-95 -59 -195 -86t-232 -27q-146 0 -263.5 61t-186 183.5t-68.5 301.5zM217 582h756 q0 209 -87.5 310.5t-275.5 101.5q-192 0 -292.5 -111t-100.5 -301zM303 1170l221 284h153l220 -284h-127l-168 219l-171 -219h-128z" />
<glyph unicode="&#x1ec2;" horiz-adv-x="1200" d="M99 0v99h78q42 0 58.5 18t16.5 62v1073q0 44 -16.5 62t-58.5 18h-78v99h1003v-228h-106v53q0 42 -18 59t-62 17h-547v-564h467v-101h-467v-568h547q44 0 62 17t18 59v55h106v-230h-1003zM310 1555l221 283h153l221 -283h-128l-171 218l-168 -218h-128zM726 2057v91 q51 20 121 20q84 0 126 -42.5t42 -116.5q0 -68 -36.5 -102.5t-119.5 -46.5v-53h-98v115q95 0 127 17.5t32 69.5q0 66 -88 66q-49 0 -106 -18z" />
<glyph unicode="&#x1ec3;" horiz-adv-x="1180" d="M99 513q0 287 134 434.5t379 147.5q235 0 352 -136t117 -377v-100h-862q0 -215 114 -317.5t284 -102.5q112 0 183.5 16.5t126.5 52.5v74h117v-125q-95 -59 -194.5 -86t-232.5 -27q-146 0 -263 61t-186 183.5t-69 301.5zM219 582h756q0 209 -87.5 310.5t-275.5 101.5 q-192 0 -292.5 -111t-100.5 -301zM321 1170l221 284h152l222 -284h-129l-170 219l-168 -219h-128zM737 1672v91q50 19 122 20q84 0 125.5 -42t41.5 -118q0 -68 -36 -102.5t-121 -45.5v-53h-97v115q95 0 127 17.5t32 68.5q0 66 -89 67q-48 0 -105 -18z" />
<glyph unicode="&#x1ec4;" horiz-adv-x="1200" d="M99 0v99h78q42 0 58.5 18t16.5 62v1073q0 44 -16.5 62t-58.5 18h-78v99h1003v-228h-106v53q0 42 -18 59t-62 17h-547v-564h467v-101h-467v-568h547q44 0 62 17t18 59v55h106v-230h-1003zM340 1887q0 116 43.5 163t127.5 47q40 0 77.5 -15.5t88.5 -44.5q47 -27 73.5 -38 t51.5 -11q38 0 52.5 26.5t14.5 82.5h104q0 -117 -43 -163.5t-128 -46.5q-42 0 -77 14.5t-88 44.5q-48 27 -73.5 38t-52.5 11q-38 0 -52 -26.5t-14 -81.5h-105zM359 1555l221 283h152l222 -283h-129l-171 218l-167 -218h-128z" />
<glyph unicode="&#x1ec5;" horiz-adv-x="1180" d="M99 513q0 287 134 434.5t379 147.5q235 0 352 -136t117 -377v-100h-862q0 -215 114 -317.5t284 -102.5q112 0 183.5 16.5t126.5 52.5v74h117v-125q-95 -59 -194.5 -86t-232.5 -27q-146 0 -263 61t-186 183.5t-69 301.5zM219 582h756q0 209 -87.5 310.5t-275.5 101.5 q-192 0 -292.5 -111t-100.5 -301zM312 1502q0 117 43.5 163.5t126.5 46.5q40 0 77.5 -16t88.5 -44q46 -27 72.5 -37.5t53.5 -10.5q38 0 52 26.5t14 81.5h104q0 -118 -42.5 -164t-127.5 -46q-42 0 -77.5 14t-88.5 46q-49 27 -74 37.5t-52 10.5q-38 0 -52 -26.5t-14 -81.5 h-104zM329 1170l222 284h152l221 -284h-128l-170 219l-168 -219h-129z" />
<glyph unicode="&#x1ec6;" horiz-adv-x="1200" d="M99 0v99h78q42 0 58.5 18t16.5 62v1073q0 44 -16.5 62t-58.5 18h-78v99h1003v-228h-106v53q0 42 -18 59t-62 17h-547v-564h467v-101h-467v-568h547q44 0 62 17t18 59v55h106v-230h-1003zM294 1555l255 393h152l255 -393h-129l-203 307l-202 -307h-128zM549 -141h150v-151 h-150v151z" />
<glyph unicode="&#x1ec7;" horiz-adv-x="1180" d="M99 513q0 287 134 434.5t379 147.5q235 0 352 -136t117 -377v-100h-862q0 -215 114 -317.5t284 -102.5q112 0 183.5 16.5t126.5 52.5v74h117v-125q-95 -59 -194.5 -86t-232.5 -27q-146 0 -263 61t-186 183.5t-69 301.5zM219 582h756q0 209 -87.5 310.5t-275.5 101.5 q-192 0 -292.5 -111t-100.5 -301zM279 1170l255 394h152l254 -394h-128l-204 307l-201 -307h-128zM549 -141h150v-151h-150v151z" />
<glyph unicode="&#x1ec8;" horiz-adv-x="621" d="M99 0v99h78q42 0 58.5 18t16.5 62v1073q0 44 -16.5 62t-58.5 18h-78v99h423v-99h-77q-42 0 -59 -18t-17 -62v-1073q0 -44 17 -62t59 -18h77v-99h-423zM164 1882v91q51 20 121 20q108 0 166 -42.5t58 -139.5q0 -139 -157 -172v-84h-97v146q91 0 125 27.5t34 82.5 q0 51 -33 70t-111 19q-49 0 -106 -18z" />
<glyph unicode="&#x1ec9;" horiz-adv-x="576" d="M78 0v99h76q43 0 59.5 18t16.5 62v703q0 45 -16.5 62.5t-59.5 17.5h-76v100h270v-883q0 -44 16 -62t58 -18h78v-99h-422zM106 1497v91q51 19 122 20q108 0 165.5 -42t57.5 -139q0 -140 -157 -173v-84h-97v147q90 0 124.5 27.5t34.5 82.5q0 50 -33.5 69t-109.5 19 q-49 0 -107 -18z" />
<glyph unicode="&#x1eca;" horiz-adv-x="621" d="M99 0v99h78q42 0 58.5 18t16.5 62v1073q0 44 -16.5 62t-58.5 18h-78v99h423v-99h-77q-42 0 -59 -18t-17 -62v-1073q0 -44 17 -62t59 -18h77v-99h-423zM234 -141h150v-151h-150v151z" />
<glyph unicode="&#x1ecb;" horiz-adv-x="576" d="M78 0v99h76q43 0 59.5 18t16.5 62v703q0 45 -16.5 62.5t-59.5 17.5h-76v100h270v-883q0 -44 16 -62t58 -18h78v-99h-422zM213 -141h150v-151h-150v151zM219 1247v140h140v-140h-140z" />
<glyph unicode="&#x1ecc;" horiz-adv-x="1441" d="M99 710q0 378 150 566t472 188q323 0 472 -187.5t149 -566.5q0 -374 -152 -558.5t-469 -184.5q-316 0 -469 184.5t-153 558.5zM213 710q0 -341 128 -491.5t380 -150.5t380.5 150.5t128.5 491.5q0 347 -127.5 500t-381.5 153t-381 -153t-127 -500zM646 -141h150v-151h-150 v151z" />
<glyph unicode="&#x1ecd;" horiz-adv-x="1233" d="M99 528q0 264 126.5 415.5t391.5 151.5t391.5 -151.5t126.5 -415.5q0 -261 -125 -411t-393 -150q-267 0 -392.5 150.5t-125.5 410.5zM213 528q0 -230 102.5 -345t301.5 -115t302 115t103 345t-103 348t-302 118t-301.5 -118t-102.5 -348zM542 -141h150v-151h-150v151z " />
<glyph unicode="&#x1ece;" horiz-adv-x="1441" d="M99 710q0 378 150 566t472 188q323 0 472 -187.5t149 -566.5q0 -374 -152 -558.5t-469 -184.5q-316 0 -469 184.5t-153 558.5zM213 710q0 -341 128 -491.5t380 -150.5t380.5 150.5t128.5 491.5q0 347 -127.5 500t-381.5 153t-381 -153t-127 -500zM591 1882v91 q51 20 121 20q108 0 165.5 -42.5t57.5 -139.5q0 -139 -156 -172v-84h-98v146q91 0 125 27.5t34 82.5q0 51 -33 70t-110 19q-49 0 -106 -18z" />
<glyph unicode="&#x1ecf;" horiz-adv-x="1233" d="M99 528q0 264 126.5 415.5t391.5 151.5t391.5 -151.5t126.5 -415.5q0 -261 -125 -411t-393 -150q-267 0 -392.5 150.5t-125.5 410.5zM213 528q0 -230 102.5 -345t301.5 -115t302 115t103 345t-103 348t-302 118t-301.5 -118t-102.5 -348zM471 1497v91q51 19 122 20 q108 0 165.5 -42t57.5 -139q0 -140 -157 -173v-84h-97v147q90 0 124.5 27.5t34.5 82.5q0 50 -33.5 69t-109.5 19q-49 0 -107 -18z" />
<glyph unicode="&#x1ed0;" horiz-adv-x="1441" d="M99 710q0 378 150 566t472 188q323 0 472 -187.5t149 -566.5q0 -374 -152 -558.5t-469 -184.5q-316 0 -469 184.5t-153 558.5zM213 710q0 -341 128 -491.5t380 -150.5t380.5 150.5t128.5 491.5q0 347 -127.5 500t-381.5 153t-381 -153t-127 -500zM424 1555l222 283h152 l222 -283h-129l-170 218l-168 -218h-129zM920 1787l139 254h175l-208 -254h-106z" />
<glyph unicode="&#x1ed1;" horiz-adv-x="1233" d="M99 528q0 264 126.5 415.5t391.5 151.5t391.5 -151.5t126.5 -415.5q0 -261 -125 -411t-393 -150q-267 0 -392.5 150.5t-125.5 410.5zM213 528q0 -230 102.5 -345t301.5 -115t302 115t103 345t-103 348t-302 118t-301.5 -118t-102.5 -348zM321 1170l221 284h152l222 -284 h-129l-170 219l-168 -219h-128zM816 1402l140 255h175l-209 -255h-106z" />
<glyph unicode="&#x1ed2;" horiz-adv-x="1441" d="M99 710q0 378 150 566t472 188q323 0 472 -187.5t149 -566.5q0 -374 -152 -558.5t-469 -184.5q-316 0 -469 184.5t-153 558.5zM208 2041h174l140 -254h-106zM213 710q0 -341 128 -491.5t380 -150.5t380.5 150.5t128.5 491.5q0 347 -127.5 500t-381.5 153t-381 -153 t-127 -500zM422 1555l222 283h152l221 -283h-128l-168 218l-170 -218h-129z" />
<glyph unicode="&#x1ed3;" horiz-adv-x="1233" d="M99 528q0 264 126.5 415.5t391.5 151.5t391.5 -151.5t126.5 -415.5q0 -261 -125 -411t-393 -150q-267 0 -392.5 150.5t-125.5 410.5zM104 1657h175l139 -255h-106zM213 528q0 -230 102.5 -345t301.5 -115t302 115t103 345t-103 348t-302 118t-301.5 -118t-102.5 -348z M319 1170l221 284h152l222 -284h-129l-168 219l-170 -219h-128z" />
<glyph unicode="&#x1ed4;" horiz-adv-x="1441" d="M99 710q0 378 150 566t472 188q323 0 472 -187.5t149 -566.5q0 -374 -152 -558.5t-469 -184.5q-316 0 -469 184.5t-153 558.5zM213 710q0 -341 128 -491.5t380 -150.5t380.5 150.5t128.5 491.5q0 347 -127.5 500t-381.5 153t-381 -153t-127 -500zM427 1555l221 283h152 l222 -283h-129l-169 218l-169 -218h-128zM842 2057v91q51 20 122 20q85 0 127 -42.5t42 -116.5q0 -68 -37 -102.5t-121 -46.5v-53h-97v115q95 0 127.5 17.5t32.5 69.5q0 66 -89 66q-48 0 -107 -18z" />
<glyph unicode="&#x1ed5;" horiz-adv-x="1233" d="M99 528q0 264 126.5 415.5t391.5 151.5t391.5 -151.5t126.5 -415.5q0 -261 -125 -411t-393 -150q-267 0 -392.5 150.5t-125.5 410.5zM213 528q0 -230 102.5 -345t301.5 -115t302 115t103 345t-103 348t-302 118t-301.5 -118t-102.5 -348zM329 1170l222 284h152l221 -284 h-128l-170 219l-168 -219h-129zM745 1672v91q51 19 122 20q84 0 126 -42t42 -118q0 -68 -36.5 -102.5t-120.5 -45.5v-53h-97v115q95 0 127 17.5t32 68.5q0 66 -89 67q-49 0 -106 -18z" />
<glyph unicode="&#x1ed6;" horiz-adv-x="1441" d="M99 710q0 378 150 566t472 188q323 0 472 -187.5t149 -566.5q0 -374 -152 -558.5t-469 -184.5q-316 0 -469 184.5t-153 558.5zM213 710q0 -341 128 -491.5t380 -150.5t380.5 150.5t128.5 491.5q0 347 -127.5 500t-381.5 153t-381 -153t-127 -500zM407 1935 q0 118 43.5 164.5t127.5 46.5q40 0 77 -15.5t88 -45.5q46 -27 72.5 -37.5t53.5 -10.5q38 0 52 26.5t14 82.5h105q0 -118 -43 -164.5t-128 -46.5q-42 0 -77.5 15t-88.5 45q-49 27 -74 37.5t-51 10.5q-38 0 -52.5 -26.5t-14.5 -81.5h-104zM416 1842h95q0 -92 59 -142t156 -50 t155.5 50t58.5 142h95q0 -130 -87 -208.5t-222 -78.5t-222.5 78.5t-87.5 208.5z" />
<glyph unicode="&#x1ed7;" horiz-adv-x="1233" d="M99 528q0 264 126.5 415.5t391.5 151.5t391.5 -151.5t126.5 -415.5q0 -261 -125 -411t-393 -150q-267 0 -392.5 150.5t-125.5 410.5zM213 528q0 -230 102.5 -345t301.5 -115t302 115t103 345t-103 348t-302 118t-301.5 -118t-102.5 -348zM301 1551q0 117 43 163t127 46 q40 0 77.5 -15t88.5 -44q47 -27 73.5 -38t53.5 -11q37 0 51 26.5t14 81.5h104q0 -117 -43 -163t-126 -46q-43 0 -78.5 14t-88.5 45q-48 27 -72.5 38t-53.5 11q-38 0 -52 -26.5t-14 -81.5h-104zM310 1458h95q0 -93 58.5 -143t155.5 -50t156 50t59 143h95q0 -131 -87.5 -209.5 t-222.5 -78.5q-134 0 -221.5 78.5t-87.5 209.5z" />
<glyph unicode="&#x1ed8;" horiz-adv-x="1441" d="M99 710q0 378 150 566t472 188q323 0 472 -187.5t149 -566.5q0 -374 -152 -558.5t-469 -184.5q-316 0 -469 184.5t-153 558.5zM213 710q0 -341 128 -491.5t380 -150.5t380.5 150.5t128.5 491.5q0 347 -127.5 500t-381.5 153t-381 -153t-127 -500zM391 1555l255 393h152 l255 -393h-129l-203 307l-202 -307h-128zM646 -141h150v-151h-150v151z" />
</font>
</defs>
</svg>
